o collision_band_hull_04
v 0.031309098 -0.009877984 0.244318714
v 0.032607131 -0.008161196 0.243296139
v 0.033875740 -0.008963282 0.244086266
v -0.026567643 0.044170984 0.193105204
v 0.000621868 0.064505174 0.219911746
v -0.002943717 0.062919591 0.218321327
v 0.000182433 0.064098051 0.217511932
v -0.036420196 0.030783145 0.197392809
v -0.033376954 0.037082773 0.197679002
v -0.021694738 0.049658308 0.199052158
v -0.016742349 0.052573162 0.202052189
v -0.021518433 0.050653976 0.204134938
v -0.014224776 0.057855919 0.215301067
v -0.018681775 0.053669737 0.210069595
v -0.014734045 0.055452653 0.208658964
v -0.025546270 0.049941401 0.237394503
v -0.025831846 0.047226340 0.238393161
v -0.028289828 0.047870176 0.237459176
v -0.016801851 0.057312142 0.236466868
v -0.015049319 0.057940058 0.236658513
v -0.014422756 0.056320314 0.237455269
v -0.016515459 0.059123744 0.234135779
v -0.018384625 0.057609063 0.235429350
v -0.020337449 0.056958738 0.233048351
v -0.028540815 0.049074616 0.234747096
v -0.026530580 0.050946743 0.236096549
v -0.022930522 0.046802071 0.238921950
v -0.019823918 0.045375688 0.239049165
v -0.023720034 0.043340234 0.239251610
v -0.040567265 0.024010087 0.228387915
v -0.039118223 0.027764216 0.222145387
v -0.038844776 0.028580688 0.229956837
v -0.027573417 0.013374251 0.243199212
v -0.030051952 0.019787279 0.243973019
v -0.027569466 0.017300565 0.242347292
v -0.030439296 0.013869366 0.244380432
v -0.028298358 0.009889513 0.244422085
v -0.030203771 0.009103905 0.244963643
v -0.027689329 0.000661602 0.246172713
v -0.024700546 -0.005677279 0.246683470
v -0.027295084 -0.003613594 0.246103627
v -0.029394697 0.005504240 0.245395314
v -0.027545978 0.005287550 0.245325764
v -0.029453962 -0.000166620 0.245641785
v -0.029603488 -0.002173795 0.245745315
v -0.027625497 -0.005927493 0.245957021
v -0.030621199 0.002652102 0.245462248
v -0.031289614 0.006393884 0.245182645
v -0.032379445 0.017195058 0.244265908
v -0.025521579 -0.007074234 0.246403169
v -0.031669520 0.001686594 0.245434858
v -0.032551891 0.020316206 0.244013901
v -0.032897399 0.024627839 0.243755635
v -0.033164204 0.012459585 0.244472743
v -0.032468823 0.000094724 0.244956747
v -0.033692374 0.008604974 0.244515263
v -0.034672254 0.019051142 0.243762371
v -0.024738760 -0.009723935 0.246324862
v -0.034974645 0.010885253 0.243883352
v -0.041021893 0.022349471 0.232957559
v -0.041536470 0.020507030 0.227994207
v -0.027013822 -0.009203885 0.245258279
v -0.035297387 0.008106295 0.244345083
v -0.035275108 0.023231497 0.243204865
v -0.032928429 0.005213204 0.244719004
v -0.034266311 0.004100390 0.244669094
v -0.036317656 0.011484992 0.243776578
v -0.035754455 0.014073408 0.243602466
v -0.024591399 -0.012652092 0.244557072
v -0.031438896 -0.004438464 0.244699081
v -0.031706417 -0.002985560 0.245050893
v -0.029653007 -0.005915081 0.245066211
v -0.034239330 -0.000094054 0.244537830
v -0.029004564 -0.008231815 0.243993021
v -0.031316390 -0.005805026 0.243807196
v -0.027300446 -0.010606798 0.244026052
v -0.035698698 0.004169703 0.244493674
v -0.034739867 0.002398094 0.244607085
v -0.033126158 -0.002986415 0.243940113
v -0.036922637 0.020379855 0.242658414
v -0.035660182 0.028166113 0.242236573
v -0.037455187 0.014887274 0.243215721
v -0.024376360 -0.008153326 0.246758974
v -0.036509853 0.002769996 0.243845970
v -0.038451942 0.024292691 0.241623190
v -0.038282595 0.027631633 0.240746561
v -0.037577311 0.027483375 0.241419518
v -0.027036429 -0.011230474 0.241920352
v -0.028452484 -0.009431954 0.242889336
v -0.030676801 -0.007816769 0.241249771
v -0.023848232 -0.014235475 0.240235099
v -0.033732673 -0.003912031 0.242068833
v -0.037143205 0.010297049 0.243586092
v -0.036660375 0.006514070 0.244185761
v -0.038155821 0.009159684 0.243126026
v -0.039161948 0.025955367 0.239996701
v -0.039708428 0.021375851 0.239998594
v -0.038893770 0.018361181 0.241978271
v -0.038820804 0.012840833 0.242560239
v -0.027855208 -0.010865624 0.236571997
v -0.039512321 0.025982856 0.237403624
v -0.040183162 0.015634735 0.240455794
v -0.035882582 -0.000645109 0.242988936
v -0.038460254 0.003921415 0.241661908
v -0.038336637 0.006420658 0.242782592
v -0.031120622 -0.007367963 0.236889979
v -0.040963945 0.019151866 0.237242802
v -0.039633680 0.007242083 0.240216796
v -0.039583015 0.010571746 0.241219113
v -0.040280255 0.009797394 0.239408339
v -0.023522333 -0.014717790 0.233374540
v -0.020626581 -0.016754411 0.237026303
v -0.033718582 -0.004265587 0.238578279
v -0.036611253 -0.000508677 0.239051702
v -0.041115497 0.013350649 0.237258068
v -0.029861121 -0.008785742 0.231352190
v -0.025754754 -0.012817689 0.227758980
v -0.037068637 0.001802586 0.242523988
v -0.037505646 0.001474501 0.240956238
v -0.040980344 0.009348015 0.236519072
v -0.041873797 0.017301284 0.231573278
v -0.039510305 0.004307492 0.236454921
v -0.041705117 0.018152556 0.221810183
v -0.033134825 -0.005289963 0.234416069
v -0.031652135 -0.006499610 0.227562629
v -0.019925723 -0.017234988 0.230645664
v -0.021515184 -0.016287633 0.225288821
v -0.035409679 -0.002407392 0.235694987
v -0.037431832 0.000377371 0.232965619
v -0.035875263 -0.001782117 0.232479597
v -0.034362682 -0.003565071 0.231798644
v -0.041521432 0.013447290 0.215294747
v -0.040993682 0.018672738 0.208576267
v -0.039059649 0.003448446 0.231115717
v -0.034596864 -0.003068176 0.226205415
v -0.037390989 0.001265851 0.224006725
v -0.040134392 0.005893500 0.226149005
v -0.037389590 0.003414046 0.212355637
v -0.040144928 0.008735064 0.215592793
v -0.024741978 0.040405079 0.239064312
v -0.021701645 0.042323415 0.238231065
v -0.022603143 0.040452162 0.237582554
v -0.041587921 0.009945176 0.224652830
v -0.041901818 0.012735304 0.229270604
v -0.041306358 0.008594955 0.231767757
v 0.007365431 0.053399962 0.233412969
v 0.010674159 0.056033844 0.235188269
v 0.010028226 0.053352907 0.233154188
v 0.025781496 0.056607350 0.237204512
v 0.021772398 0.055900488 0.236422451
v 0.018577181 0.058610705 0.236817672
v 0.026820288 0.054001143 0.236523896
v 0.016146077 0.056467104 0.235721409
v 0.022149917 0.060138385 0.236678921
v 0.013704733 0.061862337 0.236701866
v 0.019433676 0.054139519 0.234918252
v 0.013710655 0.053496074 0.233400297
v 0.024143246 0.053735371 0.235770013
v 0.007050493 0.057486126 0.236441090
v 0.011307591 0.059134185 0.236775977
v 0.010191579 0.064472874 0.236209631
v 0.013880381 0.063885244 0.235986907
v 0.028160400 0.058588248 0.236478786
v 0.030753874 0.055501219 0.236935379
v 0.004929209 0.058996626 0.237265457
v 0.001628798 0.056732317 0.237042140
v -0.002834178 0.058058792 0.238019785
v 0.010048384 0.062872192 0.207462975
v 0.011525241 0.063274914 0.208309900
v 0.009835888 0.063803323 0.211484582
v -0.009030411 0.054193153 0.238149131
v -0.015260387 0.052127750 0.238379124
v -0.010037360 0.055958819 0.238140178
v 0.008890439 0.063157115 0.236772227
v 0.005360550 0.061850824 0.237462487
v -0.001854595 0.052904598 0.235765406
v -0.006473447 0.048832153 0.234481563
v -0.008112724 0.050995416 0.236611847
v 0.006686548 0.065171094 0.235871120
v 0.003845564 0.065502025 0.234687728
v 0.008933267 0.065919678 0.234141098
v 0.006963369 0.055598836 0.235251100
v 0.030212423 0.053660675 0.236831807
v 0.032915995 0.051542974 0.235856947
v 0.030378316 0.051436336 0.235468221
v 0.012185378 0.064857631 0.235038907
v -0.017607720 -0.018599917 0.233586754
v 0.003835220 0.055793963 0.236058901
v 0.006857975 0.064157793 0.236815092
v 0.013581011 0.066197126 0.233887314
v 0.003474657 0.053207270 0.234153889
v 0.003831385 0.064553028 0.236731918
v -0.005552013 0.054140078 0.237476574
v -0.030609953 0.034453262 0.240559568
v -0.029860729 0.036105325 0.239926308
v -0.027872573 0.035620940 0.239398616
v -0.025203134 0.036377079 0.237684486
v -0.026303300 0.038035496 0.238827515
v 0.041091387 -0.014005206 0.232567487
v 0.044225523 -0.010816453 0.232076168
v 0.043131244 -0.012227449 0.228894650
v 0.003374163 0.065396835 0.220875555
v 0.000671958 0.065171064 0.223978747
v -0.019150370 0.048503654 0.238877646
v -0.020464488 0.050813103 0.238071894
v -0.026274750 0.050296995 0.221058458
v -0.029079767 0.046249667 0.213727171
v -0.025222892 0.049703570 0.212248170
v -0.026300766 0.051582090 0.232506640
v -0.000802896 0.061141678 0.237741179
v -0.017593250 0.056946179 0.220380480
v -0.020668876 0.053888760 0.215115826
v -0.017860287 0.055650010 0.215449143
v 0.032140541 0.041521634 0.229544930
v 0.030147598 0.042711092 0.229000921
v 0.032912158 0.042853121 0.230749119
v -0.011112237 -0.015070448 0.246518613
v -0.009365468 -0.014220714 0.244950788
v -0.009515686 -0.016135230 0.244978529
v -0.010054182 -0.010434212 0.245594105
v -0.008365174 -0.012232539 0.244326750
v -0.010838485 -0.012421743 0.246356781
v -0.008254351 -0.015602648 0.244187645
v -0.007224778 -0.015012591 0.243150219
v -0.007713193 -0.016559980 0.242816622
v -0.023300323 0.054625229 0.233621004
v -0.024909507 0.052923396 0.235556477
v -0.008411634 -0.018220584 0.243930724
v -0.006077056 -0.017889689 0.242973890
v -0.007344685 -0.019468468 0.243445995
v -0.036022222 0.033860326 0.207268228
v -0.008034265 -0.013922559 0.243653190
v -0.009762096 -0.017993221 0.245080189
v -0.011208782 -0.017339215 0.246245854
v -0.010100179 -0.016966208 0.245439936
v 0.000019326 0.062555239 0.210416762
v -0.000906491 0.061467047 0.207398633
v 0.002456844 0.062781037 0.209461045
v -0.013243092 -0.009978560 0.246736851
v -0.013888567 -0.012623607 0.247390609
v -0.007181735 -0.011246912 0.242798688
v -0.006532016 -0.011763256 0.241184200
v -0.007194411 -0.012444885 0.242556715
v -0.005971108 -0.015204355 0.241689079
v -0.006944641 -0.013700420 0.242606258
v -0.016043559 0.051819045 0.193268949
v -0.017960388 0.053702629 0.237632962
v -0.019177153 0.000545548 0.242270238
v -0.019605132 0.003432807 0.240067684
v -0.016936694 0.001197258 0.239938556
v 0.027554096 0.050027162 0.233948137
v 0.026642119 0.052325683 0.235575525
v -0.013767048 -0.015415370 0.247343105
v -0.007718448 -0.013046068 0.243177943
v -0.022422500 0.006076003 0.240978740
v -0.020294961 0.007513107 0.238357130
v -0.008093017 -0.010006337 0.243803484
v -0.006524885 -0.009822147 0.241461942
v -0.008716273 -0.016920768 0.244045889
v -0.017895916 -0.009613990 0.247346163
v -0.006412910 -0.013119699 0.241589688
v -0.016543264 -0.015553785 0.247137108
v -0.016999099 -0.012923793 0.247490593
v -0.030223824 -0.003300889 0.245349443
v -0.005132272 -0.012949197 0.240408781
v -0.003275920 -0.014163202 0.241409298
v -0.011338652 -0.008890470 0.245829898
v -0.009460179 -0.017387815 0.244493637
v 0.015541130 0.064417608 0.211811808
v 0.022115723 0.064126299 0.214550982
v 0.019477399 0.066066573 0.221966370
v 0.035848586 0.046372670 0.234272659
v 0.035932316 0.049740166 0.235578197
v 0.038921957 0.046191913 0.235821542
v -0.015679425 0.005603228 0.236673532
v -0.009554078 -0.008914655 0.244687831
v -0.009838744 -0.019235493 0.244970447
v -0.019302515 -0.013259013 0.247091057
v 0.025920930 0.063977662 0.220711142
v -0.022648450 0.039134338 0.236311404
v -0.023553293 0.037339001 0.236284315
v -0.024161505 0.038730734 0.237869071
v -0.036350909 0.017023813 0.243036410
v -0.016394021 -0.007783862 0.246705531
v 0.008779696 0.065085515 0.218227883
v 0.005636988 0.063946111 0.213347855
v 0.023316590 0.051883334 0.234351433
v 0.033428098 0.048956384 0.234516644
v -0.026479018 0.044189773 0.239027463
v -0.012265931 0.050737255 0.237868721
v 0.015522358 0.066378454 0.224112233
v 0.013407385 0.065654189 0.219637738
v 0.024558187 0.065334372 0.226524433
v 0.021124882 0.066143886 0.227887892
v 0.016264914 0.066787301 0.228674433
v -0.027111272 0.041462369 0.238962640
v -0.028021733 0.038985956 0.239176791
v 0.010679660 0.066018914 0.221657219
v 0.012538047 0.066614837 0.224725929
v 0.007303174 0.066104676 0.223787573
v 0.023606931 0.065660764 0.229769592
v -0.016063375 0.047119307 0.237641152
v -0.016527164 0.048708494 0.238711659
v -0.031333764 0.039862174 0.238845359
v -0.029895745 0.039849278 0.239034615
v -0.031478569 0.038721118 0.239350297
v 0.002654639 0.061388361 0.203053665
v 0.005890467 0.063140832 0.208587230
v 0.042891505 0.045735634 0.236898296
v 0.040804447 0.049391421 0.236212035
v -0.021874466 0.036915610 0.234176895
v 0.004908952 0.064893678 0.218056030
v 0.001106678 0.063584958 0.214532621
v -0.038961643 0.008149908 0.203966445
v -0.040402020 0.011122985 0.207912423
v -0.028722311 0.033045450 0.240465228
v -0.012464937 0.048530907 0.236564268
v -0.011540330 0.046185752 0.234374199
v -0.014973072 0.045916231 0.235862223
v 0.041436046 0.044014516 0.236412684
v 0.007427080 0.062152690 0.205052895
v 0.036958933 0.051482363 0.236120191
v 0.038182049 0.049453034 0.236289415
v -0.021646094 0.040674462 0.236721993
v -0.018295124 0.044007512 0.236614457
v 0.026644142 0.064347245 0.230114385
v -0.028637346 0.037239788 0.239620297
v 0.052167337 0.041425164 0.218833748
v 0.052490545 0.042690162 0.225515982
v 0.049447314 0.046804853 0.221994586
v 0.010717960 0.066893912 0.227985169
v 0.002105445 0.064843118 0.218131782
v 0.020902683 0.065996881 0.230928099
v 0.023871096 0.065140070 0.231714971
v -0.031501854 0.036576298 0.239849713
v 0.053008383 0.002069485 0.237986053
v 0.055287648 0.004852005 0.236454760
v 0.054108401 0.001782617 0.234988535
v 0.055827262 0.004424573 0.232243184
v 0.056261647 0.008776856 0.237608578
v 0.053512692 0.005068800 0.239506093
v 0.053804729 0.008646149 0.240268810
v 0.054717836 0.037672923 0.221941933
v -0.003974127 -0.016040119 0.242780652
v 0.050572423 0.046021301 0.229589819
v 0.047125721 0.050358649 0.230272406
v -0.005457178 -0.020182519 0.243777869
v -0.007909476 -0.020789065 0.243568484
v 0.018344252 0.062985552 0.235833588
v 0.015323810 0.064718073 0.234966151
v 0.018336494 0.064568280 0.234342344
v 0.026795055 0.061486047 0.235018122
v 0.025193893 0.063528305 0.233460173
v 0.028305312 0.062194628 0.233595894
v 0.025826418 0.060408473 0.236013406
v -0.001795521 -0.015338914 0.242910254
v -0.000311543 -0.016260537 0.244330117
v -0.002393911 -0.016579096 0.243898858
v 0.000143767 -0.013675407 0.242157577
v 0.002110290 -0.015685949 0.244047342
v 0.000292114 -0.015460957 0.243727586
v 0.018268737 0.050989352 0.232358975
v 0.021530922 0.063579691 0.234655993
v 0.021338436 0.065067093 0.233251940
v -0.005888345 -0.019229856 0.243630590
v -0.021247148 0.040140089 0.234656541
v -0.000603964 -0.015380202 0.242975691
v -0.003749253 -0.017732493 0.244201068
v -0.004970322 -0.018977675 0.243987151
v 0.037491843 -0.017697536 0.234607779
v 0.038533342 -0.016311568 0.231801335
v 0.037043010 -0.018661363 0.232039300
v 0.017683299 0.066077756 0.232482987
v 0.048814401 0.047082867 0.233305325
v 0.049441019 0.045159186 0.234498427
v 0.047497789 0.046275453 0.235044133
v 0.029316524 0.060531204 0.235051001
v 0.031021881 0.058698916 0.235358963
v 0.046222345 0.043318064 0.236626013
v 0.043939396 0.042289119 0.236971672
v 0.048405323 0.044093104 0.235461216
v 0.045640975 0.046096600 0.236053327
v 0.050607511 0.044914969 0.233108355
v 0.045399195 0.049082269 0.234997671
v 0.028664515 0.001383612 0.230916324
v 0.032432228 0.005587574 0.229729337
v 0.035513443 0.003243810 0.232719155
v 0.026890609 0.005336035 0.227905674
v 0.032526988 0.000251671 0.233971245
v 0.029421698 -0.000549079 0.233240612
v 0.029494303 0.007983820 0.227712723
v 0.032389874 0.007755819 0.228879537
v 0.026952903 -0.001717096 0.233304808
v -0.024005191 0.034608676 0.236007367
v 0.039864315 0.005830165 0.234605245
v 0.037116065 0.007530386 0.231403754
v 0.038873690 0.003388170 0.235939364
v 0.034270931 0.007978031 0.229653844
v 0.052536621 0.042546756 0.231253456
v 0.054697955 0.039184635 0.228290075
v 0.015051511 0.066433703 0.232006050
v 0.000597420 0.064601793 0.236008357
v -0.001700362 0.065057240 0.234356167
v 0.011530021 0.066717367 0.231605501
v -0.025945782 0.033019197 0.237954320
v -0.025507742 0.018632720 0.239614638
v -0.026592497 0.018955764 0.241118004
v -0.026254443 0.021183973 0.240531685
v 0.004152515 0.066130542 0.230519891
v -0.021877814 -0.012699949 0.246468100
v -0.013623629 -0.018152826 0.246523610
v -0.014995509 -0.018960121 0.244892596
v -0.011907122 -0.020095943 0.243885161
v -0.004099899 0.061665600 0.237535851
v -0.008228963 0.061739208 0.236802945
v -0.003499137 0.063565713 0.236415088
v -0.020816263 -0.009891368 0.247240532
v -0.021030093 -0.011262172 0.247030542
v -0.022803757 -0.009507055 0.247000364
v -0.021702620 -0.007379179 0.247197132
v -0.003134345 0.064360548 0.228473956
v 0.000036514 0.063146695 0.237246368
v -0.023797174 -0.003195447 0.246843941
v -0.003060903 0.064714534 0.231914044
v -0.019956846 -0.005543171 0.246733268
v -0.019357180 -0.011433993 0.247324453
v -0.022493088 -0.001402503 0.245990379
v -0.025359112 0.000957703 0.246105487
v -0.004876428 0.063349451 0.223866833
v -0.019858756 -0.003246879 0.245738412
v -0.007683435 0.063262659 0.235004825
v -0.003964794 0.060097742 0.237902831
v -0.008383903 0.059159325 0.237717685
v -0.010770782 -0.021460398 0.241088452
v -0.009445445 -0.021225793 0.242656112
v -0.016863262 -0.005411852 0.245816597
v -0.019677375 -0.017060170 0.242397327
v -0.018606158 -0.016838759 0.245349979
v -0.017182242 -0.018178257 0.244497951
v -0.019030338 -0.015296608 0.246399417
v -0.021085358 -0.015572491 0.245315966
v -0.022103343 -0.015105439 0.243520985
v -0.015306956 -0.019710553 0.241811409
v 0.000120905 0.017982857 0.223505997
v -0.000605616 0.012106682 0.226279975
v -0.003572756 0.014970190 0.226612045
v 0.030967540 0.060100767 0.234456758
v 0.002496408 0.020668438 0.221695573
v 0.000642853 0.024694045 0.221984083
v -0.013150408 0.058333405 0.236901562
v -0.014373517 0.057531719 0.237070990
v -0.024293481 0.002919706 0.244761045
v -0.016588030 -0.017392192 0.246207067
v 0.002762071 0.012411117 0.224793666
v -0.013753849 -0.007561026 0.245730644
v 0.004307964 0.016795953 0.222153156
v -0.027614065 -0.010913925 0.222347953
v -0.011508631 0.060127148 0.236739100
v -0.023701092 0.049196560 0.238040162
v 0.042231517 -0.012312421 0.235355982
v -0.020770028 0.053645322 0.236936025
v 0.043697100 -0.008759161 0.238076326
v 0.046766149 -0.005464032 0.237386768
v 0.046221854 -0.006976130 0.235427669
v 0.043591371 0.047687716 0.236249632
v 0.038902881 -0.015963938 0.234060070
v -0.006011308 0.064004791 0.233488819
v -0.008654143 0.063019638 0.233387191
v -0.008964809 0.062630199 0.230186785
v 0.047502262 -0.006386669 0.231764594
v 0.044665694 -0.009148773 0.234919850
v -0.003509588 0.019659973 0.225129740
v 0.045744200 -0.008639467 0.228208340
v -0.018417453 0.055859260 0.236598055
v 0.005091856 0.021250054 0.220583991
v 0.038822383 -0.015485683 0.236046193
v 0.040848047 -0.012506684 0.238319476
v -0.014361156 0.059357196 0.235953310
v -0.016431769 0.058678639 0.235961179
v -0.011544577 0.061416487 0.232713346
v -0.012186751 0.061239059 0.235137744
v 0.042064424 -0.007934605 0.241404822
v 0.040630209 -0.010785337 0.240884769
v 0.023550967 0.062111540 0.235528230
v 0.022995277 0.049443306 0.232137992
v -0.007945658 0.062437033 0.226003444
v -0.022155726 0.054040682 0.236171382
v -0.023276801 0.052206097 0.236891200
v 0.042993720 -0.010985272 0.236844126
v -0.021806062 0.041481146 0.237277975
v -0.020779572 0.041742900 0.236303145
v 0.036646729 -0.016826338 0.239213747
v -0.037390265 0.029617717 0.241166838
v 0.048601897 -0.004634207 0.235178656
v 0.038414375 -0.013845415 0.240909592
v 0.011161269 0.062472896 0.203960783
v 0.016269342 0.062367084 0.204200400
v 0.038241216 -0.011965182 0.242544230
v 0.027743979 0.060265803 0.235647912
v 0.011847309 0.060007173 0.195128759
v -0.038213551 0.030089607 0.239655285
v 0.030952861 0.061352379 0.232853596
v -0.039866094 0.026595272 0.233824380
v 0.015937433 0.065196307 0.233681782
v 0.015308863 0.065894942 0.233100068
v -0.011789435 -0.021433962 0.237549085
v -0.015065338 -0.020091661 0.237866597
v -0.035320327 0.033865426 0.240387273
v -0.033791897 0.033094227 0.241120453
v -0.017263218 -0.018822887 0.237826019
v -0.009860997 -0.002150464 0.238488662
v -0.009597067 0.002108800 0.235284440
v -0.007263535 -0.003018996 0.237410129
v -0.004249474 -0.002014334 0.235077913
v -0.013427632 0.000271603 0.238683055
v -0.000729393 -0.000194711 0.232602705
v 0.000944116 0.005712251 0.228931824
v 0.003779769 -0.000776062 0.231704520
v 0.005082756 0.008293858 0.226228338
v 0.006445629 0.003815529 0.228174497
v -0.036207846 0.035179826 0.238159256
v -0.037824804 0.030858333 0.237660799
v 0.021464002 0.060778649 0.201245072
v -0.007291780 0.005901213 0.232053697
v -0.004239554 0.003031401 0.232091419
v -0.028724754 0.044773558 0.238458505
v -0.037159420 0.031855949 0.234911081
v -0.030448985 0.044899144 0.237869450
v -0.030993640 0.045283065 0.234548228
v -0.034173557 0.037855821 0.239019396
v -0.019216450 0.010879484 0.236036478
v -0.015970285 0.042720874 0.233414963
v -0.034084010 0.039392525 0.234950901
v -0.034012711 0.039801554 0.238093050
v 0.050035053 0.040835408 0.235721967
v 0.054186643 0.039589888 0.232356224
v 0.052556002 0.041236428 0.234148992
v -0.011863229 0.042185628 0.230826434
v 0.024261496 -0.005209675 0.236135578
v 0.017793733 -0.005856981 0.234901833
v 0.022319121 -0.001783748 0.231842254
v -0.015809097 0.038581204 0.230138397
v -0.009884558 0.048799316 0.235683896
v -0.031498535 0.041509978 0.238502290
v -0.032603386 0.037990335 0.239141379
v -0.011774675 0.037060439 0.227749772
v -0.012879409 0.038599956 0.228909110
v -0.009396064 0.039831066 0.227964552
v -0.000967420 0.049870053 0.232863776
v -0.007773530 0.043327056 0.229775452
v -0.008310957 0.045416813 0.232229404
v -0.004818670 0.045958271 0.230899148
v -0.009978441 0.036878276 0.226987221
v -0.006604010 0.037439693 0.225954872
v -0.003591806 0.042513770 0.227395406
v -0.005373179 0.029921305 0.225059064
v -0.007632785 0.025750926 0.226299353
v -0.009032311 0.030172019 0.226231316
v -0.032179351 0.042632760 0.237330026
v -0.000884642 0.046811220 0.229827988
v -0.017966327 0.040302274 0.232553033
v -0.019090685 0.041634335 0.234505275
v -0.021740422 0.011350499 0.237799584
v -0.004482092 0.009360067 0.229281937
v -0.011569274 0.010242087 0.232244097
v 0.047716430 0.036138246 0.237050923
v 0.047007378 0.039872433 0.236825845
v 0.049727334 0.037987973 0.236384238
v -0.001242038 0.037775678 0.224252748
v -0.003929961 0.035738018 0.224669185
v -0.001514866 0.035017390 0.223806528
v -0.002930383 0.032972301 0.224059030
v -0.016077204 0.011183073 0.234223864
v -0.014639727 0.009127731 0.234417251
v 0.003114284 0.049373322 0.230456584
v -0.001686048 0.022175516 0.223542339
v -0.019252694 0.016178710 0.234344509
v -0.015392288 0.014569797 0.232593578
v -0.001846572 0.024360271 0.223575176
v -0.024048009 0.012386954 0.239633743
v -0.022912757 0.016604262 0.237207545
v -0.003467594 0.026430112 0.224242362
v 0.008894323 0.049902749 0.230012853
v -0.007160475 0.013503314 0.229014695
v -0.010147871 0.015353563 0.229669107
v 0.051712542 0.038073012 0.235732994
v 0.051902679 0.035331348 0.236409989
v -0.012742873 0.020016000 0.229368649
v -0.016765666 0.021740324 0.230727586
v -0.015655815 0.024696506 0.229467243
v -0.013119376 0.015884929 0.230972088
v 0.000948953 0.045300119 0.227840283
v 0.018424635 0.047005979 0.228994452
v 0.044417127 0.038957106 0.236943388
v -0.007361547 0.018086544 0.227601673
v -0.006521287 0.021570618 0.226437273
v 0.053198123 0.039017009 0.234541440
v 0.007354927 0.024028289 0.220038536
v 0.004228368 0.026323938 0.220841962
v 0.007055460 0.028484938 0.220593692
v 0.006456826 0.033896371 0.221746725
v 0.010326381 0.030727642 0.220765043
v -0.014183097 0.029489476 0.228259930
v -0.012521832 0.030997216 0.227196233
v -0.011899707 0.028261658 0.227238325
v 0.050879995 0.043151075 0.234304479
v 0.001456538 0.031999546 0.222178343
v -0.001748693 0.029594104 0.223298289
v 0.024124441 0.046826864 0.229993315
v -0.011793118 0.035140592 0.227381553
v -0.009625421 0.034958503 0.226473779
v -0.021342307 0.018489932 0.235300598
v -0.020652173 0.034560688 0.232305670
v -0.019833542 0.036690957 0.232042480
v -0.018970017 0.035395011 0.231128811
v -0.003921789 0.023296266 0.224776657
v -0.020935874 0.013660982 0.236023103
v -0.010446049 0.032224337 0.226486181
v -0.011103460 0.030330343 0.226580974
v -0.030586859 0.040920439 0.238918250
v -0.029054431 0.042199801 0.238686302
v -0.019020827 0.038288825 0.230986906
v 0.025603506 0.045632750 0.229478262
v 0.028063676 0.046298113 0.230673159
v -0.021620622 0.028980926 0.232986172
v -0.022995003 0.028420293 0.234755901
v -0.023068443 0.030925693 0.234592062
v 0.002567721 0.041809415 0.225155235
v 0.009378831 0.019301551 0.219994539
v -0.014102031 0.036513068 0.228626536
v -0.013147847 0.035350582 0.227728840
v 0.013018933 0.038788293 0.223238876
v 0.007195786 0.038645890 0.223221785
v 0.008619428 0.043913756 0.225777105
v 0.028761165 0.063326264 0.226371370
v -0.012015863 0.033113851 0.226984225
v -0.024620630 0.021433071 0.238237207
v -0.022479460 0.020709151 0.235949090
v -0.022672558 0.008882254 0.239522802
v -0.015934678 0.031793846 0.228983345
v -0.016119376 0.028179056 0.229189540
v -0.018922042 0.028223801 0.231029509
v 0.004616064 0.046325979 0.227644686
v -0.009177695 0.021767480 0.227598664
v 0.031906776 0.040042300 0.228789415
v 0.033518359 0.040225661 0.229811303
v 0.032556207 0.037738765 0.228223656
v -0.020423830 0.020572519 0.234029572
v -0.017844296 0.036166718 0.230125810
v -0.020513086 0.038556702 0.233040467
v -0.019662831 0.039848278 0.233007204
v -0.014531148 0.034481323 0.228204827
v -0.013568170 0.033671899 0.227761662
v 0.023670269 0.044561719 0.227912353
v 0.013674738 0.049918212 0.230542909
v 0.012500284 0.046972814 0.227971943
v 0.030109332 0.062550717 0.230049547
v -0.018594073 0.020483992 0.232339980
v -0.015908150 0.018240921 0.231518951
v 0.014998662 0.043410296 0.225784330
v -0.016499518 0.036442464 0.229923248
v 0.010044870 0.035027683 0.221926314
v 0.028468251 0.063179462 0.232069588
v 0.020039439 0.043233504 0.226233946
v -0.016263115 0.035145055 0.229308407
v 0.026914241 0.044357379 0.228665954
v -0.013007449 0.002357921 0.236941729
v -0.024237338 0.032256370 0.235784750
v 0.013990723 0.033329403 0.221375568
v 0.031978882 0.058950921 0.233994017
v -0.021057439 0.031497169 0.232473150
v -0.022307103 0.033465942 0.233975873
v 0.026646845 0.042251096 0.227105779
v -0.023481671 0.032841136 0.235111528
v 0.030582021 0.039544009 0.227635034
v -0.018283035 0.022519348 0.231681700
v -0.019894950 0.023219089 0.232617265
v -0.018454071 0.024262412 0.231079517
v -0.014018187 0.031797287 0.227745333
v -0.022643490 0.025738838 0.234984809
v -0.021771152 0.023312741 0.234388849
v -0.023303174 0.023896749 0.236339913
v 0.028766906 0.040083364 0.227016662
v 0.022088751 0.036701247 0.223431712
v 0.018816030 0.039909397 0.224158520
v 0.023225946 0.041029357 0.225401545
v 0.003128362 0.037125631 0.223173953
v -0.024941096 0.025293015 0.238068621
v -0.018962583 0.036658968 0.230839908
v 0.026400610 0.048198103 0.231843904
v -0.014370149 0.026945808 0.228232968
v 0.008707367 -0.000730209 0.230609856
v -0.021200370 0.026102226 0.233152762
v -0.012177975 0.024465425 0.228066192
v -0.024355836 0.030117383 0.236222527
v 0.011096655 0.024786640 0.219614240
v 0.017450859 0.035811640 0.222460169
v -0.023287476 0.029803347 0.235272951
v 0.029713266 0.036157814 0.226183153
v 0.015111748 0.022430933 0.219953058
v 0.015616194 0.018555029 0.220293606
v 0.012496994 0.020529421 0.219624904
v 0.018793174 0.030419118 0.221363125
v 0.027445653 0.028563871 0.224201562
v 0.023277080 0.025791821 0.222371239
v 0.025748813 0.032662735 0.223828130
v 0.026353876 0.038393589 0.225253206
v -0.024142245 0.026934808 0.236333651
v -0.018462532 0.033211733 0.230494388
v 0.027377810 0.024029876 0.223987427
v 0.029815620 0.030864500 0.225406553
v 0.019947123 0.020585867 0.221218553
v 0.018228273 0.024736886 0.220778815
v 0.015230404 0.026125046 0.220188311
v 0.013782314 0.028897977 0.220403919
v 0.027533211 0.031125901 0.224581985
v -0.019614466 0.025538737 0.231916358
v -0.006805342 0.033571607 0.225500670
v 0.029699466 0.021358011 0.225085447
v 0.026112793 0.019827289 0.223498985
v 0.037335042 -0.010135705 0.243863301
v 0.038196667 -0.007442372 0.243783092
v 0.039761243 -0.008300751 0.243091055
v 0.024248100 -0.014169107 0.246140098
v 0.029493711 -0.012081332 0.245334127
v 0.028932465 -0.014989259 0.245873865
v 0.033499209 -0.011232760 0.244889843
v 0.026486747 -0.010773125 0.244271875
v 0.035861574 -0.008676375 0.244060478
v 0.029580454 -0.018509004 0.244112139
v 0.031764321 -0.017352776 0.243804579
v 0.030138251 -0.018987764 0.243102626
v 0.034256422 -0.014266299 0.244180791
v 0.034893653 -0.006833857 0.243140884
v 0.028311969 -0.019493919 0.243748803
v 0.020620407 0.015745753 0.222118707
v 0.040693871 -0.006528243 0.242922594
v 0.029892199 -0.017048703 0.244869071
v 0.033978155 -0.016516060 0.242882965
v 0.025650414 -0.018605486 0.245404261
v 0.035335784 -0.016636134 0.241325119
v 0.033830792 -0.018680241 0.240511376
v 0.032141910 -0.018780643 0.241898806
v 0.023319575 0.017569408 0.222634996
v 0.027487233 0.014768155 0.224703084
v 0.027995522 -0.020592358 0.243429389
v 0.030463702 0.025376458 0.225352081
v 0.032010532 -0.017890878 0.242775027
v 0.029414305 -0.020796726 0.242473325
v 0.027775796 -0.018816731 0.244370672
v 0.026123097 -0.020192327 0.244134822
v 0.039926782 -0.009764871 0.242635537
v 0.031153750 -0.020809090 0.240929859
v 0.040472836 -0.014927267 0.228873208
v 0.012714535 0.017510570 0.220214567
v 0.029562864 0.048247797 0.232558950
v 0.030213719 0.046793520 0.231965048
v 0.030729925 0.049291891 0.233983696
v 0.031258722 0.045389478 0.231373174
v 0.031737924 0.047382111 0.233075504
v 0.033609223 0.045539196 0.232610689
v 0.035420684 0.042297952 0.232140466
v 0.037154263 0.044367085 0.234086895
v 0.020066638 0.062925398 0.208076987
v 0.011606142 0.003020124 0.227708213
v 0.011928570 -0.000190422 0.229886432
v 0.011939785 -0.002675280 0.231678902
v 0.022716103 0.002477011 0.228672094
v 0.018765102 0.000159691 0.229673917
v 0.008613236 0.008097596 0.225280178
v 0.017237096 0.004181615 0.226807029
v 0.014757699 0.000053223 0.229558111
v 0.006142992 0.012222310 0.223727246
v 0.009314056 0.012133633 0.222891669
v 0.011880259 0.014246885 0.221418549
v 0.015779497 0.015018361 0.221249925
v 0.021539299 0.006763842 0.225775991
v 0.007096577 0.014879925 0.222128743
v 0.013170989 0.008784452 0.224088500
v 0.019713969 0.011462983 0.223235589
v 0.017443273 0.008573560 0.224272357
v 0.015421458 0.011643882 0.222517904
v 0.008900226 0.015569590 0.221305236
v 0.006782661 0.017649963 0.221037777
v 0.004032217 -0.014263915 0.243064463
v 0.024962807 0.009131916 0.225561147
v 0.024125302 0.012408045 0.224088847
v -0.027383970 0.031411871 0.239691986
v -0.026093875 0.028804242 0.238768368
v -0.027662587 0.029924354 0.240281832
v 0.027540515 -0.008661025 0.242182979
v 0.026015895 -0.009173619 0.242608444
v -0.004786874 -0.009126319 0.239206575
v -0.006365067 -0.007818188 0.240233834
v -0.004651298 -0.006178232 0.237805794
v 0.030417626 -0.005557842 0.239524697
v 0.032022211 -0.005360453 0.240141412
v 0.030544820 -0.006435880 0.241019556
v 0.000260829 -0.005611561 0.235725598
v 0.016547582 -0.002757773 0.231819651
v -0.031206904 0.035459609 0.240268679
v 0.044143848 -0.010679554 0.224601659
v 0.042137898 -0.013823453 0.225476071
v 0.019179562 0.058534408 0.193876763
v 0.042113527 0.041060938 0.236472209
v 0.040265019 0.042692767 0.235655818
v 0.038051176 0.042153874 0.233882257
v 0.041131653 0.040681773 0.235600003
v 0.042154201 0.037260787 0.235854106
v 0.039790455 0.039836851 0.234621137
v 0.036763739 0.039440551 0.231888728
v 0.044910201 0.035408053 0.236932398
v 0.044240922 0.033273221 0.236442635
v 0.038016903 0.038578249 0.232894905
v 0.039834331 0.035599535 0.233783273
v 0.037085007 0.035651172 0.231322517
v 0.034713281 0.037567610 0.229938120
v 0.042710521 0.031414148 0.235376436
v 0.045119929 0.030409792 0.236759754
v 0.039637881 0.029694726 0.232508359
v 0.034407116 0.032340352 0.228431401
v 0.033144956 0.026929517 0.226939790
v 0.034243892 0.021146121 0.227531799
v 0.030826277 0.018035418 0.225739871
v 0.037686538 0.025216651 0.230223903
v 0.027900966 0.010809314 0.225976491
v 0.039891886 0.019183515 0.231758395
v 0.035692832 0.014627850 0.228854804
v 0.048844228 0.017319602 0.239132290
v 0.045117445 0.018022440 0.236518927
v 0.046721205 0.019548569 0.237768956
v 0.032219122 0.010396191 0.227950974
v 0.035934746 0.010234224 0.229940430
v -0.027350082 0.027859960 0.240693829
v -0.027836042 0.026125191 0.241961978
v -0.028565001 0.028724768 0.241808169
v 0.046476531 0.015004158 0.237816501
v 0.042139024 0.014362168 0.234072199
v 0.038752250 0.011149507 0.231574311
v 0.044805221 0.011798718 0.236916196
v 0.046294987 0.010389147 0.238770998
v 0.043604259 0.008053510 0.237113171
v -0.017843590 -0.002975197 0.244417782
v -0.020750592 -0.000371201 0.244435970
v -0.008300772 -0.005456866 0.239912862
v 0.041184935 -0.003454628 0.242797193
v 0.041945398 -0.004216454 0.242403343
v 0.039630222 -0.004836369 0.243204947
v -0.005757199 0.057460635 0.195906297
v -0.010304661 0.055449136 0.200063678
v -0.010460753 0.054983566 0.193500094
v 0.043943018 0.022586912 0.235575935
v -0.033381170 0.033282379 0.241106421
v -0.032770683 0.032139785 0.241612647
v -0.006417037 0.058710648 0.206493744
v -0.004720170 0.058570765 0.201250332
v -0.001837142 0.060253512 0.203426007
v 0.041318120 0.009860808 0.234153759
v -0.033197612 0.029018992 0.242679182
v 0.046297575 0.008289931 0.239749058
v 0.044548309 0.005324338 0.239730060
v 0.047331506 0.012732629 0.238958960
v 0.046432766 -0.007330487 0.224244050
v 0.040472472 -0.002882776 0.242781917
v 0.036451592 -0.007224078 0.243798702
v 0.037095914 -0.005927028 0.243219759
v 0.022509226 -0.008764796 0.240460515
v 0.022865742 -0.007353120 0.238758702
v 0.025609344 -0.007499096 0.240329489
v 0.024890613 0.057977973 0.195534265
v 0.041664482 0.002237686 0.239777897
v 0.041645583 0.004691241 0.237500984
v 0.006791768 0.061031674 0.198710704
v 0.038027618 -0.003502421 0.242084386
v 0.001890701 0.060071381 0.194935732
v 0.040326994 0.002982696 0.237900377
v 0.048190795 0.011127182 0.240072764
v 0.037270638 -0.001018212 0.239293270
v 0.040540792 -0.000572048 0.241948106
v 0.036067235 -0.005261053 0.242432351
v 0.034650265 -0.004613662 0.240905436
v -0.027760532 0.021916388 0.242286179
v -0.029521000 0.025454010 0.243203511
v 0.039175581 0.001832042 0.237870241
v -0.002680860 -0.012115347 0.239977821
v 0.036339645 0.001028270 0.235780346
v -0.032346626 0.034402681 0.240758089
v 0.030152574 -0.008043127 0.242707111
v 0.032436630 -0.006515646 0.241829063
v 0.048620718 -0.005195326 0.227199584
v -0.026811407 0.014936514 0.241963188
v -0.025729174 0.012950909 0.241519350
v -0.030634336 0.030275626 0.242264401
v -0.028725588 0.030953400 0.240864559
v -0.025551589 0.015717643 0.240655128
v -0.026373874 0.024626899 0.240186206
v 0.033735213 0.052836195 0.236533937
v -0.024876963 0.009490632 0.241882735
v 0.005587540 -0.012568448 0.241157140
v 0.003846873 -0.011107404 0.239566733
v 0.006546247 -0.010696225 0.239569945
v -0.025687238 0.007817363 0.243158181
v -0.026696892 0.009525229 0.243441886
v -0.021876651 0.002940149 0.242742439
v 0.031661118 0.056667827 0.236089686
v -0.002338264 -0.008426104 0.237954996
v -0.003206104 0.061594139 0.211712169
v 0.014291579 -0.009516747 0.239126903
v 0.012754883 -0.011322903 0.241280962
v 0.011811936 -0.009736496 0.238802686
v -0.025122573 0.051691045 0.236810263
v -0.011971578 -0.003665635 0.241110109
v -0.029636014 0.047767750 0.230180303
v -0.030051563 0.046233510 0.221407478
v -0.027357565 0.049961592 0.226838568
v 0.052417478 0.000069566 0.236373213
v 0.000711083 -0.010179362 0.238859372
v 0.002752451 -0.012320833 0.241022628
v -0.023291483 0.054299336 0.235848402
v 0.032394994 -0.003668598 0.238336070
v -0.030742836 0.032679152 0.241221388
v -0.024436397 0.005855453 0.243000888
v 0.023895116 -0.009484854 0.242596036
v 0.047048983 0.031705755 0.237458761
v -0.016035650 -0.001919141 0.242039202
v -0.030060706 0.040503883 0.192969481
v -0.018641755 -0.001484068 0.243500726
v -0.015077409 0.059887024 0.232315368
v -0.028577920 0.044404669 0.203123097
v -0.008252657 0.059861379 0.213743582
v -0.008886467 0.061443421 0.220588617
v -0.039394983 0.023667502 0.199539091
v -0.013994167 -0.005305917 0.243966652
v 0.033815306 -0.001284392 0.236341942
v -0.039410788 0.014727941 0.195910468
v -0.038338624 0.028463717 0.205330388
v -0.039933994 0.024145697 0.213494079
v 0.028305457 -0.005207206 0.238358831
v 0.029763893 -0.002430483 0.235255545
v -0.005081521 -0.011139613 0.239480784
v -0.041020523 0.022625301 0.222378245
v -0.010983579 -0.007456765 0.244447568
v -0.010480214 -0.005936816 0.242552886
v -0.021144656 0.055767331 0.235616495
v -0.018206213 0.057741751 0.230860821
v -0.015490631 0.059004266 0.228107221
v -0.001500843 0.059901705 0.198581987
v -0.002579491 0.058641911 0.192140005
v -0.012731451 0.060261903 0.223881415
v -0.011419634 0.057232960 0.210256097
v -0.036794548 0.033213486 0.231101727
v -0.040485166 0.024889627 0.231615599
v -0.023009231 0.054308777 0.228513900
v -0.021500298 0.054244344 0.221747119
v 0.028691683 -0.006727755 0.240854746
v -0.011988182 0.055687810 0.205399264
v -0.024830868 0.047454149 0.199532611
v -0.008287270 -0.007884589 0.242811787
v -0.033292990 0.041364355 0.227576501
v -0.026317542 0.006995904 0.244119449
v -0.037170671 0.031843155 0.226575305
v -0.023045460 0.047581562 0.195291910
v 0.027704114 0.059099902 0.200078209
v -0.038106818 0.029848073 0.213412676
v 0.012909789 -0.007659406 0.236372927
v 0.013304676 -0.005028409 0.233606837
v 0.007704096 -0.005299866 0.234145133
v 0.055639614 0.012669043 0.239178256
v -0.019717174 0.056156088 0.227725841
v 0.054114362 0.001113198 0.231359702
v 0.008228088 -0.008883595 0.237514639
v -0.035754863 0.035833215 0.227540972
v -0.035604543 0.036892298 0.231678503
v -0.022386443 0.051336314 0.209137975
v -0.024802316 0.048410572 0.205448459
v 0.016478494 -0.008527805 0.237969273
v -0.002981007 -0.010331090 0.238837921
v 0.051978832 -0.001869393 0.228607260
v 0.020120116 -0.007953772 0.238589973
v 0.009780226 -0.010870357 0.239850940
v -0.032774872 0.040817064 0.212534977
v 0.050817759 -0.002726621 0.225059190
v -0.020098797 0.049718417 0.195836268
v 0.007847813 -0.011510843 0.241138659
v -0.036088847 0.034931892 0.219744771
v 0.004608152 -0.009741885 0.238384536
v 0.004081982 -0.007972054 0.236802587
v 0.051799979 0.010079714 0.241581769
v 0.053342357 0.014748778 0.240924551
v 0.053911988 0.011927047 0.240541390
v 0.050324060 0.004713158 0.241701391
v 0.047968634 0.007363484 0.241743117
v 0.044846410 -0.002612213 0.241605284
v 0.044986010 -0.000300971 0.242316988
v 0.046076603 -0.000424006 0.241904863
v 0.050332846 0.013491041 0.241036604
v 0.050868547 0.001716934 0.240237631
v 0.049269763 -0.000287552 0.240092000
v 0.047981061 0.000533843 0.241298261
v 0.047538981 0.001941594 0.241969278
v 0.047428244 0.003431814 0.242466708
v 0.052288584 -0.001170134 0.231541770
v 0.052489711 -0.000902742 0.233843820
v 0.044917327 0.002406556 0.241963484
v 0.046263845 0.001162182 0.242409629
v 0.042808625 0.000729859 0.241950347
v 0.043265208 -0.005311607 0.241356400
v 0.046191180 -0.004204623 0.239636322
v 0.044442855 -0.006494651 0.239770294
v 0.042968950 -0.001199506 0.242639603
v 0.048809348 0.014010670 0.239691820
v 0.050777018 -0.002264797 0.235769160
v 0.047932031 -0.004463583 0.236587004
v 0.050676711 -0.002914766 0.232790095
v 0.047833640 -0.003006454 0.239301662
v 0.046990660 -0.002478571 0.240348095
v 0.048604907 -0.001844615 0.239365120
v 0.048686927 -0.003425069 0.237740870
v 0.050625972 -0.000771705 0.238505981
v 0.046824042 -0.001415357 0.241303535
v 0.047944289 -0.001266256 0.240639672
v 0.046699153 0.000749794 0.241754150
v 0.040839571 0.048170957 0.194730883
v 0.044189672 0.044144926 0.192385485
v 0.040722228 0.053878017 0.218554968
v 0.041768738 0.053555847 0.219525322
v 0.040368111 0.053836708 0.219194532
v 0.030170601 0.060403219 0.218100160
v 0.027925018 0.061888055 0.216635116
v 0.030043357 0.060275230 0.214387667
v 0.036916465 0.051427985 0.194279917
v 0.032115455 0.056690067 0.204770925
v 0.030509873 0.057950967 0.207633985
v 0.030156174 0.058031061 0.204411309
v 0.033608884 0.053024703 0.192058520
v 0.030148159 0.056341714 0.196197129
v 0.042703307 0.052545977 0.215847925
v 0.041563851 0.053393308 0.213670608
v 0.043904095 0.051438135 0.213279520
v 0.053956846 0.036703130 0.213529929
v 0.041181953 0.053420096 0.216972647
v 0.043449632 0.052378414 0.218445156
v 0.046902897 0.047869021 0.211388868
v 0.043080083 0.050122989 0.204589012
v 0.038616127 0.051883437 0.199867216
v 0.040049669 0.052198431 0.204370375
v 0.037950365 0.053072072 0.203728243
v 0.058593912 0.021178111 0.235222978
v 0.056835166 0.023380558 0.237199328
v 0.058280144 0.025103966 0.235505379
v 0.059764828 0.020318614 0.213029107
v 0.060439658 0.022622328 0.220023982
v 0.058961553 0.025956663 0.214746587
v 0.054313717 0.023238988 0.238896657
v 0.055754500 0.026239574 0.237441895
v 0.057987194 0.032089054 0.231508384
v 0.059767583 0.027725212 0.229426069
v 0.058306883 0.029701264 0.233561944
v 0.040523197 0.054191913 0.220756200
v 0.038794897 0.054465872 0.223145576
v 0.037274270 0.054846426 0.218390095
v 0.035205372 0.055595653 0.221312517
v 0.036635856 0.055066240 0.225527510
v 0.033229214 0.057390154 0.223999379
v 0.041591893 0.053742571 0.223879559
v 0.039630093 0.053931414 0.218105451
v 0.033170706 0.056944379 0.220829842
v 0.043853076 0.052747669 0.222971403
v 0.031353520 0.058360287 0.217599525
v 0.031541221 0.058554978 0.220319409
v 0.033262915 0.056386499 0.217534311
v 0.031131036 0.059026060 0.215635159
v 0.035516962 0.054728656 0.213541076
v 0.038972568 0.054038784 0.214873046
v 0.025953077 0.062318667 0.213641339
v 0.028185056 0.060804270 0.212795032
v 0.047655043 0.044428781 0.204186575
v 0.047177832 0.041567781 0.196079681
v 0.050128703 0.039253175 0.201174251
v 0.031844385 0.056946646 0.212409712
v 0.036885168 0.053786744 0.210660934
v 0.037711070 0.053622389 0.212530550
v 0.034956683 0.054764636 0.209421832
v 0.050633408 0.042176028 0.210820234
v 0.041248970 0.052468532 0.209079810
v 0.045974103 0.050498183 0.219402116
v 0.044641154 0.045973285 0.198904706
v 0.045680677 0.047284590 0.204675915
v 0.028206475 0.060729088 0.208962232
v 0.029634272 0.059425641 0.210986442
v 0.039030211 0.053305031 0.211186635
v 0.029014252 0.058813526 0.204275018
v 0.029168414 0.059294024 0.205769436
v 0.027097686 0.060087459 0.204363209
v 0.031902865 0.057828521 0.215928254
v 0.028394045 0.062151796 0.220126759
v 0.029115634 0.058577550 0.202906836
v 0.035268570 0.054685179 0.203212769
v 0.034558596 0.054339647 0.197687021
v 0.031503035 0.056933873 0.201234790
v 0.032928966 0.055683968 0.207275647
v 0.036573268 0.054514053 0.230972130
v 0.034253242 0.056610451 0.230616294
v 0.034692850 0.056234079 0.227958548
v 0.040840523 0.053453517 0.226036073
v 0.039596302 0.053859137 0.227825034
v 0.038973170 0.054097567 0.225596344
v 0.039331442 0.053656059 0.231291002
v 0.038920917 0.053718400 0.229851558
v 0.041215218 0.053465242 0.230713922
v 0.041876326 0.051204258 0.234484186
v 0.039172364 0.052837590 0.232792192
v 0.042172018 0.052004285 0.232930093
v 0.040604389 0.053406759 0.229414093
v 0.043086251 0.053338152 0.229014727
v 0.043251720 0.052997901 0.226223356
v 0.044413838 0.051126732 0.233252768
v 0.045120724 0.051915515 0.227171344
v 0.043489883 0.052552489 0.231615810
v 0.037183425 0.054654795 0.228411853
v 0.041265243 0.052936863 0.232052667
v 0.032754424 0.058640552 0.226953561
v 0.033146343 0.058462102 0.229457646
v 0.024394211 0.062094525 0.208608919
v 0.055116943 0.003576729 0.220298962
v 0.053157375 0.000326797 0.223388182
v 0.055910283 0.003975718 0.226456660
v 0.054507080 0.013670732 0.239979978
v 0.055227974 0.015659759 0.239568036
v 0.059759850 0.014249289 0.221330895
v 0.059226900 0.013358766 0.217584551
v 0.058643936 0.011794839 0.221287599
v 0.037752407 0.053512596 0.207112272
v 0.059009574 0.012563329 0.225647207
v 0.059610820 0.014216260 0.223693574
v 0.056769805 0.015956934 0.237846974
v 0.052789340 0.036300393 0.205784532
v 0.051621134 0.019858304 0.240283418
v 0.054573806 0.018392809 0.239898452
v 0.055974812 0.018163652 0.238596164
v 0.060068635 0.015975422 0.227125979
v 0.060310865 0.017674653 0.221283899
v 0.057270709 0.007002823 0.230316953
v 0.058401352 0.009628828 0.226623981
v 0.060511368 0.019166387 0.227655664
v 0.057540391 0.018731231 0.237363248
v 0.057242480 0.007892340 0.218927317
v 0.054127872 0.020594282 0.239400807
v 0.052496111 0.032600075 0.196985626
v 0.055973350 0.030448210 0.207551847
v 0.059293312 0.013225590 0.228175585
v 0.059629943 0.013858034 0.226417524
v 0.059182007 0.014348141 0.212975556
v 0.056218111 0.020734907 0.238143346
v 0.057839161 0.024044888 0.206455861
v 0.055060217 0.026636873 0.198805461
v 0.056422992 0.021809879 0.199564424
v 0.031878412 0.060915213 0.228109167
v 0.032138412 0.060464817 0.230433306
v 0.032941264 0.058345726 0.232123220
v 0.048082343 0.020640738 0.238620821
v 0.057382206 0.033900597 0.227183834
v 0.031512746 0.060665164 0.225350356
v 0.029451895 0.062079796 0.223017148
v 0.030284924 0.060956042 0.221144180
v 0.031176705 0.060107251 0.222901450
v 0.057445701 0.031533985 0.218768674
v 0.059793932 0.016934199 0.231559676
v 0.058547244 0.013803445 0.234125787
v 0.058447052 0.016885308 0.235520613
v 0.058201942 0.019243446 0.205207328
v 0.058962830 0.016909041 0.208815851
v 0.057900144 0.009272779 0.231445862
v 0.058947816 0.012249187 0.231373458
v 0.056837178 0.007599754 0.233990796
v 0.059794343 0.026631849 0.222483850
v 0.056751995 0.034849616 0.232203452
v 0.055622454 0.037126688 0.230704576
v 0.058169550 0.010708489 0.234408785
v 0.035027308 0.054598635 0.206627827
v 0.058170841 0.010919575 0.217750064
v 0.055556810 0.010066057 0.198504971
v 0.055232057 0.010092535 0.193121306
v 0.054340252 0.006411521 0.195514831
v 0.056531708 0.007516470 0.213258902
v 0.058187381 0.010694535 0.214720324
v 0.058036139 0.011714825 0.207960317
v 0.057595320 0.009456862 0.210563304
v 0.052070003 -0.000654621 0.212619339
v 0.055151067 0.003903255 0.215033184
v 0.055604118 0.004947617 0.209218652
v 0.055709180 0.019731581 0.194397791
v 0.055806318 0.015415653 0.193955423
v 0.052417392 0.000176128 0.218508687
v 0.057640385 0.013973566 0.203709062
v 0.056506254 0.008044091 0.203861432
v 0.055933469 0.013336493 0.197619250
v 0.056939407 0.008565006 0.207759710
v 0.056563497 0.017359633 0.198870649
v 0.054816097 0.006224461 0.199204823
v 0.054207887 0.002970657 0.202673450
v 0.058635786 0.014495411 0.208384224
v 0.055087831 0.023671198 0.194425340
v 0.052946191 0.000185861 0.207038125
v 0.060321733 0.022254106 0.230820844
v 0.060615511 0.022863399 0.225847475
v 0.059591364 0.024757711 0.233178359
v 0.058888608 0.029842385 0.224665080
v 0.057516097 0.013170889 0.236600387
v 0.058791136 0.027123909 0.233601376
v 0.053728875 0.003541137 0.197342831
v 0.052452051 -0.000412321 0.199691102
v 0.053033699 0.003301403 0.193954781
v 0.052504856 0.001864506 0.193570094
v 0.051974736 0.000333459 0.195253137
v 0.057506004 0.027961402 0.235700873
v 0.052674423 0.001404263 0.191819816
v 0.049759858 0.037023971 0.194963138
v 0.046745045 0.050499079 0.224955536
v 0.038177524 0.052220546 0.234851956
v 0.035890542 0.054255065 0.233682941
v 0.033153171 0.056762354 0.234355619
v 0.034315031 0.054235714 0.235669454
v 0.043818805 0.027079403 0.235754381
v 0.045390867 0.027800767 0.236873499
v 0.034480811 0.056025567 0.232478449
v 0.050402667 0.029813545 0.238150296
v 0.048664978 0.027738598 0.238436913
v 0.049708240 0.032879675 0.237314356
v 0.047402873 0.024654360 0.238180402
v 0.046768575 0.028246424 0.237657407
v 0.051420702 0.025653453 0.239113670
v 0.055235313 0.035033430 0.235214821
v 0.055043132 0.037355415 0.233583598
v 0.056639171 0.030640082 0.235779053
v 0.055905823 0.028938697 0.237057462
v 0.054770139 0.030984297 0.236841517
v 0.053981729 0.033192014 0.236355044
v 0.055744126 0.032620425 0.235847607
v 0.057086814 0.032640788 0.234155704
v 0.052326536 0.031859901 0.237217854
v 0.053389000 0.028465829 0.238050293
v 0.053905222 0.025955985 0.238464417
v 0.053717074 0.037073539 0.235450990
v 0.051013698 -0.001960229 0.191875833
v 0.054195873 0.005687160 0.196994840
v 0.051752799 -0.001631071 0.203950765
v 0.022301844 -0.011295532 0.243822780
v 0.021539192 -0.013015740 0.245245660
v -0.013377494 -0.020813928 0.224840594
v -0.015267481 -0.019928442 0.224055995
v -0.015639945 -0.019642530 0.228363024
v -0.012742346 -0.020957516 0.232678733
v -0.015214237 -0.020306072 0.220290045
v -0.017815662 -0.018597122 0.225001502
v -0.003344440 -0.020851959 0.244207654
v -0.003471299 -0.019421346 0.244673761
v -0.002703111 -0.029512033 0.194818096
v -0.014318672 -0.021623727 0.215726683
v -0.016744868 -0.020435568 0.213563293
v -0.017645245 -0.019405004 0.217674341
v 0.001781355 -0.021981335 0.245074723
v 0.002201377 -0.022994178 0.244414603
v 0.000061434 -0.021835257 0.244475741
v -0.013183478 -0.023172476 0.208606630
v -0.015439893 -0.021622114 0.210988267
v -0.012905237 -0.022368492 0.212337349
v -0.022601215 -0.015792249 0.217009165
v 0.039918780 -0.016587402 0.196229596
v 0.041060565 -0.015521570 0.194826257
v 0.038872083 -0.017531872 0.195370960
v -0.010963641 -0.021755987 0.223406627
v -0.006946311 -0.023068250 0.225315904
v -0.008265739 -0.023088795 0.220513481
v -0.032030052 -0.003196630 0.198039976
v -0.011793915 -0.021343820 0.227129128
v -0.010089156 -0.025077142 0.200759748
v -0.012770849 -0.024248333 0.198229363
v -0.012796442 -0.024089327 0.200448487
v 0.032665574 -0.021794425 0.201817106
v 0.033827290 -0.020969894 0.199498622
v 0.030824636 -0.023118492 0.199054209
v -0.035981643 0.003356703 0.197851278
v -0.037695670 0.008178298 0.195710534
v -0.028732371 -0.008543467 0.204628802
v -0.025417880 -0.013002872 0.210164153
v -0.024272856 -0.014027074 0.197995230
v -0.011980465 -0.021863920 0.220106376
v -0.012802360 -0.021654627 0.218068729
v -0.010422042 -0.023185461 0.216807402
v 0.049478978 -0.005055104 0.192885704
v 0.048032081 -0.007451966 0.193209878
v -0.012911904 -0.023576505 0.203616018
v -0.009642399 -0.024837370 0.206252690
v 0.050909265 -0.002698807 0.198154752
v 0.049702577 -0.003616990 0.195605008
v 0.046365234 -0.009846258 0.192346832
v 0.046651395 -0.008614694 0.195414832
v 0.042390787 -0.013275299 0.198877302
v 0.039571517 -0.016280557 0.198706533
v -0.028194723 -0.008613832 0.194884402
v 0.001220376 -0.016158178 0.244560625
v 0.007016047 -0.024209628 0.244637429
v 0.008957597 -0.024271880 0.245287985
v 0.008775620 -0.024901035 0.244357636
v -0.000563973 -0.018373198 0.245270939
v -0.001443016 -0.020610826 0.244835226
v 0.048090658 -0.006466643 0.196018183
v 0.049032029 -0.005636137 0.200025203
v -0.020168059 -0.017554885 0.219126729
v -0.019399655 -0.018545186 0.215520441
v 0.045764484 -0.009332954 0.200482675
v 0.044649074 -0.010505740 0.195959644
v 0.013684478 -0.013096137 0.244070555
v 0.014263270 -0.015559593 0.246055128
v 0.010553371 -0.014515114 0.244906556
v 0.002848970 -0.017145459 0.245419823
v -0.015912031 -0.021649077 0.205546641
v -0.015670977 -0.021579852 0.208657820
v -0.002250768 -0.021766967 0.244010782
v -0.004524021 -0.021592830 0.243381691
v 0.005892564 -0.023170444 0.245472229
v -0.020108700 -0.018391501 0.204739053
v -0.033041650 -0.003316242 0.211351926
v -0.030933140 -0.005528102 0.204659221
v 0.050562698 -0.003070070 0.207990221
v 0.049217124 -0.004082183 0.211208846
v -0.005747512 -0.027431287 0.198044601
v -0.008620464 -0.027202419 0.193344053
v -0.008430854 -0.026518145 0.197767597
v 0.048709187 -0.004060602 0.214172388
v 0.047409261 -0.005121201 0.217571366
v 0.049581399 -0.003037326 0.219167931
v 0.049757405 -0.002402481 0.216482799
v 0.041323664 -0.014195308 0.202526155
v 0.042561449 -0.012642338 0.205628463
v 0.004532106 -0.024312338 0.244123284
v 0.016723875 -0.011043014 0.241583057
v 0.001800793 -0.024002930 0.242952147
v 0.004175324 -0.025208451 0.242096542
v -0.000333149 -0.024530416 0.240169933
v 0.010714929 -0.025074203 0.244236731
v 0.012895504 -0.025856046 0.242947601
v 0.010003889 -0.025603094 0.242762588
v 0.008350373 -0.016474943 0.246145268
v 0.032534988 -0.022847370 0.219409927
v 0.032167901 -0.022660005 0.212689500
v 0.028454835 -0.024671359 0.215258140
v 0.050409727 -0.002438740 0.222122097
v 0.047661809 -0.005357075 0.212112361
v 0.037302044 -0.019199635 0.214564781
v 0.035210471 -0.020516486 0.210941478
v 0.034853116 -0.021119841 0.215595753
v 0.040861901 -0.015059515 0.201139789
v 0.036537171 -0.019965267 0.194499290
v 0.042445792 -0.013082611 0.221346593
v 0.040441089 -0.015776339 0.223101526
v 0.043892353 -0.012670268 0.194097785
v 0.048622496 -0.004503062 0.224014219
v 0.028738107 -0.025671663 0.194961306
v 0.032935892 -0.022774002 0.195098782
v 0.040317107 -0.015985416 0.226100664
v 0.011125380 -0.012909170 0.243398538
v -0.014765936 -0.021531652 0.213163816
v 0.050648949 -0.003298243 0.201086429
v -0.015518120 -0.022317692 0.199797063
v 0.009686207 -0.012309684 0.241910778
v 0.008910766 -0.013708728 0.243401458
v 0.044748739 -0.008807300 0.219152041
v 0.042171219 -0.012985020 0.216026849
v 0.045866674 -0.006884391 0.213675947
v 0.044851500 -0.008531537 0.210216258
v 0.043634730 -0.010098374 0.213396601
v 0.045146897 -0.009205167 0.206340415
v 0.047316480 -0.006247077 0.209124764
v 0.035622341 -0.019244478 0.202198900
v 0.036595269 -0.018886023 0.198440735
v 0.020649337 -0.010311063 0.242149487
v 0.038192936 -0.018370069 0.222809792
v 0.038902998 -0.017412610 0.225070231
v 0.047469606 -0.007373134 0.203860336
v 0.043608491 -0.010805013 0.209536712
v 0.031512160 -0.022242793 0.203864072
v 0.028914965 -0.024053514 0.202370903
v 0.030153601 -0.023234806 0.205866381
v 0.028585017 -0.024327545 0.209519288
v 0.031174703 -0.022875065 0.208622739
v 0.035030789 -0.020579927 0.196671195
v 0.049624922 -0.005021316 0.204207053
v 0.027608035 -0.024456652 0.205008357
v 0.037631150 -0.017996268 0.202061738
v 0.037123107 -0.018883616 0.206493881
v 0.039522857 -0.016121469 0.204609655
v 0.024466949 -0.025740621 0.206252028
v 0.024614578 -0.025695757 0.211030866
v -0.018148652 -0.019853122 0.210542419
v -0.030235509 -0.007654813 0.217333587
v 0.047475485 -0.004976487 0.221182682
v 0.036759603 -0.019625954 0.219155788
v 0.034969846 -0.020966727 0.224291793
v 0.038373531 -0.017630065 0.228518665
v 0.037383414 -0.019101514 0.226007425
v 0.007032642 -0.014774586 0.244602686
v 0.006621695 -0.013594914 0.243203732
v 0.007523559 -0.012770566 0.242227615
v -0.013817562 -0.024123453 0.194085854
v 0.039965885 -0.016091565 0.212182841
v 0.042341412 -0.012517752 0.211304542
v -0.019106672 -0.019942727 0.194345899
v 0.034075920 -0.020721883 0.204621515
v -0.010784728 -0.025452796 0.196706281
v 0.038455786 -0.017333177 0.208756586
v -0.010196006 -0.021888311 0.228663240
v -0.008386890 -0.022638225 0.228904971
v -0.003866765 -0.024028976 0.228124304
v 0.000603961 -0.025536036 0.224853879
v 0.019515481 -0.011946864 0.243879814
v -0.000638146 -0.024997674 0.227013704
v -0.000187697 -0.025122844 0.229130425
v -0.007279756 -0.022922967 0.230869408
v -0.034514821 -0.000228351 0.204821179
v 0.038513437 -0.017947041 0.216389242
v -0.003605524 -0.024297821 0.231762024
v -0.001049980 -0.024944259 0.235245703
v 0.002693250 -0.025715534 0.237504795
v -0.000025908 -0.025353285 0.232141038
v 0.032958982 -0.021978086 0.208052779
v -0.006612851 -0.023250060 0.237968737
v -0.004840160 -0.023886592 0.234646219
v 0.040044100 -0.016477800 0.218721103
v 0.017362174 -0.024414451 0.245186936
v 0.016469629 -0.022808293 0.246209473
v 0.019597949 -0.023669809 0.245245160
v -0.008337191 -0.022771274 0.234081173
v 0.018006946 -0.021959864 0.246072590
v 0.019266510 -0.020538627 0.245970423
v 0.020687432 -0.021961312 0.245589127
v 0.009207261 -0.023303389 0.246305398
v 0.011972821 -0.024831183 0.245176822
v 0.015796143 -0.020333089 0.246679430
v 0.026110941 -0.021978622 0.243523684
v 0.024792794 -0.023563047 0.242559815
v 0.022570395 -0.023031880 0.244410807
v -0.004079470 -0.024144102 0.221622586
v 0.005022341 -0.026530158 0.232483773
v 0.027437611 -0.025777921 0.198503278
v 0.026033964 -0.025460490 0.201889842
v -0.006013519 -0.022386690 0.241803908
v 0.037625233 -0.018604352 0.210827529
v 0.017279093 -0.013400286 0.244737718
v 0.019031444 -0.014844732 0.246102903
v 0.031684308 -0.022651322 0.206723399
v 0.027370670 -0.025277001 0.221313951
v 0.032963676 -0.022271861 0.228729988
v 0.035327527 -0.020190661 0.229832341
v 0.007327014 -0.018591392 0.246835705
v 0.012152019 -0.018165312 0.247085921
v 0.010572250 -0.020260701 0.247106844
v 0.034386941 -0.020221821 0.234870797
v 0.032139077 -0.022622406 0.232918579
v 0.031123726 -0.023487263 0.225699808
v 0.036414412 -0.018187201 0.236959526
v 0.013386052 -0.022185819 0.246637064
v 0.019654004 -0.025231619 0.243585962
v -0.013196426 -0.020956327 0.222270310
v -0.018877070 -0.018218639 0.221596599
v 0.018365055 -0.017279472 0.246690811
v 0.030366013 -0.023877746 0.229993667
v -0.006144050 -0.026311956 0.203150263
v -0.007396085 -0.026313564 0.199991257
v 0.018797032 -0.019144752 0.246552842
v 0.020376743 -0.018158454 0.246507827
v 0.028066261 -0.022552427 0.241873093
v 0.027252812 -0.023873064 0.240629114
v 0.033010253 -0.020140067 0.238692769
v 0.030430750 -0.023007373 0.237421878
v 0.022253077 -0.020330264 0.245223462
v 0.021363472 -0.019060860 0.246105063
v 0.024279694 -0.020234504 0.244728187
v 0.003407652 -0.019026355 0.246340503
v 0.003399902 -0.021987322 0.245417884
v 0.023415255 -0.017036130 0.246359221
v -0.001415531 -0.022875785 0.243077028
v 0.023693772 -0.021575551 0.244752940
v 0.036245013 -0.014676845 0.242592944
v 0.006196682 -0.020316747 0.246722092
v 0.009767134 -0.021842886 0.247061683
v 0.029885166 -0.022106793 0.240022001
v 0.007898024 -0.026132680 0.240856457
v 0.007159688 -0.024960608 0.243215244
v 0.005235747 -0.015835859 0.244919171
v 0.006085141 -0.021819409 0.246230507
v 0.021791358 -0.024277059 0.243628099
v 0.023273904 -0.025481310 0.241475150
v 0.026374016 -0.025050956 0.238689828
v 0.027600779 -0.025147711 0.234119561
v 0.004420710 -0.025724126 0.240014396
v 0.011766384 -0.026458352 0.240792587
v 0.012808550 -0.023775931 0.246337878
v 0.015811634 -0.025325720 0.243742041
v 0.015335928 -0.023679624 0.245689216
v 0.002127500 -0.020734399 0.245813631
v 0.019245884 -0.026525218 0.240749797
v 0.015055533 -0.026722506 0.240390939
v 0.023052940 -0.026419072 0.237226049
v 0.027377715 -0.025300091 0.227899222
v 0.024449351 -0.025957544 0.216536171
v 0.021666498 -0.026469036 0.213403959
v -0.011712448 -0.023030368 0.214339679
v -0.009841915 -0.024008128 0.211995551
v 0.020759197 -0.026703454 0.208429433
v 0.023292320 -0.026108186 0.208645692
v 0.011537941 -0.028756624 0.201834936
v 0.007906700 -0.028161206 0.203661200
v 0.011009663 -0.028185243 0.204687509
v 0.030587354 -0.025025752 0.192022837
v 0.013683749 -0.027410699 0.218220873
v 0.008631203 -0.027253295 0.217864141
v 0.009078432 -0.027219191 0.224687494
v 0.024818210 -0.027613742 0.194752797
v 0.005580531 -0.026658879 0.220828298
v 0.013223366 -0.031167833 0.193242424
v 0.016088433 -0.031090676 0.192473675
v -0.007041145 -0.025452876 0.208801734
v 0.004277135 -0.030165257 0.196722006
v 0.007103052 -0.030550949 0.196386041
v 0.017231181 -0.029270896 0.198993958
v 0.015984951 -0.029383799 0.199588683
v 0.016869283 -0.028709690 0.200957609
v 0.000640465 -0.029158617 0.198808811
v 0.003492315 -0.028904273 0.200213335
v 0.013358631 -0.027373040 0.211363451
v 0.010646964 -0.027757430 0.207316902
v 0.009701432 -0.027500334 0.212292645
v 0.014602546 -0.027704016 0.206174746
v -0.006966785 -0.024291637 0.215472714
v -0.004337295 -0.025081081 0.216354862
v -0.004396306 -0.025598725 0.213031700
v -0.002633050 -0.026419968 0.208739741
v 0.000097130 -0.026211038 0.214454172
v 0.001854223 -0.030562723 0.194342961
v 0.002417270 -0.026140803 0.219620110
v -0.000838241 -0.025308710 0.219845138
v 0.032756116 -0.023315544 0.192069376
v 0.024063082 -0.026401818 0.224771573
v 0.000391123 -0.027036691 0.207379224
v -0.000227393 -0.027564427 0.203388998
v 0.007406706 -0.027605842 0.208666175
v 0.003648459 -0.027511888 0.207100918
v 0.005715706 -0.027298681 0.212735803
v 0.014852565 -0.028748828 0.200951062
v 0.022016350 -0.028327112 0.197493596
v 0.024693978 -0.026978607 0.198726050
v 0.009731332 -0.030941721 0.194514622
v 0.009063728 -0.029793785 0.198943560
v 0.012268278 -0.030071423 0.197783606
v 0.006339679 -0.026378195 0.237663883
v 0.011958915 -0.027557369 0.231799851
v 0.011062096 -0.027189094 0.237329106
v 0.017857187 -0.027719751 0.203532282
v 0.021402941 -0.029390776 0.193723707
v 0.017306274 -0.027527100 0.235347033
v 0.019585001 -0.028056355 0.200515985
v 0.022965368 -0.026981581 0.201490999
v 0.004439238 -0.026798603 0.216967006
v 0.001682190 -0.028443816 0.201721685
v -0.005141471 -0.025674054 0.210085567
v -0.006760115 -0.025299714 0.212321665
v 0.022279653 -0.026950098 0.230320596
v 0.021306843 -0.026661815 0.217267216
v 0.019746034 -0.027140133 0.221820578
v 0.023336114 -0.026331589 0.220538828
v 0.004796937 -0.028294195 0.202759511
v 0.006059822 -0.029495444 0.199814981
v -0.002873862 -0.027188853 0.203644676
v -0.004663490 -0.026239979 0.207073515
v -0.007926627 -0.023502295 0.218005249
v 0.001568048 -0.027669046 0.204512969
v 0.003007967 -0.028056245 0.202974051
v -0.005853661 -0.024222715 0.218560658
v -0.003089265 -0.024932575 0.218368880
v 0.017869189 -0.027074625 0.213580397
v 0.016206285 -0.027682430 0.227557178
v 0.018265184 -0.030370536 0.193308197
v -0.001189203 -0.027928071 0.201164030
v -0.002766499 -0.028108952 0.199727635
v 0.018890123 -0.029595007 0.196648241
v 0.021052908 -0.026930803 0.204046705
v 0.015659758 -0.030118415 0.196532870
f 1035 1217 948
f 1559 1562 1522
f 1516 1217 948
f 1516 926 948
f 1024 1217 1183
f 1024 1035 1217
f 83 423 39
f 1301 926 1284
f 1487 1458 263
f 1493 1494 1473
f 1554 1541 1522
f 1554 1559 1522
f 1554 1559 1541
f 1523 1516 926
f 1523 1541 1522
f 1523 1562 1522
f 935 926 1284
f 1544 1402 1355
f 1544 1402 1516
f 1202 1172 1183
f 1202 1187 1183
f 1292 1297 970
f 1292 1127 970
f 1292 1291 1297
f 1292 1291 1127
f 107 121 60
f 51 83 39
f 420 83 423
f 420 260 263
f 420 260 423
f 1329 1523 1541
f 1329 1523 926
f 1329 1301 926
f 1329 1301 1409
f 437 112 91
f 161 189 349
f 53 423 39
f 53 51 39
f 53 57 64
f 53 57 94
f 929 926 207
f 929 957 207
f 4 926 948
f 4 929 926
f 4 929 957
f 246 851 948
f 246 4 948
f 1283 1301 1284
f 1283 137 136
f 1505 1523 1562
f 1474 1494 1473
f 1358 1544 1355
f 1358 1544 1297
f 1362 1358 1297
f 253 1487 263
f 1464 1493 1494
f 1561 1516 1496
f 1561 1523 1516
f 1561 1505 1496
f 1561 1505 1523
f 8 935 926
f 8 935 932
f 133 935 932
f 133 935 132
f 120 145 144
f 122 137 145
f 122 120 145
f 315 935 1284
f 315 935 132
f 100 91 88
f 100 91 1409
f 1031 1024 1035
f 1177 1056 1162
f 345 1219 346
f 345 1219 330
f 1433 1464 1493
f 1141 1142 1130
f 1193 1172 1183
f 1153 1202 1187
f 1153 1188 1130
f 1153 1188 1187
f 1153 1142 1130
f 1153 1202 1172
f 1153 1051 1172
f 1153 1051 1142
f 1245 1291 1297
f 1245 1544 1297
f 1245 1516 1217
f 1245 1544 1516
f 1196 1188 1187
f 1196 1217 1183
f 1196 1187 1183
f 1212 1245 1217
f 1212 1291 1127
f 1212 1245 1291
f 1144 1188 1130
f 1144 1143 1127
f 96 60 501
f 96 107 60
f 96 85 102
f 81 85 64
f 81 493 85
f 81 53 64
f 81 53 859
f 98 85 102
f 98 99 102
f 82 99 94
f 82 85 64
f 82 98 85
f 82 98 99
f 82 57 64
f 82 57 94
f 109 99 102
f 95 99 94
f 1457 1458 263
f 1457 260 263
f 58 71 83
f 73 103 84
f 70 76 62
f 70 58 62
f 70 58 71
f 70 73 103
f 70 73 71
f 63 51 94
f 63 53 94
f 63 53 51
f 45 71 83
f 45 51 83
f 419 420 83
f 419 58 83
f 1438 1487 1499
f 1438 1487 411
f 1305 1337 1340
f 1305 1489 1340
f 1305 1489 1343
f 412 1337 411
f 412 1337 1340
f 1406 1329 1409
f 1406 437 112
f 1406 91 1409
f 1406 112 91
f 1406 1329 443
f 1406 437 443
f 1258 1329 443
f 1258 1329 1541
f 441 76 62
f 350 363 364
f 334 333 301
f 24 949 211
f 13 949 211
f 13 246 211
f 13 246 851
f 13 851 948
f 13 931 948
f 13 949 931
f 208 957 207
f 208 206 207
f 915 206 207
f 17 859 433
f 17 458 433
f 1275 1301 136
f 1275 1283 136
f 1275 1283 1301
f 1495 1505 1496
f 1495 1505 1494
f 1495 1474 1494
f 1270 1358 1355
f 978 1297 970
f 1430 1362 1358
f 1468 1516 1496
f 1468 1454 1516
f 1400 1402 1516
f 1400 1454 1402
f 1503 1464 1343
f 1503 1464 1494
f 1503 1505 1562
f 1503 1505 1494
f 1498 1489 1559
f 1498 1489 1343
f 1425 1258 1541
f 1425 1341 1428
f 1425 1258 1428
f 936 8 932
f 123 133 132
f 123 132 144
f 123 121 144
f 503 60 501
f 503 952 60
f 115 107 121
f 115 121 144
f 115 120 144
f 115 107 102
f 104 120 108
f 104 122 120
f 104 103 84
f 314 1283 137
f 314 1283 1284
f 314 315 1284
f 143 137 145
f 143 315 132
f 143 314 137
f 143 314 315
f 143 145 144
f 143 132 144
f 92 103 114
f 116 124 1409
f 116 100 1409
f 116 100 124
f 128 130 124
f 128 92 114
f 135 1301 136
f 135 130 124
f 129 122 114
f 129 135 136
f 129 135 130
f 129 128 114
f 129 128 130
f 1023 1031 1024
f 1044 1023 1024
f 1044 1023 1031
f 1099 963 1035
f 1099 1031 1035
f 1099 1044 1031
f 1036 963 1035
f 329 345 330
f 293 635 279
f 270 293 279
f 270 293 271
f 1118 1115 346
f 1118 1219 346
f 1118 1219 1068
f 400 1177 1162
f 400 329 1162
f 400 345 399
f 400 329 345
f 1431 1433 1499
f 1431 1433 1464
f 1171 1193 1192
f 1171 1193 1172
f 1171 1051 1172
f 1191 1212 1127
f 1191 1144 1127
f 1191 1144 1188
f 1191 1196 1188
f 1191 1196 1217
f 1191 1212 1217
f 1152 1141 1130
f 1152 1144 1130
f 86 493 501
f 86 96 501
f 86 493 85
f 86 96 85
f 97 107 102
f 97 96 102
f 97 96 107
f 105 109 99
f 105 95 99
f 105 109 108
f 105 104 108
f 105 104 84
f 105 94 84
f 105 95 94
f 75 70 103
f 75 70 76
f 75 92 103
f 75 92 76
f 417 420 263
f 417 419 420
f 1304 1337 411
f 1304 1438 411
f 1304 1305 1337
f 453 412 411
f 434 1258 1428
f 434 1258 443
f 434 1341 1428
f 434 412 443
f 434 1341 1340
f 434 412 1340
f 439 453 412
f 439 453 441
f 439 412 443
f 439 437 443
f 439 441 437
f 442 437 91
f 442 441 437
f 442 441 76
f 442 91 88
f 442 76 88
f 410 419 278
f 410 419 58
f 410 58 62
f 410 441 62
f 162 161 349
f 162 350 161
f 469 949 931
f 467 424 403
f 467 431 468
f 467 431 403
f 467 469 468
f 190 350 161
f 190 179 161
f 190 350 364
f 432 210 53
f 326 334 301
f 326 293 301
f 326 293 635
f 484 162 349
f 484 363 364
f 484 350 363
f 484 162 350
f 309 379 465
f 164 163 465
f 164 309 465
f 383 345 346
f 383 374 346
f 383 345 399
f 928 24 949
f 928 469 468
f 928 469 949
f 953 208 206
f 953 915 206
f 974 10 957
f 974 208 957
f 212 246 211
f 212 10 246
f 212 974 10
f 212 24 211
f 212 953 24
f 212 953 208
f 212 974 208
f 962 246 4
f 962 10 246
f 962 4 957
f 962 10 957
f 1003 978 970
f 1003 978 1362
f 372 1362 1402
f 803 1362 1297
f 803 978 1297
f 803 978 1362
f 1379 1270 1358
f 1379 1430 1358
f 1379 1362 1402
f 1379 1430 1362
f 1379 1402 1355
f 1379 1270 1355
f 1460 1468 1496
f 1460 1468 1454
f 1460 372 1462
f 1460 1454 1402
f 1460 372 1402
f 1346 1454 1516
f 1346 1400 1516
f 1346 1400 1454
f 1504 1503 1343
f 1504 1498 1343
f 1504 1498 1559
f 1504 1559 1562
f 1504 1503 1562
f 1497 1489 1340
f 1497 1341 1340
f 1497 1425 1341
f 1497 1489 1559
f 941 936 932
f 941 133 932
f 941 123 133
f 9 926 207
f 9 981 207
f 9 8 926
f 964 503 952
f 964 941 952
f 964 941 936
f 964 973 985
f 964 973 503
f 110 109 108
f 110 120 108
f 110 115 120
f 110 109 102
f 110 115 102
f 119 122 114
f 119 104 122
f 119 103 114
f 119 104 103
f 90 100 124
f 90 128 124
f 90 100 88
f 90 76 88
f 90 92 76
f 1287 124 1409
f 1287 135 124
f 1287 1301 1409
f 1287 135 1301
f 134 122 137
f 134 129 122
f 134 137 136
f 134 129 136
f 804 963 523
f 804 1035 948
f 343 329 1162
f 1203 1024 1183
f 1203 1193 1183
f 1203 1193 1192
f 294 295 271
f 294 293 301
f 294 293 271
f 294 333 301
f 294 295 333
f 764 963 523
f 657 1118 1115
f 657 635 1068
f 657 1118 1068
f 657 1115 346
f 657 502 346
f 657 326 635
f 536 400 399
f 536 400 1177
f 536 383 399
f 1057 1205 1206
f 1057 1176 1206
f 1057 1056 1162
f 1145 1205 1206
f 1145 1142 1206
f 1145 1141 1142
f 1440 1463 1487
f 1440 1471 1487
f 1440 1471 1463
f 1432 1433 1499
f 1432 1471 1463
f 1432 1487 1499
f 1432 1463 1487
f 1441 1493 1473
f 738 1441 730
f 738 726 733
f 1208 1057 1162
f 1208 1057 1176
f 1052 1176 1206
f 1052 1142 1206
f 1052 1051 1142
f 1482 1471 1487
f 1482 1432 726
f 1482 1432 1471
f 1482 1487 1458
f 1482 1457 1458
f 1482 1467 1457
f 149 164 989
f 149 164 163
f 77 45 51
f 77 51 94
f 77 45 71
f 77 94 84
f 77 73 71
f 77 73 84
f 426 417 263
f 426 417 419
f 426 278 263
f 426 419 278
f 1439 1304 1305
f 1439 1438 1499
f 1439 1304 1438
f 1439 1305 1343
f 1439 1431 1499
f 1439 1464 1343
f 1439 1431 1464
f 262 410 278
f 262 453 411
f 262 1487 411
f 262 253 1487
f 262 278 263
f 262 253 263
f 440 453 441
f 440 410 441
f 440 262 453
f 440 262 410
f 7 931 948
f 7 332 948
f 429 469 931
f 429 7 931
f 429 7 332
f 429 467 469
f 409 424 403
f 202 409 331
f 298 202 332
f 373 190 364
f 373 334 364
f 373 334 333
f 404 295 331
f 404 409 331
f 404 409 403
f 180 404 403
f 1117 374 346
f 22 928 24
f 919 944 24
f 226 953 915
f 226 953 24
f 226 919 227
f 226 919 24
f 415 458 433
f 509 81 859
f 509 17 859
f 509 526 17
f 988 1001 726
f 721 726 733
f 721 1001 726
f 492 1462 489
f 492 495 489
f 752 721 733
f 339 1127 970
f 339 1143 1127
f 339 1179 1143
f 339 1179 337
f 370 372 1462
f 200 1003 1362
f 200 372 1362
f 200 370 372
f 1476 1460 1462
f 1476 1495 1474
f 1476 1495 1496
f 1476 1460 1496
f 1557 1497 1559
f 1557 1497 1425
f 1557 1559 1541
f 1557 1425 1541
f 61 123 121
f 61 941 123
f 61 121 60
f 61 952 60
f 61 941 952
f 231 9 981
f 231 936 8
f 231 9 8
f 231 964 985
f 231 964 936
f 521 503 501
f 521 973 503
f 113 128 92
f 113 90 92
f 113 90 128
f 1218 1149 1137
f 1218 1203 1024
f 1218 1203 1149
f 1043 1039 1044
f 1038 1039 1044
f 1038 635 1068
f 1038 1039 1068
f 870 1036 963
f 870 804 963
f 870 1036 1035
f 870 804 1035
f 500 804 948
f 500 804 523
f 1167 343 1162
f 1167 1208 1162
f 1167 1208 1176
f 1084 1043 1077
f 1084 343 329
f 1084 1043 330
f 1084 329 330
f 1124 764 963
f 1124 764 270
f 1124 270 279
f 269 270 271
f 269 764 270
f 269 332 308
f 269 298 332
f 1138 309 379
f 1138 164 989
f 1138 164 309
f 1240 1177 1056
f 1174 1152 1141
f 1174 1152 1144
f 1174 1144 1143
f 1174 1179 1143
f 1437 1432 1433
f 1437 1432 726
f 1437 738 1433
f 1437 738 726
f 1443 738 1433
f 1443 738 1441
f 1443 1433 1493
f 1443 1441 1493
f 724 1467 1457
f 724 260 423
f 724 1457 260
f 724 1482 726
f 724 1482 1467
f 724 988 726
f 724 149 989
f 724 988 989
f 175 422 189
f 175 422 210
f 175 210 53
f 175 724 149
f 175 53 423
f 175 724 423
f 154 149 163
f 154 355 163
f 154 175 189
f 154 175 149
f 154 189 349
f 154 484 349
f 154 355 484
f 203 429 467
f 203 429 332
f 203 467 424
f 203 202 332
f 203 409 424
f 203 202 409
f 299 295 331
f 299 295 271
f 299 298 202
f 299 269 271
f 299 269 298
f 401 373 190
f 401 404 295
f 401 404 190
f 401 295 333
f 401 373 333
f 181 404 190
f 181 180 404
f 181 190 179
f 181 180 179
f 1119 502 346
f 1119 1117 346
f 1119 1117 502
f 384 1117 502
f 384 163 465
f 384 1117 374
f 352 484 364
f 663 354 502
f 663 326 334
f 663 657 326
f 663 657 502
f 911 17 458
f 479 919 944
f 479 911 458
f 479 911 919
f 479 415 458
f 416 431 403
f 416 415 431
f 414 415 433
f 414 859 433
f 414 53 859
f 414 432 53
f 414 432 210
f 414 422 210
f 414 416 422
f 414 416 415
f 508 81 493
f 508 509 81
f 508 509 526
f 991 721 1001
f 991 988 1001
f 991 752 997
f 991 752 721
f 1012 1003 489
f 1012 916 489
f 1012 916 1003
f 1019 495 489
f 1019 916 489
f 1019 916 336
f 1019 997 336
f 1019 752 997
f 338 916 1003
f 338 1003 970
f 338 337 336
f 338 916 336
f 338 339 970
f 338 339 337
f 731 1441 730
f 731 738 733
f 731 738 730
f 741 492 495
f 990 988 989
f 340 1179 337
f 460 1462 489
f 460 370 1462
f 460 200 370
f 460 1003 489
f 460 200 1003
f 753 1476 1462
f 753 1476 1474
f 753 1474 1473
f 753 739 1473
f 753 741 739
f 914 915 207
f 914 913 915
f 914 981 207
f 914 913 981
f 26 919 227
f 26 911 919
f 959 913 981
f 959 973 985
f 959 913 529
f 959 231 985
f 959 231 981
f 25 26 227
f 25 913 529
f 25 26 528
f 209 226 915
f 209 913 915
f 209 25 913
f 209 226 227
f 209 25 227
f 534 25 529
f 534 521 973
f 534 25 528
f 534 959 529
f 534 959 973
f 534 521 501
f 534 508 528
f 534 493 501
f 534 508 493
f 1078 1077 1024
f 1078 1218 1024
f 1086 1043 1039
f 1086 1219 1068
f 1086 1039 1068
f 1086 1219 330
f 1086 1043 330
f 1088 1043 1044
f 1088 1043 1077
f 1088 1044 1024
f 1088 1077 1024
f 1046 1099 1044
f 1046 1038 1044
f 1046 1038 1099
f 1089 1099 963
f 1089 1038 1099
f 1089 1124 279
f 1089 1124 963
f 1089 635 279
f 1089 1038 635
f 1053 1167 1176
f 1053 1052 1051
f 1053 1052 1176
f 1079 1084 1077
f 1079 1078 1077
f 1079 1078 1218
f 1079 1218 1137
f 1079 1084 1137
f 1040 1167 1137
f 1040 1084 1137
f 1040 1167 343
f 1040 1084 343
f 875 332 948
f 875 332 308
f 875 500 948
f 875 496 500
f 875 269 308
f 875 269 496
f 497 269 764
f 497 764 523
f 497 500 523
f 497 496 500
f 497 269 496
f 1058 1057 1056
f 1058 1240 1056
f 1242 1236 379
f 1242 1243 379
f 1242 1243 1236
f 1168 1174 1179
f 1168 1205 1170
f 1168 1179 1170
f 1168 1145 1205
f 1168 1145 1141
f 1168 1174 1141
f 300 202 331
f 300 299 331
f 300 299 202
f 382 384 465
f 382 384 381
f 382 379 465
f 382 1236 379
f 353 352 364
f 353 663 354
f 353 334 364
f 353 663 334
f 377 352 484
f 377 384 163
f 377 354 502
f 377 353 354
f 377 353 352
f 18 526 17
f 18 26 528
f 18 26 911
f 18 508 526
f 18 508 528
f 23 479 944
f 23 479 22
f 23 944 24
f 23 22 24
f 481 479 22
f 481 431 468
f 481 415 431
f 481 479 415
f 481 928 468
f 481 22 928
f 192 416 422
f 192 422 189
f 192 161 189
f 192 179 161
f 192 180 179
f 1485 1019 495
f 1485 1019 752
f 1485 752 733
f 1485 741 495
f 1485 741 739
f 1485 731 733
f 1485 731 739
f 749 739 1473
f 749 731 739
f 749 1441 1473
f 749 731 1441
f 1129 990 989
f 1129 990 968
f 342 991 988
f 342 990 988
f 342 990 968
f 342 340 968
f 341 337 336
f 341 340 337
f 341 997 336
f 341 342 340
f 341 991 997
f 341 342 991
f 1209 1179 1170
f 1209 340 1179
f 1209 340 968
f 742 492 1462
f 742 753 1462
f 742 741 492
f 742 753 741
f 1155 1053 1051
f 1155 1171 1051
f 1155 1171 1192
f 1155 1203 1192
f 1150 1167 1137
f 1150 1053 1167
f 1150 1149 1137
f 1150 1155 1053
f 1150 1203 1149
f 1150 1155 1203
f 1207 1057 1205
f 1207 1058 1057
f 1207 1205 1170
f 1234 1233 1240
f 1234 536 1177
f 1234 1240 1177
f 375 384 381
f 375 384 374
f 375 383 374
f 1244 382 1236
f 1244 382 381
f 1244 375 381
f 499 355 484
f 499 377 484
f 499 355 163
f 499 377 163
f 447 384 502
f 447 377 502
f 447 377 384
f 16 911 17
f 16 18 17
f 16 18 911
f 402 416 403
f 402 192 416
f 402 180 403
f 402 192 180
f 1139 1129 989
f 1139 1243 1236
f 1139 1138 989
f 1139 1138 379
f 1139 1243 379
f 1146 1209 1170
f 1146 1209 968
f 1146 1129 968
f 1146 1139 1129
f 1235 1233 1240
f 537 1234 1233
f 537 1244 1233
f 537 1244 375
f 537 375 383
f 537 536 383
f 537 1234 536
f 1239 1244 1236
f 1239 1244 1233
f 1239 1235 1236
f 1239 1235 1233
f 1048 1207 1170
f 1048 1146 1170
f 1048 1146 1207
f 1049 1139 1236
f 1049 1146 1139
f 1050 1146 1207
f 1050 1207 1058
f 1050 1049 1146
f 1050 1049 1236
f 1216 1050 1058
f 1216 1058 1240
f 1216 1235 1240
f 1216 1235 1236
f 1216 1050 1236
