o collision_band_hull_01
v -0.009414779 0.036840619 0.087492216
v -0.014907758 0.034778833 0.083139135
v -0.010934822 0.038283152 0.080546220
v -0.035138851 0.003813800 0.096303222
v -0.035747080 0.008147500 0.090052983
v -0.031733316 0.009381030 0.099675521
v -0.018246439 0.029572497 0.088429099
v -0.020693368 0.030117993 0.080937723
v 0.015402688 0.044242477 0.058122026
v 0.018339470 0.043297508 0.064129868
v 0.013533128 0.044608627 0.062851153
v 0.016467750 0.034895405 0.100682438
v 0.018618466 0.035724312 0.093683224
v 0.020802489 0.033709703 0.098667003
v 0.020041467 0.037102206 0.087453420
v 0.017867988 0.039040551 0.084476466
v 0.023104311 0.038360974 0.080608621
v 0.022708446 0.031641476 0.103850342
v 0.025424112 0.031635646 0.096706453
v -0.037532571 -0.032460222 0.064159369
v -0.041598196 -0.030193471 0.060322490
v -0.038469011 -0.028266805 0.067772025
v -0.017622453 -0.024317187 0.099097775
v -0.051448787 -0.010654485 0.051196858
v -0.047162407 -0.018376945 0.057416888
v -0.051479853 -0.019243758 0.049679476
v -0.036065508 -0.005714454 0.092811216
v -0.032714554 -0.007627366 0.096904941
v -0.035558841 -0.010700318 0.090077999
v 0.010010740 0.040178057 0.086016629
v 0.014372971 0.039291153 0.086356662
v 0.012369551 0.037595351 0.092483205
v -0.042674456 -0.034014872 0.054685593
v -0.045563563 -0.029749405 0.053902053
v -0.035051013 -0.036203163 0.062636814
v -0.034730254 -0.039740413 0.057769795
v -0.039206360 -0.035743580 0.057800924
v -0.044484039 -0.025011318 0.059247622
v -0.035701938 -0.030288230 0.069756123
v -0.032598920 -0.030172579 0.074499717
v -0.034245474 -0.033456197 0.067593222
v -0.010027445 -0.027816202 0.100918193
v -0.012286358 -0.025285387 0.103440989
v -0.006329377 -0.027979049 0.102926116
v -0.009004801 -0.030580441 0.096995687
v -0.055850232 -0.014814906 0.043819934
v -0.049001708 -0.006764736 0.056017285
v -0.051102655 -0.004663130 0.051676039
v -0.048934047 -0.002481151 0.055488517
v -0.003015829 -0.028337720 0.103556344
v -0.022939442 0.038333733 0.047353082
v -0.015661147 0.041877640 0.047162574
v -0.013020960 0.041582504 0.055464671
v -0.038113313 -0.009043522 0.086716960
v -0.038658824 -0.005506797 0.087586142
v -0.004328802 -0.031095421 0.098032537
v -0.027768964 0.014418724 0.104333490
v -0.029375508 0.013484025 0.097718872
v -0.024487394 0.019233249 0.099881737
v 0.006235993 0.035587347 0.102295510
v 0.011665129 0.035720566 0.100989467
v 0.009083554 0.035189230 0.105079410
v -0.022136200 0.023649841 0.092784691
v -0.017629137 0.027831301 0.095177049
v -0.020146756 0.024357384 0.099402988
v 0.005664163 0.047019034 0.047825187
v 0.006463328 0.045652497 0.055231119
v 0.002554600 0.046021790 0.052064864
v -0.028371193 0.016080874 0.093493972
v 0.016272111 0.037553075 0.089818642
v -0.027144790 -0.010581560 0.103378144
v -0.044978618 -0.034960802 0.050749924
v -0.040757084 -0.039264006 0.051504090
v -0.046005172 -0.038227111 0.046893293
v -0.014100604 -0.029913392 0.094463242
v -0.029142540 -0.005637824 0.104706078
v -0.010866347 -0.033085661 0.091928193
v -0.013511793 -0.035094453 0.086553320
v -0.029336879 -0.013275051 0.096900857
v -0.025738928 -0.015153601 0.100458681
v -0.018033174 -0.033632128 0.084979682
v -0.033116889 -0.001635488 0.099854795
v 0.029232707 0.031166361 0.089705386
v 0.023859065 0.034722368 0.089325622
v 0.029304814 0.034498234 0.081200794
v -0.031591743 0.002578170 0.105139849
v -0.031249185 -0.010204268 0.096650985
v -0.029920515 -0.009049579 0.099985649
v -0.022248182 -0.019911854 0.099360003
v -0.037503408 -0.001562463 0.091566600
v -0.020314488 -0.028348172 0.089843637
v -0.031081861 -0.018179910 0.089597747
v -0.026797746 -0.018868445 0.094471763
v -0.032722207 -0.012882049 0.092513327
v -0.022967869 -0.032569539 0.081914750
v 0.014607452 0.043945782 0.069900707
v 0.021144847 0.041619599 0.072226640
v 0.015879673 0.041548209 0.079314346
v -0.040059091 0.000810713 0.084783876
v -0.039329911 0.005270951 0.084319080
v -0.042253916 0.002582933 0.077693154
v -0.024112736 -0.023781594 0.091693374
v -0.033992903 -0.021062499 0.083171380
v -0.035111215 -0.016172439 0.086421791
v -0.005322431 0.033758706 0.098920323
v -0.004825882 0.035159073 0.094989691
v -0.001772007 0.035258942 0.097980389
v -0.021057479 -0.024315121 0.094656343
v -0.027697164 -0.022342267 0.088918543
v -0.030408662 -0.023811362 0.084435418
v -0.040417272 -0.003478035 0.084075896
v -0.038099824 -0.014010544 0.083341039
v -0.041381654 -0.009738483 0.078725279
v 0.008924311 0.043788645 0.075121139
v 0.008856084 0.045177529 0.064587074
v 0.014951730 0.036225676 0.095827513
v -0.034109751 -0.025632392 0.078564342
v -0.007823407 0.043534209 0.055636397
v -0.003820047 0.044553388 0.056653309
v -0.006258149 0.043737849 0.061297012
v -0.044339316 -0.008237146 0.069888572
v -0.043463388 -0.002848881 0.074624689
v -0.007436783 -0.033552330 0.092962409
v 0.025293991 0.040525162 0.064217761
v -0.025918439 -0.027162744 0.085496684
v 0.027673057 0.037881391 0.074221520
v 0.026781914 0.036990984 0.078414810
v -0.039858605 -0.017124450 0.076613462
v 0.008224432 0.037550353 0.094721835
v 0.009644160 0.046074242 0.051138769
v 0.011302028 0.047371706 0.044408372
v -0.009735723 0.040242835 0.074863936
v -0.014868784 0.037038372 0.075255189
v -0.015139871 0.038880322 0.068541269
v -0.043829934 -0.012344660 0.069043569
v -0.029673368 -0.028574716 0.080101947
v -0.036919023 -0.019130707 0.080812791
v -0.042434602 -0.043053131 0.045597494
v -0.035750756 -0.027414367 0.073938001
v -0.034709273 -0.029034306 0.073189650
v -0.044018906 -0.016570658 0.065596322
v -0.046437451 -0.010635195 0.061833501
v -0.035843360 -0.022380337 0.079615272
v -0.048739796 0.010177264 0.048855152
v -0.051051001 0.005797817 0.047981845
v -0.034208485 -0.028062842 0.075084989
v -0.042128568 -0.015436843 0.071855139
v -0.048329467 -0.028034661 0.051094328
v -0.051536354 -0.026084497 0.047339138
v -0.048036400 -0.024213608 0.053381864
v -0.005691975 0.042014436 0.074973959
v -0.002816035 0.043843913 0.069893131
v -0.001449676 0.041925264 0.080024139
v -0.038219745 -0.023418716 0.074535363
v -0.048054943 0.016027844 0.045325575
v -0.044259019 0.020163939 0.047373222
v -0.047231119 -0.004563008 0.060703254
v -0.054358642 -0.002870340 0.046028092
v -0.046200900 0.013493997 0.050595657
v -0.044372346 0.012383227 0.056962465
v -0.046764812 0.009601520 0.053702063
v -0.043590335 -0.021249796 0.063514193
v -0.026416794 -0.031208831 0.080474296
v -0.029034704 -0.032178777 0.076491138
v -0.045596272 -0.005671092 0.066179081
v 0.029399709 0.028376103 0.097850923
v 0.011258454 0.045201011 0.056942515
v 0.014417075 0.045094863 0.051088017
v 0.027381868 0.028270291 0.104163950
v 0.025875513 0.030050881 0.101763228
v -0.041411464 -0.020143967 0.069691111
v -0.025965250 -0.033788719 0.077733356
v 0.002121623 0.045256931 0.059707925
v 0.030515343 0.025576288 0.104232376
v -0.001960476 0.044583961 0.063317059
v 0.001124001 0.044752049 0.067370502
v 0.017781095 0.045719521 0.043787671
v -0.041190843 -0.024754681 0.066085690
v -0.015995232 -0.037433377 0.079450085
v -0.010969174 -0.038175266 0.081869779
v -0.028062757 -0.034818488 0.073134849
v -0.031018515 -0.033587417 0.071456543
v -0.020266167 -0.035929249 0.079014576
v -0.024229284 -0.036050962 0.075409991
v -0.000443315 0.047364747 0.044212048
v -0.001638408 0.045380509 0.052291991
v -0.051219563 0.000113728 0.049722763
v -0.049163504 0.001733350 0.053336210
v -0.012207832 -0.039901810 0.076495799
v -0.019980317 -0.037864110 0.074282938
v -0.054264754 0.003893853 0.044266625
v -0.045710412 0.016699312 0.048668645
v -0.022190120 0.036027553 0.061014075
v -0.021681493 0.034201259 0.069571602
v -0.006764338 0.040082968 0.081208169
v -0.049767722 -0.036191512 0.043357001
v -0.008078170 0.044492503 0.048958543
v -0.015823830 -0.039986775 0.073264789
v -0.027457333 -0.036638785 0.069911371
v -0.031109705 -0.035704687 0.068236511
v -0.003585443 0.033819782 0.100096422
v -0.003190653 0.033249516 0.103034871
v 0.002686092 0.043982935 0.074196164
v 0.000954626 0.039061429 0.089001735
v 0.003226454 0.036961384 0.096018236
v 0.000152008 0.037221829 0.093561662
v -0.004327389 0.038969288 0.086793646
v -0.002616973 0.036949764 0.092365080
v 0.001302556 0.034974291 0.101378280
v -0.006140154 0.036480772 0.091598592
v -0.023797748 -0.037882882 0.070321948
v 0.004511971 0.041776821 0.082249081
v -0.008263371 0.034288982 0.094664594
v -0.019604896 0.038328409 0.055761499
v -0.044037043 0.016878083 0.052367270
v -0.030293078 -0.038357952 0.064314115
v -0.026746032 -0.038031326 0.067514378
v -0.024902977 -0.040768280 0.064131270
v -0.009329442 0.031722536 0.101245723
v -0.048721648 -0.032104356 0.048195247
v -0.015371366 0.039873284 0.061956875
v -0.053400353 0.007487781 0.043640925
v 0.005552213 0.039196823 0.089661207
v -0.030147686 -0.041748954 0.059527893
v -0.019478886 -0.040112342 0.068851897
v -0.009420311 0.042056555 0.067161530
v -0.047956389 0.005658190 0.053577522
v -0.045655996 -0.001973629 0.065850341
v -0.044719755 0.002641819 0.068903380
v -0.013365748 0.029430292 0.102628785
v -0.022827735 0.025427326 0.086179466
v 0.004741406 0.044951470 0.068293369
v -0.016573467 0.027275225 0.102723829
v -0.032185389 0.011300637 0.093500719
v -0.013468853 0.031628902 0.094271044
v -0.025957493 0.020211434 0.089076480
v -0.031894206 0.013072689 0.090669144
v -0.034128806 0.011781086 0.087720832
v -0.045950393 0.006746906 0.058091958
v -0.030348894 0.016057776 0.087947798
v -0.033830847 0.016986549 0.080721178
v -0.024906700 0.026013906 0.080418578
v -0.028024129 0.020739755 0.083809984
v -0.041948977 0.006979672 0.075100541
v -0.038141398 0.010708138 0.081136546
v -0.018938221 0.033410773 0.076273035
v -0.037890852 0.015532114 0.075458621
v -0.043272425 0.007996028 0.067384176
v -0.036019803 0.019649515 0.073081591
v -0.033452749 0.021498084 0.074748912
v -0.040759010 0.012723189 0.071470739
v -0.029744611 0.023033395 0.077368777
v -0.025006262 0.028941784 0.074863487
v -0.032045044 0.023412035 0.073473447
v -0.045085991 0.005520313 0.063095688
v -0.043879033 0.008881834 0.061775151
v -0.042239251 0.012619801 0.063549863
v -0.037692695 0.028429699 0.046369999
v -0.038129540 0.024443024 0.054338235
v -0.040805940 0.023708305 0.048991285
v -0.029092803 0.030669588 0.062937231
v -0.040311708 0.016270073 0.065064578
v -0.033336782 0.024913853 0.068379846
v -0.030053678 0.026111520 0.072405448
v -0.038608028 0.017698044 0.069491852
v -0.036825178 0.021572155 0.066709168
v -0.036084964 0.024481507 0.061241202
v -0.039064798 0.020599355 0.061066518
v -0.041848968 0.016755041 0.058981459
v -0.033646822 0.028684087 0.055696076
v -0.028459804 0.032777845 0.056172495
v -0.028356994 0.029046710 0.069469910
v -0.033468471 0.027203433 0.061665060
v -0.041427506 0.020655445 0.053658795
v -0.030827732 0.033211513 0.048612102
v -0.024716948 0.035702184 0.053903047
v -0.042876384 0.024290001 0.043888433
v -0.034622700 0.032461551 0.043402536
v -0.046761173 0.001348226 0.059736111
v 0.032838662 0.030201838 0.084974575
v 0.034389733 0.031229842 0.078736127
v 0.044265947 0.026682312 0.043332512
v 0.037697984 0.024163927 0.087630135
v 0.037512839 0.021222441 0.093001877
v 0.034133838 0.026348127 0.091416973
v 0.027207160 0.040561937 0.045459220
v 0.032237136 0.037261143 0.045558356
v 0.029984723 0.037904824 0.048188942
v 0.035280020 0.022462889 0.097079280
v 0.035262182 0.019654789 0.104067725
v 0.032874262 0.024668660 0.098911410
v 0.032004410 0.034292045 0.075337999
v 0.030391895 0.037235475 0.052767635
v 0.027000904 0.039523788 0.050676429
v 0.021965003 0.043430958 0.045150215
v 0.035238151 0.032232812 0.072508721
v 0.039506675 -0.001800477 0.103035813
v 0.038701083 -0.004519390 0.102574646
v 0.023255199 0.041751891 0.049818797
v 0.030106315 0.037634567 0.059311995
v 0.032201243 0.035644945 0.067406101
v 0.040899003 0.028948904 0.047286311
v 0.045203766 0.020897853 0.064633608
v 0.042985327 0.024369639 0.056995110
v 0.046367036 0.018883447 0.056622157
v 0.045682124 0.009109399 0.084721445
v 0.044096385 0.013288763 0.085598005
v 0.046626710 0.012216705 0.080093113
v 0.047758376 0.006205440 0.081060975
v 0.048897451 0.008112326 0.076863724
v 0.050074769 0.002656931 0.075120850
v 0.050828839 0.006872519 0.058237012
v 0.051432107 0.002931691 0.062198016
v 0.050847559 0.006070693 0.065693422
v 0.036613346 0.033798206 0.045838809
v 0.033353037 0.035282318 0.049551670
v 0.044735719 0.024277064 0.046803880
v 0.019131131 0.043906689 0.048662063
v 0.045945238 0.020750878 0.050876463
v 0.049366889 0.016115966 0.047215580
v 0.048668036 0.015187993 0.051806413
v 0.025202550 0.040307021 0.055308089
v 0.019888217 0.042821395 0.055536129
v 0.037426197 0.031590813 0.051006232
v 0.047354163 0.020439281 0.046534858
v 0.049963164 0.011094703 0.054292470
v 0.048187548 0.014901113 0.056200495
v 0.047658552 0.016159034 0.061593182
v 0.043053423 0.025273684 0.050730904
v 0.036399580 0.020041188 0.098438858
v 0.028035925 0.038757520 0.054152460
v 0.034541578 0.033877771 0.056003874
v 0.040450432 0.027998132 0.053154451
v 0.040064735 0.021172242 0.086927705
v 0.037972347 0.030695550 0.056325578
v 0.041065896 0.016144097 0.090534912
v 0.043496135 0.018880768 0.080628031
v 0.033705964 0.034762588 0.062045975
v 0.037385721 0.031555783 0.064769596
v 0.040262121 0.028167429 0.059179104
v 0.051280329 0.002690494 0.068330651
v 0.051582754 -0.001568795 0.062275371
v 0.039655757 0.024379118 0.081523782
v 0.038466860 0.028237613 0.074938534
v 0.036294894 0.027566648 0.083199475
v 0.051827705 0.001152627 0.057007231
v 0.052359891 -0.003088366 0.054848615
v 0.038197144 0.017291304 0.097503568
v 0.041872329 0.024010917 0.075245445
v 0.041773816 0.026292905 0.066498153
v 0.049321349 0.012022206 0.058960193
v 0.052375475 0.003028374 0.051290675
v 0.052906577 -0.000728123 0.051071754
v 0.043456036 0.021539064 0.074781600
v 0.038266240 0.015191253 0.100694967
v 0.038385913 0.012507169 0.103043155
v 0.040341674 0.001073818 0.101021328
v 0.040363901 0.006499888 0.100465795
v 0.042273855 0.002921632 0.095344504
v 0.050217986 0.007300186 0.071306137
v 0.049277166 0.011538729 0.065946958
v 0.045517412 0.019223396 0.072279084
v 0.046490294 0.015688396 0.075896547
v 0.048556476 0.011681299 0.074002727
v 0.044511942 -0.008758772 0.086418803
v 0.045811943 -0.003728062 0.085880566
v 0.047513654 -0.005919558 0.081134775
v 0.040328648 0.011644544 0.097013889
v 0.047285086 0.016751965 0.066887111
v 0.041281027 -0.009298774 0.092537241
v 0.039302327 -0.007597165 0.098415586
v 0.042518534 -0.004636312 0.092783080
v 0.047477906 0.015203988 0.071284943
v 0.051129588 -0.001179685 0.069647577
v 0.042136413 0.006824225 0.094739666
v 0.049845816 -0.004130798 0.074483518
v 0.047964524 0.000003283 0.081859218
v 0.043744599 0.022791550 0.070607494
v 0.055601143 -0.000449112 0.043937624
v 0.054577362 -0.005862843 0.046389008
v 0.053367971 -0.003430324 0.049549243
v 0.053208389 0.005897516 0.046914247
v 0.051314398 0.007316299 0.051952531
v 0.051147062 -0.006972785 0.057773910
v 0.043382532 0.009437131 0.089984861
v 0.043749465 0.004506633 0.090822609
v 0.044432936 0.000466943 0.089708528
v 0.045770671 0.004936922 0.086126401
v 0.040408532 -0.003095719 0.099273924
v 0.042137767 -0.000806679 0.095325463
v 0.038560703 -0.012637342 0.094625239
v 0.049553663 0.018398666 0.043698826
v 0.047364532 0.022282385 0.043593136
v 0.051862711 0.011114734 0.046330374
v 0.050119755 0.012990239 0.048745523
v 0.050907113 0.010553315 0.049870191
v 0.040672599 -0.020712598 0.081262167
v 0.041310838 -0.016841472 0.085408134
v 0.043909312 -0.016514635 0.080067167
v 0.054270958 -0.011581434 0.045453102
v 0.051306027 -0.016919625 0.048760889
v 0.052228286 -0.011571093 0.049634562
v 0.049451017 -0.008647081 0.070648958
v 0.050655812 -0.006243956 0.066203561
v 0.047944924 -0.009818510 0.076446327
v 0.046681219 -0.009008418 0.081132157
v 0.045257395 -0.020114712 0.064663377
v 0.046778372 -0.016318052 0.069640261
v 0.048170300 -0.014636470 0.063892533
v 0.042730252 -0.019853847 0.077845119
v 0.045721000 -0.012090766 0.081052945
v 0.043434262 -0.013259262 0.084901339
v 0.046483177 -0.014599716 0.075357979
v 0.044186249 -0.019555500 0.073583657
v 0.043721834 -0.023200763 0.060499666
v 0.045549488 -0.021200283 0.058795032
v 0.044295317 -0.024163894 0.057462760
v 0.049009829 -0.017118828 0.053627063
v 0.049451027 -0.013428499 0.057463234
v 0.050916712 -0.011802889 0.053142261
v 0.052734843 -0.007454872 0.050969803
v 0.041368936 -0.012789472 0.089318053
v 0.050077790 -0.010071833 0.060903629
v 0.048183222 -0.012524414 0.070397063
v 0.041500318 -0.025780539 0.063767860
v 0.041941930 -0.023934463 0.070080302
v 0.049440333 -0.010398570 0.066441957
v 0.040696018 -0.023347019 0.075882930
v 0.050435471 -0.010562256 0.056922066
v 0.047302522 -0.017962106 0.058254073
v 0.046598271 -0.020620890 0.056365529
v 0.042168122 -0.026392351 0.058432694
v 0.045465664 -0.023151606 0.055026162
v 0.047296509 -0.020207069 0.054620933
v -0.003905572 -0.034195067 0.092823563
v 0.000419693 -0.032987701 0.095102780
v -0.001686912 -0.037484082 0.087047978
v 0.026363434 -0.037145784 0.068779076
v 0.023245748 -0.039346890 0.066339720
v 0.022518606 -0.038607320 0.070979053
v 0.035575273 -0.012268086 0.100954944
v 0.024798269 -0.036951690 0.073765535
v 0.028852166 -0.035176287 0.071472334
v 0.030856641 -0.032942831 0.073632825
v 0.027209171 -0.034447463 0.077072532
v 0.037976680 -0.021254090 0.085800940
v 0.038402228 -0.017162645 0.090006042
v 0.028828944 -0.025879539 0.091425719
v 0.027800902 -0.023964200 0.095645681
v 0.031072076 -0.022087335 0.094313553
v 0.024699937 -0.025109198 0.097767414
v 0.026134094 -0.025776429 0.094794974
v 0.028674972 -0.021173633 0.099099849
v 0.031866407 -0.017247361 0.100575873
v 0.024107659 -0.028133360 0.093237968
v 0.031478554 -0.030792957 0.078830144
v 0.034202621 -0.024846209 0.086068038
v 0.034413367 -0.021832206 0.090339315
v 0.036280925 -0.025611422 0.081206156
v 0.036502619 -0.027890797 0.075389779
v 0.039353293 -0.026101308 0.072715032
v 0.038019305 -0.028186573 0.069200259
v 0.031931499 -0.025449042 0.088253881
v 0.030600754 -0.028266802 0.085456930
v 0.033609185 -0.020101625 0.093786042
v 0.025657250 -0.029617901 0.088848402
v 0.029729794 -0.035450355 0.067133767
v 0.033090544 -0.032656973 0.068135902
v 0.031212800 -0.034959630 0.063721442
v 0.035248416 -0.017125920 0.095122287
v 0.032555777 -0.019301422 0.096235188
v 0.034049145 -0.030872495 0.073103685
v 0.034274630 -0.033040166 0.062736651
v 0.037816422 -0.030172738 0.062762115
v -0.005968564 -0.036080487 0.088965058
v -0.006468409 -0.038430766 0.083965251
v 0.025945005 -0.032587863 0.083284958
v 0.021204262 -0.036301448 0.080348804
v 0.020152520 -0.032583815 0.088823207
v -0.012195975 -0.045230245 0.061039253
v -0.015357770 -0.042446613 0.065476137
v -0.008268341 -0.044084933 0.065528192
v -0.005620047 -0.046417578 0.060604523
v -0.017235483 -0.044639270 0.060488958
v -0.003227306 -0.044414855 0.066573547
v -0.000260785 -0.043712449 0.069352612
v 0.000782774 -0.045347504 0.064345050
v 0.024542541 -0.022758737 0.101752210
v 0.004653155 -0.036610783 0.088072226
v 0.007489120 -0.031957320 0.095926684
v 0.005233560 -0.043955777 0.067389816
v 0.001785901 -0.042562056 0.073812062
v 0.005755399 -0.042598190 0.072637064
v 0.003436841 -0.040515604 0.079798205
v -0.018795859 -0.043088334 0.062676929
v -0.021203229 -0.044143037 0.060500810
v 0.014507790 -0.027104590 0.102776766
v 0.012844038 -0.026508762 0.105156144
v -0.007092013 -0.040804708 0.076995635
v -0.011354613 -0.041792548 0.071153086
v 0.015627453 -0.040154377 0.074527915
v 0.017432921 -0.039043103 0.076726906
v 0.017342849 -0.039726992 0.074448632
v 0.012295323 -0.034983054 0.088826012
v 0.014704758 -0.037970739 0.081412694
v 0.008947446 -0.039121428 0.081783827
v 0.021117148 -0.038201202 0.074800514
v 0.019236091 -0.039559606 0.073087436
v 0.021737639 -0.023041540 0.105044977
v 0.021356856 -0.025298602 0.100790218
v 0.009857177 -0.042905899 0.069083572
v 0.010836130 -0.044264573 0.063966901
v 0.012798553 -0.040220541 0.076980845
v 0.016783585 -0.040163139 0.072749989
v 0.009143179 -0.028018169 0.103135634
v -0.001894394 -0.040694878 0.079486491
v -0.002264556 -0.042141391 0.074216524
v -0.005146860 -0.042887842 0.070991197
v 0.016806293 -0.035793605 0.084922493
v 0.014052495 -0.041365817 0.071907397
v 0.008926164 -0.041728714 0.075144599
v 0.018882395 -0.040510969 0.069232375
v 0.020406051 -0.028431672 0.096101802
v -0.020031791 -0.041870254 0.064475281
v -0.003700376 -0.045395032 0.063606969
v 0.003526665 -0.029310980 0.101654411
v -0.000763789 -0.029568358 0.101465030
v 0.014890897 -0.042426996 0.066273731
v -0.015386635 -0.041129579 0.069724641
v -0.009346724 -0.035855761 0.087946032
v 0.017260267 -0.027859289 0.099405632
v 0.018334144 -0.025656954 0.103024361
v 0.015554402 -0.031068455 0.094706276
v 0.011546084 -0.032141104 0.094294641
v 0.012755463 -0.029756171 0.098375663
v 0.046275226 -0.030015135 0.046919507
v 0.049935485 -0.023650016 0.046438858
v 0.020668315 -0.043247242 0.058184799
v 0.025877269 -0.040898239 0.057102578
v 0.021779955 -0.044928413 0.054458061
v 0.001108457 -0.053132414 0.050699294
v 0.004583246 -0.056366740 0.046526930
v -0.003023131 -0.056470094 0.046525908
v 0.027432991 -0.043067303 0.052388567
v 0.031853667 -0.042182468 0.049580633
v 0.036490510 -0.039176837 0.048982039
v 0.034657191 -0.045970770 0.043637671
v 0.047746176 -0.022859613 0.050826906
v -0.010247561 -0.054653194 0.047827323
v -0.005616081 -0.051576612 0.052174521
v 0.042750500 -0.037952206 0.044104313
v 0.028802550 -0.045833649 0.048068619
v 0.017521821 -0.049022619 0.051533347
v 0.023955645 -0.047519845 0.049474164
v 0.027474929 -0.050839355 0.043493333
v 0.006229047 -0.045648334 0.061943456
v -0.009955316 -0.048721090 0.055191736
v -0.015116495 -0.050206880 0.052519099
v -0.007990674 -0.057830290 0.043803822
v 0.015042728 -0.052354248 0.048448841
v 0.008571916 -0.050580227 0.052847325
v 0.015351799 -0.046267299 0.056566179
v 0.011030982 -0.045827042 0.059681734
v 0.016811811 -0.043446657 0.061349152
v -0.009744555 -0.046923304 0.057947597
v -0.004947406 -0.048660381 0.056317568
v 0.028981349 -0.037511729 0.060434542
v 0.027493451 -0.037460576 0.064565261
v 0.035365418 -0.033077518 0.059009446
v 0.036725097 -0.034180897 0.055602661
v 0.032076585 -0.037856538 0.055397225
v 0.020311241 -0.051857893 0.046528141
v -0.000991780 -0.046518351 0.061134620
v 0.001118410 -0.048034847 0.057880900
v 0.043621285 -0.026142574 0.055481889
v 0.006747117 -0.047265581 0.058296270
v 0.002858573 -0.046551668 0.060537117
v 0.044052584 -0.027558652 0.052303297
v 0.036173362 -0.036156569 0.053005602
v 0.000569943 -0.050357773 0.054151895
v -0.014305242 -0.046873685 0.057228810
v 0.032718157 -0.035092178 0.060215382
v -0.018461832 -0.046715594 0.056785500
v -0.020260394 -0.055517286 0.044038523
v -0.016715520 -0.053544055 0.047925060
v 0.010430123 -0.047451982 0.056927439
v -0.022281446 -0.051968818 0.048620296
v -0.019068713 -0.051217196 0.050653811
v -0.026240795 -0.052784681 0.045514011
v 0.011120940 -0.055437858 0.046115426
v -0.026326697 -0.046081061 0.055564578
v -0.022012012 -0.047849483 0.054381483
v -0.027224275 -0.048954600 0.050807813
v 0.039176068 -0.030688557 0.057546119
v 0.040145805 -0.033277278 0.051698318
v 0.016498523 -0.055113734 0.044325071
v 0.038819797 -0.042147150 0.043903761
v 0.019789689 -0.041277053 0.064691282
v 0.023438121 -0.040410507 0.061643259
v 0.041695926 -0.029008361 0.054891481
v 0.040406719 -0.028086361 0.060305932
v -0.024598431 -0.044257013 0.058934540
v -0.039381472 -0.046285192 0.044481463
v -0.035012002 -0.048436767 0.045594546
v -0.034835554 -0.043377828 0.052727192
v -0.030613378 -0.050182852 0.046813686
v -0.037477009 -0.044890027 0.048310220
v -0.027267568 -0.043192914 0.059194869
v -0.030022157 -0.044893838 0.054979000
v -0.032626746 -0.047043028 0.049673854
v -0.032529373 -0.042420426 0.056290887
f 177 282 278
f 547 282 379
f 185 177 131
f 185 177 278
f 392 282 379
f 392 362 373
f 66 185 131
f 542 559 596
f 437 542 559
f 519 479 498
f 551 400 537
f 551 547 379
f 551 400 379
f 555 559 596
f 555 547 282
f 532 479 498
f 532 509 498
f 532 509 479
f 311 377 376
f 311 377 309
f 394 392 379
f 117 138 74
f 117 138 164
f 590 506 596
f 590 542 596
f 590 542 506
f 489 542 506
f 489 437 542
f 475 584 559
f 475 437 559
f 505 506 596
f 505 519 596
f 504 519 498
f 504 489 498
f 504 489 506
f 504 505 506
f 504 505 519
f 477 547 464
f 477 555 547
f 477 509 464
f 477 509 479
f 196 555 559
f 196 584 559
f 196 282 278
f 196 555 282
f 196 138 74
f 196 149 46
f 453 454 509
f 441 454 509
f 405 400 376
f 405 400 537
f 367 377 297
f 367 377 376
f 367 405 376
f 363 362 373
f 374 311 376
f 374 400 379
f 374 400 376
f 310 311 309
f 295 124 177
f 393 392 282
f 393 350 282
f 158 191 46
f 222 191 46
f 222 196 46
f 222 196 278
f 290 509 297
f 43 50 498
f 526 489 437
f 526 50 498
f 435 437 50
f 435 475 50
f 435 475 437
f 123 475 50
f 478 477 479
f 478 477 555
f 478 555 596
f 478 519 596
f 478 519 479
f 603 196 584
f 603 589 604
f 603 589 584
f 603 196 138
f 298 509 297
f 298 441 509
f 446 441 454
f 357 377 297
f 413 405 537
f 413 405 411
f 413 399 411
f 413 551 537
f 413 399 410
f 413 551 410
f 406 367 297
f 406 405 411
f 406 367 405
f 364 363 308
f 364 310 308
f 364 363 373
f 364 392 373
f 364 394 392
f 360 310 311
f 360 364 310
f 360 394 379
f 360 364 394
f 96 177 131
f 286 295 124
f 286 295 177
f 349 344 350
f 349 344 343
f 247 222 155
f 174 290 509
f 337 363 362
f 337 363 308
f 337 290 308
f 337 349 362
f 301 126 124
f 301 292 296
f 301 292 126
f 52 185 278
f 277 222 278
f 277 222 155
f 233 263 57
f 233 272 263
f 233 3 230
f 143 196 137
f 143 117 74
f 143 196 74
f 172 603 604
f 172 138 164
f 172 603 138
f 606 589 604
f 606 589 78
f 606 172 604
f 527 437 50
f 527 526 50
f 527 526 437
f 515 489 498
f 515 526 498
f 515 526 489
f 77 43 78
f 530 475 584
f 530 123 475
f 530 77 123
f 530 77 78
f 530 589 584
f 530 589 78
f 463 457 464
f 463 509 464
f 463 453 509
f 458 453 454
f 458 446 454
f 458 446 457
f 458 463 453
f 458 463 457
f 459 547 464
f 459 457 464
f 459 446 457
f 412 298 411
f 412 399 411
f 397 399 410
f 397 551 410
f 397 459 551
f 397 459 446
f 356 290 297
f 356 310 309
f 356 310 308
f 365 406 297
f 365 406 411
f 365 298 297
f 365 298 411
f 341 360 379
f 341 360 311
f 341 374 379
f 341 374 311
f 232 66 131
f 232 66 185
f 97 124 177
f 97 96 177
f 97 126 124
f 378 349 362
f 378 349 350
f 378 393 350
f 378 392 362
f 378 393 392
f 112 196 149
f 112 196 137
f 99 158 191
f 99 158 46
f 76 43 498
f 76 86 498
f 76 112 29
f 251 247 57
f 251 247 222
f 249 263 57
f 249 247 57
f 345 344 343
f 283 290 343
f 283 174 290
f 283 345 343
f 283 345 174
f 62 174 509
f 62 509 498
f 62 86 498
f 62 169 174
f 62 169 18
f 62 86 57
f 62 202 230
f 62 233 230
f 62 233 57
f 334 349 343
f 334 337 349
f 334 290 343
f 334 337 290
f 287 286 124
f 287 301 124
f 287 301 315
f 287 315 282
f 287 177 282
f 287 286 177
f 339 301 296
f 339 301 315
f 339 315 282
f 339 350 282
f 339 344 296
f 339 344 350
f 197 52 185
f 273 272 263
f 273 277 278
f 273 277 263
f 194 134 278
f 194 134 3
f 89 80 117
f 89 117 164
f 75 43 78
f 75 172 43
f 153 62 212
f 1 3 230
f 44 43 50
f 44 123 50
f 44 77 123
f 597 551 547
f 597 459 547
f 597 459 551
f 371 298 441
f 371 412 441
f 371 412 298
f 398 446 441
f 398 412 441
f 398 397 446
f 398 412 399
f 398 397 399
f 358 356 309
f 358 377 309
f 358 357 377
f 358 357 297
f 358 356 297
f 355 290 308
f 355 356 308
f 355 356 290
f 115 96 131
f 115 232 131
f 176 152 185
f 176 232 185
f 17 126 18
f 17 97 18
f 17 97 126
f 98 97 96
f 98 97 18
f 27 112 29
f 27 76 29
f 27 76 86
f 100 222 191
f 100 99 191
f 71 80 117
f 71 143 117
f 71 76 43
f 71 89 80
f 71 89 43
f 104 143 137
f 104 112 137
f 104 76 112
f 104 71 143
f 104 71 76
f 266 277 263
f 266 249 263
f 266 249 277
f 265 247 155
f 265 249 247
f 265 277 155
f 265 249 277
f 281 344 296
f 281 345 344
f 281 292 296
f 281 345 174
f 281 169 174
f 85 126 18
f 85 169 18
f 85 292 126
f 85 281 292
f 85 281 169
f 209 207 202
f 209 62 202
f 209 153 207
f 209 153 62
f 226 197 52
f 51 52 278
f 51 134 278
f 51 226 52
f 2 233 3
f 2 194 3
f 2 194 233
f 261 233 272
f 261 194 233
f 261 194 278
f 261 273 278
f 261 273 272
f 23 89 164
f 23 89 43
f 23 172 164
f 23 172 43
f 81 75 78
f 81 75 172
f 81 606 78
f 81 606 172
f 219 202 230
f 219 1 230
f 219 207 202
f 219 1 207
f 42 77 43
f 42 44 43
f 42 44 77
f 114 115 96
f 114 115 232
f 114 98 96
f 114 62 212
f 114 98 62
f 203 176 152
f 203 176 232
f 203 153 152
f 203 114 232
f 203 153 212
f 203 114 212
f 12 62 18
f 12 98 18
f 12 98 62
f 54 112 149
f 54 27 112
f 90 27 86
f 245 251 57
f 245 100 57
f 245 251 222
f 245 100 222
f 6 86 57
f 6 100 57
f 4 100 99
f 4 90 86
f 4 90 99
f 4 6 86
f 4 6 100
f 120 226 152
f 120 226 197
f 120 152 185
f 120 197 185
f 132 134 3
f 132 226 134
f 221 226 134
f 221 51 134
f 221 51 226
f 55 149 46
f 55 54 149
f 55 54 27
f 55 90 27
f 111 99 46
f 111 90 99
f 111 55 46
f 111 55 90
f 195 132 3
f 195 153 207
f 195 1 3
f 195 1 207
f 151 132 226
f 151 195 132
f 151 226 152
f 151 153 152
f 151 195 153
