o collision_band_hull_03
v 0.043608000 0.005428500 0.189323000
v 0.025268000 -0.024982500 0.172605000
v -0.003520000 0.041461500 0.209513000
v -0.031827000 0.026659500 0.191461000
v -0.033318000 0.027070500 0.196241000
v 0.027527000 0.025911500 0.182776000
v -0.001772000 0.037793500 0.186728000
v 0.025571000 0.018221500 0.168684000
v 0.022483000 0.020737500 0.168613000
v 0.032015000 -0.003989500 0.158572000
v -0.038106000 -0.016824500 0.188047000
v -0.040458000 -0.016813500 0.194823000
v -0.039963000 -0.012983500 0.189184000
v 0.034393000 0.008620500 0.173332000
v -0.009448000 -0.029158500 0.163316000
v -0.008720000 -0.030858500 0.167078000
v -0.005169000 -0.047333500 0.212951000
v -0.007753000 -0.048019500 0.202601000
v -0.013353000 -0.029319500 0.168096000
v -0.010018000 -0.046879500 0.200554000
v -0.012562000 -0.046531500 0.202368000
v -0.022157000 -0.041889500 0.206486000
v -0.031629000 -0.029592500 0.195446000
v -0.031677000 -0.024855500 0.185826000
v -0.040810000 -0.021717500 0.211997000
v -0.027501000 -0.037799500 0.206967000
v -0.016057000 -0.044784500 0.212429000
v -0.016961000 -0.044709500 0.210141000
v -0.018804000 -0.043667500 0.213190000
v -0.008803000 -0.027599500 0.152437000
v -0.023007000 -0.019143500 0.158165000
v -0.026740000 -0.016589500 0.162362000
v -0.028235000 -0.013345500 0.159864000
v 0.029932000 -0.021419500 0.175211000
v -0.024397000 -0.020327500 0.165065000
v 0.019641000 0.037212500 0.215438000
v -0.041716000 0.016109500 0.200627000
v 0.041708000 -0.005702500 0.184190000
v 0.040204000 -0.002444500 0.180769000
v -0.031028000 0.029460500 0.210753000
v -0.026342000 -0.023501500 0.174772000
v 0.041923000 0.016552500 0.213438000
v 0.044736000 0.014511500 0.205753000
v 0.048083000 -0.010134500 0.202354000
v 0.047662000 -0.002297500 0.196261000
v 0.043169000 -0.017486500 0.214553000
v 0.043225000 -0.021651500 0.203351000
v 0.030873000 -0.033968500 0.193095000
v 0.019645000 -0.023645500 0.156792000
v -0.014680000 -0.025334500 0.158602000
v -0.001955000 -0.032487500 0.167217000
v 0.022808000 -0.021268500 0.157005000
v 0.020130000 -0.028769500 0.170923000
v 0.020474000 -0.026054500 0.165826000
v 0.018127000 -0.025533500 0.160003000
v 0.025687000 -0.033942500 0.185126000
v 0.022909000 -0.031600500 0.178204000
v 0.026274000 -0.036545500 0.190834000
v 0.019963000 -0.022808500 0.151690000
v 0.013720000 -0.026120500 0.151369000
v -0.017717000 -0.026601500 0.167425000
v -0.010021000 -0.036072500 0.178620000
v -0.005137000 -0.029347500 0.156774000
v -0.009516000 -0.027838500 0.158153000
v -0.005623000 -0.030577500 0.163375000
v 0.009276000 0.024567500 0.153031000
v 0.012972000 0.024551500 0.163944000
v 0.020591000 0.019030500 0.155355000
v 0.020530000 0.019962500 0.162057000
v 0.015241000 0.022319500 0.153539000
v 0.022668000 0.017146500 0.150637000
v 0.038824000 -0.013505500 0.182848000
v 0.040745000 -0.009461500 0.183707000
v 0.024122000 0.015814500 0.155743000
v 0.027759000 0.031494500 0.192873000
v 0.016455000 0.031606500 0.182001000
v 0.017796000 0.027703500 0.176347000
v 0.010050000 0.037160500 0.190095000
v 0.004581000 0.035456500 0.183162000
v 0.011833000 0.034123500 0.183877000
v 0.005163000 0.040072500 0.197558000
v 0.006670000 0.039020500 0.193902000
v 0.010459000 0.038428500 0.195199000
v -0.000427000 0.041560500 0.201840000
v 0.037383000 0.025820500 0.200755000
v 0.035334000 0.027583500 0.206569000
v 0.037424000 0.024391500 0.195738000
v 0.039794000 0.022227500 0.198219000
v 0.039117000 0.023319500 0.206377000
v 0.044873000 0.011996500 0.198430000
v 0.044289000 0.013278500 0.210195000
v 0.046366000 0.009355500 0.203392000
v 0.042956000 0.018321500 0.202773000
v 0.044968000 0.009758500 0.214206000
v 0.043366000 0.013419500 0.213863000
v 0.043048000 0.016689500 0.208818000
v 0.048515000 -0.003539500 0.200623000
v 0.045975000 0.002384500 0.193433000
v 0.047219000 0.004186500 0.203380000
v 0.047782000 0.000703500 0.200296000
v 0.047261000 -0.000449500 0.209050000
v 0.046077000 0.005404500 0.212293000
v 0.046428000 -0.007521500 0.213868000
v 0.046891000 -0.002345500 0.215401000
v 0.047467000 -0.003726500 0.210661000
v 0.042254000 0.019105500 0.206131000
v 0.037247000 0.023691500 0.215574000
v 0.039062000 0.021177500 0.214859000
v 0.040572000 0.019954500 0.210115000
v 0.040737000 0.021684500 0.203484000
v 0.040861000 0.021378500 0.200812000
v 0.039911000 0.020054500 0.194448000
v 0.046436000 0.006340500 0.198854000
v 0.038638000 0.016834500 0.187959000
v 0.040299000 0.011225500 0.185775000
v 0.042387000 0.013943500 0.193112000
v 0.044776000 -0.002924500 0.189311000
v 0.036358000 0.022167500 0.190028000
v 0.048230000 -0.002997500 0.204175000
v 0.047119000 -0.006560500 0.194774000
v 0.044643000 0.008362500 0.194190000
v 0.042562000 0.001856500 0.185373000
v 0.047901000 0.000499500 0.205476000
v 0.046998000 0.004229500 0.207651000
v 0.046837000 -0.014457500 0.201153000
v 0.048459000 -0.007188500 0.203143000
v 0.047815000 -0.002617500 0.207163000
v 0.046049000 -0.015033500 0.197719000
v 0.048007000 -0.005171500 0.206940000
v 0.047508000 -0.007974500 0.208342000
v 0.046230000 -0.012110500 0.210626000
v 0.047486000 -0.011232500 0.205566000
v 0.045444000 -0.011481500 0.215720000
v 0.047341000 -0.012410500 0.202776000
v 0.044203000 -0.017305500 0.196065000
v 0.022739000 -0.039430500 0.193048000
v 0.042969000 -0.012165500 0.189015000
v 0.045400000 -0.016552500 0.205685000
v 0.041069000 -0.023422500 0.207578000
v 0.040876000 -0.022541500 0.211382000
v 0.040057000 -0.026382500 0.202621000
v 0.043776000 -0.015751500 0.213112000
v 0.044051000 -0.015985500 0.211330000
v 0.037951000 -0.026406500 0.213271000
v 0.039328000 -0.024346500 0.214224000
v 0.045014000 -0.018497500 0.200806000
v 0.036659000 -0.029758500 0.208753000
v 0.039800000 -0.026632500 0.199255000
v 0.035944000 -0.028360500 0.213455000
v 0.035348000 -0.028073500 0.190227000
v 0.037583000 -0.023071500 0.188135000
v -0.003690000 -0.047627500 0.198663000
v 0.030293000 -0.035280500 0.211647000
v 0.031416000 -0.035110500 0.208024000
v 0.028040000 -0.037593500 0.210341000
v 0.033478000 -0.033148500 0.205268000
v 0.023746000 -0.041766500 0.202742000
v 0.020251000 -0.043501500 0.202331000
v 0.017872000 -0.044846500 0.201127000
v 0.025568000 -0.040170500 0.200706000
v 0.022293000 -0.042001500 0.200384000
v 0.026752000 -0.038371500 0.197872000
v -0.014287000 -0.045638500 0.210455000
v 0.018654000 -0.043913500 0.199635000
v 0.014176000 -0.045502500 0.215589000
v 0.010869000 -0.046459500 0.214291000
v 0.018796000 -0.043908500 0.213042000
v 0.023130000 -0.040503500 0.195733000
v 0.023512000 -0.040658500 0.198611000
v 0.020120000 -0.042266500 0.197488000
v 0.008141000 -0.047175500 0.214488000
v 0.004969000 -0.048649500 0.206326000
v 0.010947000 -0.047464500 0.201624000
v 0.005744000 -0.047402500 0.197885000
v 0.016319000 -0.044686500 0.199234000
v 0.014213000 -0.046462500 0.201630000
v 0.011919000 -0.046570500 0.199023000
v 0.009196000 -0.046948500 0.198356000
v 0.009747000 -0.048061500 0.203925000
v 0.007360000 -0.048391500 0.202370000
v -0.007067000 -0.047076500 0.214398000
v -0.004019000 -0.047046500 0.215626000
v 0.002769000 -0.047357500 0.215042000
v -0.005820000 -0.046845500 0.215765000
v -0.002576000 -0.047858500 0.212631000
v -0.007933000 -0.047420500 0.211363000
v -0.006451000 -0.048239500 0.206833000
v 0.001088000 -0.047682500 0.198225000
v 0.001408000 -0.048602500 0.207412000
v 0.003118000 -0.048605500 0.202681000
v 0.002757000 -0.042623500 0.186741000
v -0.002197000 -0.041288500 0.184775000
v -0.001206000 -0.045551500 0.192656000
v -0.011040000 -0.047278500 0.207173000
v -0.009908000 -0.046507500 0.213745000
v -0.007197000 -0.044596500 0.192590000
v -0.011540000 -0.045715500 0.197890000
v -0.016890000 -0.044826500 0.205663000
v -0.021500000 -0.042660500 0.212850000
v -0.021347000 -0.042535500 0.210634000
v -0.020919000 -0.025579500 0.169824000
v -0.022603000 -0.032209500 0.183288000
v -0.015372000 -0.033867500 0.178714000
v -0.034457000 -0.024137500 0.190979000
v -0.028407000 -0.025079500 0.180336000
v -0.023508000 -0.026448500 0.175459000
v -0.034168000 -0.028276500 0.200645000
v -0.037936000 -0.021167500 0.195553000
v -0.025200000 -0.036974500 0.196416000
v -0.024201000 -0.040832500 0.212272000
v -0.036738000 -0.026671500 0.208409000
v -0.030761000 -0.033645500 0.204178000
v -0.032936000 -0.032419500 0.211031000
v -0.045133000 -0.011092500 0.205539000
v -0.044822000 -0.015210500 0.212412000
v -0.013000000 -0.042697500 0.192287000
v -0.042290000 -0.012703500 0.198162000
v 0.027861000 -0.037024500 0.214384000
v 0.022301000 -0.042324500 0.206902000
v 0.042103000 -0.023186500 0.199724000
v 0.034676000 -0.030674500 0.193791000
v 0.034399000 -0.008212500 0.171022000
v 0.031550000 -0.007127500 0.159589000
v 0.031190000 -0.006714500 0.155687000
v 0.009734000 -0.027897500 0.150977000
v 0.004866000 -0.031765500 0.165711000
v 0.044566000 0.014654500 0.201672000
v 0.015270000 -0.031896500 0.172274000
v 0.008936000 -0.029145500 0.158312000
v -0.002332000 -0.034539500 0.172631000
v -0.023400000 0.020805500 0.169577000
v -0.024175000 0.015877500 0.159572000
v -0.025182000 0.016153500 0.163292000
v -0.023162000 0.015477500 0.153011000
v 0.023973000 0.017355500 0.162652000
v -0.006002000 0.028345500 0.167057000
v -0.006518000 0.026914500 0.162557000
v -0.031086000 0.013312500 0.172454000
v 0.000271000 0.025841500 0.155570000
v -0.007051000 0.030852500 0.173549000
v 0.005543000 0.027180500 0.165197000
v 0.001241000 0.026888500 0.162041000
v -0.002677000 0.027755500 0.164782000
v 0.031454000 0.003049500 0.157996000
v 0.028816000 -0.018720500 0.169926000
v 0.002021000 -0.033889500 0.171047000
v 0.035475000 -0.003157500 0.171503000
v 0.032852000 -0.006183500 0.164532000
v 0.032984000 0.001925500 0.163949000
v 0.033874000 0.018124500 0.181312000
v 0.031976000 0.012469500 0.172515000
v 0.045849000 0.009697500 0.208494000
v -0.016952000 0.034028500 0.185004000
v -0.002495000 0.029871500 0.170697000
v -0.014154000 0.024520500 0.161535000
v -0.006509000 0.037885500 0.187067000
v -0.003002000 0.026602500 0.160127000
v -0.006044000 0.025679500 0.156446000
v 0.019356000 0.036746500 0.200839000
v -0.018170000 0.037110500 0.192498000
v -0.017521000 0.038857500 0.198356000
v -0.016429000 0.030438500 0.178661000
v -0.019263000 -0.043528500 0.209088000
v -0.014987000 -0.045178500 0.215630000
v -0.011399000 -0.046511500 0.212208000
v 0.020628000 -0.036914500 0.184499000
v 0.013469000 -0.038656500 0.182638000
v 0.016059000 -0.045140500 0.212951000
v 0.013472000 -0.046332500 0.211405000
v 0.003915000 -0.037986500 0.178817000
v 0.030638000 -0.036035500 0.198679000
v 0.028962000 -0.036233500 0.195454000
v 0.025641000 -0.038412500 0.194708000
v 0.024444000 -0.040471500 0.210370000
v 0.025062000 -0.039237500 0.215007000
v 0.006128000 -0.047222500 0.214360000
v 0.025334000 0.034705500 0.202972000
v -0.008751000 -0.040416500 0.185315000
v -0.039558000 0.019340500 0.198100000
v -0.012036000 0.037244500 0.187603000
v 0.027980000 0.015602500 0.168531000
v -0.030178000 0.019387500 0.179147000
v -0.030893000 0.030083500 0.201947000
v -0.015885000 0.021662500 0.152645000
v -0.031689000 0.000534500 0.153079000
v 0.024663000 -0.020999500 0.164189000
v -0.036697000 0.014805500 0.186902000
v -0.048269000 -0.003700500 0.211732000
v -0.029027000 -0.018529500 0.171599000
v -0.008819000 0.040050500 0.192717000
v -0.020582000 0.029956500 0.182081000
v -0.039071000 0.022281500 0.212627000
v 0.012599000 0.038479500 0.199581000
v 0.031426000 0.031261500 0.203237000
v 0.006043000 0.040171500 0.212376000
v -0.025757000 0.034056500 0.198951000
v -0.011802000 0.040500500 0.215696000
v -0.000259000 0.041182500 0.212617000
v 0.000381000 0.041339500 0.207341000
v 0.032242000 0.029596500 0.196307000
v 0.007202000 -0.048015500 0.209858000
v 0.035571000 -0.031123500 0.196715000
v 0.010414000 -0.047497500 0.210226000
v -0.024419000 -0.039570500 0.201360000
v 0.015094000 0.022876500 0.160193000
v 0.028359000 0.032626500 0.198013000
v 0.001571000 0.028360500 0.167487000
v 0.002694000 0.030985500 0.174135000
v 0.017866000 0.021251500 0.159258000
v -0.005137000 -0.036764500 0.177802000
v 0.005795000 -0.030378500 0.160703000
v 0.001223000 -0.031949500 0.165144000
v -0.001502000 -0.031023500 0.161600000
v 0.012855000 -0.028724500 0.162485000
v 0.003938000 -0.029615500 0.153043000
v 0.021331000 -0.023894500 0.161799000
v 0.009660000 -0.030725500 0.165595000
v 0.012605000 -0.027226500 0.155768000
v 0.029722000 -0.034166500 0.191037000
v 0.011363000 -0.034511500 0.174525000
v 0.008979000 -0.037107500 0.178316000
v -0.030392000 -0.013018500 0.165052000
v -0.028875000 -0.010930500 0.156324000
v -0.029616000 -0.011238500 0.160377000
v 0.023154000 0.030361500 0.185138000
v 0.029810000 -0.029546500 0.184274000
v 0.033814000 -0.026059500 0.185696000
v 0.036921000 -0.027673500 0.192993000
v 0.038804000 -0.026453500 0.194812000
v 0.036354000 -0.028164500 0.193005000
v 0.037405000 -0.029664500 0.199685000
v 0.031698000 -0.035749500 0.202961000
v 0.034858000 -0.032440500 0.201627000
v 0.034825000 -0.031758500 0.207835000
v 0.036883000 -0.030436500 0.203127000
v 0.040928000 -0.021460500 0.214270000
v 0.037855000 -0.027239500 0.210061000
v 0.037762000 -0.028701500 0.206369000
v 0.042429000 -0.019336500 0.210863000
v 0.035965000 -0.020139500 0.183388000
v 0.039929000 -0.017290500 0.187325000
v 0.044141000 -0.015326500 0.193221000
v 0.041970000 -0.019838500 0.193029000
v 0.045881000 -0.011073500 0.194326000
v 0.044371000 -0.007684500 0.189539000
v 0.034066000 0.026411500 0.192688000
v 0.041264000 0.006126500 0.184276000
v 0.037532000 0.007454500 0.178179000
v 0.037195000 0.024462500 0.211371000
v -0.001657000 -0.030055500 0.155859000
v 0.033902000 -0.033242500 0.199223000
v 0.038133000 -0.006635500 0.177917000
v -0.038911000 -0.021364500 0.201628000
v -0.019056000 -0.029134500 0.174138000
v -0.021524000 -0.040405500 0.197065000
v -0.018259000 -0.039194500 0.190183000
v -0.045252000 -0.007092500 0.202252000
v -0.047336000 0.004390500 0.208055000
v 0.004253000 -0.045608500 0.192442000
v -0.023243000 -0.036547500 0.191832000
v 0.008620000 -0.047481500 0.212494000
v 0.007344000 -0.047674500 0.212996000
v -0.004172000 -0.048137500 0.209380000
v 0.003744000 -0.048143500 0.210906000
v 0.015949000 -0.045518500 0.200690000
v 0.011074000 -0.045663500 0.196071000
v 0.007872000 -0.048462500 0.205740000
v 0.021734000 -0.042865500 0.204499000
v 0.018161000 -0.044873500 0.204510000
v 0.014829000 -0.046421500 0.205291000
v 0.013087000 -0.046911500 0.207501000
v 0.016417000 -0.045264500 0.208944000
v 0.022115000 -0.041325500 0.214121000
v 0.012151000 -0.047103500 0.204298000
v 0.024443000 -0.040624500 0.207291000
v 0.020295000 -0.043347500 0.209623000
v 0.028583000 -0.037716500 0.200602000
v 0.027581000 -0.038593500 0.206603000
v 0.027281000 -0.039182500 0.203185000
v 0.024231000 -0.040961500 0.205373000
v 0.026420000 -0.038486500 0.212326000
v 0.032485000 -0.033207500 0.211490000
v 0.035549000 -0.031300500 0.205329000
v 0.035320000 -0.030274500 0.211294000
v 0.033556000 -0.031488500 0.215863000
v -0.002200000 -0.048697500 0.204311000
v 0.032726000 0.028990500 0.211509000
v 0.028342000 0.032325500 0.213889000
v 0.013483000 0.038760500 0.214181000
v 0.018738000 0.036965500 0.208437000
v -0.004016000 0.041766500 0.214357000
v -0.006098000 0.042011500 0.209001000
v -0.013072000 0.040558500 0.208313000
v -0.016672000 0.038554500 0.211966000
v -0.035634000 0.025917500 0.213428000
v -0.025228000 0.033529500 0.215169000
v -0.040254000 0.019967500 0.205591000
v -0.037523000 0.023369500 0.207247000
v -0.045937000 0.009105500 0.207144000
v -0.027161000 0.032415500 0.208137000
v -0.022172000 0.035743500 0.209072000
v -0.008718000 0.041677500 0.211860000
v -0.045557000 0.012049500 0.215407000
v 0.043472000 -0.020028500 0.197290000
v 0.030786000 -0.034460500 0.215150000
v 0.031278000 -0.034448500 0.212678000
v 0.008432000 -0.045627500 0.193648000
v 0.007821000 -0.041956500 0.186254000
v 0.012041000 -0.043274500 0.190956000
v -0.018881000 0.023130500 0.165787000
v -0.015093000 0.023119500 0.157740000
v 0.002045000 -0.030751500 0.159842000
v 0.014331000 -0.045173500 0.197140000
v 0.017289000 -0.043637500 0.197165000
v 0.047980000 -0.010170500 0.199374000
v 0.048342000 -0.005796500 0.198878000
v -0.012182000 -0.027469500 0.161905000
v -0.043417000 0.014881500 0.206810000
v -0.018666000 0.021137500 0.158904000
v 0.000476000 -0.048029500 0.211904000
v -0.001327000 -0.048464500 0.209162000
v -0.007702000 -0.047047500 0.198408000
v -0.004961000 -0.046589500 0.196091000
v -0.016643000 -0.043869500 0.198459000
v -0.020499000 -0.042521500 0.201936000
v -0.028491000 -0.031010500 0.190622000
v -0.033922000 -0.019558500 0.181954000
v -0.029058000 -0.034222500 0.199179000
v -0.046306000 -0.008342500 0.206734000
v -0.046468000 -0.010163500 0.210803000
v 0.029257000 -0.013783500 0.161290000
v 0.030021000 -0.011076500 0.156475000
v 0.042576000 0.017758500 0.198732000
v 0.031029000 -0.010150500 0.161999000
v 0.042666000 0.009305500 0.189584000
v 0.034458000 0.000467500 0.168641000
v -0.018747000 -0.021878500 0.154074000
v -0.026045000 -0.014765500 0.155199000
v 0.044266000 -0.014373500 0.213705000
v -0.015940000 0.039231500 0.208004000
v -0.018296000 0.038291500 0.207039000
v -0.016435000 0.039308500 0.205297000
v 0.002398000 0.039321500 0.191753000
v 0.014483000 0.038207500 0.204305000
v -0.004378000 0.040338500 0.192760000
v -0.001433000 0.041141500 0.196920000
v -0.007285000 0.041964500 0.199409000
v -0.013888000 0.040552500 0.201978000
v -0.009211000 0.042097500 0.205832000
v 0.012408000 0.038681500 0.208929000
v -0.004683000 0.042114500 0.205112000
v 0.007357000 0.039916500 0.204362000
v 0.032398000 0.030053500 0.206982000
v 0.029660000 0.031826500 0.208454000
v 0.024819000 0.034519500 0.210440000
v 0.027993000 0.033229500 0.206019000
v -0.021286000 0.036756500 0.197343000
v -0.020281000 0.037593500 0.202499000
v -0.029017000 0.030729500 0.194805000
v 0.016054000 0.036885500 0.194773000
v -0.013050000 0.040116500 0.195854000
v -0.032662000 0.022832500 0.187238000
v 0.017281000 0.034506500 0.188560000
v -0.027201000 0.028462500 0.187313000
v 0.023126000 0.034442500 0.194816000
v 0.006058000 0.028745500 0.170298000
v -0.012013000 0.031717500 0.177674000
v 0.046876000 0.000698500 0.211872000
v 0.029341000 0.007980500 0.155260000
v 0.026835000 0.012168500 0.153826000
v 0.026652000 0.013678500 0.160603000
v 0.010313000 0.030073500 0.175559000
v 0.030327000 0.007319500 0.160689000
v 0.029635000 0.028402500 0.189284000
v 0.031889000 0.023921500 0.185526000
v 0.027867000 0.020313500 0.175442000
v 0.029499000 0.011256500 0.164561000
v 0.028436000 0.010597500 0.158897000
v 0.030525000 0.016651500 0.174577000
v 0.034289000 0.004131500 0.169939000
v 0.031947000 0.007983500 0.167094000
v 0.032044000 0.004483500 0.163428000
v 0.031499000 0.000150500 0.152705000
v 0.023057000 0.024610500 0.176075000
v 0.018957000 0.023941500 0.170647000
v 0.009789000 0.026872500 0.167997000
v 0.014506000 0.025669500 0.169714000
v 0.009248000 0.025748500 0.163129000
v 0.011292000 0.024405500 0.159111000
v -0.012215000 0.023362500 0.152056000
v -0.002851000 0.033737500 0.178747000
v -0.024144000 0.025178500 0.178707000
v -0.011012000 0.024589500 0.156386000
v -0.010620000 0.025926500 0.161717000
v -0.010261000 0.028092500 0.168582000
v -0.022117000 0.023640500 0.172491000
v -0.025722000 0.021598500 0.174497000
v -0.020058000 0.018703500 0.154321000
v 0.004561000 0.025460500 0.152560000
v 0.005971000 0.025763500 0.158877000
v 0.017583000 0.022418500 0.164541000
v -0.030063000 0.006388500 0.157099000
v -0.028021000 0.008001500 0.150825000
v -0.026481000 0.011729500 0.156583000
v -0.030315000 0.008404500 0.162298000
v -0.032996000 0.003241500 0.162993000
v -0.043652000 0.012264500 0.201128000
v 0.036568000 0.012828500 0.180340000
v -0.014378000 0.026055500 0.166856000
v -0.018786000 0.026672500 0.173860000
v -0.031444000 -0.007898500 0.160341000
v -0.010777000 -0.032597500 0.172576000
v -0.013352000 -0.038852500 0.185515000
v -0.015537000 -0.026142500 0.163391000
v -0.006316000 -0.033256500 0.171049000
v 0.007397000 -0.033831500 0.171864000
v 0.021845000 -0.038914500 0.190235000
v 0.016955000 -0.027889500 0.164917000
v 0.015245000 -0.026830500 0.159218000
v 0.000631000 -0.030087500 0.155158000
v 0.016383000 -0.025291500 0.154876000
v 0.018173000 -0.041756500 0.192065000
v -0.000870000 -0.036698500 0.176769000
v -0.019791000 -0.023254500 0.163207000
v -0.013367000 -0.025299500 0.153079000
v 0.027141000 -0.015737500 0.152320000
v 0.022655000 -0.024260500 0.166273000
v 0.024627000 -0.018959500 0.151197000
v 0.031952000 -0.001093500 0.157041000
v 0.030474000 0.004447500 0.150771000
v 0.033095000 -0.001190500 0.163017000
v 0.037850000 0.001774500 0.176543000
v 0.032113000 -0.010088500 0.166761000
v 0.030868000 -0.008018500 0.150819000
v 0.028465000 -0.013934500 0.154200000
v 0.030094000 -0.013690500 0.165633000
v 0.027799000 -0.016816500 0.163527000
v 0.034246000 -0.017225500 0.178165000
v 0.032315000 -0.023364500 0.180929000
v 0.027124000 -0.016695500 0.157553000
v 0.032389000 -0.033475500 0.196226000
v 0.032379000 -0.013407500 0.170953000
v 0.028847000 -0.033398500 0.188594000
v 0.034610000 -0.032592500 0.203521000
v 0.036485000 -0.011351500 0.177391000
v 0.039441000 -0.024966500 0.211315000
v -0.030039000 -0.006438500 0.152442000
v -0.024223000 -0.022874500 0.170068000
v 0.011097000 -0.032574500 0.170803000
v -0.036145000 -0.006812500 0.175447000
v 0.031522000 -0.031698500 0.190203000
v -0.024103000 0.034058500 0.193496000
v -0.033079000 0.006870500 0.168797000
v -0.042099000 0.001390500 0.192327000
v -0.045510000 0.006381500 0.201389000
v -0.035308000 0.008429500 0.178822000
v -0.027494000 0.013558500 0.164913000
v 0.031667000 -0.003623500 0.153429000
v 0.009989000 -0.047844500 0.206784000
v -0.023003000 0.018499500 0.163670000
v -0.008179000 0.034258500 0.180643000
v -0.021557000 0.033503500 0.188635000
v -0.014437000 0.028511500 0.172858000
v -0.036211000 0.021801500 0.193059000
v -0.041177000 0.013487500 0.195075000
v 0.035228000 0.026904500 0.196440000
v -0.001075000 0.041698500 0.215363000
v -0.025613000 0.034157500 0.203780000
v -0.027044000 0.018083500 0.171153000
v -0.034442000 0.026475500 0.206563000
v -0.036566000 0.024355500 0.200671000
f 490 499 71
f 112 530 71
f 112 530 116
f 534 530 71
f 121 90 116
f 121 530 116
f 121 98 90
f 121 98 530
f 225 534 71
f 225 534 528
f 107 36 297
f 567 36 297
f 396 403 297
f 358 403 288
f 215 403 288
f 215 403 264
f 87 112 71
f 123 92 97
f 45 98 530
f 59 225 528
f 84 567 451
f 94 107 104
f 94 107 108
f 388 107 36
f 389 567 36
f 389 84 452
f 389 84 567
f 458 261 448
f 133 107 104
f 133 107 297
f 319 59 528
f 184 403 297
f 184 403 264
f 171 183 362
f 547 30 525
f 555 358 288
f 433 90 116
f 433 112 116
f 100 92 97
f 100 45 97
f 113 98 90
f 113 45 98
f 113 100 45
f 113 92 90
f 113 100 92
f 120 45 534
f 483 534 530
f 483 45 530
f 483 45 534
f 315 30 225
f 315 359 193
f 393 449 297
f 393 449 448
f 402 449 297
f 445 443 499
f 562 284 552
f 78 443 499
f 75 70 71
f 75 70 465
f 444 389 452
f 444 389 36
f 102 94 104
f 124 123 92
f 124 123 104
f 124 102 104
f 387 388 107
f 394 396 297
f 457 458 261
f 130 126 104
f 130 126 132
f 130 133 132
f 129 126 104
f 131 133 132
f 46 145 47
f 221 319 528
f 221 319 302
f 221 329 302
f 58 319 59
f 526 534 528
f 526 329 528
f 343 526 534
f 343 526 329
f 147 145 47
f 148 329 302
f 148 331 302
f 420 183 362
f 188 359 193
f 407 315 225
f 407 315 359
f 60 59 225
f 60 522 225
f 165 171 183
f 165 182 183
f 165 182 184
f 503 284 490
f 503 490 71
f 503 225 71
f 503 30 225
f 503 547 30
f 507 418 37
f 25 215 264
f 25 210 264
f 12 25 215
f 12 25 208
f 227 433 90
f 227 433 93
f 227 92 90
f 88 87 85
f 88 87 112
f 88 433 112
f 89 110 85
f 415 120 534
f 520 315 30
f 441 458 396
f 441 394 396
f 441 394 297
f 391 402 449
f 391 567 297
f 391 402 297
f 461 261 448
f 447 84 451
f 447 449 451
f 447 449 448
f 447 461 448
f 66 78 499
f 66 499 71
f 66 70 71
f 346 87 71
f 252 102 94
f 252 124 102
f 252 124 92
f 42 96 108
f 106 96 108
f 106 107 108
f 106 110 93
f 106 89 107
f 106 89 110
f 456 388 36
f 456 294 388
f 456 277 36
f 456 277 294
f 86 294 85
f 86 89 85
f 86 387 107
f 86 89 107
f 103 133 104
f 103 130 104
f 103 130 133
f 119 129 126
f 119 123 97
f 119 126 97
f 119 123 104
f 119 129 104
f 138 46 47
f 138 125 132
f 138 131 132
f 138 131 133
f 138 46 133
f 150 329 528
f 150 221 528
f 150 221 329
f 273 271 168
f 273 58 168
f 273 58 319
f 48 319 302
f 48 271 302
f 48 271 319
f 332 271 379
f 517 58 59
f 517 60 59
f 517 60 522
f 517 522 168
f 517 58 168
f 385 147 145
f 385 147 405
f 385 46 145
f 385 46 133
f 385 165 184
f 385 405 275
f 385 165 275
f 385 133 297
f 385 184 297
f 146 138 47
f 146 138 125
f 141 147 47
f 141 148 47
f 157 274 379
f 364 420 362
f 364 420 421
f 185 182 183
f 185 420 183
f 185 420 421
f 194 187 18
f 180 367 179
f 174 188 359
f 174 407 359
f 174 180 188
f 174 407 178
f 174 180 178
f 173 180 178
f 173 180 179
f 176 173 179
f 159 522 168
f 159 157 168
f 159 157 369
f 159 176 365
f 285 503 547
f 285 555 288
f 285 507 555
f 323 438 547
f 437 547 525
f 437 438 547
f 279 571 5
f 279 418 37
f 279 507 37
f 395 403 292
f 395 396 403
f 395 571 292
f 234 4 503
f 234 503 284
f 234 4 284
f 399 418 403
f 399 507 418
f 399 358 403
f 399 555 358
f 399 507 555
f 11 12 547
f 11 323 547
f 11 12 208
f 11 438 427
f 11 323 438
f 213 25 211
f 213 25 210
f 207 25 211
f 207 25 208
f 207 213 211
f 204 11 427
f 204 11 208
f 204 438 427
f 204 207 208
f 43 227 93
f 43 106 93
f 43 106 96
f 43 252 94
f 43 227 92
f 43 252 92
f 111 433 93
f 111 88 433
f 111 110 93
f 111 110 85
f 111 88 85
f 44 415 125
f 44 125 132
f 44 126 132
f 44 415 126
f 416 120 45
f 416 415 120
f 416 45 97
f 416 126 97
f 416 415 126
f 199 210 264
f 423 315 193
f 423 520 315
f 423 520 30
f 423 422 30
f 152 422 18
f 152 423 422
f 152 188 193
f 152 423 193
f 442 458 448
f 442 441 458
f 442 393 448
f 442 393 297
f 442 441 297
f 392 449 451
f 392 391 449
f 392 567 451
f 392 391 567
f 280 461 490
f 260 461 490
f 260 284 490
f 260 562 284
f 260 562 552
f 260 457 552
f 260 457 261
f 260 461 261
f 290 447 445
f 290 447 461
f 290 280 461
f 290 280 490
f 290 490 499
f 290 445 499
f 463 66 78
f 463 70 465
f 463 66 70
f 81 84 452
f 82 78 443
f 82 83 78
f 82 81 83
f 300 75 71
f 300 346 71
f 300 294 85
f 259 444 36
f 259 277 36
f 259 277 465
f 95 96 94
f 95 42 96
f 95 94 108
f 95 42 108
f 453 294 388
f 453 86 294
f 453 387 388
f 453 86 387
f 272 271 319
f 272 273 319
f 272 273 271
f 335 332 147
f 335 141 147
f 335 148 331
f 335 141 148
f 333 335 331
f 333 335 332
f 351 271 302
f 351 332 271
f 351 333 332
f 351 331 302
f 351 333 331
f 406 147 405
f 406 332 405
f 155 405 275
f 155 332 405
f 220 148 47
f 220 146 47
f 220 148 329
f 404 220 146
f 404 343 329
f 404 220 329
f 378 332 379
f 378 274 379
f 378 155 332
f 378 274 275
f 378 155 275
f 368 376 369
f 368 157 369
f 368 157 376
f 219 274 376
f 219 157 376
f 219 157 274
f 160 271 379
f 160 157 379
f 160 271 168
f 160 157 168
f 181 182 184
f 181 185 182
f 181 184 264
f 363 187 421
f 363 185 421
f 363 185 187
f 386 187 421
f 386 187 18
f 386 152 18
f 177 173 178
f 177 176 173
f 177 407 178
f 370 159 369
f 370 159 176
f 370 176 179
f 370 371 179
f 559 367 179
f 559 371 179
f 397 279 418
f 397 279 571
f 397 571 292
f 397 403 292
f 397 418 403
f 564 4 503
f 564 279 503
f 564 4 5
f 564 279 5
f 565 279 503
f 565 279 507
f 565 285 503
f 565 285 507
f 214 12 215
f 214 429 12
f 13 12 547
f 13 429 12
f 212 207 428
f 212 207 213
f 24 204 438
f 91 96 94
f 91 43 94
f 91 43 96
f 28 194 198
f 28 199 198
f 28 194 264
f 28 199 264
f 197 422 30
f 460 463 465
f 460 463 78
f 460 83 78
f 460 259 465
f 446 445 443
f 446 447 445
f 446 82 443
f 446 82 81
f 446 447 84
f 446 81 84
f 293 444 452
f 293 81 452
f 293 259 444
f 293 81 83
f 293 460 83
f 293 460 259
f 306 277 294
f 306 300 294
f 306 300 75
f 306 75 465
f 306 277 465
f 566 346 87
f 566 300 346
f 566 87 85
f 566 300 85
f 334 332 147
f 334 406 147
f 334 406 332
f 128 146 125
f 128 404 146
f 128 415 125
f 128 404 343
f 128 343 534
f 128 415 534
f 186 185 187
f 186 181 185
f 186 194 187
f 186 181 264
f 189 386 421
f 172 180 367
f 172 189 386
f 172 367 362
f 172 364 362
f 172 364 421
f 172 189 421
f 413 177 407
f 413 522 225
f 413 407 225
f 413 159 522
f 413 159 365
f 413 176 365
f 413 177 176
f 268 370 371
f 303 559 371
f 303 367 362
f 303 559 367
f 296 457 552
f 296 457 458
f 430 214 215
f 430 214 429
f 430 215 288
f 430 429 288
f 357 13 429
f 357 285 288
f 357 429 288
f 357 285 547
f 357 13 547
f 23 207 428
f 23 204 207
f 426 360 437
f 426 437 438
f 426 24 438
f 426 23 428
f 426 24 204
f 426 23 204
f 20 422 18
f 20 197 422
f 21 425 198
f 21 20 197
f 21 20 18
f 21 194 18
f 21 194 198
f 265 194 264
f 265 186 264
f 265 186 194
f 190 172 180
f 190 172 386
f 190 180 188
f 190 152 188
f 190 386 152
f 167 370 369
f 167 268 370
f 167 376 369
f 167 268 165
f 167 274 275
f 167 274 376
f 167 165 275
f 269 268 165
f 269 268 371
f 269 303 165
f 269 303 371
f 361 303 362
f 361 303 165
f 361 171 362
f 361 165 171
f 355 304 425
f 355 437 525
f 355 360 437
f 26 212 428
f 26 304 428
f 26 212 213
f 26 213 210
f 22 304 425
f 22 199 210
f 22 26 210
f 22 26 304
f 22 199 198
f 22 425 198
f 283 571 5
f 283 395 571
f 459 296 552
f 459 4 5
f 459 283 5
f 459 283 296
f 459 284 552
f 459 4 284
f 209 426 428
f 209 426 360
f 209 304 428
f 209 355 360
f 209 355 304
f 424 21 425
f 424 21 197
f 424 355 425
f 424 197 30
f 424 355 525
f 424 30 525
f 568 283 296
f 568 458 396
f 568 296 458
f 568 395 396
f 568 283 395
