o collision_band_hull_04
v 0.019108000 0.039555500 0.231115000
v 0.046382000 -0.015306500 0.250427000
v 0.048318000 -0.009190500 0.246608000
v 0.048450000 -0.008853500 0.249212000
v 0.003438000 0.043237500 0.257182000
v 0.020666000 0.037848500 0.221319000
v -0.016173000 -0.034745500 0.253590000
v -0.052224000 -0.004575500 0.253132000
v 0.026744000 -0.031432500 0.260827000
v 0.028181000 -0.038315500 0.226745000
v 0.006042000 0.042836500 0.257762000
v -0.002589000 0.042385500 0.229508000
v 0.025398000 0.035336500 0.228353000
v -0.003520000 0.041461500 0.209513000
v -0.042609000 0.018274500 0.216665000
v -0.022538000 -0.042486500 0.230607000
v 0.002414000 0.041538500 0.219665000
v 0.001304000 0.043102500 0.233113000
v 0.008142000 -0.035995500 0.259269000
v -0.027362000 -0.025973500 0.256656000
v 0.046992000 -0.012976500 0.239260000
v 0.047112000 -0.010913500 0.224317000
v 0.004010000 0.021192500 0.248101000
v 0.026622000 0.002683500 0.251508000
v 0.026578000 0.019019500 0.257297000
v 0.006812000 0.027888500 0.255762000
v 0.007792000 0.030692500 0.258763000
v 0.002341000 0.027036500 0.253561000
v 0.014992000 0.025221500 0.255369000
v 0.018763000 0.014013500 0.248430000
v 0.018972000 0.008862500 0.246997000
v 0.020759000 0.017545500 0.251630000
v 0.019508000 0.017191500 0.250347000
v 0.019902000 0.022517500 0.254829000
v 0.018959000 0.020157500 0.252076000
v 0.021618000 0.020088500 0.253985000
v 0.022176000 0.022519500 0.256210000
v 0.031271000 0.008197500 0.257686000
v 0.026642000 0.015598500 0.255865000
v 0.008925000 -0.042486500 0.261134000
v 0.009807000 -0.048259500 0.235513000
v 0.023386000 -0.001027500 0.248127000
v 0.014789000 -0.046393500 0.230703000
v 0.012195000 -0.046514500 0.227375000
v -0.005169000 -0.047333500 0.212951000
v -0.001005000 -0.048749500 0.237724000
v -0.018735000 -0.044820500 0.241469000
v -0.014162000 -0.046080500 0.240781000
v -0.022157000 -0.041889500 0.206486000
v -0.028843000 -0.039553500 0.234183000
v -0.026232000 -0.040721500 0.226071000
v -0.040810000 -0.021717500 0.211997000
v -0.024867000 -0.041228500 0.221131000
v -0.024768000 -0.041565500 0.223447000
v -0.026412000 -0.043588500 0.254219000
v -0.025942000 -0.043463500 0.250278000
v -0.030417000 -0.039733500 0.243208000
v -0.032329000 -0.036580500 0.229732000
v -0.043959000 -0.028423500 0.247690000
v -0.050051000 -0.012150500 0.230420000
v -0.048431000 -0.022437500 0.256389000
v -0.042861000 -0.028879500 0.258078000
v -0.041699000 -0.027828500 0.258937000
v -0.045056000 -0.026385500 0.245245000
v -0.048233000 -0.022637500 0.246722000
v -0.047245000 -0.024919500 0.256608000
v -0.049789000 -0.019363500 0.245185000
v -0.027501000 -0.037799500 0.206967000
v -0.016057000 -0.044784500 0.212429000
v -0.016961000 -0.044709500 0.210141000
v -0.018804000 -0.043667500 0.213190000
v -0.013813000 -0.045720500 0.225606000
v -0.037695000 -0.032442500 0.235347000
v -0.036124000 -0.035011500 0.240571000
v -0.027973000 -0.040357500 0.237569000
v -0.005421000 -0.046827500 0.219957000
v -0.001063000 -0.047917500 0.230937000
v 0.013583000 -0.009301500 0.243024000
v 0.016877000 -0.007023500 0.244126000
v 0.012801000 -0.004000500 0.242191000
v 0.010157000 -0.005755500 0.241293000
v 0.030204000 -0.013031500 0.253664000
v 0.014258000 -0.042766500 0.260290000
v 0.012677000 0.004188500 0.242969000
v 0.017725000 0.017797500 0.249698000
v 0.015514000 -0.001858500 0.243495000
v 0.016737000 0.009216500 0.246081000
v -0.000986000 -0.002008500 0.238988000
v 0.028387000 0.006843500 0.254450000
v 0.042389000 -0.011737500 0.260981000
v 0.042336000 -0.014957500 0.260289000
v 0.024412000 -0.032701500 0.260810000
v 0.017020000 -0.043425500 0.258693000
v 0.000326000 -0.047449500 0.225451000
v -0.005202000 -0.047371500 0.229863000
v 0.006737000 0.014089500 0.243989000
v 0.019641000 0.037212500 0.215438000
v -0.013038000 -0.039331500 0.256644000
v -0.031028000 0.029460500 0.210753000
v 0.032860000 0.028027500 0.258179000
v 0.032078000 0.030772500 0.251388000
v 0.041923000 0.016552500 0.213438000
v 0.044736000 0.014511500 0.205753000
v -0.052084000 -0.014207500 0.251172000
v -0.014388000 -0.045423500 0.222636000
v 0.044241000 0.009392500 0.259061000
v 0.049191000 -0.005807500 0.234296000
v 0.044764000 -0.014563500 0.217131000
v 0.037924000 -0.023816500 0.258720000
v 0.043169000 -0.017486500 0.214553000
v 0.043225000 -0.021651500 0.203351000
v 0.041976000 -0.020868500 0.216981000
v 0.031519000 0.029978500 0.219452000
v 0.035045000 0.026298500 0.216813000
v 0.035796000 0.027856500 0.229468000
v 0.033172000 0.030671500 0.229591000
v 0.031061000 0.032418500 0.234229000
v 0.032014000 0.029645500 0.256686000
v 0.030545000 0.031801500 0.249066000
v 0.030972000 0.032170500 0.244740000
v 0.036628000 0.027587500 0.236260000
v 0.031909000 0.024231500 0.260664000
v 0.030256000 0.027936500 0.259262000
v 0.029764000 0.029961500 0.257038000
v 0.029109000 0.025914500 0.260681000
v 0.035746000 0.027656500 0.255288000
v 0.031103000 0.032753500 0.238910000
v 0.030630000 0.028929500 0.257841000
v 0.032126000 0.031641500 0.241025000
v 0.038577000 0.025195500 0.246775000
v 0.037298000 0.024029500 0.257974000
v 0.039277000 0.023457500 0.254262000
v 0.038452000 0.017531500 0.259646000
v 0.039125000 0.021912500 0.257608000
v 0.039349000 0.020011500 0.258585000
v 0.037878000 0.021972500 0.258948000
v 0.033768000 0.025782500 0.259705000
v 0.040159000 0.014797500 0.259405000
v 0.041184000 0.019807500 0.255583000
v 0.043615000 0.014373500 0.257378000
v 0.044360000 0.014515500 0.254532000
v 0.031750000 0.030754500 0.254186000
v 0.033484000 0.030874500 0.238411000
v 0.037848000 0.023285500 0.220318000
v 0.037829000 0.025094500 0.228736000
v 0.033902000 0.029586500 0.252298000
v 0.043550000 0.016859500 0.252348000
v 0.035103000 0.027284500 0.223527000
v 0.035334000 0.027583500 0.206569000
v 0.040542000 0.018932500 0.218786000
v 0.040451000 0.022030500 0.235192000
v 0.039117000 0.023319500 0.206377000
v 0.044289000 0.013278500 0.210195000
v 0.046366000 0.009355500 0.203392000
v 0.044968000 0.009758500 0.214206000
v 0.043366000 0.013419500 0.213863000
v 0.043048000 0.016689500 0.208818000
v 0.047219000 0.004186500 0.203380000
v 0.047261000 -0.000449500 0.209050000
v 0.046077000 0.005404500 0.212293000
v 0.046428000 -0.007521500 0.213868000
v 0.042803000 0.016742500 0.256396000
v 0.042335000 0.002441500 0.260701000
v 0.042446000 0.009886500 0.259534000
v 0.042959000 0.016852500 0.229586000
v 0.040531000 0.020355500 0.225241000
v 0.038141000 0.014621500 0.259924000
v 0.040243000 -0.013711500 0.261655000
v 0.046891000 -0.002345500 0.215401000
v 0.047467000 -0.003726500 0.210661000
v 0.042254000 0.019105500 0.206131000
v 0.037247000 0.023691500 0.215574000
v 0.039062000 0.021177500 0.214859000
v 0.040572000 0.019954500 0.210115000
v 0.040737000 0.021684500 0.203484000
v 0.048230000 -0.002997500 0.204175000
v 0.046734000 0.009427500 0.254827000
v 0.046925000 0.010494500 0.242110000
v 0.049116000 0.005169500 0.245304000
v 0.048681000 0.005371500 0.252315000
v 0.046964000 0.006799500 0.256576000
v 0.045678000 0.009633500 0.257466000
v 0.035667000 0.028470500 0.250019000
v 0.040342000 0.011992500 0.259739000
v 0.041054000 0.018140500 0.258286000
v 0.045429000 0.012071500 0.255793000
v 0.043949000 0.016167500 0.245872000
v 0.044724000 -0.002686500 0.259856000
v 0.047901000 0.000499500 0.205476000
v 0.046834000 -0.004872500 0.218773000
v 0.048210000 -0.009399500 0.242173000
v 0.046197000 -0.009986500 0.257445000
v 0.046112000 -0.004568500 0.258906000
v 0.045348000 -0.007385500 0.258989000
v 0.048107000 0.004633500 0.228991000
v 0.048733000 0.005480500 0.237508000
v 0.049699000 0.000110500 0.235140000
v 0.047112000 0.003286500 0.221801000
v 0.046718000 0.001878500 0.216381000
v 0.048597000 0.000031500 0.227167000
v 0.048985000 -0.007374500 0.238738000
v 0.048141000 -0.009657500 0.235504000
v 0.048363000 -0.007786500 0.228930000
v 0.049010000 -0.007299500 0.244918000
v 0.049293000 -0.006965500 0.242591000
v 0.049805000 -0.003559500 0.243011000
v 0.049178000 -0.002739500 0.230489000
v 0.048905000 -0.005080500 0.229737000
v 0.048878000 -0.008001500 0.247571000
v 0.049947000 0.001508500 0.242397000
v 0.046355000 0.011771500 0.250739000
v 0.048050000 0.008072500 0.247818000
v 0.049789000 0.001007500 0.248205000
v 0.047359000 -0.009040500 0.255135000
v 0.047144000 -0.006161500 0.256900000
v 0.049251000 -0.005989500 0.248566000
v 0.046919000 -0.013196500 0.251869000
v 0.047690000 -0.012227500 0.247169000
v 0.046998000 0.004229500 0.207651000
v 0.047950000 -0.009819500 0.238531000
v 0.046609000 -0.012631500 0.233558000
v 0.046049000 0.005780500 0.216871000
v 0.047802000 -0.010359500 0.231196000
v 0.044842000 -0.017440500 0.239948000
v 0.045733000 -0.015183500 0.254116000
v 0.041502000 -0.023618500 0.252641000
v 0.045279000 -0.017824500 0.246142000
v 0.046446000 -0.008230500 0.219214000
v 0.047003000 -0.012147500 0.255001000
v 0.044939000 -0.014479500 0.257814000
v 0.045172000 -0.016447500 0.234777000
v 0.048459000 -0.007188500 0.203143000
v 0.047317000 -0.010890500 0.228269000
v 0.047815000 -0.002617500 0.207163000
v 0.043714000 -0.007905500 0.260566000
v 0.048007000 -0.005171500 0.206940000
v 0.041749000 -0.021194500 0.257150000
v 0.047508000 -0.007974500 0.208342000
v 0.046230000 -0.012110500 0.210626000
v 0.047486000 -0.011232500 0.205566000
v 0.045943000 -0.014669500 0.229178000
v 0.045712000 -0.012133500 0.219378000
v 0.045225000 -0.012388500 0.217085000
v 0.045444000 -0.011481500 0.215720000
v 0.029108000 -0.024373500 0.260016000
v 0.035660000 -0.026032500 0.258564000
v 0.037513000 -0.026632500 0.255960000
v 0.033449000 -0.026334500 0.259667000
v 0.036441000 -0.016443500 0.261249000
v 0.031356000 -0.023072500 0.260314000
v 0.042130000 -0.018410500 0.259064000
v 0.034774000 -0.022686500 0.261024000
v 0.036567000 -0.026419500 0.257509000
v 0.036581000 -0.024862500 0.259061000
v 0.039698000 -0.025221500 0.254276000
v 0.038068000 -0.027048500 0.245294000
v 0.042289000 -0.020598500 0.237588000
v 0.044945000 -0.015804500 0.222365000
v 0.045400000 -0.016552500 0.205685000
v 0.041069000 -0.023422500 0.207578000
v 0.040876000 -0.022541500 0.211382000
v 0.041557000 -0.021836500 0.219793000
v 0.040030000 -0.024027500 0.218352000
v 0.040377000 -0.023947500 0.222606000
v 0.043776000 -0.015751500 0.213112000
v 0.044051000 -0.015985500 0.211330000
v 0.034635000 -0.024196500 0.260312000
v 0.039560000 -0.023907500 0.229634000
v 0.037951000 -0.026406500 0.213271000
v 0.036786000 -0.027767500 0.218147000
v 0.035226000 -0.029871500 0.253077000
v 0.037807000 -0.025798500 0.227186000
v 0.039328000 -0.024346500 0.214224000
v 0.036659000 -0.029758500 0.208753000
v 0.035944000 -0.028360500 0.213455000
v 0.042476000 -0.020542500 0.222905000
v 0.041075000 -0.022488500 0.226653000
v 0.038273000 -0.026245500 0.221839000
v 0.035834000 -0.028388500 0.223928000
v 0.033727000 -0.031968500 0.252208000
v 0.033469000 -0.033263500 0.249156000
v 0.032575000 -0.031987500 0.255327000
v 0.030411000 -0.035984500 0.228541000
v -0.045576000 0.015829500 0.256992000
v -0.029689000 0.029747500 0.259228000
v -0.027017000 0.028102500 0.259924000
v -0.021458000 0.025168500 0.257145000
v -0.024081000 0.024778500 0.257833000
v -0.023982000 0.026801500 0.259416000
v -0.038932000 0.003684500 0.258441000
v -0.037891000 0.000546500 0.257585000
v -0.038095000 -0.005198500 0.257777000
v -0.044225000 -0.004243500 0.260472000
v -0.044606000 0.000064500 0.260742000
v -0.046942000 0.009644500 0.258436000
v -0.047320000 0.003754500 0.259526000
v -0.030349000 -0.007058500 0.251143000
v -0.034811000 0.009351500 0.253769000
v -0.032225000 0.008365500 0.251126000
v -0.035715000 0.006505500 0.254473000
v -0.029304000 -0.000426500 0.249366000
v -0.027726000 -0.001071500 0.248410000
v -0.025254000 0.004419500 0.246738000
v -0.021939000 0.008001500 0.245720000
v -0.022747000 0.005862500 0.246063000
v -0.023027000 0.001990500 0.246386000
v -0.023398000 0.008578500 0.246332000
v -0.024932000 0.009295500 0.246890000
v -0.024506000 0.011154500 0.247170000
v -0.029247000 0.017102500 0.252500000
v -0.029850000 0.020259500 0.256972000
v -0.024104000 0.012825500 0.247375000
v -0.023005000 0.022735500 0.255421000
v -0.022755000 0.014525500 0.247692000
v -0.019767000 0.027236500 0.258445000
v -0.019650000 0.022259500 0.253387000
v -0.016094000 0.022981500 0.252341000
v -0.026178000 0.032382500 0.259589000
v -0.028939000 0.013309500 0.249580000
v -0.031040000 0.013576500 0.251429000
v -0.030102000 0.013701500 0.250284000
v -0.031847000 0.011426500 0.251372000
v -0.035002000 0.013663500 0.255496000
v -0.030497000 0.018170500 0.254537000
v -0.030962000 0.016586500 0.252794000
v -0.032453000 0.029767500 0.258368000
v -0.010256000 0.042798500 0.244125000
v 0.001350000 0.024436500 0.250574000
v 0.011302000 0.014868500 0.245333000
v 0.023524000 0.014957500 0.252617000
v -0.003577000 0.016758500 0.244508000
v -0.007617000 0.015238500 0.244032000
v -0.008345000 0.019629500 0.246555000
v -0.012404000 0.007730500 0.242919000
v -0.004175000 0.012231500 0.242403000
v 0.008203000 0.008886500 0.242297000
v -0.010413000 -0.003804500 0.241762000
v -0.007970000 -0.000900500 0.240447000
v -0.009884000 0.003047500 0.241135000
v 0.002133000 -0.000730500 0.238958000
v -0.003065000 0.002664500 0.239513000
v -0.005322000 -0.000170500 0.239570000
v -0.003448000 0.007013500 0.240610000
v 0.003273000 0.007477500 0.240864000
v -0.009169000 0.010272500 0.242300000
v -0.012264000 0.013045500 0.244123000
v 0.003374000 0.011749500 0.242400000
v 0.016699000 0.002253500 0.244584000
v 0.005100000 0.043808500 0.236958000
v 0.011511000 0.043200500 0.240015000
v 0.008432000 0.044170500 0.247451000
v 0.009822000 0.040269500 0.218663000
v 0.024732000 0.034624500 0.234494000
v 0.019686000 0.003429500 0.246285000
v 0.016701000 0.006723500 0.245375000
v 0.020658000 0.036982500 0.245567000
v 0.026535000 0.033575500 0.243519000
v 0.022274000 0.035327500 0.245963000
v 0.004437000 0.032884500 0.259662000
v 0.010332000 0.036431500 0.261424000
v 0.002072000 0.040198500 0.260734000
v -0.002945000 0.039354500 0.261130000
v 0.001880000 0.038100500 0.261175000
v -0.006879000 0.035147500 0.260862000
v -0.004697000 0.033763500 0.259977000
v -0.000991000 0.032498500 0.258762000
v 0.006776000 0.034882500 0.261160000
v -0.006493000 0.037955500 0.261443000
v -0.012654000 0.037189500 0.261272000
v -0.000485000 0.035374500 0.260764000
v -0.015807000 0.036118500 0.261117000
v -0.021834000 0.031956500 0.260476000
v -0.014661000 0.034086500 0.261040000
v -0.017297000 0.030256500 0.259848000
v 0.001341000 0.044332500 0.249851000
v -0.020425000 0.017256500 0.248393000
v -0.002363000 0.021664500 0.247788000
v -0.012116000 0.023980500 0.251616000
v -0.014630000 0.020015500 0.248506000
v -0.006495000 0.023801500 0.249711000
v -0.008190000 0.026460500 0.252795000
v -0.008086000 0.029794500 0.256963000
v -0.004162000 0.030097500 0.256479000
v -0.002401000 0.027067500 0.252758000
v 0.002172000 0.030222500 0.256846000
v -0.014149000 -0.002363500 0.243372000
v -0.017625000 0.011372500 0.245310000
v -0.020512000 0.012612500 0.246286000
v -0.017495000 0.015152500 0.246262000
v -0.020916000 0.014449500 0.247018000
v -0.018404000 0.003510500 0.245063000
v -0.013494000 0.029265500 0.258211000
v -0.017984000 0.025368500 0.256156000
v -0.001488000 0.030095500 0.256371000
v 0.011727000 0.028544500 0.258141000
v 0.021992000 0.029258500 0.261026000
v 0.018718000 0.027990500 0.259599000
v 0.028441000 0.012538500 0.256472000
v 0.029791000 0.020558500 0.260235000
v 0.024277000 0.026318500 0.259815000
v 0.024307000 0.023144500 0.258091000
v 0.021846000 0.025665500 0.258519000
v 0.028299000 0.016635500 0.257836000
v 0.029573000 0.017354500 0.258990000
v 0.023366000 0.009962500 0.250445000
v 0.025645000 0.021184500 0.257728000
v 0.025438000 0.016575500 0.254905000
v 0.012841000 0.024086500 0.253231000
v 0.016741000 0.023493500 0.254066000
v 0.011561000 0.026404500 0.255621000
v 0.007206000 0.024366500 0.251934000
v 0.016002000 0.026773500 0.257752000
v 0.020260000 0.024279500 0.256795000
v 0.025876000 0.032110500 0.253414000
v 0.028327000 0.031406500 0.252872000
v 0.021466000 0.015335500 0.250816000
v 0.015436000 0.016334500 0.247598000
v 0.015731000 0.021818500 0.251766000
v 0.020932000 0.018917500 0.252580000
v 0.014361000 0.022974500 0.252656000
v 0.028807000 -0.003485500 0.252391000
v 0.024834000 -0.007654500 0.248695000
v 0.022255000 0.004779500 0.248209000
v 0.005406000 -0.031866500 0.253673000
v 0.017152000 -0.028569500 0.255165000
v 0.019866000 -0.033946500 0.260649000
v 0.028564000 -0.033582500 0.259496000
v 0.030746000 -0.031600500 0.258633000
v 0.022431000 -0.032998500 0.260684000
v 0.021200000 -0.032108500 0.259929000
v 0.018782000 -0.031926500 0.259219000
v 0.019198000 -0.029056500 0.256398000
v 0.020763000 -0.028931500 0.257126000
v -0.019325000 -0.038049500 0.257198000
v -0.019438000 -0.034184500 0.257839000
v -0.017742000 -0.033696500 0.255635000
v -0.020993000 -0.025724500 0.253469000
v -0.015199000 -0.025130500 0.250434000
v -0.025980000 -0.041812500 0.240891000
v -0.023507000 -0.042516500 0.237386000
v -0.021005000 -0.043257500 0.235986000
v -0.007006000 -0.023437500 0.247716000
v -0.002800000 -0.032198500 0.252700000
v -0.015887000 -0.032711500 0.253590000
v -0.013379000 -0.031847500 0.252581000
v -0.010366000 -0.033687500 0.253432000
v -0.006910000 -0.031221500 0.251870000
v -0.010691000 -0.028760500 0.250881000
v -0.004488000 -0.049577500 0.250522000
v -0.020536000 -0.044053500 0.241219000
v -0.007379000 -0.047065500 0.232457000
v -0.010652000 -0.046283500 0.232596000
v -0.009401000 -0.046488500 0.227198000
v -0.018978000 -0.045610500 0.246580000
v -0.017473000 -0.046571500 0.250469000
v -0.012579000 -0.046826500 0.255876000
v -0.013677000 -0.040690500 0.257431000
v -0.013479000 -0.045849500 0.256893000
v -0.000509000 -0.049100500 0.257449000
v -0.006127000 -0.040048500 0.258978000
v -0.018475000 -0.039062500 0.256608000
v -0.020724000 -0.038515500 0.258368000
v -0.020756000 -0.041599500 0.257508000
v -0.021453000 -0.041304500 0.258462000
v -0.019993000 -0.041075500 0.257167000
v -0.021083000 -0.042275500 0.257995000
v -0.004116000 -0.043016500 0.260648000
v -0.009512000 -0.046179500 0.258153000
v -0.007916000 -0.046221500 0.258586000
v -0.004672000 -0.037601500 0.257643000
v -0.005218000 -0.044718500 0.260251000
v 0.002817000 -0.039878500 0.260661000
v 0.000690000 -0.048973500 0.258484000
v -0.002454000 -0.048952500 0.257479000
v 0.001446000 -0.048070500 0.259816000
v 0.009333000 -0.046140500 0.259761000
v 0.007566000 -0.039154500 0.261075000
v -0.003080000 -0.040824500 0.260292000
v 0.000682000 -0.042603500 0.261229000
v 0.007357000 -0.043477500 0.260962000
v 0.006896000 -0.041647500 0.261310000
v 0.006065000 -0.048537500 0.258859000
v 0.004610000 -0.049264500 0.257223000
v -0.002153000 -0.047614500 0.259635000
v 0.001987000 -0.046529500 0.260347000
v 0.005097000 -0.047078500 0.260023000
v 0.006629000 -0.046212500 0.260084000
v 0.012947000 -0.044302500 0.259335000
v 0.012223000 -0.049488500 0.251052000
v 0.015439000 -0.048302500 0.252867000
v 0.017465000 -0.039224500 0.261404000
v 0.009944000 -0.043326500 0.260678000
v 0.018022000 -0.036269500 0.261270000
v 0.020749000 -0.041695500 0.258146000
v 0.020438000 -0.041293500 0.259219000
v 0.020940000 -0.042465500 0.257173000
v 0.022691000 -0.040336500 0.258541000
v 0.014821000 -0.044176500 0.258860000
v 0.008453000 -0.049134500 0.257303000
v 0.016917000 -0.046221500 0.256434000
v 0.024949000 -0.038465500 0.258618000
v 0.027200000 -0.037416500 0.257182000
v 0.021494000 -0.045134500 0.247794000
v 0.006606000 -0.050373500 0.248717000
v 0.004062000 -0.050227500 0.253684000
v 0.023599000 -0.042991500 0.250161000
v 0.022704000 -0.042182500 0.255910000
v 0.022006000 -0.043402500 0.253877000
v 0.027904000 -0.038423500 0.252182000
v 0.025480000 -0.041229500 0.252605000
v 0.026393000 -0.041071500 0.247709000
v 0.018845000 -0.044937500 0.229832000
v 0.022674000 -0.042599500 0.227759000
v 0.019298000 -0.043865500 0.224201000
v 0.011618000 -0.047198500 0.231155000
v 0.011850000 -0.049140500 0.244101000
v 0.024791000 -0.042382500 0.239625000
v 0.020901000 -0.045078500 0.240477000
v 0.013940000 -0.047882500 0.238779000
v 0.001470000 -0.049976500 0.244891000
v 0.031309000 -0.035172500 0.252098000
v 0.039775000 -0.025487500 0.251238000
v 0.008059000 -0.022184500 0.246692000
v 0.011506000 -0.024371500 0.248799000
v 0.021616000 -0.014488500 0.247657000
v 0.024569000 -0.019437500 0.251069000
v 0.028775000 -0.017092500 0.253516000
v 0.021467000 -0.011751500 0.247062000
v 0.036576000 -0.002876500 0.259845000
v 0.025065000 -0.012148500 0.249227000
v 0.030975000 -0.008552500 0.254201000
v 0.026193000 -0.015011500 0.250402000
v 0.023447000 -0.014357500 0.248561000
v 0.020113000 -0.003899500 0.245760000
v 0.017264000 -0.011110500 0.244909000
v 0.009479000 -0.000843500 0.240975000
v 0.006649000 -0.017837500 0.244274000
v 0.012033000 -0.019740500 0.246222000
v 0.016210000 -0.016788500 0.246068000
v 0.027929000 -0.038043500 0.222389000
v 0.025786000 -0.040237500 0.226476000
v 0.029113000 -0.036787500 0.224904000
v 0.028678000 -0.036597500 0.218142000
v 0.030293000 -0.035280500 0.211647000
v 0.031416000 -0.035110500 0.208024000
v 0.028040000 -0.037593500 0.210341000
v 0.033478000 -0.033148500 0.205268000
v 0.023780000 -0.040355500 0.217131000
v -0.014287000 -0.045638500 0.210455000
v 0.015389000 -0.044870500 0.220548000
v 0.017199000 -0.044030500 0.216354000
v 0.014176000 -0.045502500 0.215589000
v 0.010869000 -0.046459500 0.214291000
v 0.018796000 -0.043908500 0.213042000
v 0.008141000 -0.047175500 0.214488000
v 0.004969000 -0.048649500 0.206326000
v 0.009747000 -0.048061500 0.203925000
v -0.007067000 -0.047076500 0.214398000
v 0.013454000 -0.047278500 0.234555000
v 0.008969000 -0.046516500 0.217221000
v 0.011575000 -0.046118500 0.222367000
v 0.001556000 -0.047067500 0.220546000
v 0.002073000 -0.047156500 0.217909000
v -0.009079000 -0.046425500 0.216050000
v -0.013733000 -0.045599500 0.219610000
v 0.017058000 -0.047173500 0.242208000
v -0.015599000 -0.045065500 0.231171000
v -0.004019000 -0.047046500 0.215626000
v -0.023318000 -0.043652500 0.245166000
v -0.017738000 -0.045347500 0.243442000
v 0.002769000 -0.047357500 0.215042000
v -0.005820000 -0.046845500 0.215765000
v -0.002576000 -0.047858500 0.212631000
v -0.007933000 -0.047420500 0.211363000
v -0.007349000 -0.046663500 0.217254000
v -0.006451000 -0.048239500 0.206833000
v 0.001408000 -0.048602500 0.207412000
v -0.011040000 -0.047278500 0.207173000
v -0.009908000 -0.046507500 0.213745000
v -0.016890000 -0.044826500 0.205663000
v -0.016533000 -0.044745500 0.228040000
v 0.002352000 -0.003798500 0.239172000
v 0.005232000 -0.002759500 0.239551000
v -0.004284000 -0.047718500 0.233771000
v -0.014242000 -0.007204500 0.244242000
v -0.018117000 -0.004256500 0.245397000
v -0.004346000 -0.009519500 0.241600000
v 0.005383000 -0.006388500 0.240060000
v 0.001489000 -0.007192500 0.239903000
v -0.001495000 -0.005879500 0.239785000
v 0.004993000 -0.009898500 0.240867000
v 0.006947000 -0.013157500 0.242332000
v -0.005500000 -0.013739500 0.243518000
v -0.011227000 -0.009989500 0.243722000
v -0.007784000 -0.009483500 0.242484000
v -0.017943000 -0.008980500 0.246227000
v -0.022489000 -0.012645500 0.248756000
v -0.015235000 -0.013112500 0.246122000
v -0.015078000 -0.019745500 0.248116000
v -0.009495000 -0.047139500 0.237611000
v -0.002025000 -0.023230500 0.246923000
v 0.001226000 -0.022588500 0.246462000
v 0.004066000 -0.022292500 0.246332000
v 0.005757000 -0.025360500 0.248319000
v 0.002445000 -0.027854500 0.249613000
v -0.005506000 -0.049075500 0.245297000
v -0.017087000 -0.044783500 0.237944000
v -0.010533000 -0.047276500 0.241852000
v -0.010540000 -0.047887500 0.244814000
v -0.011744000 -0.047880500 0.247881000
v -0.014105000 -0.046808500 0.244365000
v -0.021802000 -0.042555500 0.216045000
v -0.021500000 -0.042660500 0.212850000
v -0.021347000 -0.042535500 0.210634000
v -0.029111000 -0.037587500 0.217397000
v -0.024201000 -0.040832500 0.212272000
v -0.036738000 -0.026671500 0.208409000
v -0.030761000 -0.033645500 0.204178000
v -0.025360000 -0.041546500 0.236611000
v -0.031710000 -0.038119500 0.237931000
v -0.030000000 -0.038587500 0.231747000
v -0.032936000 -0.032419500 0.211031000
v -0.037830000 -0.027843500 0.218036000
v -0.034784000 -0.032955500 0.223144000
v -0.027468000 -0.039766500 0.223072000
v -0.045133000 -0.011092500 0.205539000
v -0.048201000 -0.011247500 0.218902000
v -0.044822000 -0.015210500 0.212412000
v -0.043712000 -0.019646500 0.218945000
v -0.042577000 -0.023532500 0.225106000
v -0.040065000 -0.024866500 0.218320000
v -0.020984000 -0.007242500 0.246936000
v -0.044520000 -0.027350500 0.257413000
v -0.049011000 -0.009548500 0.258709000
v -0.050608000 -0.016311500 0.240514000
v -0.038220000 -0.014848500 0.258877000
v -0.047204000 -0.020333500 0.258719000
v -0.045783000 -0.020418500 0.258967000
v -0.048174000 -0.017973500 0.258655000
v -0.040977000 -0.019096500 0.260146000
v -0.041803000 -0.015475500 0.260128000
v -0.048666000 -0.014147500 0.258513000
v -0.044770000 -0.012097500 0.259895000
v -0.046841000 -0.016408500 0.259094000
v -0.047325000 -0.010397500 0.259088000
v -0.047867000 -0.012989500 0.258900000
v -0.042061000 -0.010675500 0.260140000
v -0.041721000 -0.004751500 0.260509000
v -0.038314000 -0.009293500 0.258092000
v -0.039879000 -0.014618500 0.259801000
v -0.030347000 -0.012529500 0.252149000
v -0.036991000 -0.008346500 0.256969000
v -0.025665000 -0.014041500 0.250589000
v -0.032096000 -0.009776500 0.252389000
v -0.024594000 -0.023362500 0.253762000
v -0.020598000 -0.021090500 0.250851000
v -0.031516000 -0.016168500 0.253958000
v -0.028254000 -0.041450500 0.246082000
v -0.028149000 -0.042209500 0.250272000
v -0.024100000 -0.021069500 0.252326000
v -0.025228000 -0.032028500 0.259729000
v -0.022602000 -0.041781500 0.259148000
v -0.034914000 -0.037995500 0.252857000
v -0.029431000 -0.034289500 0.260829000
v -0.027969000 -0.041853500 0.258791000
v -0.028456000 -0.042418500 0.256965000
v -0.030840000 -0.041053500 0.254882000
v -0.030778000 -0.037878500 0.260033000
v -0.030867000 -0.036097500 0.260492000
v -0.038420000 -0.033657500 0.258285000
v -0.032337000 -0.034563500 0.260520000
v -0.031502000 -0.030182500 0.260618000
v -0.022638000 -0.044739500 0.249984000
v -0.021822000 -0.045211500 0.253544000
v -0.035921000 -0.036977500 0.257294000
v -0.038619000 -0.034893500 0.256870000
v -0.042075000 -0.028745500 0.240836000
v -0.040065000 -0.028584500 0.230642000
v -0.044978000 -0.025182500 0.239756000
v -0.046626000 -0.024710500 0.246058000
v -0.047693000 -0.020616500 0.237966000
v -0.050553000 -0.019192500 0.250555000
v -0.047750000 -0.024286500 0.252684000
v -0.048775000 -0.022565500 0.254770000
v -0.041115000 -0.026757500 0.259508000
v -0.043206000 -0.022898500 0.259570000
v -0.047960000 -0.021643500 0.257853000
v -0.043166000 -0.027484500 0.258595000
v -0.035884000 -0.032794500 0.260057000
v -0.042672000 -0.030120500 0.257029000
v -0.036936000 -0.023678500 0.260507000
v -0.035369000 -0.027885500 0.260803000
v -0.030443000 -0.039810500 0.259106000
v -0.032429000 -0.039955500 0.257879000
v -0.034312000 -0.034160500 0.260216000
v -0.032523000 -0.035897500 0.260126000
v -0.039109000 -0.030499500 0.259356000
v -0.036203000 -0.034298500 0.259407000
v -0.040346000 -0.032541500 0.257040000
v -0.041082000 -0.030382500 0.258358000
v -0.045008000 -0.028032500 0.255408000
v -0.029941000 -0.041204500 0.257896000
v -0.025088000 -0.041441500 0.232837000
v 0.027861000 -0.037024500 0.214384000
v 0.037406000 -0.025755500 0.235698000
v -0.002397000 -0.037729500 0.257957000
v 0.014671000 -0.033054500 0.258738000
v -0.002786000 0.042429500 0.258877000
v -0.005118000 0.041456500 0.260365000
v 0.025123000 0.031642500 0.255896000
v 0.019282000 0.035210500 0.260448000
v 0.019324000 0.038161500 0.258300000
v 0.003639000 0.042565500 0.258212000
v 0.020656000 0.037593500 0.255859000
v 0.020129000 0.038192500 0.248300000
v 0.029784000 0.030655500 0.255776000
v -0.014457000 0.039261500 0.224585000
v 0.009789000 0.040099500 0.259820000
v -0.029397000 0.031101500 0.217211000
v -0.038214000 0.024866500 0.223262000
v -0.034802000 0.031149500 0.255063000
v -0.008010000 0.040721500 0.260974000
v -0.047896000 0.008730500 0.222862000
v -0.052076000 -0.000858500 0.249290000
v -0.049846000 0.003402500 0.257831000
v -0.032777000 0.032037500 0.257309000
v -0.039647000 0.014909500 0.258310000
v -0.040032000 0.025477500 0.255171000
v -0.049252000 0.006997500 0.255211000
v 0.022301000 -0.042324500 0.206902000
v -0.037020000 -0.031683500 0.259775000
v 0.045849000 0.009697500 0.208494000
v -0.049744000 0.005979500 0.257066000
v -0.051154000 -0.002713500 0.256215000
v -0.038124000 0.027171500 0.256861000
v -0.019601000 -0.031954500 0.257115000
v -0.011626000 -0.040419500 0.258019000
v -0.020853000 -0.040418500 0.258144000
v -0.024929000 -0.040902500 0.218027000
v -0.033249000 -0.032070500 0.260744000
v -0.031374000 -0.027777500 0.259930000
v -0.034040000 -0.025992500 0.260260000
v -0.042065000 -0.030790500 0.249993000
v -0.041864000 -0.031788500 0.254279000
v -0.011197000 -0.045965500 0.257479000
v -0.026286000 -0.043234500 0.257383000
v -0.019115000 -0.044848500 0.256251000
v -0.028505000 -0.037586500 0.260605000
v -0.025241000 -0.040024500 0.260330000
v -0.025398000 -0.037262500 0.260724000
v -0.024747000 -0.034552500 0.260449000
v -0.046525000 -0.013592500 0.259007000
v -0.044031000 -0.007370500 0.260336000
v -0.050925000 -0.016760500 0.254645000
v -0.050313000 -0.011501500 0.257722000
v -0.050971000 -0.013584500 0.256062000
v -0.045254000 -0.015928500 0.259418000
v -0.042868000 -0.018195500 0.259938000
v -0.009755000 -0.016661500 0.245628000
v -0.019263000 -0.043528500 0.209088000
v -0.014987000 -0.045178500 0.215630000
v -0.029290000 -0.027331500 0.258773000
v -0.034193000 -0.037599500 0.246021000
v -0.038745000 -0.034204500 0.249424000
v -0.016136000 -0.045343500 0.224804000
v -0.019209000 -0.044035500 0.224466000
v 0.005569000 -0.046851500 0.219651000
v -0.018157000 -0.016908500 0.248266000
v -0.024031000 -0.006893500 0.248122000
v -0.003174000 -0.028217500 0.249787000
v 0.002690000 -0.012944500 0.241929000
v -0.001919000 -0.013797500 0.242758000
v 0.014374000 -0.012734500 0.244115000
v 0.010972000 -0.015125500 0.243829000
v -0.031552000 -0.002665500 0.251320000
v -0.006142000 -0.004791500 0.240514000
v -0.003618000 -0.003791500 0.239661000
v -0.008695000 -0.046406500 0.220104000
v -0.011399000 -0.046511500 0.212208000
v 0.016059000 -0.045140500 0.212951000
v 0.013472000 -0.046332500 0.211405000
v 0.014085000 -0.045544500 0.222803000
v 0.015264000 -0.045432500 0.225294000
v 0.024444000 -0.040471500 0.210370000
v -0.021831000 -0.042949500 0.232646000
v 0.023720000 -0.041329500 0.223300000
v 0.021917000 -0.042299500 0.223647000
v 0.025062000 -0.039237500 0.215007000
v 0.018503000 -0.023293500 0.250752000
v 0.026855000 -0.040391500 0.234813000
v 0.009239000 -0.010149500 0.241803000
v 0.022721000 -0.024397500 0.253984000
v 0.006128000 -0.047222500 0.214360000
v -0.001129000 -0.049441500 0.255881000
v 0.001750000 -0.049702500 0.256200000
v 0.018581000 -0.043424500 0.219661000
v 0.020031000 -0.042683500 0.217176000
v 0.021059000 -0.042310500 0.220813000
v 0.000255000 -0.050318500 0.250361000
v 0.016192000 -0.047376500 0.254987000
v 0.018833000 -0.045536500 0.254763000
v 0.018208000 -0.044550500 0.257329000
v -0.009348000 -0.047914500 0.255796000
v -0.005416000 -0.047391500 0.258634000
v 0.018505000 -0.041135500 0.260204000
v 0.027867000 -0.038704500 0.247858000
v 0.030527000 -0.028040500 0.260086000
v 0.010097000 -0.037220500 0.260603000
v 0.008223000 -0.050058500 0.254307000
v 0.004368000 -0.044686500 0.260763000
v -0.002333000 -0.048446500 0.258490000
v -0.001654000 -0.046259500 0.260601000
v -0.005283000 -0.046146500 0.259568000
v -0.019667000 -0.042349500 0.256906000
v -0.017119000 -0.043300500 0.256627000
v -0.020591000 -0.045172500 0.255203000
v -0.010111000 -0.040340500 0.258349000
v -0.022807000 -0.033349500 0.259799000
v -0.022296000 -0.036916500 0.259902000
v -0.021493000 -0.034844500 0.259444000
v -0.014763000 -0.043612500 0.257776000
v -0.016686000 -0.044262500 0.256677000
v -0.012733000 -0.044803500 0.257903000
v -0.014593000 -0.044971500 0.257141000
v -0.016226000 -0.043091500 0.257065000
v -0.019714000 -0.036459500 0.258060000
v -0.018442000 -0.036440500 0.256348000
v -0.018993000 -0.037117500 0.256856000
v -0.015506000 -0.046772500 0.247201000
v -0.033320000 -0.037256500 0.259338000
v -0.004235000 -0.048310500 0.257741000
v -0.006545000 -0.049236500 0.252821000
v -0.015034000 -0.041878500 0.257506000
v -0.007265000 -0.034684500 0.254196000
v -0.018329000 -0.026436500 0.252441000
v -0.004198000 -0.018422500 0.244956000
v -0.044463000 -0.019315500 0.259235000
v 0.015065000 -0.034850500 0.260210000
v -0.017536000 -0.031552500 0.254682000
v -0.017710000 -0.035586500 0.255113000
v 0.019250000 -0.030116500 0.257774000
v 0.017413000 -0.030393500 0.257466000
v 0.025659000 -0.029862500 0.260397000
v 0.029275000 -0.030404500 0.260235000
v 0.012764000 -0.038465500 0.261500000
v 0.016211000 -0.032484500 0.258470000
v 0.016048000 -0.024471500 0.250524000
v 0.006862000 -0.028821500 0.251050000
v 0.022868000 -0.038268500 0.260127000
v 0.001164000 -0.025281500 0.247923000
v -0.011565000 -0.022995500 0.248417000
v 0.030260000 -0.037058500 0.239421000
v 0.027909000 -0.039595500 0.244431000
v 0.028632000 -0.038938500 0.241074000
v 0.027081000 -0.040739500 0.241700000
v -0.006259000 0.004825500 0.240418000
v -0.000219000 0.009230500 0.241254000
v 0.028681000 0.019338500 0.259250000
v 0.012450000 0.030204500 0.259828000
v -0.020197000 0.035192500 0.260559000
v -0.019973000 -0.000612500 0.245755000
v -0.017253000 -0.000648500 0.244734000
v -0.012049000 0.015726500 0.244930000
v -0.012408000 0.026628500 0.255005000
v -0.010135000 0.032915500 0.260162000
v -0.004694000 0.032042500 0.258554000
v -0.007865000 0.032119500 0.259198000
v 0.018449000 0.030022500 0.261222000
v 0.014037000 0.036800500 0.261012000
v 0.025488000 0.032882500 0.250578000
v 0.029589000 0.032485500 0.244367000
v 0.012533000 0.022102500 0.250857000
v 0.015048000 0.037999500 0.260219000
v 0.021636000 -0.016746500 0.248227000
v 0.014961000 0.042286500 0.246316000
v 0.026599000 0.033505500 0.235709000
v 0.022561000 0.035193500 0.242634000
v 0.015415000 0.041540500 0.239107000
v 0.017484000 0.040560500 0.245650000
v 0.025334000 0.034705500 0.202972000
v -0.009455000 0.042572500 0.238710000
v -0.000570000 0.043215500 0.236226000
v -0.004336000 0.042909500 0.233044000
v -0.000617000 0.013346500 0.242932000
v 0.007740000 0.003321500 0.240966000
v 0.002233000 0.016923500 0.244881000
v -0.012268000 0.000341500 0.242224000
v -0.019132000 0.039934500 0.249399000
v -0.016127000 0.007814500 0.244494000
v 0.010020000 0.032258500 0.260611000
v 0.018986000 -0.000526500 0.245468000
v -0.022729000 0.012667500 0.247083000
v -0.022905000 0.010706500 0.246420000
v -0.021299000 0.009894500 0.245905000
v -0.028378000 0.035160500 0.242576000
v -0.037204000 0.026013500 0.258076000
v -0.033581000 0.010121500 0.252791000
v -0.036383000 0.016346500 0.258568000
v -0.032641000 0.016659500 0.254372000
v -0.034122000 0.015445500 0.255802000
v -0.030111000 0.012411500 0.250410000
v -0.027332000 0.019400500 0.253776000
v -0.014732000 0.013640500 0.244928000
v -0.023613000 -0.002590500 0.247079000
v -0.027302000 0.012407500 0.248732000
v -0.029542000 0.010328500 0.249534000
v -0.030975000 0.000141500 0.250287000
v -0.032950000 0.000000500 0.251945000
v -0.045766000 0.013781500 0.257654000
v -0.044446000 0.007788500 0.259579000
v -0.044207000 0.013906500 0.257883000
v -0.042848000 0.011258500 0.258759000
v -0.043105000 0.014609500 0.258247000
v -0.038951000 0.007334500 0.257897000
v -0.039471000 0.011544500 0.258112000
v -0.042256000 0.010226500 0.258955000
v -0.040350000 0.008850500 0.258792000
v -0.039245000 0.005782500 0.258277000
v -0.041214000 0.000968500 0.260496000
v -0.046932000 -0.001261500 0.259882000
v -0.048512000 -0.004027500 0.258884000
v -0.047923000 -0.007401500 0.258866000
v -0.046313000 -0.005475500 0.259939000
v -0.036923000 -0.005322500 0.256310000
v -0.036718000 0.012524500 0.256665000
v -0.045040000 0.008983500 0.259187000
v -0.045449000 0.008792500 0.259153000
v -0.044001000 0.010143500 0.259044000
v -0.020809000 0.030208500 0.260319000
v -0.030886000 0.024427500 0.259733000
v -0.028260000 0.024663500 0.259747000
v -0.027718000 0.023225500 0.258512000
v -0.038160000 0.020096500 0.258910000
v -0.041520000 0.015775500 0.258170000
v -0.042216000 0.016849500 0.258150000
v -0.033201000 0.013519500 0.253452000
v -0.035390000 0.025200500 0.258728000
v -0.031531000 0.021300500 0.259468000
v -0.034642000 0.022717500 0.259342000
v -0.035408000 0.019238500 0.259185000
v -0.033323000 0.018368500 0.258162000
v -0.033363000 0.017653500 0.257106000
v -0.035406000 0.010988500 0.254849000
v -0.035597000 0.008682500 0.254317000
v -0.040267000 0.013118500 0.258492000
v -0.045464000 0.015823500 0.253825000
v -0.040376000 0.020738500 0.258291000
v -0.043110000 0.017483500 0.257760000
v -0.041492000 0.011948500 0.258580000
v -0.048269000 -0.003700500 0.211732000
v -0.047717000 0.011227500 0.256345000
v -0.030033000 0.033900500 0.257517000
v -0.028508000 0.033481500 0.258598000
v -0.032286000 0.018041500 0.256233000
v -0.036347000 0.001482500 0.255656000
v -0.042329000 0.005865500 0.260112000
v -0.020021000 0.037867500 0.259989000
v -0.043131000 0.012418500 0.258469000
v -0.040219000 0.004394500 0.259584000
v -0.050026000 -0.000021500 0.258266000
v -0.039469000 0.001800500 0.259449000
v -0.034598000 0.000324500 0.253862000
v -0.023079000 0.019217500 0.251382000
v -0.013403000 0.041499500 0.258364000
v -0.031797000 0.015297500 0.252614000
v -0.033163000 0.016924500 0.256462000
v -0.016451000 0.038726500 0.229696000
v -0.049805000 0.005713500 0.247234000
v -0.047878000 0.010171500 0.249073000
v -0.035716000 0.014839500 0.257206000
v -0.039922000 0.023938500 0.257719000
v -0.038411000 0.027367500 0.247521000
v -0.044277000 0.018720500 0.246818000
v -0.032283000 0.029037500 0.216230000
v -0.039071000 0.022281500 0.212627000
v -0.031298000 0.030967500 0.225465000
v -0.024839000 0.035182500 0.230946000
v -0.032325000 0.032289500 0.243361000
v -0.040748000 0.024348500 0.241514000
v -0.037005000 0.028440500 0.241902000
v -0.021915000 0.035842500 0.227907000
v -0.021642000 0.036759500 0.232945000
v -0.032457000 0.031004500 0.230455000
v -0.026743000 0.036228500 0.250610000
v -0.030907000 0.033433500 0.249627000
v -0.007574000 0.043572500 0.245352000
v -0.014492000 0.041549500 0.252368000
v -0.020389000 0.039589500 0.253507000
v -0.010554000 0.042698500 0.241672000
v -0.008678000 0.043366500 0.242492000
v -0.019751000 0.039633500 0.243857000
v -0.018710000 0.038937500 0.236915000
v 0.031426000 0.031261500 0.203237000
v 0.006043000 0.040171500 0.212376000
v -0.011802000 0.040500500 0.215696000
v -0.028349000 0.034500500 0.237513000
v -0.004869000 0.043101500 0.237845000
v -0.019705000 0.036663500 0.216123000
v -0.007231000 0.041860500 0.227155000
v -0.000259000 0.041182500 0.212617000
v 0.000381000 0.041339500 0.207341000
v 0.014148000 0.041950500 0.234005000
v 0.025058000 0.034067500 0.238601000
v 0.027319000 0.033108500 0.237587000
v 0.028716000 0.032970500 0.236292000
v 0.021725000 0.037801500 0.226461000
v -0.026434000 0.033157500 0.223922000
v 0.026530000 0.028881500 0.259540000
v 0.022819000 0.035800500 0.232367000
v 0.028440000 0.033229500 0.240033000
v 0.027829000 0.031923500 0.250659000
v 0.016629000 0.038890500 0.258988000
v 0.011773000 0.038540500 0.260615000
v 0.012274000 0.042031500 0.257241000
v 0.021386000 0.035280500 0.257311000
v 0.020312000 0.035638500 0.259184000
v 0.016867000 0.040061500 0.257611000
v 0.022604000 0.030759500 0.260381000
v -0.000058000 0.043554500 0.256618000
v 0.015076000 0.030384500 0.260763000
v 0.016362000 0.034945500 0.261377000
v 0.001866000 0.042757500 0.258930000
v -0.015299000 0.039750500 0.260110000
v -0.011811000 0.039244500 0.261085000
v 0.004358000 0.044189500 0.249386000
v 0.009739000 0.043501500 0.253420000
v 0.029676000 0.031237500 0.251121000
v -0.012456000 0.002503500 0.242524000
v 0.033985000 0.022687500 0.260387000
v 0.014375000 -0.031105500 0.256670000
v 0.013241000 -0.028307500 0.252729000
v -0.003355000 -0.035266500 0.255934000
v -0.008426000 -0.036077500 0.255421000
v -0.003726000 -0.036655500 0.256834000
v -0.006915000 -0.048990500 0.254934000
v -0.048565000 0.004705500 0.216459000
v -0.018457000 -0.035282500 0.256740000
v -0.015715000 -0.045606500 0.256160000
v -0.000833000 -0.038713500 0.259441000
v 0.007202000 -0.048015500 0.209858000
v -0.004002000 -0.048874500 0.256246000
v 0.000753000 -0.050030500 0.253924000
v 0.032574000 -0.034263500 0.245763000
v 0.032357000 -0.033382500 0.232869000
v 0.030121000 -0.037198500 0.234971000
v 0.022531000 -0.041833500 0.221824000
v 0.032294000 -0.032869500 0.219298000
v 0.010414000 -0.047497500 0.210226000
v -0.011740000 -0.046097500 0.216198000
v -0.008127000 -0.048916500 0.250237000
v -0.049638000 -0.015221500 0.257854000
v -0.039127000 -0.011003500 0.259074000
v -0.038228000 -0.035243500 0.254721000
v -0.032973000 -0.012298500 0.253809000
v -0.004989000 0.040332500 0.261181000
v -0.034164000 0.016590500 0.257231000
v -0.042066000 0.020930500 0.257623000
v -0.007516000 0.041582500 0.218905000
v 0.032339000 -0.015189500 0.256498000
v 0.030402000 -0.018582500 0.256343000
v 0.031970000 -0.034042500 0.253784000
v 0.036108000 -0.027015500 0.231528000
v 0.029953000 -0.036950500 0.245246000
v 0.029761000 -0.035748500 0.254928000
v 0.032329000 -0.034154500 0.238141000
v 0.030349000 -0.036502500 0.249057000
v 0.033811000 -0.032177500 0.241767000
v 0.036705000 -0.028815500 0.249598000
v 0.035179000 -0.030605500 0.245689000
v 0.029968000 -0.037647500 0.242357000
v 0.031698000 -0.035749500 0.202961000
v 0.034825000 -0.031758500 0.207835000
v 0.036883000 -0.030436500 0.203127000
v 0.040928000 -0.021460500 0.214270000
v 0.040110000 -0.023660500 0.240719000
v 0.037264000 -0.026070500 0.239297000
v 0.037971000 -0.025294500 0.230277000
v 0.033197000 -0.029953500 0.257335000
v 0.034923000 -0.027657500 0.257594000
v 0.036077000 -0.028799500 0.241970000
v 0.040354000 -0.024317500 0.243614000
v 0.038884000 -0.024265500 0.232542000
v 0.041301000 -0.023913500 0.247304000
v 0.037855000 -0.027239500 0.210061000
v 0.037762000 -0.028701500 0.206369000
v 0.042429000 -0.019336500 0.210863000
v 0.042288000 -0.020674500 0.231631000
v 0.039459000 -0.023882500 0.237669000
v 0.039780000 -0.022910500 0.235101000
v 0.038243000 -0.025956500 0.242227000
v 0.037588000 -0.027506500 0.253265000
v 0.041435000 -0.023591500 0.250316000
v 0.036559000 -0.023161500 0.259944000
v 0.038826000 -0.019056500 0.261008000
v 0.035251000 -0.023010500 0.260348000
v 0.035907000 -0.020437500 0.261436000
v 0.036063000 -0.021852500 0.260761000
v 0.039488000 -0.021839500 0.259210000
v 0.035640000 -0.028618500 0.255240000
v 0.039374000 -0.024089500 0.257166000
v 0.037320000 -0.025271500 0.257764000
v 0.034875000 -0.015278500 0.259295000
v 0.029019000 -0.026772500 0.260545000
v 0.033441000 -0.021401500 0.260662000
v 0.036714000 -0.012497500 0.260084000
v 0.033165000 -0.018225500 0.258799000
v 0.029083000 -0.020334500 0.256445000
v 0.030320000 -0.021305500 0.258288000
v 0.029736000 -0.027338500 0.260529000
v 0.033521000 -0.024132500 0.260673000
v 0.031500000 -0.025073500 0.260762000
v 0.035427000 -0.025100500 0.259635000
v 0.043470000 -0.019127500 0.226261000
v 0.042994000 -0.009934500 0.260681000
v 0.041274000 -0.022975500 0.255265000
v 0.043021000 -0.021092500 0.254209000
v 0.043241000 -0.021295500 0.250531000
v 0.047934000 -0.010230500 0.252235000
v 0.048713000 -0.005603500 0.253062000
v 0.044183000 -0.010820500 0.259825000
v 0.032594000 -0.000577500 0.256837000
v 0.046106000 0.010836500 0.230779000
v 0.045162000 0.007440500 0.258794000
v 0.047476000 0.004239500 0.256317000
v 0.033609000 0.007036500 0.259068000
v 0.038811000 0.006291500 0.260676000
v 0.038129000 0.009436500 0.260197000
v 0.033331000 0.011971500 0.259861000
v 0.030619000 0.013933500 0.258868000
v 0.032716000 0.009912500 0.259066000
v 0.033505000 -0.011444500 0.256847000
v 0.034904000 -0.013072500 0.258592000
v 0.035278000 -0.003857500 0.258785000
v 0.033766000 -0.005219500 0.257260000
v 0.037319000 -0.009585500 0.260108000
v 0.042750000 -0.000306500 0.260809000
v 0.035875000 0.001157500 0.259878000
v 0.035085000 -0.008372500 0.258242000
v 0.035900000 -0.010766500 0.259135000
v 0.038769000 -0.010265500 0.261462000
v 0.032407000 0.003855500 0.257576000
v 0.033904000 0.004435500 0.258866000
v 0.035230000 0.004783500 0.259779000
v 0.037084000 0.004189500 0.260596000
v 0.043232000 0.007638500 0.259782000
v 0.040761000 0.008448500 0.260123000
v 0.041814000 0.004980500 0.260579000
v 0.044486000 -0.005295500 0.259965000
v 0.037346000 -0.006232500 0.259975000
v 0.040023000 -0.003848500 0.261598000
v 0.043010000 -0.005239500 0.261202000
v 0.041765000 -0.008990500 0.261685000
v 0.042567000 -0.002995500 0.260962000
v 0.039821000 0.002047500 0.261162000
v 0.046064000 0.004797500 0.258428000
v 0.044236000 0.002860500 0.259832000
v 0.043211000 0.014299500 0.220387000
v 0.045738000 0.008164500 0.221582000
v 0.037195000 0.024462500 0.211371000
v 0.041535000 0.020273500 0.243121000
v 0.030499000 0.017624500 0.259959000
v 0.035480000 0.008241500 0.260037000
v 0.036117000 0.012692500 0.260233000
v 0.036802000 0.020788500 0.259707000
v 0.035213000 0.029172500 0.244475000
v 0.034565000 0.019861500 0.260635000
v 0.035378000 0.016422500 0.260442000
v 0.032797000 0.015487500 0.260292000
v 0.031196000 0.022210500 0.261018000
v 0.032279000 0.018786500 0.260715000
v 0.032725000 0.031147500 0.243619000
v 0.032866000 0.030940500 0.248171000
v -0.039718000 -0.033588500 0.255827000
v -0.043958000 -0.024420500 0.258848000
v -0.035818000 -0.021557500 0.259486000
v -0.038814000 -0.028221500 0.259814000
v -0.040984000 -0.024753500 0.259668000
v -0.049797000 -0.020232500 0.255723000
v -0.036233000 -0.030330500 0.260277000
v -0.032224000 -0.024764500 0.258953000
v -0.030053000 -0.025739500 0.258008000
v -0.033349000 -0.039268500 0.256101000
v -0.025394000 -0.029568500 0.258254000
v -0.027999000 -0.040147500 0.259948000
v -0.028179000 -0.022619500 0.254919000
v -0.030541000 -0.023572500 0.257015000
v -0.030877000 -0.020430500 0.255175000
v -0.033772000 -0.017937500 0.256249000
v -0.033972000 -0.014969500 0.255148000
v -0.035393000 -0.011513500 0.255622000
v -0.037185000 -0.011201500 0.257464000
v -0.039262000 -0.023991500 0.260401000
v -0.028363000 -0.029921500 0.259906000
v -0.035895000 -0.018421500 0.258107000
v -0.033291000 -0.021269500 0.257630000
v -0.037176000 -0.016501500 0.258439000
v -0.036314000 -0.014676500 0.257435000
v -0.052130000 -0.014351500 0.246353000
v -0.052022000 -0.012108500 0.239462000
v -0.046232000 -0.022101500 0.258662000
v -0.042172000 -0.021939500 0.259780000
v -0.027114000 -0.011984500 0.250575000
v -0.024220000 -0.041749500 0.225651000
v -0.049899000 -0.008806500 0.223103000
v -0.047336000 0.004390500 0.208055000
v 0.000990000 -0.019129500 0.244693000
v -0.023179000 -0.042329500 0.234833000
v -0.018673000 -0.044126500 0.218686000
v -0.013949000 -0.045629500 0.228966000
v 0.008620000 -0.047481500 0.212494000
v 0.007344000 -0.047674500 0.212996000
v -0.004172000 -0.048137500 0.209380000
v 0.003744000 -0.048143500 0.210906000
v 0.007872000 -0.048462500 0.205740000
v 0.021734000 -0.042865500 0.204499000
v 0.018161000 -0.044873500 0.204510000
v 0.014829000 -0.046421500 0.205291000
v 0.013087000 -0.046911500 0.207501000
v 0.016417000 -0.045264500 0.208944000
v 0.022115000 -0.041325500 0.214121000
v 0.012151000 -0.047103500 0.204298000
v 0.012121000 -0.045785500 0.218015000
v 0.024443000 -0.040624500 0.207291000
v 0.020295000 -0.043347500 0.209623000
v 0.027581000 -0.038593500 0.206603000
v 0.022517000 -0.041065500 0.219034000
v 0.027281000 -0.039182500 0.203185000
v 0.024231000 -0.040961500 0.205373000
v 0.026420000 -0.038486500 0.212326000
v 0.032485000 -0.033207500 0.211490000
v 0.035549000 -0.031300500 0.205329000
v 0.031922000 -0.033552500 0.217789000
v 0.035320000 -0.030274500 0.211294000
v 0.031917000 -0.028987500 0.258987000
v 0.030400000 -0.035053500 0.221012000
v 0.033934000 -0.030178500 0.230715000
v 0.033334000 -0.031718500 0.222638000
v 0.032790000 -0.032317500 0.228262000
v 0.033556000 -0.031488500 0.215863000
v 0.034136000 -0.030388500 0.226802000
v 0.025016000 -0.039642500 0.220126000
v 0.018789000 -0.014126500 0.246363000
v 0.017856000 -0.021084500 0.248651000
v 0.031796000 -0.035415500 0.242118000
v 0.018752000 -0.025414500 0.252528000
v 0.005953000 -0.049542500 0.240920000
v 0.019905000 -0.046015500 0.244636000
v -0.002200000 -0.048697500 0.204311000
v 0.004028000 -0.047188500 0.224759000
v 0.022661000 -0.043637500 0.234411000
v 0.035311000 -0.028214500 0.227835000
v 0.025172000 -0.041428500 0.230988000
v 0.028743000 -0.038366500 0.232387000
v 0.028063000 -0.039603500 0.238673000
v 0.026683000 -0.040440500 0.250401000
v 0.022551000 -0.044250500 0.243738000
v 0.027652000 -0.039382500 0.230352000
v 0.034703000 -0.029624500 0.236643000
v 0.028103000 -0.038644500 0.250160000
v 0.017425000 -0.046312500 0.235690000
v 0.005475000 -0.034819500 0.256947000
v 0.001533000 -0.035076500 0.256383000
v 0.019537000 -0.046096500 0.252105000
v 0.016925000 -0.047811500 0.248400000
v 0.010574000 -0.048183500 0.257589000
v 0.016441000 -0.042835500 0.259363000
v 0.025567000 -0.040165500 0.255023000
v 0.024136000 -0.040251500 0.257062000
v 0.014865000 -0.045871500 0.258028000
v 0.012190000 -0.049097500 0.255391000
v 0.012377000 -0.045638500 0.259156000
v 0.013622000 -0.047325500 0.256796000
v -0.000872000 -0.044691500 0.260893000
v 0.007876000 -0.044784500 0.260236000
v 0.004005000 -0.047881500 0.259332000
v 0.002323000 -0.037185500 0.258974000
v -0.004328000 -0.038947500 0.258903000
v -0.007995000 -0.043402500 0.259875000
v -0.008523000 -0.041421500 0.259169000
v -0.022547000 -0.039565500 0.259711000
v -0.018560000 -0.043520500 0.256330000
v -0.019555000 -0.039784500 0.257501000
v -0.023132000 -0.044219500 0.256421000
v -0.021139000 -0.043494500 0.257724000
v -0.009223000 -0.045034500 0.259063000
v -0.017103000 -0.046200500 0.254411000
v -0.009043000 -0.047098500 0.257396000
v -0.006684000 -0.048358500 0.257075000
v -0.011314000 -0.048093500 0.252851000
v -0.023919000 -0.042164500 0.228204000
v 0.008285000 -0.047796500 0.259141000
v -0.003117000 -0.049733500 0.253805000
v 0.005878000 -0.037556500 0.259805000
v -0.007241000 -0.038259500 0.257271000
v -0.009199000 -0.039803500 0.257952000
v -0.001360000 -0.034458500 0.254852000
v -0.001554000 -0.036148500 0.256703000
v -0.014444000 -0.037981500 0.255221000
v -0.011907000 -0.042635500 0.258669000
v -0.018180000 -0.037690500 0.256252000
v -0.017598000 -0.036983500 0.255350000
v -0.017286000 -0.041888500 0.256136000
v -0.005600000 -0.036327500 0.255687000
v 0.000714000 -0.033191500 0.254075000
v -0.004575000 -0.034264500 0.254408000
v -0.006453000 -0.033176500 0.253243000
v -0.015706000 -0.029609500 0.252584000
v -0.011079000 -0.037577500 0.256222000
v -0.015197000 -0.040020500 0.256301000
v -0.018926000 -0.040557500 0.256054000
v -0.022391000 -0.031749500 0.258632000
v -0.021798000 -0.029999500 0.256978000
v -0.020960000 -0.033220500 0.258769000
v -0.027917000 -0.032385500 0.260513000
v -0.010999000 -0.039547500 0.257559000
v -0.011852000 -0.039375500 0.256773000
v -0.016255000 -0.036658500 0.254276000
v -0.017139000 -0.039061500 0.255210000
v -0.013793000 -0.035765500 0.254097000
v -0.019478000 -0.029177500 0.254551000
v 0.021094000 -0.030290500 0.258675000
v 0.009000000 -0.031359500 0.254572000
v 0.011288000 -0.032391500 0.256460000
v 0.009353000 -0.034147500 0.257828000
v 0.012558000 -0.033370500 0.258563000
v 0.003169000 -0.033004500 0.254568000
v -0.000195000 -0.036926500 0.258184000
v 0.010919000 -0.035329500 0.259456000
v 0.024669000 -0.029106500 0.259642000
v 0.023476000 -0.030761500 0.260076000
v 0.029378000 -0.034368500 0.257674000
v 0.026912000 -0.035760500 0.259029000
v 0.025911000 -0.034117500 0.260515000
v 0.027948000 -0.021476500 0.256203000
v 0.036837000 -0.027519500 0.254642000
v 0.011724000 -0.030772500 0.254974000
v 0.021218000 -0.027022500 0.255575000
v 0.021552000 -0.022578500 0.251757000
v 0.027539000 0.031006500 0.254821000
v 0.029249000 0.030760500 0.254446000
v 0.023397000 0.033723500 0.253021000
v 0.027633000 0.029759500 0.257636000
v 0.027868000 0.030763500 0.256263000
v 0.024290000 0.031037500 0.258508000
v 0.026486000 0.025953500 0.260613000
v 0.025250000 0.027982500 0.260632000
v 0.021228000 0.028058500 0.260145000
v 0.023334000 -0.028276500 0.258130000
v 0.013970000 0.032878500 0.261707000
v 0.014972000 0.028842500 0.259601000
v -0.014137000 0.004464500 0.243353000
v 0.000423000 0.041276500 0.259820000
v -0.001630000 0.040736500 0.260815000
v -0.007891000 0.041922500 0.259071000
v -0.007355000 0.043077500 0.255041000
v -0.014618000 0.041463500 0.255824000
v -0.017645000 0.040546500 0.257122000
v 0.003561000 0.041161500 0.259912000
v 0.018962000 0.031837500 0.261589000
v 0.017575000 0.037059500 0.260277000
v 0.015974000 0.036713500 0.260743000
v 0.009659000 0.041752500 0.258607000
v 0.006606000 0.041105500 0.259450000
v 0.006548000 0.039345500 0.260727000
v 0.022930000 0.032940500 0.257458000
v 0.021489000 0.033427500 0.259333000
v 0.019902000 0.033106500 0.260952000
v 0.022802000 0.033756500 0.255675000
v 0.018627000 0.039702500 0.255626000
v 0.021741000 0.035735500 0.254698000
v 0.027289000 0.022781500 0.259780000
v 0.009346000 0.042967500 0.256399000
v 0.004835000 0.044017500 0.253998000
v 0.012115000 0.042793500 0.255366000
v 0.004241000 0.041801500 0.258736000
v 0.019328000 0.039253500 0.246615000
v 0.018377000 0.040126500 0.248564000
v 0.020509000 0.038043500 0.240965000
v 0.019480000 0.039436500 0.239824000
v 0.017218000 0.040741500 0.242132000
v 0.017482000 0.040933500 0.252004000
v 0.013253000 0.042887500 0.252166000
v 0.017949000 0.040568500 0.234403000
v 0.019394000 0.039092500 0.243524000
v 0.020187000 0.038479500 0.229668000
v 0.017709000 0.040155500 0.238207000
v 0.020357000 0.037992500 0.232869000
v 0.024964000 0.034815500 0.231710000
v 0.029651000 0.032639500 0.245968000
v 0.024294000 0.033937500 0.246388000
v 0.027786000 0.032599500 0.248268000
v 0.022147000 0.035367500 0.249162000
v 0.021490000 0.036229500 0.252218000
v 0.020523000 0.038334500 0.253600000
v 0.029979000 0.032609500 0.243760000
v 0.009019000 0.020982500 0.248816000
v 0.015577000 0.019926500 0.249938000
v 0.027670000 0.033688500 0.232210000
v 0.028963000 0.032997500 0.224879000
v 0.032726000 0.028990500 0.211509000
v 0.028342000 0.032325500 0.213889000
v 0.024396000 0.035100500 0.217001000
v 0.025008000 0.035693500 0.222796000
v 0.019275000 0.039024500 0.236325000
v 0.030134000 0.032743500 0.229462000
v 0.027590000 0.033248500 0.219190000
v 0.019227000 0.039208500 0.228187000
v 0.022138000 0.037112500 0.229967000
v 0.028065000 0.033682500 0.228815000
v 0.019045000 0.039268500 0.229566000
v 0.017112000 0.040512500 0.229703000
v 0.017973000 0.040080500 0.225370000
v 0.015436000 0.039532500 0.220565000
v 0.013483000 0.038760500 0.214181000
v 0.018738000 0.036965500 0.208437000
v 0.006284000 0.042745500 0.229203000
v 0.011657000 0.041569500 0.226377000
v 0.020627000 0.037134500 0.242838000
v 0.021277000 0.036822500 0.241148000
v -0.002023000 0.043624500 0.243004000
v -0.000333000 0.044123500 0.246629000
v 0.009848000 0.042823500 0.233333000
v -0.013707000 0.041412500 0.242143000
v -0.010294000 0.042069500 0.234441000
v 0.002510000 0.044030500 0.244741000
v -0.013577000 0.040936500 0.235415000
v -0.011034000 0.041369500 0.231261000
v -0.011107000 0.040935500 0.222298000
v -0.015175000 0.038835500 0.219092000
v -0.004016000 0.041766500 0.214357000
v 0.001197000 0.042858500 0.228683000
v -0.006098000 0.042011500 0.209001000
v -0.013072000 0.040558500 0.208313000
v -0.016672000 0.038554500 0.211966000
v -0.002849000 0.042076500 0.223049000
v 0.021430000 0.036394500 0.237549000
v -0.011723000 0.040667500 0.227119000
v -0.003826000 0.043922500 0.248553000
v 0.000686000 0.003487500 0.239406000
v 0.004702000 0.001125500 0.239676000
v -0.013667000 0.010978500 0.244032000
v 0.015143000 0.041460500 0.255717000
v -0.015957000 0.041125500 0.247577000
v -0.005875000 0.043439500 0.242586000
v -0.000665000 0.044186500 0.253008000
v -0.019928000 0.036291500 0.222690000
v -0.024737000 0.036723500 0.237857000
v -0.028839000 0.033216500 0.231888000
v -0.034625000 0.028560500 0.226291000
v -0.035447000 0.028976500 0.233164000
v -0.048141000 0.009077500 0.231055000
v -0.046547000 0.013323500 0.238086000
v -0.045758000 0.013847500 0.225599000
v -0.042898000 0.020092500 0.231884000
v -0.034305000 0.028364500 0.220310000
v -0.031173000 0.030625500 0.220295000
v -0.034217000 0.031486500 0.249982000
v -0.035634000 0.025917500 0.213428000
v -0.025228000 0.033529500 0.215169000
v -0.040254000 0.019967500 0.205591000
v -0.037523000 0.023369500 0.207247000
v -0.045937000 0.009105500 0.207144000
v -0.007809000 0.042425500 0.233665000
v -0.027161000 0.032415500 0.208137000
v -0.022172000 0.035743500 0.209072000
v -0.039341000 0.025345500 0.233967000
v -0.008718000 0.041677500 0.211860000
v -0.045557000 0.012049500 0.215407000
v -0.046668000 0.013227500 0.245940000
v -0.040850000 0.024756500 0.250420000
v -0.042425000 0.021730500 0.254352000
v -0.036499000 0.029207500 0.256671000
v -0.049623000 0.005895500 0.239379000
v -0.047979000 0.009386500 0.244396000
v -0.046766000 0.013752500 0.250180000
v -0.037698000 0.028259500 0.253400000
v -0.034916000 0.030542500 0.257228000
v -0.036768000 0.027825500 0.257744000
v -0.030111000 0.032016500 0.258450000
v -0.026066000 0.035586500 0.258490000
v -0.032179000 0.026814500 0.259152000
v -0.029596000 0.034614500 0.253020000
v -0.031839000 0.033549500 0.254963000
v -0.026581000 0.036570500 0.254913000
v -0.026121000 0.033633500 0.259365000
v -0.010446000 0.042942500 0.248240000
v -0.024900000 0.034455500 0.259370000
v -0.023871000 0.037566500 0.258047000
v -0.033798000 0.030250500 0.257581000
v -0.025122000 0.013860500 0.248356000
v -0.023272000 0.036262500 0.259531000
v -0.023942000 0.015899500 0.248971000
v -0.030187000 0.015299500 0.250633000
v -0.048443000 0.008339500 0.252653000
v -0.051021000 0.003247500 0.250753000
v -0.028126000 0.034902500 0.258292000
v -0.026936000 0.015711500 0.250016000
v -0.027588000 0.013614500 0.249492000
v -0.025099000 0.006940500 0.247098000
v -0.026916000 0.009125500 0.248005000
v -0.019849000 0.007898500 0.245474000
v -0.026874000 -0.004639500 0.248800000
v -0.026377000 -0.008414500 0.249429000
v -0.030683000 0.002532500 0.249903000
v -0.050616000 -0.001405500 0.224682000
v -0.051381000 0.001371500 0.245001000
v -0.051493000 0.001833500 0.248314000
v -0.029461000 0.001377500 0.248980000
v -0.029972000 0.005311500 0.249406000
v -0.035471000 0.003335500 0.254192000
v -0.032787000 0.005801500 0.251283000
v -0.037580000 0.004871500 0.256727000
v -0.051475000 0.000760500 0.238849000
v -0.034346000 0.007519500 0.253035000
v -0.033715000 -0.002783500 0.253119000
v -0.052285000 -0.002057500 0.244112000
v -0.050662000 0.001831500 0.256825000
v -0.049003000 0.005322500 0.258550000
v -0.040351000 0.006724500 0.258922000
v -0.049179000 0.003172500 0.258519000
v -0.039362000 -0.002415500 0.259241000
v -0.037750000 -0.002912500 0.257498000
v -0.039121000 -0.007000500 0.258728000
v -0.034171000 -0.007017500 0.253820000
v -0.034253000 0.005014500 0.252885000
v -0.034591000 0.006319500 0.253555000
v -0.035992000 -0.002365500 0.255352000
v -0.026514000 0.022263500 0.256662000
v -0.038755000 0.017397500 0.258464000
v -0.044896000 0.004555500 0.260215000
v -0.037514000 0.023192500 0.258704000
v -0.034936000 0.028334500 0.257996000
v -0.037435000 0.009156500 0.256463000
v -0.040688000 0.018155500 0.258171000
v -0.042406000 0.008381500 0.259377000
v -0.037901000 0.014018500 0.257943000
v -0.042945000 0.015806500 0.257900000
v 0.028355000 -0.032188500 0.260123000
v 0.016735000 -0.044475500 0.258219000
v 0.025999000 -0.024493500 0.257141000
v 0.026625000 -0.027308500 0.259634000
v 0.028177000 -0.028767500 0.260667000
v 0.030786000 -0.034460500 0.215150000
v 0.031278000 -0.034448500 0.212678000
v 0.046881000 0.001991500 0.257917000
v 0.045363000 0.000060500 0.259292000
v -0.014049000 -0.033851500 0.253177000
v -0.039125000 -0.019294500 0.260157000
v -0.037850000 -0.017441500 0.259250000
v -0.051586000 -0.008468500 0.255913000
v -0.025019000 -0.042634500 0.259180000
v -0.001758000 -0.047103500 0.221713000
v 0.024824000 -0.042315500 0.245230000
v -0.023232000 -0.027569500 0.255751000
v 0.004764000 0.004760500 0.240384000
v 0.025246000 -0.022020500 0.253867000
v 0.027739000 -0.019689500 0.254471000
v 0.026680000 -0.037861500 0.218003000
v 0.001924000 -0.030817500 0.251996000
v -0.018949000 0.020501500 0.250723000
v -0.001131000 -0.009487500 0.240945000
v -0.003334000 -0.006676500 0.240409000
v -0.025502000 0.011896500 0.247656000
v -0.010155000 0.022743500 0.249563000
v 0.007955000 0.017943500 0.246269000
v -0.031113000 0.032783500 0.236797000
v -0.020266000 0.039570500 0.256744000
v -0.023763000 0.038025500 0.246745000
v -0.032517000 -0.004897500 0.252262000
v -0.029628000 -0.002530500 0.249742000
v -0.050417000 -0.005952500 0.257841000
v -0.020072000 -0.043833500 0.229302000
v -0.017645000 -0.044289500 0.230592000
v 0.024998000 -0.031225500 0.260769000
v 0.022036000 -0.035353500 0.261170000
v -0.033883000 0.002327500 0.252792000
v -0.032343000 0.002926500 0.251107000
v 0.028913000 0.032714500 0.243258000
v 0.019262000 0.036715500 0.259729000
v 0.043741000 0.011863500 0.258711000
v 0.047344000 -0.001038500 0.220559000
v 0.048327000 0.001950500 0.255645000
v -0.043417000 0.014881500 0.206810000
v -0.026581000 0.002026500 0.247601000
v -0.027069000 0.005513500 0.247740000
v 0.014980000 0.010829500 0.245426000
v -0.015940000 0.037720500 0.260944000
v 0.025836000 0.012890500 0.253883000
v 0.024049000 0.019372500 0.255438000
v 0.018107000 0.025194500 0.256267000
v 0.018808000 0.023830500 0.255532000
v 0.019179000 0.026053500 0.257878000
v 0.022307000 0.017604500 0.252759000
v 0.018254000 -0.042488500 0.259251000
v 0.018874000 -0.042832500 0.258223000
v 0.027774000 -0.011436500 0.251124000
v -0.003681000 -0.047323500 0.225684000
v 0.000476000 -0.048029500 0.211904000
v -0.000967000 -0.047015500 0.216716000
v -0.001327000 -0.048464500 0.209162000
v -0.012820000 -0.045732500 0.231052000
v -0.014003000 -0.045368500 0.234316000
v -0.022362000 -0.042790500 0.221023000
v -0.027377000 -0.040226500 0.230221000
v -0.029015000 -0.039107500 0.228095000
v -0.022306000 -0.042465500 0.224835000
v -0.021221000 -0.043371500 0.226803000
v -0.046306000 -0.008342500 0.206734000
v -0.046468000 -0.010163500 0.210803000
v -0.047054000 -0.017004500 0.226700000
v -0.031486000 -0.040071500 0.249547000
v -0.022050000 -0.043325500 0.239677000
v -0.040475000 -0.031487500 0.244402000
v -0.046337000 -0.025737500 0.249189000
v -0.045699000 -0.024562500 0.258307000
v 0.043402000 -0.018788500 0.218881000
v -0.044791000 -0.027939500 0.251907000
v -0.051554000 -0.014125500 0.254130000
v -0.011798000 -0.045981500 0.221354000
v -0.016214000 -0.045049500 0.221283000
v -0.018131000 -0.044199500 0.233109000
v 0.008401000 -0.047154500 0.227253000
v 0.003963000 -0.048096500 0.231563000
v 0.010897000 -0.044469500 0.259696000
v 0.011954000 -0.041341500 0.261305000
v -0.010864000 -0.046885500 0.239746000
v -0.026790000 -0.017828500 0.252317000
v -0.014584000 0.001285500 0.243459000
v 0.012274000 0.018916500 0.247898000
v 0.044266000 -0.014373500 0.213705000
v -0.015940000 0.039231500 0.208004000
v -0.018296000 0.038291500 0.207039000
v -0.016435000 0.039308500 0.205297000
v 0.014483000 0.038207500 0.204305000
v -0.009211000 0.042097500 0.205832000
v 0.012408000 0.038681500 0.208929000
v -0.004683000 0.042114500 0.205112000
v 0.007357000 0.039916500 0.204362000
v 0.032398000 0.030053500 0.206982000
v 0.029660000 0.031826500 0.208454000
v 0.024819000 0.034519500 0.210440000
v 0.027993000 0.033229500 0.206019000
v 0.044862000 -0.018115500 0.251924000
v 0.042749000 -0.021065500 0.242482000
v 0.011292000 -0.047044500 0.258567000
v 0.044078000 -0.018229500 0.256118000
v 0.049220000 -0.000230500 0.253035000
v 0.049625000 -0.002889500 0.249521000
v 0.047257000 -0.001864500 0.257158000
v 0.046876000 0.000698500 0.211872000
v 0.035894000 0.023001500 0.259517000
v 0.044377000 0.005587500 0.259802000
v 0.041699000 0.015891500 0.258430000
v 0.043679000 0.016271500 0.237375000
v 0.048183000 -0.005007500 0.224983000
v 0.042188000 0.013850500 0.259115000
v 0.041463000 0.020679500 0.249917000
v 0.030533000 0.032358500 0.242161000
v 0.034610000 -0.032592500 0.203521000
v 0.039441000 -0.024966500 0.211315000
v -0.052308000 -0.010331500 0.252403000
v -0.000118000 0.042804500 0.232138000
v -0.049766000 -0.017895500 0.257157000
v -0.050864000 0.002186500 0.254240000
v -0.052631000 -0.009929500 0.244370000
v -0.052788000 -0.005693500 0.247230000
v 0.009989000 -0.047844500 0.206784000
v 0.020033000 -0.044358500 0.255900000
v -0.019392000 0.039610500 0.258433000
v -0.011198000 0.040847500 0.260076000
v 0.013515000 0.040216500 0.258842000
v 0.020318000 0.038436500 0.250815000
v -0.001075000 0.041698500 0.215363000
v -0.025613000 0.034157500 0.203780000
v -0.052074000 -0.003607500 0.237680000
v -0.034442000 0.026475500 0.206563000
v -0.043736000 0.018743500 0.256702000
v -0.028111000 0.035575500 0.256536000
v -0.023094000 0.038053500 0.255706000
v -0.026777000 0.034087500 0.258969000
v -0.051464000 -0.007444500 0.230642000
v -0.049903000 0.003402500 0.230307000
f 880 232 1071
f 1674 880 1071
f 1674 618 1071
f 1227 1216 557
f 1227 855 1071
f 1227 618 1071
f 1227 618 557
f 1217 1216 557
f 154 880 232
f 154 196 210
f 206 197 210
f 206 197 232
f 1073 232 1071
f 1073 111 232
f 1073 855 1071
f 1073 1070 855
f 240 111 232
f 1638 1674 1637
f 1638 1674 880
f 626 1674 618
f 1633 1674 1637
f 1256 1227 855
f 1215 1216 1247
f 1215 1227 1216
f 1215 1256 1247
f 1215 1256 1227
f 179 196 210
f 179 154 196
f 103 154 175
f 103 178 211
f 103 179 154
f 189 197 210
f 205 206 232
f 205 240 232
f 1214 556 504
f 455 578 674
f 1248 618 557
f 1248 1214 557
f 1248 1214 556
f 1248 556 504
f 68 618 49
f 663 68 49
f 580 1248 578
f 580 618 49
f 580 1248 618
f 1355 986 1486
f 1422 1638 1637
f 1422 349 1637
f 1422 349 350
f 1412 1422 1638
f 1460 626 1674
f 1608 626 1205
f 1608 626 627
f 628 626 627
f 628 52 681
f 212 178 211
f 212 103 178
f 212 103 179
f 158 154 232
f 158 154 210
f 158 189 210
f 171 103 211
f 171 187 211
f 171 103 175
f 1657 132 130
f 1657 187 211
f 1657 130 175
f 1657 171 187
f 1657 171 175
f 183 1165 130
f 183 132 126
f 183 132 130
f 1050 455 578
f 799 1248 504
f 764 68 1613
f 764 663 1053
f 764 663 68
f 665 1184 1551
f 665 746 1551
f 668 1184 748
f 668 669 748
f 55 746 674
f 55 580 49
f 55 578 674
f 55 580 578
f 1289 455 674
f 1289 1050 832
f 1289 1050 455
f 1182 663 1053
f 1421 986 375
f 990 986 1486
f 360 368 1349
f 718 1013 1362
f 118 712 126
f 351 349 350
f 351 349 375
f 351 375 1373
f 1372 5 1373
f 957 1491 1496
f 964 1669 1357
f 1438 986 375
f 1634 1638 880
f 1634 1412 880
f 1634 1412 1638
f 1002 1412 1383
f 1002 1422 350
f 1002 1412 1422
f 1550 960 1517
f 1550 960 1571
f 1192 692 689
f 1192 686 689
f 1462 626 1205
f 1462 1460 626
f 950 1505 1681
f 950 1505 1205
f 950 1608 1205
f 1204 1608 627
f 1204 1199 627
f 1204 1199 1681
f 1204 950 1681
f 1204 950 1608
f 1665 1199 1681
f 1665 1661 1666
f 617 626 618
f 617 679 618
f 617 628 626
f 617 628 52
f 617 52 681
f 617 679 681
f 1478 1491 1496
f 1478 1491 1531
f 728 284 1471
f 1676 1450 1674
f 1676 1460 1674
f 1676 1460 1461
f 1466 1460 1461
f 1466 1676 1461
f 1466 1676 1450
f 176 158 232
f 176 158 189
f 176 197 232
f 176 189 197
f 259 240 111
f 121 149 175
f 121 130 175
f 121 1165 130
f 993 127 1383
f 993 1412 880
f 993 1412 1383
f 993 149 175
f 993 154 175
f 993 154 880
f 1369 712 126
f 576 1248 578
f 576 1050 578
f 576 799 1248
f 740 692 689
f 740 664 692
f 740 664 748
f 695 668 669
f 695 740 689
f 693 665 694
f 693 665 1184
f 666 55 746
f 666 665 694
f 666 665 746
f 667 1182 663
f 667 55 49
f 667 1182 694
f 667 666 694
f 667 666 55
f 744 764 1053
f 1635 991 1633
f 1635 1633 1637
f 1635 990 986
f 1635 1421 986
f 1635 1421 375
f 1635 349 1637
f 1635 349 375
f 1055 1353 722
f 1055 360 368
f 1364 360 1013
f 1364 1055 360
f 1364 1055 1353
f 1358 1353 1022
f 1358 1022 1362
f 1358 718 1362
f 1358 718 1013
f 137 1579 712
f 1017 1012 712
f 1017 1369 712
f 1017 1671 1012
f 1026 351 1373
f 1026 1372 1373
f 1026 1372 1374
f 1445 375 1373
f 1445 1438 375
f 1445 1355 986
f 1445 1438 986
f 11 1022 1362
f 11 5 1022
f 11 1372 5
f 1014 1372 1374
f 1014 11 1362
f 1014 11 1372
f 1014 1671 1362
f 1014 1017 1671
f 1024 1055 722
f 1024 1055 368
f 709 1353 722
f 709 1353 1022
f 1019 964 1355
f 1019 1445 1355
f 1019 5 1022
f 1019 5 1373
f 1019 1445 1373
f 1356 1355 1486
f 1356 964 1355
f 1356 1357 1486
f 1356 964 1357
f 8 1550 1661
f 8 1661 1666
f 1675 1516 1666
f 1675 1505 1681
f 1675 1665 1666
f 1675 1665 1681
f 860 1530 1587
f 860 1530 1531
f 860 957 1587
f 860 1491 1531
f 860 957 1491
f 927 1530 1531
f 927 1530 296
f 755 1550 1571
f 755 756 1663
f 755 1550 756
f 920 960 296
f 1518 960 296
f 1513 1675 1505
f 1513 1675 1516
f 1036 1462 1205
f 1036 1513 1505
f 1036 1505 1205
f 59 679 680
f 59 679 618
f 59 764 1613
f 59 744 764
f 59 68 618
f 59 68 1613
f 65 679 681
f 65 679 680
f 104 1665 1661
f 1567 1669 1357
f 1567 988 1357
f 1483 721 1457
f 896 1531 971
f 896 1478 971
f 896 1478 1531
f 1057 728 284
f 735 1478 971
f 735 1057 971
f 735 1057 728
f 980 1450 1457
f 980 1466 1450
f 180 212 179
f 180 212 211
f 180 177 211
f 1264 1217 557
f 1264 1216 1247
f 1264 1217 1216
f 1264 1263 490
f 479 664 748
f 226 1073 1070
f 147 1657 211
f 147 1657 132
f 134 132 126
f 143 121 149
f 143 993 149
f 143 121 1165
f 143 993 127
f 1172 183 1165
f 1172 143 1165
f 1172 143 127
f 1442 1017 1369
f 1442 1014 1374
f 1442 1014 1017
f 875 1002 350
f 875 1002 1383
f 449 576 1050
f 449 576 799
f 449 1050 832
f 449 799 832
f 489 1270 490
f 489 1214 504
f 489 1214 557
f 489 1264 557
f 489 1264 490
f 1292 799 832
f 809 489 504
f 809 489 1270
f 671 695 669
f 671 695 740
f 671 669 748
f 671 740 748
f 1611 663 49
f 1611 667 49
f 1611 667 663
f 830 695 668
f 830 668 1184
f 830 693 1184
f 830 693 694
f 830 670 694
f 676 670 694
f 676 1182 694
f 676 1182 1053
f 676 744 1053
f 701 744 1617
f 701 676 744
f 701 66 690
f 701 676 690
f 1443 1635 991
f 1443 988 991
f 1443 990 1486
f 1443 1635 990
f 1443 1357 1486
f 1443 988 1357
f 361 1364 1353
f 361 1358 1353
f 361 1364 1013
f 361 1358 1013
f 1360 1012 712
f 1360 1579 712
f 1360 1671 1012
f 1360 137 1579
f 100 118 126
f 100 118 712
f 100 137 712
f 1023 964 1669
f 1023 1670 964
f 1023 957 1669
f 1023 957 1587
f 1023 1024 1587
f 1023 1024 722
f 1023 1670 722
f 1354 1019 964
f 1354 1670 964
f 1354 1670 722
f 1354 709 722
f 734 1550 1517
f 734 8 1517
f 734 8 1550
f 951 284 1475
f 951 1495 1475
f 724 8 1517
f 724 8 1666
f 724 1516 1666
f 369 1024 368
f 369 1024 1587
f 369 371 1587
f 947 1531 971
f 947 927 1531
f 1051 639 1663
f 1051 755 1663
f 1051 755 639
f 634 755 639
f 634 920 960
f 634 960 1571
f 634 755 1571
f 685 686 689
f 637 639 686
f 637 685 686
f 294 1530 296
f 294 920 296
f 294 1192 692
f 294 692 368
f 294 369 368
f 294 369 371
f 294 1192 686
f 294 1530 1587
f 294 371 1587
f 725 960 1517
f 725 1518 960
f 1583 1462 1460
f 1454 1466 1460
f 1451 1495 1475
f 723 1036 1462
f 723 1583 1462
f 723 1583 1453
f 723 1451 1453
f 723 1036 1513
f 723 1451 1513
f 1614 59 680
f 1614 65 680
f 1614 744 1617
f 1614 59 744
f 1614 701 1617
f 683 65 682
f 683 1614 65
f 683 701 66
f 683 1614 701
f 635 1199 627
f 635 628 627
f 635 628 681
f 1198 1665 1199
f 1198 104 1665
f 1198 104 682
f 1198 635 1199
f 1198 635 682
f 1618 104 1661
f 1618 1550 1661
f 1618 1550 756
f 1488 1567 1669
f 1488 957 1496
f 1488 957 1669
f 1484 1567 988
f 1484 1488 1567
f 1566 1450 1674
f 1566 1450 1457
f 895 1566 1674
f 895 1483 1457
f 895 1566 1457
f 952 726 1496
f 952 726 1483
f 295 1518 284
f 295 1057 284
f 295 927 296
f 295 1518 296
f 295 947 927
f 295 1057 971
f 295 947 971
f 1477 735 1478
f 1477 1478 1496
f 1477 726 1496
f 1477 1483 721
f 1477 726 1483
f 218 205 240
f 218 259 240
f 218 259 111
f 218 227 111
f 1647 180 1582
f 511 1070 855
f 503 1264 1247
f 503 1264 1263
f 503 1256 1247
f 503 1256 855
f 503 511 855
f 812 1184 1551
f 481 479 1625
f 139 147 132
f 139 147 162
f 139 134 132
f 139 134 162
f 1381 1172 127
f 1381 1172 1369
f 1381 127 1383
f 1381 875 1383
f 1381 1442 1369
f 146 183 126
f 146 1172 183
f 146 1172 1369
f 1382 351 350
f 1382 875 350
f 1382 1026 1374
f 1382 1026 351
f 1382 1381 875
f 1382 1442 1374
f 1382 1381 1442
f 1035 1292 832
f 1035 1289 832
f 1035 746 674
f 1035 1289 674
f 499 482 473
f 499 795 473
f 499 795 809
f 499 809 1270
f 499 482 1291
f 62 1615 66
f 62 66 690
f 62 676 690
f 62 676 670
f 873 1360 1013
f 873 1360 1671
f 873 1013 1362
f 873 1671 1362
f 869 360 1013
f 1021 1360 137
f 1021 360 1349
f 1021 869 360
f 708 1019 1022
f 708 1354 1019
f 708 709 1022
f 708 1354 709
f 733 951 1495
f 733 724 1517
f 733 724 1495
f 733 725 1517
f 733 725 1518
f 733 1518 284
f 733 951 284
f 1507 724 1495
f 1507 1513 1516
f 1507 724 1516
f 1507 1451 1495
f 1507 1451 1513
f 687 639 1663
f 687 637 639
f 687 1615 66
f 687 637 1615
f 923 294 639
f 923 294 920
f 923 634 639
f 923 634 920
f 644 639 686
f 644 294 686
f 644 294 639
f 15 1583 1453
f 15 1454 1453
f 15 1583 1460
f 15 1454 1460
f 979 1454 1466
f 973 1454 1453
f 973 284 1471
f 973 284 1475
f 684 683 66
f 684 683 682
f 67 65 682
f 67 635 682
f 67 65 681
f 67 635 681
f 1678 1484 1483
f 1678 1484 1488
f 1678 1488 1496
f 1678 952 1496
f 1678 952 1483
f 1568 1484 1483
f 1568 895 1483
f 1568 988 991
f 1568 1484 988
f 1568 991 1633
f 1568 1633 1674
f 1568 895 1674
f 1472 1477 721
f 1472 1477 735
f 1472 735 728
f 1472 1476 721
f 1472 1476 728
f 215 1647 1582
f 1546 1151 1652
f 1546 1151 193
f 209 218 205
f 213 1647 180
f 213 179 210
f 213 180 179
f 213 206 210
f 185 134 162
f 185 136 134
f 140 185 162
f 800 1263 490
f 800 1270 490
f 800 500 1270
f 1265 500 1270
f 1265 499 1291
f 1265 499 1270
f 749 1184 748
f 749 812 748
f 749 812 1184
f 1273 479 748
f 1273 812 748
f 1273 479 1625
f 1273 812 1625
f 484 812 1551
f 1117 1643 227
f 1117 227 111
f 1117 1073 111
f 1117 226 1073
f 2 218 227
f 2 1643 227
f 2 1643 229
f 1646 230 251
f 1646 1643 229
f 1646 230 229
f 186 147 162
f 186 147 211
f 186 140 162
f 186 177 211
f 186 182 177
f 186 140 182
f 131 136 137
f 131 136 134
f 131 134 126
f 131 100 126
f 131 100 137
f 142 1369 126
f 142 146 126
f 142 146 1369
f 1288 746 1551
f 1288 1035 746
f 1042 1292 799
f 1042 795 1292
f 688 62 1615
f 688 685 689
f 688 637 1615
f 688 637 685
f 1361 1360 1013
f 1361 869 1013
f 1361 1021 1360
f 1361 1021 869
f 1164 136 137
f 1164 1029 137
f 122 1021 137
f 122 1029 137
f 1166 1147 1652
f 1166 1029 1652
f 1166 122 1029
f 1166 122 1169
f 1166 1169 1150
f 1166 1151 1150
f 972 1476 721
f 972 980 1466
f 972 979 1466
f 972 721 1457
f 972 980 1457
f 1452 973 1475
f 1452 973 1453
f 1452 1451 1475
f 1452 1451 1453
f 1178 104 682
f 1178 684 682
f 1178 687 1663
f 1178 684 66
f 1178 687 66
f 845 481 1625
f 845 491 1625
f 845 481 479
f 845 491 168
f 845 368 1349
f 845 692 368
f 845 664 692
f 845 479 664
f 1649 193 1582
f 1649 215 1582
f 1649 215 193
f 192 215 193
f 192 1120 193
f 192 1120 230
f 192 230 229
f 192 215 229
f 1152 1151 1150
f 1152 845 1349
f 1152 845 168
f 163 1147 1652
f 163 1151 1652
f 163 1166 1147
f 163 1166 1151
f 1118 209 218
f 1118 2 229
f 1118 2 218
f 1580 140 182
f 1580 140 185
f 181 1155 182
f 181 182 177
f 181 180 1582
f 181 180 177
f 1545 1546 1652
f 1545 1155 1652
f 1545 1546 193
f 1545 193 1582
f 1545 181 1582
f 1545 181 1155
f 510 503 1263
f 510 503 511
f 1668 800 1263
f 1668 800 500
f 1668 510 1263
f 1269 1265 500
f 475 484 812
f 475 482 1291
f 475 482 473
f 475 484 473
f 1116 1117 1643
f 1116 1646 1643
f 1116 1117 226
f 1116 226 1115
f 811 484 473
f 811 484 1551
f 811 1288 1551
f 474 795 1292
f 474 1035 1292
f 474 795 473
f 474 1288 1035
f 474 811 473
f 474 811 1288
f 505 795 809
f 505 1042 795
f 505 1042 799
f 505 799 504
f 505 809 504
f 698 688 689
f 698 830 670
f 698 62 670
f 698 688 62
f 698 695 689
f 698 830 695
f 1359 122 1169
f 1359 122 1021
f 1359 1021 1349
f 1359 1169 1150
f 1359 1152 1349
f 1359 1152 1150
f 1470 1476 728
f 1470 972 1476
f 1470 972 979
f 1470 728 1471
f 1470 973 1471
f 1470 979 1454
f 1470 973 1454
f 754 1618 104
f 754 1178 104
f 754 1178 1663
f 754 756 1663
f 754 1618 756
f 235 1151 193
f 235 1120 193
f 235 1152 1151
f 91 1094 168
f 91 1094 251
f 91 230 251
f 91 1120 230
f 1096 491 168
f 1096 1094 168
f 1648 213 206
f 1648 213 1647
f 1123 1155 1652
f 1123 1155 182
f 1123 1580 182
f 1656 1029 1652
f 1656 1164 1029
f 1656 1164 136
f 1656 185 136
f 1656 1580 185
f 507 510 1267
f 507 1668 510
f 810 485 812
f 480 810 485
f 480 812 1625
f 480 810 812
f 486 475 1291
f 486 480 485
f 486 475 812
f 486 485 812
f 486 476 1291
f 486 480 1625
f 486 491 1625
f 486 476 491
f 90 235 1120
f 90 235 1152
f 90 91 1120
f 90 1152 168
f 90 91 168
f 1119 1648 1647
f 1119 1118 229
f 1119 215 229
f 1119 215 1647
f 216 1118 209
f 216 209 205
f 216 1119 1118
f 216 1119 1648
f 216 205 206
f 216 1648 206
f 106 1123 1652
f 106 1123 1580
f 106 1656 1652
f 106 1656 1580
f 1255 510 511
f 1255 521 510
f 281 511 1070
f 281 226 1070
f 281 521 226
f 281 1255 511
f 281 1255 521
f 255 226 1115
f 1061 510 1267
f 1061 521 510
f 1061 502 1267
f 1061 521 226
f 1061 255 226
f 1061 1100 502
f 1061 1100 1115
f 1061 255 1115
f 237 1646 251
f 237 1100 1115
f 237 1116 1115
f 237 1116 1646
f 1333 849 491
f 1333 1096 491
f 1333 1096 1094
f 1333 427 1094
f 1333 427 849
f 501 427 849
f 501 1100 502
f 501 427 1100
f 805 849 491
f 805 476 1291
f 805 476 491
f 1098 427 1100
f 1098 237 251
f 1098 237 1100
f 1098 1094 251
f 1098 427 1094
f 1268 507 1668
f 1268 501 502
f 1268 502 1267
f 1268 507 1267
f 497 1668 500
f 497 1268 1668
f 497 1268 501
f 1645 805 1291
f 1645 805 1269
f 1645 1265 1291
f 1645 1269 1265
f 1594 805 1269
f 495 1594 1269
f 495 501 849
f 495 497 501
f 495 805 849
f 495 1594 805
f 802 497 500
f 802 495 497
f 802 1269 500
f 802 495 1269
