o collision_band_hull_00
v 0.054420000 0.032429500 0.046407000
v 0.065613000 0.009499500 0.040892000
v 0.057968000 0.027198500 0.025007000
v 0.044903000 -0.045297500 0.007128000
v -0.065779000 0.000287500 0.004996000
v -0.065051000 0.005183500 0.005712000
v 0.061244000 -0.021323500 0.041188000
v 0.062505000 -0.012958500 0.021178000
v 0.059053000 -0.020479500 0.023694000
v 0.060389000 -0.015830500 0.024441000
v -0.063974000 0.003771500 0.010184000
v -0.031839000 -0.050064500 0.052260000
v -0.054546000 0.028505500 0.006493000
v -0.027244000 0.048694500 0.021288000
v 0.036533000 0.051062500 0.010057000
v 0.028022000 -0.052822500 0.025166000
v 0.041832000 0.046189500 0.042820000
v 0.045948000 0.038275500 0.055149000
v -0.050287000 0.036745500 0.000054000
v -0.057299000 -0.035351500 0.000335000
v 0.059409000 0.028512500 0.003703000
v 0.041343000 0.048109500 0.007286000
v -0.058072000 -0.024624500 0.006919000
v 0.012187000 -0.059833500 0.002545000
v -0.062132000 -0.013212500 0.007235000
v -0.061928000 -0.015826500 0.005185000
v 0.032617000 -0.053608500 0.006268000
v 0.022987000 -0.057851500 0.011300000
v 0.031709000 -0.054255500 0.009617000
v 0.035716000 -0.051919500 0.010692000
v -0.012302000 -0.059946500 0.001442000
v -0.018410000 -0.058831500 0.000455000
v -0.014203000 -0.059308500 0.010427000
v -0.038446000 -0.048466500 0.008489000
v -0.057681000 -0.030874500 0.002425000
v 0.027202000 -0.054773500 0.017806000
v -0.005173000 -0.059579500 0.019148000
v -0.003531000 -0.060474500 0.014605000
v -0.031496000 -0.051705500 0.015581000
v -0.035132000 -0.049335500 0.017883000
v -0.037822000 -0.048001500 0.014137000
v -0.039629000 -0.046318500 0.017968000
v -0.037038000 -0.047829500 0.020207000
v -0.024596000 -0.054729500 0.018691000
v -0.030647000 -0.053681500 0.007616000
v -0.028455000 -0.055326500 0.003425000
v -0.001067000 -0.059936500 0.018659000
v 0.000380000 -0.059649500 0.028734000
v -0.047610000 -0.040829500 0.006988000
v -0.048384000 -0.038747500 0.012116000
v -0.052508000 -0.039681500 0.001639000
v -0.047481000 -0.041760500 0.004608000
v -0.050791000 -0.035516500 0.014921000
v -0.043638000 -0.044188500 0.028180000
v 0.038299000 -0.049289500 0.039153000
v -0.037234000 -0.044056500 0.058130000
v -0.063071000 -0.001388500 0.016772000
v -0.062520000 -0.003923500 0.022655000
v -0.059846000 -0.031449500 0.000084000
v -0.059651000 -0.022355500 0.005226000
v -0.062850000 -0.006675500 0.012479000
v -0.067389000 -0.007053500 0.000283000
v -0.066332000 -0.004002500 0.003643000
v -0.067863000 -0.002538500 0.000091000
v 0.042293000 -0.044446500 0.030086000
v -0.036792000 0.042004500 0.026413000
v -0.058223000 0.026249500 0.001307000
v -0.049963000 0.035985500 0.001225000
v 0.051761000 0.032539500 0.052642000
v 0.046413000 0.044656500 0.002046000
v 0.033073000 0.053340500 0.001708000
v 0.046198000 0.044037500 0.016113000
v 0.042935000 -0.045917500 0.001316000
v 0.028314000 -0.055184500 0.002257000
v -0.023510000 0.051825500 0.016128000
v -0.043883000 -0.045573500 0.004266000
v -0.019960000 0.054048500 0.009887000
v -0.041236000 0.042034500 0.004181000
v -0.047803000 0.036595500 0.003961000
v 0.061835000 0.013549500 0.052720000
v 0.064017000 -0.008329500 0.049429000
v -0.024183000 -0.057148500 0.000258000
v 0.064806000 -0.003752500 0.050246000
v 0.064429000 -0.011755500 0.037595000
v 0.064653000 -0.004004500 0.020612000
v 0.063069000 -0.008071500 0.023951000
v 0.064025000 -0.005433500 0.029042000
v 0.067013000 -0.002127500 0.016300000
v 0.063179000 0.013954500 0.027415000
v 0.064342000 0.011377500 0.048105000
v 0.062354000 0.016966500 0.048838000
v 0.066117000 0.001420500 0.046434000
v 0.066748000 0.013037500 0.009267000
v 0.066458000 -0.001593500 0.039781000
v 0.058917000 0.025017500 0.027696000
v 0.002636000 -0.059938500 0.018723000
v -0.055788000 0.025816500 0.023447000
v 0.026609000 -0.056695500 0.007311000
v 0.047160000 -0.042531500 0.001424000
v 0.008487000 -0.059889500 0.036110000
v 0.031750000 -0.051059500 0.027452000
v 0.057294000 -0.028246500 0.045609000
v 0.057765000 -0.025531500 0.030559000
v 0.035622000 -0.048547500 0.026166000
v 0.059540000 -0.020137500 0.028294000
v 0.053610000 -0.036402500 0.005253000
v 0.051679000 0.035900500 0.047675000
v 0.058926000 -0.025302500 0.036293000
v 0.033907000 0.050578500 0.049571000
v 0.047698000 0.040246500 0.047787000
v 0.000870000 0.056380500 0.029111000
v 0.043121000 0.046683500 0.014587000
v 0.048927000 0.039145500 0.029325000
v 0.039050000 0.049335500 0.017241000
v 0.054598000 -0.035152500 0.009621000
v -0.040875000 -0.047961500 0.004097000
v -0.034547000 0.045018500 0.019038000
v -0.011117000 0.054397500 0.022401000
v -0.019628000 0.050713500 0.028742000
v 0.005286000 0.057109500 0.029433000
v -0.042965000 0.038092500 0.024332000
v -0.036935000 0.042226500 0.044559000
v -0.056505000 0.024213500 0.016412000
v -0.056085000 0.025609500 0.010830000
v -0.063905000 -0.014639500 0.002635000
v -0.050839000 0.031395500 0.015840000
v -0.053906000 0.027920500 0.016472000
v -0.063195000 0.007537500 0.016516000
v -0.061782000 0.012775500 0.019052000
v -0.064065000 -0.010843500 0.004397000
v -0.029957000 0.050005500 0.008682000
v -0.058425000 0.021812500 0.027135000
v -0.060158000 0.017833500 0.029224000
v -0.038943000 -0.048767500 0.038843000
v -0.049698000 0.032815500 0.040780000
v -0.016384000 -0.052498500 0.057855000
v -0.034577000 -0.047217500 0.055134000
v 0.005111000 -0.057609500 0.052284000
v -0.009908000 -0.053557500 0.057993000
v -0.011919000 -0.057321500 0.048982000
v -0.032566000 -0.051026500 0.047867000
v -0.012909000 -0.055740500 0.052732000
v -0.031914000 -0.052147500 0.044234000
v 0.027802000 -0.054709500 0.043350000
v 0.014604000 -0.059116500 0.039019000
v 0.010344000 -0.059606500 0.041579000
v 0.014927000 -0.056173500 0.051786000
v 0.019030000 -0.056214500 0.048626000
v -0.031095000 -0.051982500 0.029642000
v 0.022485000 -0.057139500 0.039391000
v 0.038737000 -0.048161500 0.033657000
v -0.006931000 -0.059362500 0.044397000
v -0.028566000 -0.053329500 0.034337000
v 0.029379000 -0.054358500 0.039587000
v 0.015921000 -0.058200500 0.045087000
v -0.007710000 -0.059636500 0.034077000
v -0.010936000 -0.058207500 0.045993000
v -0.012685000 -0.058633500 0.040297000
v -0.005679000 -0.059888500 0.039144000
v -0.029316000 -0.053308500 0.039426000
v -0.022044000 -0.056139500 0.038869000
v -0.058402000 -0.023300500 0.042116000
v 0.041332000 -0.046894500 0.041481000
v -0.058740000 -0.010607500 0.051442000
v -0.055675000 -0.013736500 0.056429000
v -0.058163000 -0.018801500 0.049015000
v -0.057139000 -0.022765500 0.048604000
v -0.054987000 -0.028938500 0.047545000
v -0.052170000 -0.031995500 0.050455000
v -0.051206000 -0.033374500 0.051590000
v -0.042051000 -0.041911500 0.055389000
v -0.036956000 -0.047552500 0.051690000
v -0.046594000 -0.039629500 0.052054000
v -0.030235000 -0.049085500 0.056375000
v -0.060504000 -0.017623500 0.040374000
v -0.060010000 -0.014534500 0.046237000
v -0.055986000 -0.028962500 0.030441000
v -0.048161000 -0.039212500 0.023596000
v -0.046966000 -0.041300500 0.047615000
v -0.053674000 -0.032801500 0.043139000
v -0.048902000 -0.039498500 0.045342000
v -0.050873000 -0.035921500 0.048131000
v -0.046872000 -0.042214500 0.035734000
v 0.051330000 0.030266500 0.056209000
v 0.049251000 0.035008500 0.054360000
v 0.051114000 0.034883500 0.051245000
v 0.049289000 0.039103500 0.035267000
v 0.054839000 0.035357500 0.007369000
v 0.050239000 0.040642500 0.005155000
v 0.050282000 0.038435500 0.042377000
v 0.053494000 0.034279500 0.043762000
v 0.055662000 0.029713500 0.048388000
v 0.055107000 0.032290500 0.043279000
v 0.056695000 0.029750500 0.044232000
v 0.058521000 0.025577500 0.047233000
v 0.054905000 0.032699500 0.038914000
v 0.053843000 0.030472500 0.051651000
v 0.056309000 0.029658500 0.029889000
v 0.053474000 0.035896500 0.016681000
v 0.055921000 0.027189500 0.052019000
v 0.057991000 0.023287500 0.051638000
v 0.059183000 0.019123500 0.053457000
v 0.060579000 0.010501500 0.055744000
v 0.061381000 -0.014118500 0.051492000
v 0.059514000 -0.010288500 0.056965000
v 0.063277000 -0.006221500 0.052110000
v 0.062736000 -0.004155500 0.053736000
v 0.061118000 -0.006125500 0.056058000
v 0.062830000 -0.001576500 0.053934000
v 0.062272000 -0.009019500 0.053129000
v 0.064261000 -0.012656500 0.041498000
v 0.066384000 -0.006095500 0.039986000
v 0.062984000 -0.016064500 0.040880000
v 0.064317000 -0.006096500 0.050494000
v 0.064944000 -0.001721500 0.031476000
v 0.066105000 -0.003050500 0.035612000
v 0.065924000 -0.006988500 0.015667000
v 0.064215000 -0.000942500 0.027594000
v 0.065064000 -0.009757500 0.041803000
v 0.062519000 -0.009123500 0.025811000
v 0.063238000 -0.007209500 0.026631000
v 0.066498000 -0.008446500 0.010079000
v 0.063002000 -0.009472500 0.028298000
v 0.063831000 -0.010185500 0.019930000
v 0.064538000 -0.007285500 0.019398000
v 0.064992000 -0.004714500 0.018503000
v 0.065897000 -0.007382500 0.036540000
v 0.063480000 -0.010273500 0.022242000
v 0.065381000 -0.002640500 0.020108000
v 0.066331000 0.006427500 0.017580000
v 0.066780000 0.002291500 0.017037000
v 0.063727000 -0.005038500 0.022579000
v 0.064014000 -0.008212500 0.021425000
v 0.064774000 -0.000787500 0.022931000
v 0.065981000 -0.005916500 0.045330000
v 0.065315000 -0.004585500 0.032217000
v 0.065899000 -0.000291500 0.019477000
v 0.065083000 0.010742500 0.019423000
v 0.064265000 0.008918500 0.025590000
v 0.064174000 0.009970500 0.030742000
v 0.063851000 0.013516500 0.022824000
v 0.059340000 0.024281500 0.031842000
v 0.064006000 0.016590500 0.018266000
v 0.060271000 0.021180500 0.048967000
v 0.064619000 0.003211500 0.025932000
v 0.065362000 0.004525500 0.021402000
v 0.061385000 0.001857500 0.056281000
v 0.062540000 0.017326500 0.023522000
v 0.061685000 0.020969500 0.036611000
v 0.058287000 0.026837500 0.035668000
v 0.064424000 0.014398500 0.039964000
v 0.065188000 0.009295500 0.036128000
v 0.064873000 0.003914500 0.031431000
v 0.066378000 0.003123500 0.039843000
v 0.066617000 0.009440500 0.015321000
v 0.065129000 0.006488500 0.048139000
v 0.064947000 0.003990500 0.049310000
v 0.063216000 0.007024500 0.052619000
v 0.066739000 -0.001798500 0.042450000
v 0.067594000 -0.000065500 0.013868000
v 0.065819000 0.007309500 0.044719000
v 0.067129000 0.007335500 0.002716000
v 0.064262000 -0.011802500 0.000888000
v 0.067407000 -0.003862500 0.012861000
v 0.066473000 -0.006371500 0.003960000
v 0.067851000 -0.000889500 0.009478000
v 0.067511000 0.004697500 0.013239000
v 0.067863000 0.003221500 0.010227000
v 0.065904000 0.010756500 0.000295000
v 0.067008000 0.009851500 0.011908000
v 0.067678000 0.006893500 0.006422000
v 0.067344000 0.010011500 0.008494000
v 0.067429000 0.001330500 0.004176000
v 0.066693000 0.012379500 0.004647000
v 0.065712000 0.016771500 0.008073000
v 0.064392000 0.018401500 0.012163000
v 0.063774000 0.015366500 0.045115000
v 0.062078000 -0.014700500 0.030681000
v 0.065287000 0.014193500 0.000842000
v 0.057174000 0.018756500 0.057037000
v 0.061524000 0.020003500 0.023673000
v 0.063310000 0.021774500 0.006641000
v 0.059095000 0.026026500 0.041163000
v 0.061172000 0.019815500 0.028352000
v 0.062129000 0.019905500 0.020535000
v 0.056680000 0.030021500 0.021300000
v 0.060952000 0.025860500 0.010510000
v 0.062454000 0.021969500 0.014888000
v 0.059919000 0.026550500 0.015667000
v 0.064377000 0.017862500 0.001392000
v 0.058046000 0.030487500 0.012382000
v 0.055137000 0.023203500 0.056780000
v 0.053033000 0.037584500 0.001070000
v 0.060095000 0.023745500 0.022213000
v 0.060396000 -0.002671500 0.057745000
v 0.056461000 -0.026544500 0.022130000
v 0.054699000 -0.028184500 0.024048000
v 0.055533000 -0.029498500 0.019600000
v 0.052848000 -0.031245500 0.023522000
v 0.055040000 -0.032869500 0.043059000
v 0.055144000 -0.031117500 0.033060000
v 0.055500000 -0.032260500 0.038202000
v 0.055366000 -0.029482500 0.029600000
v 0.048697000 -0.037783500 0.050008000
v 0.057644000 -0.016790500 0.056498000
v 0.049223000 -0.032243500 0.056376000
v 0.053194000 -0.030922500 0.051880000
v 0.054161000 -0.032550500 0.047656000
v 0.058345000 -0.027572500 0.040741000
v 0.057925000 -0.024245500 0.050420000
v 0.055620000 -0.027617500 0.027085000
v 0.050845000 -0.037696500 0.044167000
v 0.052539000 -0.036355500 0.039805000
v 0.060283000 -0.021220500 0.033502000
v 0.057590000 -0.028463500 0.036114000
v 0.054235000 -0.024998500 0.056181000
v 0.063653000 -0.013068500 0.045146000
v 0.059788000 -0.023505500 0.045058000
v 0.061715000 -0.018612500 0.044080000
v 0.060456000 -0.022967500 0.037793000
v 0.062182000 -0.018352500 0.037178000
v 0.061102000 -0.018965500 0.047073000
v 0.064435000 -0.014965500 0.008784000
v 0.063980000 -0.014252500 0.013942000
v 0.064789000 -0.012997500 0.004710000
v 0.056616000 -0.024818500 0.024968000
v 0.061469000 -0.019958500 0.015787000
v 0.059663000 -0.024982500 0.014671000
v 0.060340000 -0.025379500 0.008956000
v 0.062394000 -0.019813500 0.011206000
v 0.058792000 -0.023625500 0.020135000
v 0.059759000 -0.026223500 0.003848000
v 0.061610000 -0.017259500 0.019475000
v 0.049857000 -0.035745500 0.024428000
v 0.053525000 -0.030548500 0.026615000
v 0.052988000 -0.033108500 0.029470000
v 0.050905000 -0.036692500 0.019255000
v 0.051478000 -0.034515500 0.021735000
v 0.048385000 -0.040712500 0.038987000
v 0.052840000 -0.036807500 0.001172000
v 0.064958000 -0.008085500 0.032906000
v 0.059847000 -0.024995500 0.000162000
v 0.057935000 -0.030212500 0.006419000
v 0.057219000 -0.030516500 0.000554000
v 0.055521000 -0.033839500 0.003547000
v -0.062873000 0.001835500 0.022421000
v -0.058883000 -0.024294500 0.004954000
v -0.056713000 -0.028058500 0.038801000
v 0.034586000 -0.050014500 0.047619000
v -0.030820000 -0.052758500 0.041832000
v -0.036927000 -0.049338500 0.032460000
v 0.003058000 -0.060202500 0.032372000
v 0.035269000 -0.049263500 0.022393000
v 0.045920000 -0.037554500 0.054559000
v 0.047604000 -0.040602500 0.045724000
v -0.060174000 0.000842500 0.048883000
v -0.063378000 0.002869500 0.016551000
v -0.051051000 0.019317500 0.056324000
v -0.034869000 0.043946500 0.035748000
v -0.043374000 0.037532500 0.044927000
v -0.043158000 0.032725500 0.053696000
v 0.037376000 0.044029500 0.057256000
v -0.013308000 0.051670500 0.051882000
v -0.011450000 0.053482500 0.046693000
v -0.057363000 0.018080500 0.047703000
v -0.056907000 0.021180500 0.045129000
v -0.060886000 0.011237500 0.041275000
v -0.059516000 -0.021053500 0.032041000
v 0.033403000 -0.052054500 0.042843000
v -0.044483000 -0.042598500 0.020791000
v -0.053946000 -0.031024500 0.021249000
v -0.054010000 -0.030726500 0.014156000
v -0.049325000 -0.034853500 0.053615000
v -0.045746000 -0.037305500 0.057077000
v -0.051877000 -0.030316500 0.053745000
v -0.051436000 -0.025342500 0.058736000
v -0.054353000 -0.025436500 0.053061000
v -0.056657000 -0.007200500 0.056228000
v -0.057328000 0.004003500 0.054772000
v -0.016529000 -0.056562500 0.047494000
v -0.019678000 -0.053977500 0.053551000
v -0.025373000 -0.053599500 0.049888000
v 0.010496000 -0.059230500 0.044821000
v 0.006451000 -0.059541500 0.029958000
v -0.032495000 -0.051899500 0.036718000
v -0.035237000 -0.049539500 0.025312000
v 0.006455000 -0.059867500 0.044371000
v -0.027496000 -0.054122500 0.043030000
v -0.027941000 -0.053487500 0.046142000
v -0.018240000 -0.057046500 0.042922000
v -0.022633000 -0.055405500 0.044679000
v 0.002231000 -0.060303500 0.036299000
v 0.002839000 -0.059220500 0.048382000
v 0.020640000 -0.050483500 0.058832000
v -0.002730000 -0.060283500 0.036213000
v 0.005543000 -0.060276500 0.040029000
v 0.011531000 -0.054022500 0.057437000
v 0.001181000 -0.057288500 0.053220000
v -0.022424000 -0.055813500 0.033806000
v -0.024372000 -0.055028500 0.029646000
v -0.025765000 -0.051481500 0.055012000
v 0.049799000 -0.036496500 0.027473000
v 0.051602000 -0.036822500 0.033648000
v -0.055355000 0.022924500 0.048550000
v -0.051037000 -0.037334500 0.040494000
v -0.064296000 -0.002262500 0.009358000
v -0.065281000 -0.007324500 0.004076000
v -0.065887000 -0.011338500 0.000929000
v -0.058526000 -0.026885500 0.004297000
v -0.054840000 -0.034403500 0.003706000
v -0.067195000 0.003221500 0.000509000
v -0.062492000 -0.018765500 0.002345000
v 0.016997000 -0.053449500 0.056017000
v -0.060860000 -0.006801500 0.046459000
v -0.012962000 -0.059090500 0.014688000
v 0.004992000 -0.055025500 0.057348000
v -0.015240000 -0.057527500 0.025507000
v -0.020056000 -0.056184500 0.023260000
v -0.006846000 -0.059015500 0.026815000
v -0.026527000 -0.055263500 0.011193000
v -0.031858000 -0.053885500 0.002235000
v 0.001520000 -0.059228500 0.023718000
v -0.010473000 -0.059860500 0.011994000
v -0.010363000 -0.060026500 0.005853000
v -0.042618000 -0.044141500 0.015484000
v -0.002117000 -0.060928500 0.008721000
v 0.002589000 -0.060773500 0.013569000
v 0.002183000 -0.060960500 0.006836000
v 0.022005000 -0.053633500 0.052494000
v 0.027812000 -0.054848500 0.036093000
v -0.025371000 -0.056553500 0.003090000
v -0.045080000 -0.047670500 0.000702000
v -0.042112000 -0.045524500 0.009009000
v -0.045621000 -0.043206500 0.006126000
v -0.056890000 0.023111500 0.040876000
v -0.031354000 0.044983500 0.047026000
v -0.030614000 0.042314500 0.052858000
v -0.025875000 0.048566500 0.045089000
v 0.004595000 0.056910500 0.035246000
v -0.046710000 0.035253500 0.026564000
v -0.061138000 -0.021670500 0.003459000
v 0.007363000 -0.059530500 0.019640000
v -0.059650000 0.018607500 0.019906000
v -0.061583000 -0.011433500 0.028077000
v 0.039580000 -0.045749500 0.025471000
v -0.003988000 -0.059267500 0.022192000
v 0.051420000 -0.033709500 0.025900000
v -0.052669000 0.029814500 0.010965000
v 0.019640000 -0.058038500 0.000650000
v 0.022784000 0.056398500 0.045188000
v -0.021999000 -0.051049500 0.058421000
v -0.052084000 0.034691500 0.000749000
v -0.061781000 -0.001774500 0.043103000
v -0.024155000 -0.054319500 0.024582000
v -0.028679000 -0.052470500 0.021272000
v -0.029760000 -0.052135500 0.025609000
v -0.033064000 -0.050397500 0.021202000
v -0.000182000 -0.060287500 0.042247000
v -0.038901000 -0.044961500 0.054051000
v -0.036915000 -0.049775500 0.043554000
v -0.034324000 -0.051032500 0.039961000
v -0.053970000 -0.032168500 0.006822000
v -0.052404000 -0.037417500 0.004406000
v -0.049681000 -0.039453500 0.005117000
v -0.042358000 -0.046184500 0.035327000
v -0.042577000 -0.046298500 0.041382000
v 0.048422000 0.037702500 0.051580000
v 0.053330000 0.032578500 0.049642000
v 0.058657000 0.014653500 0.056983000
v 0.061918000 -0.011484500 0.025000000
v 0.061930000 0.020365500 0.044098000
v 0.067647000 0.006316500 0.009600000
v 0.067775000 0.003420500 0.007975000
v -0.062005000 -0.011315500 0.010082000
v -0.062850000 -0.010385500 0.007418000
v -0.063258000 -0.013297500 0.005250000
v 0.058252000 -0.022453500 0.026848000
v -0.013892000 -0.058387500 0.018174000
v -0.007389000 -0.056186500 0.053737000
v -0.035270000 -0.049299500 0.049779000
v -0.053029000 -0.035010500 0.005707000
v 0.028816000 0.055161500 0.000929000
v -0.030058000 0.048880500 0.015358000
v 0.065820000 -0.003242500 0.017974000
v 0.062486000 -0.020148500 0.004541000
v -0.027237000 0.051620500 0.004906000
v 0.057561000 -0.030096500 0.012750000
v 0.053718000 -0.034409500 0.016435000
v 0.063969000 -0.011343500 0.017839000
v 0.064168000 -0.002787500 0.024643000
v 0.066098000 0.013853500 0.013589000
v 0.065043000 0.011680500 0.043925000
v 0.063317000 0.014944500 0.032862000
v 0.063543000 -0.004775500 0.025801000
v 0.064321000 0.001404500 0.051275000
v -0.011577000 0.051266500 0.054676000
v -0.008750000 0.052737500 0.053117000
v -0.003614000 0.053104500 0.055909000
v 0.012415000 0.054090500 0.057279000
v 0.041699000 0.040849500 0.056976000
v 0.039188000 0.045268500 0.052788000
v 0.028729000 0.049008500 0.057959000
v -0.047768000 -0.043918500 0.001957000
v 0.052401000 0.035383500 0.025302000
v -0.024437000 0.047193500 0.050714000
v -0.023512000 0.045269500 0.055471000
v -0.016011000 0.048768500 0.056254000
v -0.008501000 0.051019500 0.057491000
v -0.045480000 0.033483500 0.049372000
v -0.038860000 0.037406500 0.052198000
v -0.049792000 0.031410500 0.045572000
v -0.049569000 0.028100500 0.050883000
v -0.045280000 0.025398500 0.058472000
v -0.043538000 0.028504500 0.057826000
v -0.052404000 0.022532500 0.052624000
v -0.048236000 0.024555500 0.055451000
v -0.038551000 0.033269500 0.058598000
v -0.055622000 0.016874500 0.052595000
v -0.053392000 0.027068500 0.046254000
v -0.055630000 0.024501500 0.044551000
v -0.058662000 0.020943500 0.035595000
v -0.061954000 0.008080500 0.034938000
v -0.047454000 -0.041527500 0.042947000
v -0.054142000 -0.032699500 0.036906000
v -0.051966000 -0.035479500 0.030453000
v -0.061343000 -0.014323500 0.035674000
v -0.061519000 -0.011596500 0.041481000
v -0.057819000 -0.015554500 0.051585000
v -0.061674000 0.004637500 0.041216000
v -0.051972000 -0.034978500 0.008536000
v -0.061236000 0.013665500 0.033740000
v -0.062817000 0.002750500 0.030998000
v -0.042343000 -0.044399500 0.050681000
v -0.055442000 -0.020004500 0.054380000
v -0.059047000 -0.004780500 0.051541000
v -0.055804000 0.010061500 0.055508000
v -0.059119000 0.010674500 0.048479000
v -0.057881000 -0.001701500 0.054256000
v -0.059219000 0.017492500 0.041912000
v -0.052452000 0.012836500 0.058698000
v 0.039152000 -0.040435500 0.058536000
v 0.035057000 -0.044212500 0.057547000
v 0.047028000 -0.041661500 0.043381000
v 0.023063000 -0.055781500 0.046295000
v -0.025872000 0.051862500 0.009880000
v 0.038171000 -0.048689500 0.044557000
v 0.033117000 -0.052070500 0.036475000
v -0.059071000 -0.019657500 0.045365000
v -0.024838000 0.048618500 0.026737000
v 0.043640000 -0.044257500 0.045722000
v 0.038024000 -0.046851500 0.050279000
v 0.043035000 -0.045263500 0.041345000
v 0.042273000 -0.041515500 0.053781000
v 0.032939000 -0.048767500 0.052366000
v 0.029077000 -0.052465500 0.048784000
v 0.009084000 -0.056659500 0.053370000
v -0.003022000 -0.058564500 0.049927000
v 0.027952000 -0.049055500 0.056371000
v -0.039168000 -0.047756500 0.047538000
v -0.002601000 -0.055161500 0.056893000
v -0.008479000 -0.057776500 0.049444000
v -0.043927000 -0.044685500 0.045573000
v -0.062383000 -0.003291500 0.035200000
v -0.016128000 -0.057812500 0.031864000
v -0.014440000 0.052564500 0.027445000
v -0.055750000 -0.028105500 0.009878000
v -0.063638000 0.008596500 0.010455000
v -0.062718000 0.007414500 0.025265000
v -0.046418000 0.036176500 0.037711000
v 0.019830000 0.057050500 0.009868000
v 0.046259000 0.044368500 0.009349000
v 0.036725000 0.051347500 0.002469000
v -0.035188000 0.047293500 0.001595000
v -0.064942000 0.008918500 0.004285000
v 0.032393000 -0.050609500 0.024662000
v -0.001739000 -0.060168500 0.032200000
v -0.036531000 0.041179500 0.048159000
v 0.020533000 0.057339500 0.001592000
v 0.025993000 0.055588500 0.006496000
v 0.007100000 0.060774500 0.000333000
v 0.012882000 0.058760500 0.004060000
v 0.022397000 0.056419500 0.018431000
v 0.027669000 0.054977500 0.016206000
v 0.032156000 0.053361500 0.007074000
v 0.013341000 0.058260500 0.010047000
v 0.016160000 0.057500500 0.018198000
v -0.030888000 0.049792500 0.003807000
v -0.026993000 0.052238500 0.000189000
v -0.022459000 0.053620500 0.003044000
v -0.016160000 0.055592500 0.003763000
v -0.009401000 0.057375500 0.005138000
v -0.005559000 0.059127500 0.000292000
v 0.002941000 0.060591500 0.001994000
v -0.000452000 0.059875500 0.002954000
v -0.013843000 0.055869500 0.009795000
v 0.007920000 0.059405500 0.006258000
v -0.003097000 0.058726500 0.007395000
v 0.003192000 0.059223500 0.009541000
v 0.033782000 0.052299500 0.017349000
v 0.050137000 0.040566500 0.013158000
v 0.038950000 -0.049578500 0.005901000
v 0.005748000 0.057709500 0.022435000
v -0.000747000 0.058252500 0.015043000
v -0.003028000 0.056605500 0.022038000
v -0.034836000 0.046641500 0.009918000
v -0.033928000 -0.052211500 0.005284000
v -0.051329000 -0.036848500 0.006121000
v -0.049342000 -0.038098500 0.008916000
v 0.009523000 0.058493500 0.014332000
v -0.053556000 0.031747500 0.002412000
v -0.046104000 0.036908500 0.009912000
v 0.050493000 -0.039971500 0.006973000
v 0.040854000 -0.048260500 0.012231000
v 0.045693000 -0.043890500 0.013908000
v 0.050207000 -0.039106500 0.015693000
v 0.033888000 -0.052215500 0.002530000
v 0.019701000 -0.058789500 0.006374000
v 0.029648000 -0.053445500 0.033041000
v 0.015587000 -0.059744500 0.010308000
v 0.015532000 -0.059155500 0.015503000
v 0.008000000 -0.060747500 0.007990000
v 0.020000000 -0.057972500 0.015243000
v -0.001440000 -0.060863500 0.002086000
v 0.004373000 -0.060553500 0.001622000
v -0.005768000 -0.060764500 0.004093000
v -0.034814000 -0.050946500 0.009349000
v -0.039087000 -0.050492500 0.002128000
v -0.018511000 -0.058190500 0.009689000
v -0.056432000 -0.029358500 0.005501000
v -0.035784000 -0.051923500 0.002171000
v 0.018151000 -0.057472500 0.019018000
v 0.024794000 -0.056495500 0.015569000
v 0.030530000 -0.052891500 0.018775000
v 0.036813000 -0.050437500 0.015273000
v 0.034905000 -0.050449500 0.019112000
v 0.036987000 -0.048457500 0.020901000
v 0.030493000 -0.054442500 0.013958000
v 0.027165000 -0.053900500 0.021067000
v 0.012477000 -0.058264500 0.023046000
v 0.020125000 -0.056028500 0.021454000
v 0.028242000 -0.053682500 0.029457000
v 0.016529000 -0.057745500 0.027624000
v 0.022585000 -0.055571500 0.026905000
v 0.031516000 -0.051552500 0.022024000
v 0.022744000 -0.055844500 0.019284000
v 0.022916000 -0.056172500 0.032230000
v 0.017472000 -0.057025500 0.023124000
v 0.013390000 -0.058805500 0.019110000
v 0.009286000 -0.058984500 0.025983000
v 0.014408000 -0.058927500 0.032912000
v 0.010554000 -0.060130500 0.014188000
v -0.022707000 -0.057308500 0.007047000
v -0.021529000 -0.057787500 0.002332000
v -0.006893000 -0.060535500 0.010581000
v -0.016539000 -0.058972500 0.004671000
v -0.037128000 -0.050244500 0.005332000
v -0.009185000 -0.059543500 0.017286000
v -0.021430000 -0.056922500 0.013614000
v -0.019818000 -0.056293500 0.027144000
v 0.009001000 -0.058599500 0.048598000
v -0.007422000 -0.058639500 0.021655000
v -0.011948000 -0.058019500 0.021917000
v -0.040224000 -0.046172500 0.022531000
v -0.026909000 -0.055644500 0.006423000
v -0.017949000 -0.056843500 0.019670000
v -0.016881000 -0.058292500 0.014761000
v 0.022907000 -0.054834500 0.023293000
v -0.051243000 -0.035283500 0.022370000
v -0.046066000 -0.041618500 0.010355000
v -0.062428000 0.012544500 0.009297000
v -0.057213000 -0.024712500 0.022013000
v -0.056281000 -0.026320500 0.015410000
v -0.057800000 -0.022794500 0.016775000
v -0.053446000 -0.032005500 0.010364000
v -0.046765000 -0.040257500 0.015754000
v -0.049056000 -0.041333500 0.003152000
v 0.038503000 -0.047818500 0.029227000
v 0.033877000 -0.050753500 0.030672000
v 0.043177000 -0.045248500 0.037355000
v 0.040360000 -0.046456500 0.019725000
v 0.037242000 -0.047166500 0.022984000
v 0.035998000 -0.049321500 0.020973000
v 0.048490000 -0.037820500 0.022538000
v 0.042801000 -0.043772500 0.024794000
v 0.045713000 -0.042003500 0.021001000
v 0.046703000 -0.041567500 0.033459000
v 0.046644000 -0.040285500 0.027535000
v 0.045234000 -0.043614500 0.041200000
v 0.045942000 0.042721500 0.044152000
v 0.043386000 0.044206500 0.048132000
v 0.030713000 0.053268500 0.045326000
v 0.039022000 0.047764500 0.047062000
v 0.044675000 0.041441500 0.052159000
v 0.016857000 0.054716500 0.055180000
v 0.018193000 0.056486500 0.049932000
v 0.033895000 0.047716500 0.055512000
v 0.022691000 0.053075500 0.055644000
v 0.028869000 0.051564500 0.053384000
v 0.028979000 0.053069500 0.049479000
v 0.024712000 0.054625500 0.050336000
v 0.035537000 0.050937500 0.040794000
v 0.026651000 0.054859500 0.046296000
v 0.035751000 0.050426500 0.024733000
v 0.040664000 0.046970500 0.037176000
v 0.027271000 0.055116500 0.039252000
v 0.031051000 0.052736500 0.028295000
v 0.021610000 0.056788500 0.039800000
v -0.016260000 0.054255500 0.015890000
v 0.020230000 0.056580500 0.024841000
v 0.022108000 0.056273500 0.032480000
v 0.026503000 0.054855500 0.031875000
v 0.025273000 0.055252500 0.025429000
v 0.037588000 0.048922500 0.031845000
v 0.042979000 0.045766500 0.021392000
v 0.043761000 0.044039500 0.030486000
v 0.048073000 0.040916500 0.022287000
v 0.052198000 0.035301500 0.031689000
v 0.045684000 0.043032500 0.039098000
v 0.039391000 0.047917500 0.025726000
v -0.019626000 0.051584500 0.022941000
v -0.029832000 0.046208500 0.031019000
v -0.022751000 0.049667500 0.032646000
v -0.030950000 0.046124500 0.024651000
v -0.050773000 0.032777500 0.007109000
v -0.051291000 0.030977500 0.024305000
v -0.049413000 0.033289500 0.011965000
v -0.040773000 0.040676500 0.016419000
v -0.046993000 0.035052500 0.018458000
v -0.031115000 0.046895500 0.020151000
v -0.008191000 0.056831500 0.014113000
v 0.011553000 0.057797500 0.020809000
v 0.014410000 0.057331500 0.028517000
v 0.000656000 0.056501500 0.040699000
v -0.007559000 0.054324500 0.029879000
v -0.001307000 0.055741500 0.034770000
v 0.017538000 0.057446500 0.037424000
v 0.011401000 0.057868500 0.040096000
v 0.008532000 0.057371500 0.031349000
v -0.014918000 0.052412500 0.033478000
v -0.015234000 0.052756500 0.040019000
v -0.007755000 0.054686500 0.039003000
v -0.019750000 0.051300500 0.042833000
v 0.005164000 0.057047500 0.046169000
v 0.005695000 0.057272500 0.041004000
v 0.014875000 0.057525500 0.045871000
v 0.017734000 0.057502500 0.043430000
v -0.005249000 0.054319500 0.050781000
v -0.002991000 0.055646500 0.046103000
v 0.013658000 0.055945500 0.052872000
v 0.007790000 0.055578500 0.053874000
v 0.011804000 0.057240500 0.048581000
v 0.000838000 0.055148500 0.052490000
v -0.018784000 0.050544500 0.048913000
v -0.020259000 0.051070500 0.037670000
v -0.026714000 0.048446500 0.038418000
v -0.032704000 0.045244500 0.042004000
v -0.039971000 0.040793500 0.039885000
v -0.042656000 0.038883500 0.032588000
v -0.048122000 0.034389500 0.031335000
v -0.056069000 0.025669500 0.033212000
v -0.053984000 0.028403500 0.028799000
v -0.053824000 0.027968500 0.040986000
v -0.051709000 0.031085500 0.034238000
v -0.045431000 -0.043805500 0.041685000
v -0.058116000 -0.022184500 0.011639000
v -0.059378000 -0.018030500 0.018879000
v -0.061531000 -0.010971500 0.016609000
v -0.060345000 -0.016189500 0.009715000
v -0.059160000 -0.020334500 0.007565000
v -0.057858000 0.022020500 0.019570000
v -0.060807000 -0.019059500 0.005446000
v -0.060077000 -0.027867500 0.001514000
v -0.059825000 -0.024352500 0.003306000
v -0.062564000 -0.023213500 0.000584000
v -0.064016000 -0.007525500 0.007502000
v -0.060551000 0.017111500 0.011492000
v -0.058326000 0.021498500 0.013590000
v -0.056343000 0.027267500 0.003745000
v -0.058556000 0.022465500 0.006172000
v -0.060992000 0.020624500 0.000941000
v -0.062611000 0.015436500 0.003606000
v -0.059901000 0.017477500 0.036019000
v -0.062001000 -0.009113500 0.036517000
v -0.062041000 -0.006289500 0.040884000
v 0.016474000 0.058604500 0.000269000
v 0.035053000 0.052592500 0.000137000
v 0.040259000 0.049487500 0.000000000
v 0.027982000 0.055600500 0.000238000
v 0.021851000 0.057346500 0.000265000
v 0.037220000 0.051463500 0.000092000
v 0.029113000 0.055191500 0.000227000
v 0.011789000 0.059766500 0.000277000
v 0.030214000 0.054704500 0.000210000
v 0.002744000 0.061154500 0.000232000
v 0.000847000 0.060798500 0.000177000
v -0.000970000 0.060565500 0.000132000
v 0.033402000 0.053430500 0.000170000
v 0.019455000 0.057932500 0.000268000
v -0.035139000 0.047563500 0.000099000
v -0.036629000 0.046422500 0.000099000
v -0.065890000 0.009491500 0.000099000
v -0.006635000 0.058810500 0.000099000
v -0.065204000 -0.016166500 0.000099000
v 0.050553000 -0.039375500 0.000099000
v 0.052499000 -0.037198500 0.000099000
v 0.046483000 -0.043128500 0.000099000
v 0.047509000 -0.042341500 0.000099000
v -0.014343000 -0.059474500 0.000099000
v -0.019685000 -0.058614500 0.000099000
v -0.004995000 -0.061154500 0.000099000
v -0.018549000 -0.058846500 0.000099000
v -0.018179000 -0.058932500 0.000099000
v -0.016505000 -0.059114500 0.000099000
v -0.014932000 -0.059339500 0.000099000
v 0.050042000 -0.039895500 0.000099000
v 0.053068000 -0.036732500 0.000099000
v 0.055097000 -0.034230500 0.000099000
v 0.054464000 -0.034945500 0.000099000
v 0.056047000 -0.032546500 0.000099000
v 0.057162000 -0.030678500 0.000099000
v 0.064085000 -0.011797500 0.000099000
v -0.054217000 -0.039794500 0.000099000
v -0.066749000 0.005671500 0.000099000
v -0.067384000 0.003329500 0.000099000
v -0.067462000 0.002629500 0.000099000
v -0.047799000 0.038021500 0.000099000
v -0.045802000 0.039601500 0.000099000
v -0.046721000 0.038830500 0.000099000
v 0.043759000 -0.045309500 0.000099000
v 0.037714000 -0.049042500 0.000099000
v -0.008952000 -0.060579500 0.000099000
v 0.042587000 -0.045948500 0.000099000
v 0.039048000 -0.048172500 0.000099000
v 0.053147000 0.037678500 0.000099000
v -0.035375000 -0.053101500 0.000099000
v -0.059410000 0.025260500 0.000099000
v -0.057923000 0.028093500 0.000099000
v 0.017798000 -0.058354500 0.000099000
v 0.013645000 -0.059221500 0.000099000
v -0.023609000 -0.057404500 0.000099000
v 0.005585000 -0.060316500 0.000099000
v -0.024193000 -0.057221500 0.000099000
v -0.025076000 -0.056967500 0.000099000
v -0.027686000 -0.056385500 0.000099000
v 0.061403000 -0.020864500 0.000099000
v 0.064191000 0.018092500 0.000099000
v -0.054024000 0.033646500 0.000099000
v -0.055950000 0.030962500 0.000099000
v -0.063002000 -0.023256500 0.000099000
v 0.019542000 -0.057998500 0.000099000
v 0.020374000 -0.057702500 0.000099000
v -0.028151000 -0.056211500 0.000099000
v -0.021617000 -0.058185500 0.000099000
v 0.018942000 -0.058165500 0.000099000
v 0.002726000 -0.060689500 0.000099000
v -0.000453000 -0.060866500 0.000099000
v -0.001801000 -0.060921500 0.000099000
v 0.063151000 -0.015984500 0.000099000
v 0.062719000 -0.017342500 0.000099000
v 0.057307000 -0.030231500 0.000099000
v 0.063627000 -0.013879500 0.000099000
v 0.064385000 -0.010591500 0.000099000
v 0.064051000 -0.012348500 0.000099000
v 0.066210000 -0.003569500 0.000099000
v 0.066408000 -0.001917500 0.000099000
v -0.045973000 -0.047640500 0.000099000
v -0.048764000 -0.045297500 0.000099000
v -0.067502000 -0.006953500 0.000099000
v -0.005527000 0.059193500 0.000099000
v -0.005712000 0.059125500 0.000099000
v -0.067466000 -0.007240500 0.000099000
v -0.066520000 -0.011031500 0.000099000
v 0.029543000 -0.054053500 0.000099000
v 0.004023000 -0.060595500 0.000099000
v 0.032094000 -0.052667500 0.000099000
v 0.066532000 0.003949500 0.000099000
v 0.066540000 0.005712500 0.000099000
v 0.064605000 0.016663500 0.000099000
v 0.065238000 0.014200500 0.000099000
v 0.061576000 0.024324500 0.000099000
v 0.065943000 0.010027500 0.000099000
v -0.057649000 -0.035232500 0.000099000
v -0.061312000 -0.028244500 0.000099000
v -0.062566000 -0.024576500 0.000099000
v -0.057314000 -0.035694500 0.000099000
v -0.050336000 -0.043783500 0.000099000
v -0.052472000 -0.041690500 0.000099000
v -0.017743000 0.055486500 0.000099000
v -0.022580000 0.054043500 0.000099000
v -0.018839000 0.055129500 0.000099000
v -0.052341000 0.035266500 0.000099000
v -0.053743000 0.033891500 0.000099000
v -0.012190000 -0.060238500 0.000099000
v -0.009374000 -0.060509500 0.000099000
v -0.032120000 -0.054742500 0.000099000
v 0.037039000 -0.049501500 0.000099000
v 0.026451000 -0.055547500 0.000099000
v -0.003644000 -0.061121500 0.000099000
v 0.057003000 -0.030982500 0.000099000
v -0.038870000 -0.051610500 0.000099000
v -0.041872000 -0.050324500 0.000099000
v -0.043309000 -0.049362500 0.000099000
v -0.042218000 -0.050117500 0.000099000
v -0.045265000 -0.048170500 0.000099000
v -0.037783000 -0.052088500 0.000099000
v -0.033243000 0.048737500 0.000099000
v -0.005144000 0.059310500 0.000099000
v -0.063820000 0.015785500 0.000099000
v -0.065500000 0.010500500 0.000099000
v -0.062166000 0.018994500 0.000099000
v -0.031064000 0.050145500 0.000099000
v -0.038812000 0.044692500 0.000099000
v -0.064679000 -0.017493500 0.000099000
v -0.063529000 -0.021308500 0.000099000
v 0.050303000 -0.039664500 0.000099000
v -0.028858000 -0.055858500 0.000099000
v 0.011563000 -0.059592500 0.000099000
v 0.009333000 -0.059937500 0.000099000
v 0.065904000 0.010679500 0.000099000
v -0.034422000 -0.053585500 0.000099000
v -0.061278000 0.021132500 0.000099000
v -0.065844000 -0.013665500 0.000099000
v -0.008737000 -0.060608500 0.000099000
v 0.065071000 -0.008006500 0.000099000
v 0.063197000 0.020716500 0.000099000
v 0.062373000 0.022896500 0.000099000
v 0.050251000 0.041091500 0.000099000
v 0.051538000 0.039511500 0.000099000
v 0.054235000 0.036119500 0.000099000
v 0.041941000 0.048473500 0.000099000
v 0.049101000 0.042212500 0.000099000
v 0.043842000 0.046948500 0.000099000
v 0.046398000 0.045168500 0.000099000
v 0.047185000 0.044223500 0.000099000
v 0.057373000 0.031869500 0.000099000
v 0.059724000 0.028258500 0.000099000
v -0.013187000 0.056791500 0.000099000
v -0.041285000 0.042805500 0.000099000
v 0.056090000 0.033852500 0.000099000
v 0.065846000 0.010997500 0.000099000
v -0.011855000 0.057168500 0.000099000
f 517 540 394
f 19 59 64
f 19 59 787
f 416 139 394
f 502 541 295
f 502 517 394
f 502 541 394
f 266 473 268
f 790 786 787
f 376 540 394
f 872 59 64
f 895 59 844
f 895 901 59
f 887 822 59
f 560 416 139
f 152 458 557
f 513 517 540
f 915 807 787
f 877 919 787
f 259 266 268
f 316 541 306
f 316 305 541
f 256 90 261
f 258 256 90
f 348 59 883
f 451 139 394
f 451 376 394
f 460 480 559
f 388 895 844
f 903 901 59
f 903 904 59
f 903 460 901
f 903 460 904
f 866 59 867
f 866 904 59
f 809 59 787
f 479 560 557
f 479 560 139
f 801 19 64
f 801 908 19
f 801 824 64
f 797 786 787
f 886 59 867
f 886 887 59
f 398 560 557
f 398 560 416
f 393 458 557
f 393 398 557
f 387 393 458
f 387 393 660
f 142 479 557
f 142 479 139
f 140 142 381
f 140 152 557
f 158 152 390
f 159 152 458
f 159 158 152
f 697 502 499
f 358 513 540
f 829 807 787
f 829 807 4
f 612 339 4
f 612 807 4
f 612 915 807
f 927 787 933
f 927 834 787
f 939 936 787
f 939 834 787
f 926 936 787
f 926 846 787
f 926 282 936
f 845 820 787
f 845 859 787
f 858 859 787
f 865 864 787
f 472 272 261
f 472 259 268
f 472 259 261
f 492 90 277
f 492 90 261
f 275 846 274
f 275 926 846
f 275 926 282
f 264 266 222
f 205 541 295
f 205 305 541
f 485 845 859
f 343 329 309
f 313 612 115
f 313 612 339
f 307 316 306
f 307 304 308
f 307 304 306
f 310 316 305
f 310 307 308
f 310 307 316
f 92 259 261
f 92 256 261
f 247 495 258
f 523 887 822
f 523 181 822
f 180 348 168
f 180 348 59
f 180 882 59
f 401 451 381
f 167 377 168
f 167 548 166
f 871 872 64
f 161 388 844
f 161 388 390
f 143 895 901
f 143 388 895
f 143 460 901
f 143 389 388
f 143 460 480
f 853 59 844
f 853 809 59
f 853 161 844
f 853 161 390
f 853 158 390
f 853 158 809
f 367 537 539
f 367 537 356
f 798 797 788
f 798 789 788
f 798 707 792
f 798 707 789
f 138 398 416
f 138 393 660
f 138 393 398
f 558 429 394
f 558 555 429
f 558 555 554
f 383 387 660
f 413 429 394
f 413 147 429
f 396 619 145
f 396 619 621
f 396 387 458
f 136 451 381
f 136 142 381
f 136 451 139
f 136 142 139
f 157 152 390
f 157 140 152
f 561 142 557
f 561 140 557
f 561 140 142
f 395 458 810
f 395 159 810
f 395 159 458
f 893 159 158
f 893 159 810
f 893 158 809
f 893 787 810
f 893 809 787
f 154 98 29
f 897 873 787
f 850 854 617
f 850 98 617
f 850 897 98
f 850 854 787
f 850 897 787
f 27 98 29
f 27 30 29
f 150 154 144
f 150 154 98
f 150 619 145
f 163 613 4
f 694 697 499
f 794 798 792
f 794 798 797
f 362 502 500
f 362 696 502
f 518 358 540
f 518 536 540
f 518 536 537
f 515 512 404
f 515 358 513
f 515 518 404
f 515 518 358
f 509 510 360
f 799 911 19
f 875 616 873
f 875 829 616
f 875 873 787
f 875 829 787
f 816 915 787
f 816 817 787
f 816 612 915
f 874 918 787
f 839 854 787
f 600 927 933
f 940 919 787
f 940 879 787
f 940 274 919
f 940 879 274
f 878 846 787
f 878 879 787
f 878 846 274
f 878 879 274
f 863 864 787
f 863 858 787
f 876 877 787
f 876 865 787
f 93 272 261
f 93 492 261
f 93 275 492
f 93 272 274
f 93 275 274
f 251 492 277
f 251 275 277
f 251 275 492
f 287 282 936
f 471 275 282
f 471 287 282
f 471 287 283
f 471 275 277
f 212 211 222
f 212 264 222
f 212 259 266
f 212 264 266
f 325 858 859
f 325 485 859
f 342 845 820
f 342 485 845
f 345 343 115
f 345 343 817
f 899 343 820
f 899 343 817
f 899 820 787
f 899 817 787
f 332 485 329
f 332 343 329
f 332 342 485
f 332 343 820
f 332 342 820
f 300 313 115
f 300 343 115
f 300 343 309
f 312 313 339
f 312 300 313
f 312 300 308
f 312 304 308
f 312 355 304
f 257 92 256
f 257 92 495
f 257 258 256
f 257 495 258
f 80 258 90
f 764 886 887
f 764 523 887
f 764 886 867
f 182 180 168
f 182 180 181
f 375 377 376
f 375 377 168
f 179 182 181
f 179 523 181
f 179 764 523
f 162 348 168
f 162 167 168
f 162 167 548
f 162 348 883
f 885 181 822
f 885 882 181
f 885 822 59
f 885 882 59
f 405 882 181
f 405 180 181
f 405 180 882
f 56 451 376
f 379 537 356
f 379 536 537
f 379 536 540
f 414 784 527
f 414 535 356
f 868 871 64
f 868 871 527
f 868 784 64
f 868 784 527
f 175 871 527
f 175 871 872
f 175 162 548
f 164 414 535
f 534 167 166
f 534 167 377
f 534 377 376
f 534 165 376
f 382 401 381
f 382 12 401
f 382 140 381
f 382 12 480
f 391 388 390
f 391 389 388
f 391 382 390
f 391 382 389
f 141 143 480
f 141 143 389
f 141 382 480
f 141 382 389
f 531 801 824
f 531 367 824
f 531 367 539
f 453 414 356
f 453 414 784
f 453 784 64
f 366 404 539
f 782 521 539
f 782 521 908
f 782 801 908
f 782 531 539
f 782 531 801
f 836 521 908
f 836 521 837
f 836 908 19
f 836 837 19
f 891 847 19
f 848 837 19
f 848 847 19
f 135 891 847
f 791 797 788
f 450 789 788
f 450 707 789
f 556 138 416
f 556 147 660
f 556 138 660
f 550 355 304
f 550 551 546
f 550 163 546
f 553 550 304
f 553 550 551
f 542 551 554
f 542 558 554
f 542 553 541
f 542 553 551
f 542 541 394
f 542 558 394
f 349 551 554
f 349 555 554
f 349 551 546
f 146 383 145
f 146 383 387
f 146 396 145
f 146 396 387
f 155 147 660
f 155 383 660
f 155 383 145
f 155 150 145
f 24 619 621
f 24 874 621
f 24 874 918
f 24 619 617
f 24 854 617
f 24 839 854
f 428 396 621
f 428 458 810
f 428 396 458
f 55 163 546
f 55 613 30
f 55 163 613
f 74 897 873
f 74 897 98
f 74 27 98
f 74 616 873
f 74 27 616
f 601 829 616
f 601 27 616
f 601 829 4
f 601 27 30
f 601 613 4
f 601 613 30
f 28 619 617
f 28 150 619
f 28 98 617
f 28 150 98
f 751 794 745
f 580 707 792
f 580 794 792
f 795 794 796
f 795 794 797
f 795 796 787
f 795 797 787
f 693 362 500
f 693 362 696
f 701 790 786
f 698 697 700
f 698 697 502
f 698 696 502
f 365 518 404
f 365 518 537
f 365 404 539
f 365 537 539
f 514 515 513
f 514 515 512
f 514 513 517
f 361 510 517
f 361 509 510
f 361 509 512
f 361 514 517
f 361 514 512
f 898 787 810
f 898 428 810
f 898 428 621
f 917 918 787
f 917 839 787
f 917 24 918
f 917 24 839
f 689 600 933
f 188 939 834
f 188 927 834
f 188 600 927
f 191 193 107
f 273 876 865
f 273 266 473
f 273 876 877
f 194 287 283
f 194 471 283
f 291 939 936
f 291 287 936
f 291 188 939
f 291 188 193
f 291 194 193
f 291 194 287
f 7 318 309
f 7 329 309
f 235 212 211
f 235 212 259
f 235 92 259
f 210 205 305
f 209 247 295
f 209 247 495
f 265 863 858
f 265 325 858
f 265 863 864
f 265 325 222
f 265 266 222
f 265 273 266
f 265 865 864
f 265 273 865
f 106 816 817
f 106 345 817
f 106 345 115
f 106 612 115
f 106 816 612
f 102 300 309
f 102 318 309
f 102 300 308
f 102 310 308
f 102 318 310
f 203 247 258
f 203 80 258
f 91 90 277
f 91 80 90
f 91 471 277
f 466 866 867
f 466 764 867
f 466 866 904
f 466 460 559
f 466 460 904
f 170 182 373
f 170 375 373
f 170 182 168
f 170 375 168
f 174 401 451
f 174 56 451
f 174 12 401
f 374 56 376
f 374 375 376
f 374 375 373
f 378 164 535
f 378 164 165
f 378 379 540
f 378 376 540
f 378 165 376
f 176 414 527
f 176 548 166
f 176 164 414
f 176 175 527
f 176 175 548
f 803 175 872
f 803 872 59
f 884 162 883
f 884 175 162
f 884 59 883
f 528 164 165
f 528 534 165
f 528 534 166
f 528 176 166
f 528 176 164
f 380 382 390
f 380 382 140
f 380 157 390
f 380 157 140
f 529 367 356
f 529 453 356
f 529 367 824
f 529 453 64
f 511 509 512
f 511 509 360
f 511 135 360
f 762 848 837
f 762 848 847
f 762 135 847
f 569 135 360
f 569 135 891
f 695 751 745
f 695 450 700
f 695 697 700
f 695 694 697
f 397 556 416
f 397 416 394
f 397 413 394
f 397 413 147
f 397 556 147
f 688 550 163
f 688 339 4
f 688 163 4
f 354 541 306
f 354 553 541
f 354 304 306
f 354 553 304
f 369 349 546
f 369 154 144
f 369 555 144
f 369 349 555
f 369 55 546
f 369 154 29
f 369 30 29
f 369 55 30
f 544 555 429
f 544 555 144
f 544 150 144
f 544 155 150
f 750 751 752
f 743 751 752
f 743 751 794
f 743 794 796
f 889 911 19
f 756 799 911
f 746 695 745
f 746 695 450
f 746 794 745
f 746 580 794
f 746 450 707
f 746 580 707
f 18 693 500
f 467 18 693
f 501 693 696
f 930 790 787
f 930 701 790
f 930 787 933
f 109 698 696
f 109 501 696
f 691 797 786
f 691 701 786
f 691 701 692
f 691 109 692
f 855 874 787
f 855 898 787
f 855 874 621
f 855 898 621
f 110 467 693
f 17 701 692
f 17 689 933
f 17 930 933
f 17 930 701
f 190 188 193
f 190 191 193
f 190 188 600
f 190 689 600
f 190 191 107
f 190 110 107
f 190 110 689
f 262 273 877
f 262 274 919
f 262 877 919
f 1 193 107
f 1 194 193
f 323 211 222
f 323 7 211
f 323 325 222
f 323 325 485
f 323 485 329
f 323 7 329
f 317 7 211
f 317 235 211
f 317 7 318
f 83 235 92
f 83 235 214
f 83 92 495
f 83 209 495
f 208 210 214
f 208 83 214
f 208 205 295
f 208 210 205
f 192 1 194
f 192 1 107
f 186 200 185
f 186 110 107
f 186 110 467
f 186 18 185
f 186 467 18
f 184 200 292
f 184 200 185
f 184 18 185
f 184 292 500
f 184 18 500
f 280 502 295
f 280 502 500
f 280 292 500
f 562 179 764
f 562 466 764
f 562 466 559
f 562 533 559
f 562 533 179
f 137 174 56
f 172 12 480
f 172 174 12
f 172 137 174
f 172 480 559
f 172 533 559
f 172 533 56
f 172 137 56
f 173 533 179
f 173 374 373
f 173 182 373
f 173 179 182
f 171 374 56
f 171 533 56
f 171 173 374
f 171 173 533
f 538 378 535
f 538 378 379
f 538 535 356
f 538 379 356
f 849 803 175
f 849 884 175
f 849 803 59
f 849 884 59
f 825 824 64
f 825 529 64
f 825 529 824
f 435 521 837
f 435 521 539
f 520 435 762
f 520 366 404
f 520 366 539
f 520 435 539
f 519 511 135
f 519 762 135
f 519 520 762
f 519 520 404
f 519 512 404
f 519 511 512
f 543 550 355
f 543 688 550
f 543 312 355
f 543 312 339
f 543 688 339
f 148 155 147
f 148 544 155
f 148 147 429
f 148 544 429
f 749 695 751
f 749 750 751
f 749 695 694
f 749 694 499
f 749 750 499
f 748 743 796
f 748 743 752
f 77 889 742
f 545 889 742
f 907 796 787
f 907 19 787
f 907 889 19
f 907 77 796
f 907 77 889
f 577 510 360
f 757 756 799
f 757 799 19
f 757 569 360
f 757 891 19
f 757 569 891
f 498 750 752
f 498 750 499
f 705 791 797
f 705 691 797
f 705 791 788
f 705 450 788
f 699 691 109
f 699 698 700
f 699 109 698
f 690 110 693
f 690 109 692
f 690 110 689
f 690 501 693
f 690 109 501
f 690 17 692
f 690 17 689
f 271 273 473
f 271 262 273
f 271 472 272
f 271 272 274
f 271 262 274
f 271 473 268
f 271 472 268
f 322 318 310
f 322 317 318
f 207 83 209
f 207 208 83
f 207 209 295
f 207 208 295
f 195 192 200
f 195 194 471
f 195 192 194
f 468 192 200
f 468 186 200
f 468 192 107
f 468 186 107
f 469 203 80
f 469 280 80
f 469 280 295
f 469 247 295
f 469 203 247
f 202 200 292
f 202 280 292
f 202 91 80
f 202 280 80
f 760 762 837
f 760 435 837
f 760 435 762
f 747 748 752
f 747 498 752
f 588 889 911
f 588 545 889
f 438 545 742
f 438 588 545
f 122 757 360
f 122 757 756
f 122 577 360
f 437 577 510
f 508 498 499
f 508 502 499
f 508 502 517
f 702 705 450
f 702 705 691
f 702 450 700
f 702 699 700
f 702 699 691
f 204 322 310
f 204 310 305
f 204 210 305
f 204 210 214
f 244 195 200
f 244 202 200
f 244 202 91
f 244 91 471
f 244 195 471
f 753 438 742
f 753 438 505
f 364 747 748
f 364 748 796
f 364 753 742
f 364 77 796
f 364 77 742
f 131 588 911
f 131 438 588
f 131 756 911
f 131 438 756
f 436 122 577
f 436 438 505
f 436 438 756
f 436 122 756
f 436 437 577
f 506 436 505
f 506 436 437
f 506 510 517
f 506 437 510
f 81 322 317
f 81 204 322
f 81 317 235
f 81 235 214
f 81 204 214
f 363 364 753
f 507 506 505
f 507 753 505
f 507 508 496
f 507 363 496
f 507 363 753
f 507 508 517
f 507 506 517
f 497 364 747
f 497 363 364
f 497 363 496
f 497 747 498
f 497 508 496
f 497 508 498
