o collision_band_hull_01
v 0.054420000 0.032429500 0.046407000
v 0.027312000 -0.042477500 0.066161000
v 0.046785000 0.021345500 0.069565000
v -0.031839000 -0.050064500 0.052260000
v -0.045086000 -0.025761500 0.071073000
v -0.048426000 -0.027740500 0.062393000
v -0.038338000 -0.033743500 0.075396000
v -0.042205000 -0.031024500 0.071648000
v -0.039528000 -0.030047500 0.079451000
v -0.029368000 -0.037181500 0.084534000
v -0.032237000 -0.035759500 0.082857000
v -0.036074000 -0.031480500 0.084936000
v -0.030048000 -0.026811500 0.101766000
v 0.045948000 0.038275500 0.055149000
v -0.040478000 -0.013387500 0.100667000
v -0.022660000 -0.032853500 0.102349000
v -0.042671000 -0.022247500 0.082209000
v -0.040214000 -0.017884500 0.096695000
v -0.043278000 -0.013075500 0.092476000
v -0.039609000 -0.036198500 0.068587000
v -0.033515000 -0.022784500 0.102769000
v -0.023723000 -0.029468500 0.107582000
v -0.029507000 -0.024068500 0.107757000
v -0.034867000 -0.043106500 0.062849000
v -0.030172000 -0.044874500 0.065165000
v 0.050882000 0.000904500 0.077751000
v -0.037234000 -0.044056500 0.058130000
v 0.051761000 0.032539500 0.052642000
v 0.026005000 0.039657500 0.074904000
v 0.061835000 0.013549500 0.052720000
v 0.064017000 -0.008329500 0.049429000
v 0.064806000 -0.003752500 0.050246000
v 0.064342000 0.011377500 0.048105000
v 0.062354000 0.016966500 0.048838000
v 0.066117000 0.001420500 0.046434000
v 0.045328000 -0.018053500 0.087755000
v 0.051679000 0.035900500 0.047675000
v 0.033907000 0.050578500 0.049571000
v 0.047698000 0.040246500 0.047787000
v -0.041405000 0.023883500 0.067302000
v -0.043188000 0.025099500 0.062203000
v -0.047455000 0.009265500 0.069835000
v -0.016384000 -0.052498500 0.057855000
v -0.034577000 -0.047217500 0.055134000
v 0.005111000 -0.057609500 0.052284000
v 0.000480000 -0.050052500 0.065427000
v -0.022106000 -0.047694500 0.064663000
v -0.015089000 -0.049765500 0.062920000
v -0.018916000 -0.050547500 0.060716000
v -0.009908000 -0.053557500 0.057993000
v 0.017537000 -0.048319500 0.063986000
v -0.011919000 -0.057321500 0.048982000
v -0.032566000 -0.051026500 0.047867000
v -0.012909000 -0.055740500 0.052732000
v -0.042914000 -0.034103500 0.065520000
v 0.014927000 -0.056173500 0.051786000
v 0.019030000 -0.056214500 0.048626000
v -0.010936000 -0.058207500 0.045993000
v 0.010131000 -0.047479500 0.069115000
v 0.022294000 -0.040580500 0.080205000
v 0.018961000 -0.042300500 0.078128000
v 0.015051000 -0.046236500 0.069193000
v 0.017910000 -0.041667500 0.086628000
v 0.015944000 -0.042014500 0.087845000
v 0.015896000 -0.041625500 0.090193000
v 0.025242000 -0.038693500 0.083080000
v 0.030345000 -0.035860500 0.078630000
v 0.027550000 -0.037071500 0.086141000
v 0.028676000 -0.036787500 0.081861000
v 0.023945000 -0.036018500 0.097998000
v 0.019674000 -0.040529500 0.088605000
v 0.023393000 -0.039141500 0.087952000
v 0.029701000 -0.033647500 0.094135000
v 0.017847000 -0.036744500 0.103147000
v 0.039637000 -0.028567500 0.076651000
v 0.038596000 -0.030803500 0.073517000
v 0.028312000 -0.026983500 0.110546000
v 0.012893000 -0.041169500 0.094810000
v 0.010031000 -0.039159500 0.102390000
v 0.017637000 -0.033550500 0.110895000
v 0.031939000 -0.028657500 0.102213000
v -0.058740000 -0.010607500 0.051442000
v -0.055675000 -0.013736500 0.056429000
v -0.058163000 -0.018801500 0.049015000
v -0.057139000 -0.022765500 0.048604000
v -0.048153000 -0.005676500 0.074946000
v -0.042191000 -0.026361500 0.078068000
v -0.044481000 -0.022568500 0.075826000
v -0.047353000 -0.011839500 0.075342000
v -0.054987000 -0.028938500 0.047545000
v -0.052170000 -0.031995500 0.050455000
v -0.051206000 -0.033374500 0.051590000
v -0.048604000 -0.031409500 0.058984000
v -0.045804000 -0.029785500 0.065117000
v -0.048308000 -0.024239500 0.065160000
v -0.045083000 -0.018194500 0.078456000
v -0.034029000 -0.032766500 0.086211000
v -0.042051000 -0.041911500 0.055389000
v -0.035694000 -0.030755500 0.086965000
v -0.032778000 -0.042599500 0.066632000
v -0.024990000 -0.044721500 0.069477000
v -0.036956000 -0.047552500 0.051690000
v -0.046594000 -0.039629500 0.052054000
v -0.035091000 -0.040139500 0.068309000
v -0.030235000 -0.049085500 0.056375000
v -0.010106000 -0.048608500 0.066054000
v 0.005631000 -0.046347500 0.074067000
v 0.010555000 -0.046215500 0.072083000
v 0.010099000 -0.045211500 0.076513000
v -0.010073000 -0.047174500 0.069023000
v -0.004380000 -0.046351500 0.075171000
v -0.014586000 -0.047054500 0.068053000
v -0.012717000 -0.045899500 0.072157000
v -0.017723000 -0.045265500 0.071395000
v -0.025631000 -0.041923500 0.075048000
v -0.016158000 -0.043716500 0.076720000
v -0.006113000 -0.046992500 0.071957000
v -0.009065000 -0.045316500 0.076975000
v -0.027695000 -0.039647500 0.078638000
v -0.031050000 -0.039580500 0.075222000
v -0.021691000 -0.044792500 0.071239000
v -0.020492000 -0.041849500 0.080120000
v -0.006273000 -0.044810500 0.082717000
v 0.007526000 -0.044126500 0.087793000
v -0.027548000 -0.036735500 0.089340000
v -0.028021000 -0.031150500 0.097870000
v -0.032120000 -0.037450500 0.079395000
v -0.028558000 -0.038574500 0.081147000
v -0.035730000 -0.037250500 0.073558000
v -0.035241000 -0.035152500 0.078861000
v -0.036855000 -0.032292500 0.081320000
v -0.020043000 -0.037466500 0.096995000
v -0.012761000 -0.041545500 0.093749000
v -0.030560000 -0.034994500 0.088136000
v -0.024914000 -0.039844500 0.081608000
v -0.003536000 -0.043700500 0.091596000
v -0.016445000 -0.042950500 0.081092000
v -0.003588000 -0.044467500 0.086173000
v 0.011269000 -0.042846500 0.090026000
v 0.007138000 -0.042384500 0.094699000
v 0.000483000 -0.044814500 0.085954000
v 0.004793000 -0.037083500 0.109527000
v 0.008938000 -0.037039500 0.108122000
v -0.006379000 -0.038958500 0.105510000
v -0.011514000 -0.040010500 0.100154000
v -0.008197000 -0.040347500 0.101331000
v -0.013290000 -0.037775500 0.104360000
v -0.003797000 -0.041476500 0.099502000
v -0.015602000 -0.039096500 0.098630000
v -0.016701000 -0.034965500 0.107085000
v -0.009920000 -0.038354500 0.105524000
v -0.011750000 -0.035926500 0.109804000
v -0.007135000 -0.036548500 0.111036000
v -0.002205000 -0.038031500 0.108170000
v -0.035822000 -0.028787500 0.090724000
v -0.036021000 -0.024839500 0.095872000
v -0.045204000 -0.005729500 0.089167000
v -0.045745000 -0.010475500 0.083744000
v -0.042693000 -0.007541500 0.098623000
v -0.032483000 -0.027711500 0.096983000
v -0.038100000 -0.015447500 0.103933000
v -0.032246000 -0.018840500 0.110724000
v -0.035381000 -0.017908500 0.106233000
v -0.037380000 -0.020407500 0.099645000
v -0.037651000 -0.025702500 0.092076000
v -0.043565000 -0.017857500 0.084907000
v -0.038831000 -0.022636500 0.093611000
v -0.041550000 -0.020125500 0.089537000
v -0.060010000 -0.014534500 0.046237000
v -0.046966000 -0.041300500 0.047615000
v -0.050873000 -0.035921500 0.048131000
v 0.016993000 0.032548500 0.110613000
v 0.046941000 0.023548500 0.066886000
v 0.051330000 0.030266500 0.056209000
v 0.049251000 0.035008500 0.054360000
v 0.051114000 0.034883500 0.051245000
v 0.055662000 0.029713500 0.048388000
v 0.050735000 0.026164500 0.060117000
v 0.058521000 0.025577500 0.047233000
v 0.053843000 0.030472500 0.051651000
v 0.055921000 0.027189500 0.052019000
v 0.057991000 0.023287500 0.051638000
v 0.059183000 0.019123500 0.053457000
v 0.060579000 0.010501500 0.055744000
v 0.061381000 -0.014118500 0.051492000
v 0.059514000 -0.010288500 0.056965000
v 0.063277000 -0.006221500 0.052110000
v 0.062736000 -0.004155500 0.053736000
v 0.061118000 -0.006125500 0.056058000
v 0.062830000 -0.001576500 0.053934000
v 0.062272000 -0.009019500 0.053129000
v 0.064317000 -0.006096500 0.050494000
v 0.060271000 0.021180500 0.048967000
v 0.061385000 0.001857500 0.056281000
v 0.065129000 0.006488500 0.048139000
v 0.064947000 0.003990500 0.049310000
v 0.063216000 0.007024500 0.052619000
v 0.055485000 0.007476500 0.063550000
v 0.056039000 0.012504500 0.061182000
v 0.058377000 0.010330500 0.059136000
v 0.056700000 0.008395500 0.061856000
v 0.057017000 -0.009694500 0.060742000
v 0.057726000 -0.011750500 0.058987000
v 0.056197000 -0.012989500 0.060552000
v 0.057174000 0.018756500 0.057037000
v 0.055098000 0.017667500 0.060124000
v 0.055137000 0.023203500 0.056780000
v 0.057530000 -0.005755500 0.061290000
v 0.055412000 0.000994500 0.064825000
v 0.054129000 -0.010246500 0.064838000
v 0.051043000 -0.015974500 0.067265000
v 0.052233000 -0.006861500 0.070735000
v 0.050345000 -0.011458500 0.072230000
v 0.054258000 0.009408500 0.064767000
v 0.052319000 -0.000201500 0.071698000
v 0.051732000 0.003494500 0.072360000
v 0.052898000 -0.002686500 0.069874000
v 0.055550000 0.006193500 0.063629000
v 0.049747000 0.006416500 0.079636000
v 0.049508000 0.013688500 0.070971000
v 0.051407000 0.012143500 0.068442000
v 0.052275000 0.015320500 0.065003000
v 0.052779000 0.006900500 0.068438000
v 0.050805000 0.021815500 0.063049000
v 0.049166000 0.019692500 0.066626000
v 0.050258000 0.011131500 0.071821000
v 0.047132000 0.014627500 0.078483000
v 0.049058000 0.011102500 0.076214000
v 0.051586000 -0.003025500 0.075107000
v 0.046282000 0.015186500 0.083952000
v 0.048389000 0.005176500 0.092596000
v 0.046525000 0.009171500 0.095725000
v 0.044245000 0.008919500 0.101712000
v 0.048083000 0.000085500 0.095777000
v 0.046744000 0.005269500 0.098126000
v 0.045391000 0.002839500 0.101975000
v 0.060396000 -0.002671500 0.057745000
v 0.047704000 0.010057500 0.087772000
v 0.049673000 0.000987500 0.089127000
v 0.050370000 -0.002466500 0.082609000
v 0.050171000 0.002007500 0.083094000
v 0.049493000 -0.003019500 0.089932000
v 0.049276000 -0.007606500 0.085853000
v 0.049045000 -0.010732500 0.080086000
v 0.049635000 -0.010710500 0.076102000
v 0.050254000 -0.007255500 0.077441000
v 0.054314000 -0.004691500 0.066507000
v 0.047848000 -0.010561500 0.089880000
v 0.047971000 -0.006567500 0.094273000
v 0.048098000 -0.011763500 0.085492000
v 0.046643000 -0.014380500 0.089066000
v 0.048476000 -0.016801500 0.071926000
v 0.048697000 -0.037783500 0.050008000
v 0.047442000 -0.022145500 0.068352000
v 0.057644000 -0.016790500 0.056498000
v 0.049223000 -0.032243500 0.056376000
v 0.053194000 -0.030922500 0.051880000
v 0.054161000 -0.032550500 0.047656000
v 0.057925000 -0.024245500 0.050420000
v 0.050921000 -0.025893500 0.059990000
v 0.053602000 -0.018335500 0.061499000
v 0.054235000 -0.024998500 0.056181000
v 0.061102000 -0.018965500 0.047073000
v 0.010597000 0.048169500 0.068782000
v -0.047698000 0.000311500 0.074764000
v -0.021328000 -0.040312500 0.085754000
v 0.035679000 -0.025043500 0.102623000
v 0.034586000 -0.050014500 0.047619000
v 0.034879000 -0.030308500 0.091387000
v 0.045920000 -0.037554500 0.054559000
v 0.029402000 -0.035121500 0.088680000
v 0.036936000 -0.030960500 0.078669000
v 0.036301000 -0.034030500 0.071008000
v 0.034737000 -0.033375500 0.074443000
v 0.035921000 -0.035662500 0.068154000
v -0.034698000 0.027997500 0.074987000
v -0.039046000 0.023943500 0.072845000
v 0.034299000 -0.028788500 0.097422000
v 0.038978000 -0.020601500 0.102986000
v 0.043573000 -0.015316500 0.099531000
v 0.040853000 -0.000104500 0.111193000
v 0.038623000 -0.023917500 0.098353000
v 0.021491000 -0.032874500 0.108312000
v 0.038454000 -0.014027500 0.110999000
v -0.046859000 0.005879500 0.073867000
v -0.060174000 0.000842500 0.048883000
v -0.049736000 0.001497500 0.068336000
v -0.048591000 0.005364500 0.069143000
v 0.008814000 -0.044518500 0.081695000
v 0.021295000 -0.040439500 0.084851000
v -0.035186000 0.005954500 0.110305000
v -0.031434000 0.010714500 0.111125000
v -0.032032000 0.023337500 0.091416000
v -0.038414000 0.019529500 0.084807000
v -0.048342000 0.016698500 0.062279000
v -0.049158000 0.010444500 0.064993000
v -0.051051000 0.019317500 0.056324000
v -0.020278000 0.042430500 0.064013000
v -0.046761000 0.013523500 0.067284000
v -0.043158000 0.032725500 0.053696000
v -0.015213000 0.045078500 0.063870000
v 0.001445000 0.045817500 0.075686000
v -0.035066000 0.022646500 0.087087000
v -0.038203000 0.028913500 0.065485000
v -0.023220000 0.026268500 0.100915000
v -0.037950000 0.016815500 0.090921000
v 0.006518000 0.040699500 0.098603000
v -0.053482000 0.008418500 0.059219000
v -0.016942000 0.038381500 0.083664000
v -0.007319000 0.034375500 0.108784000
v 0.001731000 0.037777500 0.105151000
v -0.021241000 0.030135500 0.096815000
v -0.013552000 0.034460500 0.102127000
v -0.045026000 0.007537500 0.077905000
v 0.029991000 0.026076500 0.108025000
v 0.037376000 0.044029500 0.057256000
v 0.020425000 0.034681500 0.104172000
v 0.043075000 0.005244500 0.105847000
v 0.044307000 0.012896500 0.097988000
v 0.048141000 0.011425500 0.080917000
v 0.039427000 0.027970500 0.076678000
v 0.048806000 0.016980500 0.069808000
v 0.051851000 -0.010776500 0.068862000
v 0.044110000 0.025106500 0.070166000
v 0.041782000 0.023894500 0.080168000
v 0.035664000 0.030008500 0.088453000
v 0.033297000 0.033413500 0.079902000
v 0.021246000 0.044213500 0.069635000
v -0.007852000 0.042339500 0.084028000
v -0.003686000 0.042940500 0.086384000
v -0.013308000 0.051670500 0.051882000
v -0.011450000 0.053482500 0.046693000
v -0.017074000 0.036560500 0.090071000
v -0.029595000 0.032020500 0.076278000
v 0.045561000 0.013006500 0.093418000
v -0.020797000 0.037617500 0.077087000
v 0.001930000 0.052633500 0.059430000
v -0.035017000 0.033303500 0.063235000
v -0.057363000 0.018080500 0.047703000
v -0.033093000 0.011387500 0.105516000
v -0.043534000 0.011027500 0.080231000
v 0.041482000 -0.026641500 0.075113000
v 0.044137000 -0.021193500 0.082257000
v 0.046519000 -0.018233500 0.076302000
v -0.025656000 -0.038675500 0.086853000
v -0.044235000 -0.000726500 0.092964000
v -0.041114000 -0.009992500 0.101944000
v -0.038820000 -0.010851500 0.107242000
v -0.051564000 0.000340500 0.064434000
v -0.045140000 -0.014440500 0.082416000
v -0.051502000 -0.004644500 0.065770000
v 0.012904000 -0.036010500 0.108898000
v -0.017649000 -0.040524500 0.091156000
v -0.017096000 -0.042269500 0.084717000
v -0.008582000 -0.043516500 0.088814000
v 0.002464000 -0.040712500 0.100995000
v -0.049325000 -0.034853500 0.053615000
v -0.045746000 -0.037305500 0.057077000
v -0.008384000 -0.042045500 0.096053000
v -0.021906000 -0.038995500 0.090668000
v -0.030593000 -0.042334500 0.070061000
v -0.005171000 -0.048669500 0.067467000
v 0.016204000 -0.044040500 0.074371000
v 0.013994000 -0.043664500 0.079265000
v -0.013671000 -0.042579500 0.088137000
v -0.012493000 -0.043772500 0.082656000
v -0.051877000 -0.030316500 0.053745000
v -0.051436000 -0.025342500 0.058736000
v -0.054353000 -0.025436500 0.053061000
v -0.047734000 -0.018959500 0.069946000
v -0.056657000 -0.007200500 0.056228000
v 0.002357000 -0.047079500 0.072365000
v 0.000788000 -0.048220500 0.069446000
v -0.057328000 0.004003500 0.054772000
v -0.049580000 -0.002955500 0.069947000
v 0.028418000 -0.031988500 0.100966000
v -0.026611000 -0.028576500 0.104539000
v 0.023398000 -0.030725500 0.110270000
v -0.046197000 0.000438500 0.084124000
v -0.046904000 -0.003755500 0.080462000
v 0.042878000 -0.023731500 0.077654000
v 0.012823000 -0.043331500 0.084930000
v 0.031941000 -0.034129500 0.083402000
v -0.016529000 -0.056562500 0.047494000
v -0.019678000 -0.053977500 0.053551000
v -0.025373000 -0.053599500 0.049888000
v -0.027941000 -0.053487500 0.046142000
v 0.002839000 -0.059220500 0.048382000
v 0.020640000 -0.050483500 0.058832000
v 0.011531000 -0.054022500 0.057437000
v -0.026502000 -0.046110500 0.065809000
v -0.005568000 -0.051037500 0.062956000
v 0.001181000 -0.057288500 0.053220000
v -0.025765000 -0.051481500 0.055012000
v -0.040421000 0.006912500 0.097642000
v -0.055355000 0.022924500 0.048550000
v -0.024808000 -0.036044500 0.093809000
v -0.028185000 -0.034526500 0.092355000
v 0.016997000 -0.053449500 0.056017000
v -0.060860000 -0.006801500 0.046459000
v 0.004992000 -0.055025500 0.057348000
v 0.022005000 -0.053633500 0.052494000
v -0.044979000 -0.034551500 0.061369000
v -0.031354000 0.044983500 0.047026000
v -0.030614000 0.042314500 0.052858000
v -0.021999000 -0.051049500 0.058421000
v 0.014766000 -0.039447500 0.098684000
v -0.038901000 -0.044961500 0.054051000
v -0.051364000 0.006200500 0.063440000
v -0.054338000 0.004770500 0.059333000
v 0.048422000 0.037702500 0.051580000
v 0.053330000 0.032578500 0.049642000
v 0.058657000 0.014653500 0.056983000
v 0.048655000 -0.013626500 0.076218000
v -0.007389000 -0.056186500 0.053737000
v -0.035270000 -0.049299500 0.049779000
v -0.039722000 -0.026097500 0.086777000
v -0.037176000 -0.029973500 0.085822000
v -0.040233000 -0.006581500 0.106452000
v -0.034177000 -0.015771500 0.110755000
v 0.046746000 -0.019998500 0.072419000
v 0.045954000 -0.020633500 0.074054000
v 0.049887000 -0.022361500 0.064034000
v 0.044491000 -0.012264500 0.100055000
v 0.046028000 -0.012466500 0.095386000
v 0.045285000 -0.009197500 0.100497000
v 0.035817000 -0.021518500 0.107330000
v 0.041872000 -0.019586500 0.097889000
v 0.049351000 0.004673500 0.086919000
v 0.050585000 0.007658500 0.073497000
v 0.043290000 -0.007635500 0.105376000
v 0.045624000 -0.003413500 0.101991000
v 0.043500000 0.016858500 0.094798000
v 0.044776000 -0.021522500 0.076326000
v 0.059080000 0.006216500 0.058978000
v -0.046819000 -0.007464500 0.080323000
v -0.032445000 -0.046343500 0.059489000
v -0.027093000 -0.048359500 0.060682000
v 0.064321000 0.001404500 0.051275000
v -0.011577000 0.051266500 0.054676000
v -0.008750000 0.052737500 0.053117000
v -0.003614000 0.053104500 0.055909000
v 0.014690000 0.049410500 0.064660000
v 0.011204000 0.051336500 0.062494000
v -0.003557000 0.050644500 0.061199000
v 0.007983000 0.052992500 0.059618000
v 0.012415000 0.054090500 0.057279000
v 0.005822000 0.050165500 0.065276000
v 0.017120000 0.046638500 0.068334000
v 0.017352000 0.051861500 0.059822000
v 0.013354000 0.045075500 0.075289000
v 0.008574000 0.046019500 0.075186000
v -0.001117000 0.048134500 0.067906000
v 0.004779000 0.047359500 0.071794000
v 0.000340000 0.040981500 0.097351000
v 0.029658000 0.031355500 0.098953000
v 0.033072000 0.029686500 0.096078000
v 0.030290000 0.033706500 0.091281000
v 0.032461000 0.035622500 0.073621000
v 0.035944000 0.034636500 0.069946000
v 0.032108000 0.033519500 0.085949000
v 0.031551000 0.038087500 0.069853000
v 0.037820000 0.040647500 0.060835000
v 0.041699000 0.040849500 0.056976000
v 0.039188000 0.045268500 0.052788000
v 0.033541000 0.044818500 0.059980000
v 0.033260000 0.040351500 0.065187000
v 0.024223000 0.045273500 0.065540000
v 0.029145000 0.038381500 0.072409000
v 0.029298000 0.037137500 0.076882000
v 0.028729000 0.049008500 0.057959000
v 0.026496000 0.041351500 0.069882000
v 0.028484000 0.045755500 0.061955000
v 0.019017000 0.048711500 0.063783000
v 0.023399000 0.049378500 0.060668000
v 0.023937000 0.039837500 0.079486000
v 0.022288000 0.041960500 0.074120000
v 0.018589000 0.042279500 0.079722000
v 0.012486000 0.041544500 0.093783000
v 0.018908000 0.038970500 0.096171000
v 0.023519000 0.038921500 0.088342000
v 0.026850000 0.038460500 0.078310000
v 0.025355000 0.035037500 0.098051000
v 0.028636000 0.036699500 0.083396000
v 0.040308000 0.036568500 0.062889000
v 0.036488000 0.031793500 0.074830000
v 0.040197000 0.029662500 0.071013000
v 0.036741000 0.030232500 0.080016000
v 0.038894000 0.027371500 0.082654000
v 0.045127000 0.021096500 0.073822000
v 0.039682000 0.033408500 0.066857000
v 0.042195000 0.025588500 0.074083000
v 0.043810000 0.027931500 0.067006000
v 0.041200000 0.038557500 0.060148000
v 0.043987000 0.031623500 0.063607000
v 0.047333000 0.026768500 0.063653000
v 0.045411000 0.035183500 0.059108000
v 0.047729000 0.029967500 0.060883000
v 0.045243000 0.018515500 0.079300000
v 0.047858000 0.015472500 0.074196000
v 0.043602000 0.019489500 0.087421000
v 0.045601000 0.015100500 0.089248000
v 0.039636000 0.021213500 0.098130000
v 0.040009000 0.024588500 0.089752000
v 0.041783000 0.020601500 0.093492000
v 0.041272000 0.018827500 0.097450000
v 0.041011000 0.015447500 0.102905000
v 0.037061000 0.020770500 0.104266000
v 0.034762000 0.019771500 0.110172000
v 0.036204000 0.025429500 0.098165000
v 0.033573000 0.023703500 0.106134000
v 0.031882000 0.027896500 0.102068000
v 0.024238000 0.033617500 0.102039000
v 0.026627000 0.030802500 0.104628000
v -0.030591000 0.016568500 0.102146000
v -0.025594000 0.020939500 0.105388000
v -0.017624000 0.030636500 0.104021000
v 0.014970000 0.034839500 0.107784000
v -0.021197000 0.024785500 0.108406000
v -0.017163000 0.033880500 0.096502000
v -0.012054000 0.037131500 0.096818000
v 0.013249000 0.037974500 0.102875000
v 0.007025000 0.035737500 0.108998000
v -0.012413000 0.032152500 0.108911000
v -0.009447000 0.036179500 0.103252000
v 0.011371000 0.034833500 0.109475000
v -0.008045000 0.038893500 0.097386000
v -0.004096000 0.038181500 0.102621000
v 0.037200000 0.016904500 0.109234000
v -0.027348000 0.022244500 0.099637000
v -0.027166000 0.025854500 0.094501000
v -0.039905000 0.012420500 0.092645000
v -0.036168000 0.013212500 0.098275000
v -0.031969000 0.019654500 0.095959000
v -0.028822000 0.015383500 0.107414000
v -0.040307000 0.015324500 0.086969000
v -0.045285000 0.011620500 0.073554000
v -0.041738000 0.014463500 0.082305000
v -0.046200000 0.016950500 0.065811000
v -0.044718000 0.020557500 0.065051000
v -0.042255000 0.020258500 0.071502000
v -0.037398000 0.023113500 0.079804000
v -0.040317000 0.019271500 0.078967000
v -0.030205000 0.026629500 0.088979000
v -0.034049000 0.020515500 0.092016000
v -0.023650000 0.034656500 0.081847000
v -0.034842000 0.025770500 0.080721000
v -0.030587000 0.029066500 0.082673000
v -0.042933000 0.015711500 0.076254000
v -0.035504000 0.018448500 0.092955000
v 0.011807000 0.043093500 0.086824000
v 0.016548000 0.041651500 0.088203000
v 0.013947000 0.043339500 0.082203000
v 0.005171000 0.045066500 0.079001000
v 0.000586000 0.044085500 0.083132000
v 0.009866000 0.044422500 0.080916000
v -0.000840000 0.042605500 0.090598000
v 0.002717000 0.042702500 0.091747000
v 0.007033000 0.043416500 0.088344000
v -0.004906000 0.041366500 0.092753000
v -0.011322000 0.039911500 0.089439000
v -0.023608000 0.031759500 0.090120000
v -0.031534000 0.033401500 0.068709000
v -0.016412000 0.042249500 0.069251000
v -0.025764000 0.035226500 0.074618000
v -0.005163000 0.043749500 0.079674000
v -0.008785000 0.048086500 0.063359000
v -0.009090000 0.042849500 0.078306000
v -0.014246000 0.040912500 0.077587000
v -0.023647000 0.038677500 0.068568000
v -0.020240000 0.044644500 0.059785000
v -0.024437000 0.047193500 0.050714000
v -0.023512000 0.045269500 0.055471000
v -0.016011000 0.048768500 0.056254000
v -0.008501000 0.051019500 0.057491000
v -0.008975000 0.044648500 0.071800000
v -0.002747000 0.045134500 0.075586000
v 0.018212000 0.044226500 0.073009000
v -0.025240000 0.041853500 0.059690000
v -0.045480000 0.033483500 0.049372000
v -0.038860000 0.037406500 0.052198000
v -0.049569000 0.028100500 0.050883000
v -0.045280000 0.025398500 0.058472000
v -0.043538000 0.028504500 0.057826000
v -0.052404000 0.022532500 0.052624000
v -0.048236000 0.024555500 0.055451000
v -0.031816000 0.037314500 0.060391000
v -0.046803000 0.021980500 0.059678000
v -0.038551000 0.033269500 0.058598000
v -0.055622000 0.016874500 0.052595000
v -0.053392000 0.027068500 0.046254000
v -0.057819000 -0.015554500 0.051585000
v -0.042508000 0.010129500 0.088174000
v -0.038508000 0.003249500 0.106285000
v -0.036803000 0.007157500 0.104530000
v -0.041725000 0.001109500 0.100035000
v -0.043835000 0.003965500 0.090971000
v -0.034755000 0.008073500 0.107743000
v 0.001767000 -0.043539500 0.092236000
v -0.004088000 -0.045754500 0.078260000
v -0.020774000 -0.043038500 0.075531000
v -0.027682000 -0.043711500 0.069715000
v -0.001293000 -0.045398500 0.081273000
v 0.000053000 -0.046378500 0.076168000
v -0.001522000 -0.047139500 0.072738000
v 0.006375000 -0.047485500 0.070281000
v -0.042343000 -0.044399500 0.050681000
v -0.031446000 -0.031881500 0.092131000
v -0.040757000 -0.038896500 0.061815000
v -0.049627000 -0.007272500 0.069924000
v -0.055442000 -0.020004500 0.054380000
v -0.051594000 -0.018854500 0.061924000
v -0.059047000 -0.004780500 0.051541000
v -0.044729000 0.005948500 0.083382000
v -0.044742000 0.016664500 0.069593000
v -0.055804000 0.010061500 0.055508000
v -0.059119000 0.010674500 0.048479000
v -0.057881000 -0.001701500 0.054256000
v -0.054453000 -0.002163500 0.060215000
v -0.042427000 -0.003376500 0.099888000
v -0.051750000 -0.010528500 0.064516000
v -0.052452000 0.012836500 0.058698000
v 0.026281000 -0.030387500 0.107076000
v 0.023306000 -0.033781500 0.103867000
v 0.043133000 0.000928500 0.106715000
v 0.038766000 -0.017079500 0.107374000
v 0.041085000 -0.016974500 0.103061000
v 0.030851000 -0.024935500 0.110423000
v 0.031871000 -0.026209500 0.106837000
v 0.042021000 -0.012699500 0.105196000
v 0.041646000 -0.003967500 0.109618000
v 0.040476000 0.004890500 0.110967000
v 0.041393000 0.009271500 0.107153000
v 0.044687000 -0.017077500 0.093617000
v 0.042554000 -0.021777500 0.091099000
v 0.043098000 -0.026011500 0.072307000
v 0.043635000 -0.024297500 0.074558000
v 0.043726000 -0.027010500 0.069005000
v 0.044930000 -0.022978500 0.072341000
v 0.047025000 -0.015648500 0.082357000
v 0.040564000 -0.025685500 0.086945000
v 0.040504000 -0.026715500 0.080435000
v 0.036748000 -0.029808500 0.085308000
v 0.037856000 -0.028181500 0.089130000
v 0.029554000 -0.029543500 0.104170000
v 0.040861000 -0.022621500 0.095197000
v 0.038983000 -0.025846500 0.092694000
v 0.032594000 -0.032986500 0.088603000
v 0.025582000 -0.037067500 0.091684000
v 0.026613000 -0.038464500 0.078933000
v 0.028335000 -0.037983500 0.074922000
v 0.015488000 -0.042233500 0.086075000
v 0.004513000 -0.044683500 0.085016000
v 0.017787000 -0.042122500 0.082669000
v 0.014232000 -0.042456500 0.087770000
v 0.021573000 -0.044611500 0.067647000
v 0.004307000 -0.045365500 0.079617000
v 0.022766000 -0.041037500 0.075431000
v 0.020231000 -0.043423500 0.071486000
v 0.024059000 -0.046538500 0.062510000
v 0.041243000 -0.028787500 0.071248000
v 0.025465000 -0.040932500 0.071014000
v 0.031715000 -0.037671500 0.070070000
v 0.039152000 -0.040435500 0.058536000
v 0.028958000 -0.044666500 0.061612000
v 0.035057000 -0.044212500 0.057547000
v 0.046280000 -0.028752500 0.063491000
v 0.043015000 -0.036282500 0.059494000
v 0.031875000 -0.041223500 0.063749000
v 0.036503000 -0.038145500 0.063806000
v 0.039928000 -0.032622500 0.067455000
v 0.033435000 -0.033817500 0.078075000
v 0.032049000 -0.035539500 0.075229000
v 0.023063000 -0.055781500 0.046295000
v 0.038024000 -0.046851500 0.050279000
v 0.042273000 -0.041515500 0.053781000
v 0.032939000 -0.048767500 0.052366000
v 0.029077000 -0.052465500 0.048784000
v 0.009084000 -0.056659500 0.053370000
v -0.003022000 -0.058564500 0.049927000
v 0.027952000 -0.049055500 0.056371000
v -0.039168000 -0.047756500 0.047538000
v -0.019424000 -0.044012500 0.073668000
v 0.019423000 -0.039349500 0.094345000
v 0.001247000 -0.052363500 0.061688000
v 0.015277000 -0.051243500 0.060365000
v -0.002601000 -0.055161500 0.056893000
v -0.008479000 -0.057776500 0.049444000
v 0.008546000 -0.050071500 0.064571000
v -0.046266000 0.004030500 0.078717000
v -0.036531000 0.041179500 0.048159000
v 0.009001000 -0.058599500 0.048598000
v -0.018712000 -0.046859500 0.067393000
v 0.043386000 0.044206500 0.048132000
v 0.039022000 0.047764500 0.047062000
v 0.044675000 0.041441500 0.052159000
v 0.016857000 0.054716500 0.055180000
v 0.018193000 0.056486500 0.049932000
v 0.033895000 0.047716500 0.055512000
v 0.022691000 0.053075500 0.055644000
v 0.028869000 0.051564500 0.053384000
v 0.028979000 0.053069500 0.049479000
v 0.024712000 0.054625500 0.050336000
v 0.026651000 0.054859500 0.046296000
v 0.005164000 0.057047500 0.046169000
v 0.014875000 0.057525500 0.045871000
v -0.005249000 0.054319500 0.050781000
v -0.002991000 0.055646500 0.046103000
v 0.013658000 0.055945500 0.052872000
v 0.007790000 0.055578500 0.053874000
v 0.011804000 0.057240500 0.048581000
v 0.000838000 0.055148500 0.052490000
v -0.018784000 0.050544500 0.048913000
f 58 706 35
f 169 58 706
f 591 169 400
f 591 169 706
f 680 58 388
f 80 153 281
f 263 258 259
f 674 58 388
f 674 263 258
f 674 58 35
f 674 263 35
f 428 258 259
f 292 153 281
f 292 420 153
f 82 169 400
f 698 704 706
f 692 674 388
f 356 692 388
f 52 680 58
f 519 292 524
f 339 591 400
f 419 82 400
f 419 82 169
f 708 591 706
f 195 33 35
f 1 706 35
f 1 704 706
f 695 38 704
f 695 1 39
f 695 1 704
f 57 692 674
f 57 692 56
f 142 80 153
f 148 146 680
f 148 680 388
f 148 356 388
f 688 146 680
f 688 52 680
f 688 52 146
f 384 52 58
f 267 628 629
f 185 263 259
f 280 428 259
f 280 185 259
f 280 185 424
f 550 519 292
f 580 691 591
f 396 339 591
f 291 292 420
f 291 419 420
f 617 339 400
f 84 419 169
f 705 708 706
f 705 708 712
f 404 691 591
f 404 708 591
f 711 698 706
f 711 709 698
f 711 705 706
f 711 705 712
f 232 33 34
f 232 233 34
f 179 33 34
f 179 33 35
f 179 1 35
f 703 698 704
f 268 678 674
f 268 674 258
f 268 258 253
f 268 675 253
f 79 142 356
f 79 692 56
f 144 148 146
f 154 142 356
f 154 148 356
f 154 144 148
f 154 142 153
f 154 144 153
f 278 675 253
f 278 267 253
f 77 628 629
f 77 378 623
f 77 378 80
f 630 280 424
f 303 550 591
f 517 519 524
f 517 580 519
f 517 580 691
f 306 291 396
f 306 550 591
f 306 396 591
f 306 550 292
f 306 291 292
f 594 396 339
f 594 291 396
f 594 291 419
f 286 419 400
f 286 617 400
f 332 404 713
f 332 404 708
f 707 708 712
f 707 332 708
f 707 332 441
f 193 507 181
f 193 179 34
f 193 179 181
f 319 233 34
f 319 507 233
f 319 193 34
f 319 193 507
f 177 179 181
f 177 179 1
f 710 711 712
f 710 455 712
f 710 711 709
f 483 513 514
f 694 695 38
f 694 695 39
f 694 696 39
f 456 483 514
f 456 483 696
f 701 483 38
f 701 483 480
f 172 292 281
f 172 310 523
f 172 292 524
f 172 310 524
f 522 479 698
f 522 703 698
f 522 703 480
f 140 356 692
f 140 79 692
f 140 79 356
f 407 57 56
f 407 79 56
f 407 57 674
f 143 79 142
f 151 144 153
f 151 144 146
f 152 147 150
f 152 22 150
f 152 151 153
f 152 151 147
f 145 52 146
f 145 151 146
f 145 151 147
f 125 22 150
f 427 279 626
f 427 267 628
f 427 279 267
f 282 279 267
f 282 258 253
f 282 267 253
f 282 428 258
f 282 279 428
f 81 267 629
f 81 278 267
f 81 278 675
f 627 630 280
f 627 279 626
f 627 280 428
f 627 279 428
f 196 195 35
f 196 234 35
f 235 232 33
f 235 195 33
f 235 232 233
f 235 196 195
f 235 196 234
f 235 318 233
f 426 431 432
f 426 630 424
f 426 431 630
f 31 263 35
f 31 185 263
f 31 185 424
f 31 426 424
f 31 426 192
f 32 234 35
f 32 31 35
f 32 31 192
f 32 234 432
f 32 426 432
f 32 426 192
f 625 432 281
f 633 507 233
f 633 318 233
f 293 550 519
f 293 303 550
f 293 303 591
f 596 594 419
f 596 617 339
f 596 594 339
f 331 332 713
f 331 332 441
f 331 527 713
f 331 527 441
f 560 707 441
f 560 527 441
f 560 455 712
f 572 404 713
f 572 527 713
f 313 404 691
f 313 517 524
f 313 517 691
f 37 1 39
f 37 176 39
f 37 177 1
f 411 696 510
f 411 176 510
f 411 696 39
f 411 176 39
f 508 511 510
f 508 176 510
f 311 310 523
f 525 310 524
f 525 313 524
f 525 572 527
f 525 313 404
f 525 572 404
f 465 483 38
f 465 483 696
f 465 694 38
f 465 694 696
f 315 172 514
f 702 703 480
f 702 701 480
f 702 701 38
f 702 38 704
f 702 703 704
f 317 483 480
f 317 483 513
f 317 522 480
f 317 513 514
f 317 172 514
f 526 172 523
f 526 522 523
f 307 522 479
f 307 311 455
f 307 710 709
f 307 710 455
f 307 709 698
f 307 479 698
f 307 522 523
f 307 311 523
f 283 378 80
f 74 407 674
f 74 678 674
f 74 283 80
f 352 407 79
f 352 143 79
f 352 74 80
f 352 74 407
f 352 142 80
f 352 143 142
f 387 384 58
f 387 169 58
f 149 145 147
f 149 147 150
f 18 167 92
f 164 18 161
f 164 18 167
f 85 84 169
f 357 171 92
f 357 103 171
f 155 103 607
f 155 23 22
f 155 608 22
f 170 103 607
f 170 103 171
f 170 387 169
f 645 77 629
f 645 81 629
f 645 77 623
f 284 627 626
f 284 627 630
f 284 431 630
f 284 77 628
f 284 427 626
f 284 427 628
f 284 80 281
f 284 77 80
f 236 234 432
f 236 235 234
f 236 625 432
f 236 235 318
f 632 633 318
f 632 625 281
f 632 236 318
f 632 236 625
f 632 172 281
f 544 580 519
f 544 293 519
f 544 580 591
f 544 293 591
f 620 286 617
f 620 596 617
f 620 286 419
f 620 596 419
f 442 707 712
f 442 560 712
f 442 560 707
f 412 37 177
f 412 37 176
f 412 177 181
f 412 176 181
f 503 176 181
f 503 508 176
f 503 507 181
f 509 508 511
f 509 315 511
f 509 315 172
f 509 632 172
f 528 311 455
f 528 311 310
f 528 525 310
f 528 525 527
f 528 560 455
f 528 560 527
f 512 456 696
f 512 456 514
f 512 315 514
f 512 315 511
f 512 696 510
f 512 511 510
f 518 317 172
f 518 317 522
f 518 526 172
f 518 526 522
f 134 608 22
f 134 125 607
f 134 155 607
f 134 155 608
f 682 170 607
f 682 170 387
f 386 149 145
f 386 149 4
f 386 387 384
f 386 384 52
f 132 125 4
f 132 149 4
f 132 125 150
f 132 149 150
f 367 18 92
f 367 18 369
f 348 18 161
f 348 419 420
f 348 161 420
f 163 161 420
f 163 164 161
f 15 18 369
f 15 85 369
f 15 348 18
f 376 645 623
f 376 283 624
f 376 378 623
f 376 283 378
f 376 81 675
f 376 645 81
f 631 284 281
f 631 284 431
f 631 432 281
f 631 431 432
f 529 509 508
f 529 503 507
f 529 503 508
f 529 633 507
f 529 632 633
f 529 509 632
f 398 125 22
f 398 134 22
f 398 134 125
f 416 386 4
f 416 125 4
f 385 145 52
f 385 386 52
f 385 386 145
f 90 85 369
f 90 367 369
f 90 367 92
f 90 171 92
f 90 85 169
f 90 170 169
f 90 170 171
f 347 85 84
f 347 84 419
f 347 348 419
f 347 15 85
f 347 15 348
f 162 163 164
f 162 163 420
f 162 155 23
f 162 23 22
f 162 152 22
f 162 420 153
f 162 152 153
f 165 155 103
f 165 357 103
f 165 164 167
f 165 167 92
f 165 357 92
f 165 162 164
f 165 162 155
f 70 376 624
f 70 268 678
f 70 268 675
f 70 376 675
f 70 74 678
f 70 283 624
f 70 74 283
f 53 682 387
f 53 416 682
f 53 386 387
f 53 416 386
f 102 125 607
f 102 416 125
f 102 682 607
f 102 416 682
