o collision_band_hull_02
v -0.022294000 -0.021525500 0.129779000
v -0.018962000 -0.024125500 0.130640000
v -0.016367000 -0.026674500 0.128561000
v 0.002377000 0.027194500 0.131317000
v 0.028864000 -0.015160500 0.135925000
v 0.032015000 -0.003989500 0.158572000
v 0.005988000 -0.034085500 0.117260000
v -0.020547000 -0.030020500 0.112179000
v -0.009448000 -0.029158500 0.163316000
v -0.030441000 -0.009217500 0.132033000
v -0.032954000 -0.007866500 0.124788000
v -0.032142000 -0.006624500 0.129577000
v -0.026879000 -0.013523500 0.137012000
v -0.032586000 -0.012257500 0.119432000
v -0.030048000 -0.026811500 0.101766000
v -0.029059000 -0.015676500 0.123711000
v -0.033054000 -0.015044500 0.114280000
v -0.040478000 -0.013387500 0.100667000
v -0.022660000 -0.032853500 0.102349000
v -0.025879000 -0.017335500 0.130487000
v -0.022273000 -0.019518500 0.136700000
v -0.015988000 -0.023977500 0.142517000
v -0.012792000 -0.026248500 0.141412000
v -0.015741000 -0.025303500 0.135915000
v -0.008803000 -0.027599500 0.152437000
v -0.012139000 -0.025985500 0.147161000
v -0.011116000 -0.031916500 0.120801000
v -0.009447000 -0.034088500 0.116161000
v -0.033515000 -0.022784500 0.102769000
v -0.023723000 -0.029468500 0.107582000
v -0.025231000 -0.025704500 0.112729000
v -0.028835000 -0.021140500 0.114218000
v -0.029507000 -0.024068500 0.107757000
v -0.031086000 -0.004022500 0.141466000
v -0.027669000 -0.011064500 0.149981000
v -0.023102000 -0.017507500 0.150465000
v -0.016595000 -0.023250500 0.148385000
v -0.023007000 -0.019143500 0.158165000
v -0.026740000 -0.016589500 0.162362000
v -0.028235000 -0.013345500 0.159864000
v -0.029315000 -0.009254500 0.137662000
v -0.025665000 -0.014080500 0.145388000
v -0.028186000 -0.010358500 0.143264000
v 0.029134000 -0.012650500 0.150285000
v 0.017847000 -0.036744500 0.103147000
v 0.032949000 -0.004523500 0.136598000
v 0.019645000 -0.023645500 0.156792000
v 0.028220000 -0.015305500 0.140536000
v 0.021768000 -0.021406500 0.145956000
v -0.014680000 -0.025334500 0.158602000
v -0.018986000 -0.022687500 0.136690000
v 0.022808000 -0.021268500 0.157005000
v 0.018127000 -0.025533500 0.160003000
v 0.016630000 -0.025857500 0.136318000
v 0.013361000 -0.026269500 0.146561000
v 0.024955000 -0.018833500 0.144801000
v 0.017527000 -0.024177500 0.146487000
v 0.019692000 -0.023299500 0.140187000
v 0.015807000 -0.025404500 0.141180000
v 0.019963000 -0.022808500 0.151690000
v 0.015309000 -0.025257500 0.148577000
v 0.013720000 -0.026120500 0.151369000
v 0.028312000 -0.026983500 0.110546000
v 0.012643000 -0.031595500 0.121317000
v 0.010031000 -0.039159500 0.102390000
v 0.001853000 -0.033229500 0.122317000
v 0.009549000 -0.032828500 0.119667000
v 0.017637000 -0.033550500 0.110895000
v 0.031939000 -0.028657500 0.102213000
v 0.019789000 -0.024188500 0.134732000
v 0.018514000 -0.027400500 0.125597000
v 0.018669000 -0.026413500 0.128277000
v 0.023446000 -0.025644500 0.121621000
v 0.029651000 -0.024457500 0.112888000
v -0.017369000 -0.028579500 0.121143000
v -0.026271000 -0.020414500 0.121838000
v -0.021141000 -0.025531500 0.121852000
v 0.004793000 -0.037083500 0.109527000
v 0.008938000 -0.037039500 0.108122000
v -0.006379000 -0.038958500 0.105510000
v -0.011514000 -0.040010500 0.100154000
v -0.008197000 -0.040347500 0.101331000
v -0.013290000 -0.037775500 0.104360000
v -0.013027000 -0.033688500 0.113979000
v -0.003797000 -0.041476500 0.099502000
v -0.007665000 -0.030934500 0.128495000
v -0.008622000 -0.029243500 0.135385000
v -0.015602000 -0.039096500 0.098630000
v -0.016701000 -0.034965500 0.107085000
v -0.009920000 -0.038354500 0.105524000
v -0.011750000 -0.035926500 0.109804000
v -0.003789000 -0.035454500 0.114835000
v -0.015455000 -0.031509500 0.116667000
v -0.007135000 -0.036548500 0.111036000
v -0.002205000 -0.038031500 0.108170000
v 0.003789000 -0.030252500 0.136097000
v 0.000748000 -0.030189500 0.138021000
v -0.029714000 -0.006839500 0.146339000
v -0.002022000 -0.031847500 0.128122000
v -0.000418000 -0.029769500 0.143088000
v -0.006501000 -0.029171500 0.139766000
v -0.005137000 -0.029347500 0.156774000
v -0.009516000 -0.027838500 0.158153000
v -0.005623000 -0.030577500 0.163375000
v 0.003251000 -0.029795500 0.140542000
v -0.023026000 -0.017691500 0.142575000
v -0.003614000 -0.030139500 0.136533000
v 0.000538000 -0.030954500 0.133635000
v -0.003118000 -0.033776500 0.120280000
v 0.004262000 -0.030718500 0.132425000
v 0.001352000 -0.031285500 0.130721000
v 0.004071000 -0.031773500 0.127697000
v -0.036325000 -0.007688500 0.114905000
v -0.042693000 -0.007541500 0.098623000
v -0.029847000 -0.012403500 0.127777000
v -0.033131000 -0.004221500 0.128705000
v -0.035153000 -0.004174500 0.120760000
v -0.034483000 -0.000632500 0.124342000
v -0.038100000 -0.015447500 0.103933000
v -0.032246000 -0.018840500 0.110724000
v -0.035381000 -0.017908500 0.106233000
v -0.037380000 -0.020407500 0.099645000
v -0.027077000 0.009859500 0.143302000
v -0.028487000 0.008174500 0.138530000
v 0.009276000 0.024567500 0.153031000
v -0.003034000 0.025771500 0.134658000
v 0.014078000 0.026199500 0.129899000
v 0.016993000 0.032548500 0.110613000
v 0.018786000 0.025058500 0.126312000
v 0.012845000 0.024820500 0.138069000
v 0.017435000 0.023374500 0.134513000
v 0.015370000 0.023078500 0.141546000
v 0.020591000 0.019030500 0.155355000
v 0.020530000 0.019962500 0.162057000
v 0.015241000 0.022319500 0.153539000
v 0.022668000 0.017146500 0.150637000
v 0.024122000 0.015814500 0.155743000
v 0.044245000 0.008919500 0.101712000
v 0.045391000 0.002839500 0.101975000
v 0.021235000 -0.025641500 0.126085000
v 0.035679000 -0.025043500 0.102623000
v 0.038978000 -0.020601500 0.102986000
v 0.043573000 -0.015316500 0.099531000
v 0.040853000 -0.000104500 0.111193000
v 0.036911000 -0.004821500 0.120660000
v 0.039620000 -0.009428500 0.111905000
v 0.038623000 -0.023917500 0.098353000
v 0.033244000 -0.013097500 0.123885000
v 0.030610000 -0.016862500 0.125434000
v 0.036124000 -0.013095500 0.116921000
v 0.030917000 0.005266500 0.142081000
v 0.031347000 -0.006928500 0.145801000
v 0.031550000 -0.007127500 0.159589000
v 0.031190000 -0.006714500 0.155687000
v 0.031326000 -0.010508500 0.135076000
v 0.009734000 -0.027897500 0.150977000
v 0.006841000 -0.028749500 0.146425000
v 0.021491000 -0.032874500 0.108312000
v 0.038454000 -0.014027500 0.110999000
v 0.008936000 -0.029145500 0.158312000
v 0.014301000 -0.033417500 0.114057000
v -0.035186000 0.005954500 0.110305000
v -0.031434000 0.010714500 0.111125000
v -0.031095000 0.004004500 0.138005000
v -0.032629000 0.001076500 0.133063000
v -0.015524000 0.022411500 0.128380000
v -0.023220000 0.026268500 0.100915000
v 0.006518000 0.040699500 0.098603000
v -0.035063000 0.003267500 0.116203000
v -0.024175000 0.015877500 0.159572000
v -0.025182000 0.016153500 0.163292000
v -0.023162000 0.015477500 0.153011000
v -0.032600000 0.003712500 0.126954000
v -0.016238000 0.020892500 0.144980000
v -0.009373000 0.031288500 0.113121000
v 0.023973000 0.017355500 0.162652000
v -0.006518000 0.026914500 0.162557000
v 0.000271000 0.025841500 0.155570000
v -0.020314000 0.020696500 0.122367000
v -0.018831000 0.020542500 0.128531000
v -0.011641000 0.028715500 0.115757000
v -0.007319000 0.034375500 0.108784000
v 0.001731000 0.037777500 0.105151000
v -0.020944000 0.022202500 0.114903000
v -0.005361000 0.029284500 0.119539000
v -0.013552000 0.034460500 0.102127000
v 0.029991000 0.026076500 0.108025000
v 0.001241000 0.026888500 0.162041000
v 0.031454000 0.003049500 0.157996000
v 0.031810000 -0.002519500 0.150171000
v 0.022851000 0.017221500 0.145683000
v 0.031830000 0.016872500 0.119173000
v 0.026630000 0.019029500 0.126375000
v 0.031704000 0.006735500 0.134933000
v 0.020425000 0.034681500 0.104172000
v 0.031448000 0.013198500 0.125737000
v 0.030915000 0.003582500 0.145868000
v 0.039141000 -0.002258500 0.115385000
v 0.043075000 0.005244500 0.105847000
v 0.002378000 0.034280500 0.112225000
v -0.014154000 0.024520500 0.161535000
v -0.003002000 0.026602500 0.160127000
v -0.006044000 0.025679500 0.156446000
v 0.009909000 0.026325500 0.134320000
v 0.004350000 0.025434500 0.149699000
v -0.017857000 0.020145500 0.135928000
v -0.015885000 0.021662500 0.152645000
v -0.031689000 0.000534500 0.153079000
v -0.033093000 0.011387500 0.105516000
v -0.026218000 0.012262500 0.135182000
v -0.038206000 -0.001840500 0.111961000
v 0.021378000 -0.028624500 0.117449000
v 0.028801000 -0.013914500 0.144623000
v 0.015094000 0.022876500 0.160193000
v 0.015234000 0.030383500 0.116525000
v 0.023429000 0.017636500 0.139414000
v 0.020993000 0.019156500 0.144172000
v 0.021131000 0.018591500 0.148698000
v 0.018767000 0.020393500 0.148230000
v -0.003212000 0.031801500 0.115524000
v 0.017866000 0.021251500 0.159258000
v -0.041114000 -0.009992500 0.101944000
v -0.038820000 -0.010851500 0.107242000
v -0.008750000 -0.027981500 0.143007000
v -0.020266000 -0.020267500 0.147651000
v 0.006183000 -0.029506500 0.138467000
v -0.024467000 -0.017029500 0.136811000
v -0.012503000 -0.027423500 0.135372000
v 0.020725000 0.029966500 0.112386000
v 0.012904000 -0.036010500 0.108898000
v 0.005795000 -0.030378500 0.160703000
v -0.004434000 -0.029299500 0.144170000
v -0.005590000 -0.028799500 0.149998000
v -0.008791000 -0.027584500 0.148379000
v 0.014493000 -0.028614500 0.128501000
v 0.008675000 -0.030195500 0.130433000
v 0.010313000 -0.030736500 0.125903000
v 0.002464000 -0.040712500 0.100995000
v 0.015142000 -0.031688500 0.117982000
v 0.011353000 -0.033109500 0.117331000
v 0.021789000 -0.030448500 0.113214000
v 0.009542000 -0.028394500 0.139900000
v 0.009885000 -0.035187500 0.112536000
v 0.017442000 -0.026339500 0.131789000
v 0.013552000 -0.026907500 0.138289000
v 0.012782000 -0.028179500 0.133919000
v 0.028418000 -0.031988500 0.100966000
v -0.001502000 -0.031023500 0.161600000
v 0.012855000 -0.028724500 0.162485000
v 0.016496000 -0.024687500 0.150438000
v 0.003206000 -0.029428500 0.145643000
v 0.003938000 -0.029615500 0.153043000
v 0.021331000 -0.023894500 0.161799000
v 0.007109000 -0.032475500 0.122557000
v 0.000480000 -0.035204500 0.115304000
v -0.026611000 -0.028576500 0.104539000
v 0.023398000 -0.030725500 0.110270000
v 0.027147000 -0.016140500 0.147913000
v 0.012605000 -0.027226500 0.155768000
v 0.034062000 -0.005945500 0.129999000
v -0.028875000 -0.010930500 0.156324000
v -0.029616000 -0.011238500 0.160377000
v -0.001108000 -0.029724500 0.149938000
v 0.001103000 -0.029685500 0.148407000
v -0.001657000 -0.030055500 0.155859000
v 0.009285000 0.025470500 0.140826000
v -0.015093000 0.023119500 0.157740000
v 0.002045000 -0.030751500 0.159842000
v -0.031227000 -0.005936500 0.135124000
v 0.014766000 -0.039447500 0.098684000
v 0.024129000 -0.023219500 0.126108000
v -0.028455000 0.011517500 0.125574000
v 0.005768000 -0.029307500 0.142178000
v -0.012182000 -0.027469500 0.161905000
v -0.012724000 -0.029525500 0.126414000
v -0.032274000 -0.000495500 0.141569000
v -0.040233000 -0.006581500 0.106452000
v -0.030458000 -0.016982500 0.117606000
v -0.035685000 -0.013254500 0.111248000
v -0.034177000 -0.015771500 0.110755000
v -0.018666000 0.021137500 0.158904000
v 0.044491000 -0.012264500 0.100055000
v 0.045285000 -0.009197500 0.100497000
v 0.029257000 -0.013783500 0.161290000
v 0.035817000 -0.021518500 0.107330000
v 0.030021000 -0.011076500 0.156475000
v 0.031029000 -0.010150500 0.161999000
v 0.043290000 -0.007635500 0.105376000
v 0.045624000 -0.003413500 0.101991000
v -0.018747000 -0.021878500 0.154074000
v -0.019493000 -0.021198500 0.142651000
v -0.026045000 -0.014765500 0.155199000
v -0.025561000 -0.014389500 0.150094000
v 0.029179000 0.008054500 0.145504000
v 0.029658000 0.031355500 0.098953000
v 0.034709000 0.006252500 0.123998000
v 0.034306000 0.016170500 0.115108000
v 0.032899000 0.014302500 0.120278000
v 0.034779000 0.011701500 0.119107000
v 0.034691000 0.009213500 0.122005000
v 0.041011000 0.015447500 0.102905000
v 0.037061000 0.020770500 0.104266000
v 0.034762000 0.019771500 0.110172000
v 0.036204000 0.025429500 0.098165000
v 0.033573000 0.023703500 0.106134000
v 0.031882000 0.027896500 0.102068000
v 0.026958000 0.011869500 0.147479000
v 0.027467000 0.013285500 0.137570000
v 0.029298000 0.018816500 0.121127000
v 0.029341000 0.007980500 0.155260000
v 0.026835000 0.012168500 0.153826000
v 0.026652000 0.013678500 0.160603000
v 0.025274000 0.014837500 0.143191000
v 0.030327000 0.007319500 0.160689000
v 0.027502000 0.011693500 0.142832000
v 0.028436000 0.010597500 0.158897000
v 0.029378000 0.009363500 0.140711000
v 0.031652000 -0.000026500 0.147616000
v 0.032044000 0.004483500 0.163428000
v 0.033276000 0.002713500 0.133333000
v 0.029814000 0.009648500 0.136997000
v 0.030706000 0.007041500 0.138698000
v 0.031499000 0.000150500 0.152705000
v 0.028463000 0.009018500 0.150333000
v 0.032021000 0.003522500 0.138310000
v 0.030284000 0.010897500 0.132933000
v 0.028771000 0.013700500 0.132161000
v 0.026399000 0.016520500 0.132370000
v 0.015920000 0.022198500 0.146389000
v 0.024661000 0.014904500 0.149301000
v 0.009248000 0.025748500 0.163129000
v 0.011292000 0.024405500 0.159111000
v 0.006932000 0.027521500 0.130366000
v 0.030962000 0.021440500 0.113992000
v 0.023474000 0.021696500 0.126467000
v 0.022276000 0.020396500 0.132843000
v 0.020720000 0.022896500 0.128992000
v 0.022086000 0.023760500 0.124228000
v 0.024238000 0.033617500 0.102039000
v 0.026110000 0.026415500 0.112623000
v 0.026627000 0.030802500 0.104628000
v 0.021904000 0.025973500 0.119395000
v 0.017154000 0.027761500 0.121331000
v 0.025846000 0.022612500 0.120346000
v -0.023657000 0.018208500 0.118502000
v -0.030591000 0.016568500 0.102146000
v -0.025594000 0.020939500 0.105388000
v -0.025258000 0.018339500 0.111743000
v -0.017624000 0.030636500 0.104021000
v -0.027958000 0.013045500 0.118075000
v -0.007275000 0.027579500 0.121347000
v 0.019010000 0.021014500 0.140968000
v 0.011445000 0.030591500 0.118499000
v 0.013090000 0.032678500 0.112793000
v 0.014970000 0.034839500 0.107784000
v -0.021197000 0.024785500 0.108406000
v 0.013249000 0.037974500 0.102875000
v 0.007025000 0.035737500 0.108998000
v 0.007876000 0.029419500 0.123356000
v 0.009042000 0.032363500 0.115211000
v 0.004777000 0.032016500 0.117182000
v -0.002173000 0.034209500 0.111288000
v -0.012413000 0.032152500 0.108911000
v -0.009447000 0.036179500 0.103252000
v -0.005905000 0.031671500 0.114144000
v -0.008239000 0.029552500 0.116388000
v -0.017131000 0.022860500 0.122732000
v -0.013050000 0.025327500 0.121887000
v 0.011371000 0.034833500 0.109475000
v 0.012698000 0.028661500 0.123226000
v 0.010303000 0.027639500 0.128283000
v 0.011902000 0.024040500 0.146164000
v -0.002482000 0.028583500 0.123046000
v 0.002384000 0.029097500 0.124318000
v -0.002475000 0.025330500 0.149565000
v -0.008941000 0.027660500 0.120074000
v -0.008013000 0.024065500 0.138523000
v 0.000529000 0.026173500 0.137638000
v -0.013086000 0.022584500 0.147442000
v -0.012215000 0.023362500 0.152056000
v -0.004096000 0.038181500 0.102621000
v -0.002400000 0.027011500 0.128241000
v 0.001284000 0.025662500 0.143921000
v 0.005073000 0.028360500 0.127189000
v 0.005327000 0.026337500 0.137566000
v -0.007588000 0.024867500 0.131407000
v 0.006013000 0.025319500 0.146729000
v 0.002286000 0.025473500 0.149559000
v -0.011012000 0.024589500 0.156386000
v -0.010620000 0.025926500 0.161717000
v -0.020058000 0.018703500 0.154321000
v -0.007588000 0.024609500 0.150290000
v -0.012115000 0.022740500 0.142419000
v 0.004561000 0.025460500 0.152560000
v 0.005971000 0.025763500 0.158877000
v -0.000280000 0.031244500 0.118102000
v -0.004103000 0.024967500 0.142698000
v -0.011531000 0.024133500 0.128035000
v -0.007042000 0.026642500 0.124208000
v -0.009649000 0.023767500 0.145534000
v -0.024611000 0.013296500 0.146012000
v -0.016784000 0.026103500 0.114728000
v -0.012783000 0.022593500 0.135296000
v -0.029871000 0.008182500 0.130417000
v -0.030063000 0.006388500 0.157099000
v -0.028021000 0.008001500 0.150825000
v -0.020297000 0.017799500 0.144816000
v -0.029135000 0.006182500 0.145295000
v -0.026481000 0.011729500 0.156583000
v -0.030315000 0.008404500 0.162298000
v -0.032996000 0.003241500 0.162993000
v -0.021905000 0.017140500 0.134053000
v -0.031430000 0.007689500 0.121683000
v 0.037200000 0.016904500 0.109234000
v -0.027348000 0.022244500 0.099637000
v -0.032647000 0.007596500 0.114922000
v -0.036168000 0.013212500 0.098275000
v -0.028822000 0.015383500 0.107414000
v -0.038508000 0.003249500 0.106285000
v -0.036803000 0.007157500 0.104530000
v -0.041725000 0.001109500 0.100035000
v -0.034755000 0.008073500 0.107743000
v -0.031444000 -0.007898500 0.160341000
v -0.024706000 0.015943500 0.125365000
v -0.029840000 -0.007366500 0.141251000
v -0.006802000 -0.032900500 0.121971000
v -0.006171000 -0.034509500 0.116932000
v -0.042427000 -0.003376500 0.099888000
v 0.025493000 -0.021166500 0.128842000
v 0.030821000 -0.013727500 0.130596000
v 0.027966000 -0.018096500 0.130647000
v -0.015537000 -0.026142500 0.163391000
v 0.032376000 -0.022146500 0.112218000
v 0.028691000 -0.022975500 0.117407000
v 0.020732000 -0.026534500 0.124119000
v 0.026281000 -0.030387500 0.107076000
v 0.023306000 -0.033781500 0.103867000
v 0.018393000 -0.029335500 0.120511000
v 0.024992000 -0.029028500 0.111438000
v 0.025635000 -0.026696500 0.115263000
v 0.019303000 -0.027778500 0.123217000
v 0.015603000 -0.029383500 0.124126000
v 0.018282000 -0.031035500 0.115990000
v 0.025928000 -0.018309500 0.138269000
v 0.024922000 -0.020869500 0.132943000
v 0.012598000 -0.026925500 0.141916000
v 0.022661000 -0.021923500 0.136370000
v 0.010344000 -0.027640500 0.145203000
v 0.021982000 -0.023608500 0.130453000
v 0.015245000 -0.026830500 0.159218000
v 0.000631000 -0.030087500 0.155158000
v 0.016383000 -0.025291500 0.154876000
v -0.019791000 -0.023254500 0.163207000
v -0.013367000 -0.025299500 0.153079000
v -0.030711000 -0.003255500 0.147213000
v 0.027141000 -0.015737500 0.152320000
v 0.024627000 -0.018959500 0.151197000
v 0.031704000 -0.007769500 0.140373000
v 0.031952000 -0.001093500 0.157041000
v 0.032377000 -0.003638500 0.143758000
v 0.032944000 0.006921500 0.129504000
v 0.031605000 -0.004689500 0.148709000
v 0.034547000 0.001717500 0.127412000
v 0.030474000 0.004447500 0.150771000
v 0.031804000 -0.002808500 0.147743000
v 0.032839000 -0.000641500 0.137779000
v 0.033095000 -0.001190500 0.163017000
v 0.030868000 -0.008018500 0.150819000
v 0.032005000 0.001241500 0.142777000
v 0.028465000 -0.013934500 0.154200000
v 0.027799000 -0.016816500 0.163527000
v 0.030540000 -0.010397500 0.145523000
v 0.027023000 -0.016630500 0.143535000
v 0.030321000 -0.012702500 0.135298000
v 0.027124000 -0.016695500 0.157553000
v 0.022975000 -0.020776500 0.141240000
v 0.034581000 -0.009085500 0.125512000
v 0.035279000 -0.006312500 0.124966000
v 0.032863000 -0.009892500 0.129883000
v 0.007607000 -0.029732500 0.134966000
v 0.027728000 -0.020713500 0.124051000
v 0.030098000 -0.012125500 0.139602000
v 0.033886000 -0.001712500 0.131841000
v 0.032572000 -0.007703500 0.134509000
v 0.043133000 0.000928500 0.106715000
v 0.035251000 -0.010574500 0.121395000
v 0.032314000 -0.018068500 0.118628000
v 0.035659000 -0.017616500 0.112486000
v 0.038766000 -0.017079500 0.107374000
v 0.041085000 -0.016974500 0.103061000
v 0.030851000 -0.024935500 0.110423000
v 0.031871000 -0.026209500 0.106837000
v 0.042021000 -0.012699500 0.105196000
v 0.041646000 -0.003967500 0.109618000
v 0.038992000 0.001688500 0.115272000
v 0.039050000 -0.005954500 0.114886000
v 0.037126000 -0.008735500 0.118406000
v 0.035997000 -0.007932500 0.122243000
v 0.040476000 0.004890500 0.110967000
v 0.037001000 0.006172500 0.118030000
v 0.041393000 0.009271500 0.107153000
v 0.035289000 -0.002846500 0.125980000
v 0.036901000 0.000630500 0.120799000
v 0.038053000 0.011462500 0.112227000
v 0.029554000 -0.029543500 0.104170000
v -0.030039000 -0.006438500 0.152442000
v -0.032559000 -0.002308500 0.134033000
v 0.031667000 -0.003623500 0.153429000
f 417 415 168
f 417 304 168
f 417 415 171
f 417 304 147
f 186 415 168
f 410 417 171
f 411 410 171
f 411 410 417
f 295 304 168
f 143 304 147
f 143 147 471
f 143 287 471
f 201 186 171
f 167 415 171
f 167 186 171
f 167 186 415
f 423 411 114
f 423 411 39
f 421 417 114
f 421 411 417
f 18 423 114
f 177 201 171
f 283 143 304
f 283 138 304
f 283 139 138
f 283 139 289
f 301 138 304
f 428 411 114
f 428 421 114
f 428 421 411
f 122 18 114
f 122 423 39
f 122 18 423
f 247 270 147
f 453 411 39
f 453 122 39
f 249 104 471
f 249 247 270
f 390 177 201
f 282 143 287
f 282 283 287
f 282 283 143
f 432 411 171
f 432 453 411
f 432 171 471
f 432 104 471
f 253 249 471
f 253 249 247
f 253 147 471
f 253 247 147
f 248 104 85
f 248 249 104
f 176 295 304
f 381 186 168
f 381 177 168
f 381 390 177
f 364 201 186
f 364 390 201
f 364 381 186
f 364 381 390
f 88 432 453
f 88 122 114
f 88 270 85
f 88 417 114
f 88 417 147
f 88 270 147
f 238 270 85
f 238 248 85
f 231 249 270
f 231 248 249
f 231 238 270
f 231 238 248
f 319 171 471
f 319 139 138
f 319 301 138
f 319 301 304
f 319 176 304
f 339 295 168
f 339 357 168
f 188 177 168
f 81 104 85
f 81 88 85
f 81 88 104
f 9 432 104
f 9 88 104
f 9 88 432
f 15 453 122
f 15 88 122
f 467 283 289
f 467 283 287
f 467 139 289
f 467 319 139
f 467 287 471
f 467 319 471
f 331 177 171
f 331 319 171
f 331 319 176
f 331 188 177
f 331 339 357
f 331 357 168
f 331 188 168
f 19 88 453
f 19 15 453
f 19 15 88
f 134 176 295
f 134 331 176
f 134 339 295
f 134 331 339
