o collision_band_hull_02
v -0.019525975 0.022981876 0.127323826
v -0.021762749 0.020602550 0.116822762
v -0.017500922 0.025247744 0.114838883
v -0.017664557 0.026014134 0.133894367
v -0.018293495 0.027254826 0.140397999
v -0.020787578 0.022788163 0.138096986
v -0.025703504 0.015995093 0.112830710
v -0.023852519 0.016999076 0.120786883
v -0.011193292 0.030286379 0.124859526
v -0.007895980 0.032239918 0.126902971
v -0.010392913 0.032017182 0.132330964
v -0.005298818 0.035336986 0.135386281
v -0.009300538 0.034098230 0.137146391
v -0.006756380 0.033585761 0.131322681
v -0.003342203 0.032518317 0.117593498
v -0.007217536 0.031746853 0.121853133
v -0.008297614 0.030706330 0.114856544
v -0.004570705 0.033131164 0.124666792
v -0.002233478 0.034543830 0.129152193
v -0.016874013 0.030360533 0.144056418
v -0.019082049 0.028011135 0.144104864
v -0.021307824 0.025670023 0.146171282
v -0.024298376 0.020260248 0.144397120
v -0.012808920 0.032322352 0.138754663
v -0.014474884 0.029343661 0.134605152
v -0.035138851 0.003813800 0.096303222
v -0.031733316 0.009381030 0.099675521
v -0.022675321 0.018379217 0.132957257
v -0.024357015 0.017598540 0.139490901
v -0.027494900 0.008829438 0.125114296
v -0.028224524 0.006079561 0.117898518
v -0.028335248 0.009315174 0.116510961
v 0.016467750 0.034895405 0.100682438
v 0.018618466 0.035724312 0.093683224
v 0.020802489 0.033709703 0.098667003
v 0.022708446 0.031641476 0.103850342
v 0.025424112 0.031635646 0.096706453
v 0.024784665 0.029813646 0.106668359
v 0.021827614 0.031025381 0.112262312
v -0.013924059 -0.021790338 0.107609967
v -0.017622453 -0.024317187 0.099097775
v -0.017635156 -0.018632273 0.108139143
v -0.024311429 -0.000638873 0.149853270
v 0.014315490 0.034016942 0.112124124
v 0.014365472 0.034551049 0.105956168
v 0.018220834 0.033282692 0.107525186
v -0.023359677 -0.000786972 0.127813537
v -0.024691024 0.003110399 0.130498179
v -0.022457870 -0.000642195 0.134525369
v -0.036065508 -0.005714454 0.092811216
v -0.032714554 -0.007627366 0.096904941
v -0.022459835 -0.001645773 0.144634785
v -0.020837080 -0.004565339 0.147436114
v -0.007716713 -0.025217104 0.107339475
v -0.010027445 -0.027816202 0.100918193
v -0.012286358 -0.025285387 0.103440989
v -0.023799348 0.000524730 0.144953492
v -0.006329377 -0.027979049 0.102926116
v -0.009004801 -0.030580441 0.096995687
v -0.020550312 -0.003671494 0.140071207
v -0.023293068 0.000308012 0.140858999
v -0.017899064 -0.007025823 0.135564317
v -0.020736961 -0.004239160 0.130246902
v -0.020361548 -0.003950881 0.134940777
v -0.008986376 -0.022115485 0.112685696
v -0.024660146 0.004285583 0.136509510
v -0.015243191 -0.010153530 0.132967142
v -0.013361721 -0.010955190 0.139446196
v -0.011549153 -0.013062278 0.133864360
v -0.018281335 -0.008208601 0.127770480
v -0.024806584 -0.000388641 0.122190736
v -0.022431459 -0.004733515 0.121950756
v -0.014765701 -0.011719036 0.128090288
v -0.022734794 -0.013498672 0.107766543
v -0.021828805 -0.009353026 0.115917491
v -0.018309212 -0.013640816 0.115544866
v -0.025619694 0.006787897 0.130965005
v -0.025114075 0.001944792 0.125534301
v -0.026331082 0.005303295 0.125392683
v -0.026256406 -0.001051516 0.116675208
v -0.017878333 -0.010774000 0.122142336
v -0.014611201 -0.013956888 0.122347984
v -0.011286752 -0.014533701 0.128111205
v -0.003346157 -0.026095786 0.108378216
v -0.003015829 -0.028337720 0.103556344
v -0.026847731 0.002603888 0.119364408
v -0.020051123 -0.008264911 0.122060649
v -0.026957360 0.015258588 0.145894969
v -0.008137118 0.035957594 0.140672531
v -0.026687845 0.019594247 0.151185586
v -0.024457712 0.026424134 0.153874297
v -0.004592693 0.037333952 0.140472745
v -0.025611263 0.003854891 0.144596601
v -0.025925071 -0.004758002 0.112832137
v -0.008046132 0.038157342 0.145759304
v -0.012616482 0.035174056 0.145329330
v -0.011428382 -0.016688637 0.121729041
v -0.012486071 -0.018971958 0.114656669
v -0.014944887 -0.016149865 0.116538231
v -0.008237111 -0.018897597 0.121276139
v -0.016918072 0.033401012 0.149635410
v -0.015455806 0.036566454 0.152087040
v -0.004328802 -0.031095421 0.098032537
v -0.027768964 0.014418724 0.104333490
v -0.029375508 0.013484025 0.097718872
v -0.024487394 0.019233249 0.099881737
v -0.012037238 0.039708645 0.152867916
v -0.028085754 0.001228767 0.114010971
v 0.006235993 0.035587347 0.102295510
v 0.011665129 0.035720566 0.100989467
v 0.009083554 0.035189230 0.105079410
v -0.029112671 0.003513803 0.112898102
v -0.025388267 -0.008529256 0.109177399
v -0.017629137 0.027831301 0.095177049
v -0.020146756 0.024357384 0.099402988
v -0.024556230 0.018673614 0.107530218
v -0.015268851 0.027245541 0.125320872
v -0.028371193 0.016080874 0.093493972
v -0.030699122 0.006536635 0.108197769
v -0.027144790 -0.010581560 0.103378144
v -0.014100604 -0.029913392 0.094463242
v -0.029179161 -0.000600015 0.109472780
v -0.029142540 -0.005637824 0.104706078
v -0.029336879 -0.013275051 0.096900857
v -0.025738928 -0.015153601 0.100458681
v -0.033116889 -0.001635488 0.099854795
v -0.031591743 0.002578170 0.105139849
v -0.031249185 -0.010204268 0.096650985
v -0.029920515 -0.009049579 0.099985649
v -0.022248182 -0.019911854 0.099360003
v -0.026797746 -0.018868445 0.094471763
v -0.005322431 0.033758706 0.098920323
v -0.004825882 0.035159073 0.094989691
v -0.001772007 0.035258942 0.097980389
v -0.021057479 -0.024315121 0.094656343
v 0.014951730 0.036225676 0.095827513
v -0.007436783 -0.033552330 0.092962409
v 0.008224432 0.037550353 0.094721835
v 0.005143081 0.034396796 0.115963338
v 0.009930061 0.034494375 0.115598063
v 0.006258931 0.034676837 0.122207134
v 0.001787041 -0.024328071 0.114062897
v -0.003820723 -0.023308820 0.114637614
v -0.017364995 -0.007673537 0.143391787
v 0.029399709 0.028376103 0.097850923
v 0.027381868 0.028270291 0.104163950
v 0.025875513 0.030050881 0.101763228
v 0.011119975 0.034737451 0.108226338
v 0.026550353 0.027802899 0.110711486
v 0.030515343 0.025576288 0.104232376
v -0.020476909 0.030943632 0.151748982
v -0.018947104 0.034838073 0.154538346
v -0.026504288 0.012827174 0.120945826
v -0.003585443 0.033819782 0.100096422
v -0.003190653 0.033249516 0.103034871
v 0.003226454 0.036961384 0.096018236
v 0.000152008 0.037221829 0.093561662
v 0.001678015 0.034071932 0.106718271
v 0.001302556 0.034974291 0.101378280
v 0.000807162 0.033896497 0.121390864
v -0.008263371 0.034288982 0.094664594
v -0.003326939 0.032407850 0.110420714
v 0.001411775 0.033662975 0.113266285
v 0.006626139 0.034586878 0.109468155
v -0.007462090 0.031298545 0.107399584
v -0.009329442 0.031722536 0.101245723
v -0.028649070 0.011155690 0.110125214
v -0.020805459 0.022992155 0.106546420
v -0.026239174 0.011301807 0.136347814
v -0.024116296 0.015887658 0.127775680
v -0.011436274 0.029682031 0.108187282
v -0.013365748 0.029430292 0.102628785
v -0.016573467 0.027275225 0.102723829
v -0.013337717 0.028417750 0.116082821
v 0.014066376 0.034000599 0.118711131
v 0.017457529 0.032964605 0.115860504
v -0.014737018 0.027885728 0.108763151
v -0.032185389 0.011300637 0.093500719
v -0.013468853 0.031628902 0.094271044
v -0.007745578 0.041354622 0.151393942
v 0.030621616 0.023850243 0.110501171
v -0.022160376 0.019258781 0.125217858
v 0.012567548 0.041020489 0.147662836
v 0.011750455 0.038827889 0.142839310
v 0.016150300 0.038827320 0.145409491
v 0.023710849 0.033879979 0.142110024
v 0.025443240 0.036147660 0.147884635
v 0.020953761 0.037796122 0.146994731
v 0.032497070 0.024604947 0.138805720
v 0.034290942 0.027501946 0.146336393
v 0.029957946 0.028543064 0.140520026
v 0.023762950 0.029484167 0.118864441
v 0.025920298 0.028023346 0.122160822
v 0.023938619 0.029790772 0.126148253
v 0.026497659 0.031094488 0.139795222
v 0.026166353 0.029320408 0.133273102
v 0.019083026 0.035974213 0.141510394
v 0.037512839 0.021222441 0.093001877
v 0.031907052 0.030147292 0.146291910
v 0.015323290 0.037101926 0.140762871
v 0.017125854 0.042954598 0.152460942
v 0.029699132 0.026137519 0.133866212
v 0.023682496 0.032050236 0.137011453
v 0.024631088 0.040615430 0.153117344
v 0.020976574 0.033813138 0.137888441
v 0.017124952 0.035237301 0.136838646
v 0.014760952 0.034651168 0.130912024
v 0.011805594 0.036616905 0.136736771
v 0.010029702 0.035532455 0.130600848
v 0.011141421 0.034637291 0.124761749
v 0.035280020 0.022462889 0.097079280
v 0.035262182 0.019654789 0.104067725
v 0.032874262 0.024668660 0.098911410
v 0.007585576 0.035191846 0.127757128
v 0.009653706 0.035147054 0.127782287
v 0.032280617 0.022246633 0.132276569
v 0.034165936 0.021312151 0.137406425
v 0.020734708 0.032415755 0.131361641
v 0.016981683 0.033227172 0.124029326
v 0.029860349 0.024413170 0.127571356
v 0.027958096 0.026829450 0.128723223
v 0.026317926 0.028035307 0.126706157
v 0.038955853 0.000160483 0.105567442
v 0.038033961 0.001176008 0.110573527
v 0.039039712 0.003726062 0.106130137
v 0.038278081 -0.002512719 0.106500353
v 0.037983638 0.005610006 0.111870138
v 0.039506675 -0.001800477 0.103035813
v 0.038701083 -0.004519390 0.102574646
v 0.020997394 0.031381200 0.124257917
v 0.034846381 0.018245059 0.134086503
v 0.033689033 0.018660569 0.129125100
v 0.035702123 0.014158734 0.130025793
v 0.036022401 0.014407259 0.113981218
v 0.034268093 0.017579914 0.115762935
v 0.034507345 0.018298494 0.111552256
v 0.036143000 0.018265370 0.139490166
v 0.032033868 0.021144753 0.126022914
v 0.028830791 0.032670976 0.146077960
v 0.027853480 0.026273948 0.123797465
v 0.029853394 0.037450843 0.152941142
v 0.036399580 0.020041188 0.098438858
v 0.032306926 0.020374465 0.121412742
v 0.030117755 0.023564609 0.121494788
v 0.031974605 0.021287213 0.116001406
v 0.020171574 0.031646790 0.119381422
v 0.028069612 0.025884049 0.117503867
v 0.034599881 0.033051884 0.152587648
v 0.032964171 0.020998952 0.110517721
v 0.035854349 0.012674054 0.125256270
v 0.035644443 0.013864286 0.121291810
v 0.036752497 0.009947294 0.122430528
v 0.009441376 0.043768403 0.151368972
v 0.038197144 0.017291304 0.097503568
v 0.037187447 0.029278977 0.152045336
v -0.000331203 0.036367571 0.135024147
v 0.002923853 0.037712871 0.138378814
v -0.000444162 0.038371769 0.140945991
v 0.035245691 0.015198735 0.117728145
v 0.036520137 0.011644271 0.117716030
v 0.038266240 0.015191253 0.100694967
v 0.038385913 0.012507169 0.103043155
v 0.040341674 0.001073818 0.101021328
v 0.040363901 0.006499888 0.100465795
v 0.042273855 0.002921632 0.095344504
v 0.038402664 0.008443522 0.107010041
v 0.007923434 0.040335874 0.145183406
v 0.004056830 0.042288300 0.148401536
v 0.003522740 0.039442586 0.142823572
v 0.000337903 0.040355276 0.145190775
v 0.007271206 0.038189501 0.139996370
v 0.005923436 0.036342416 0.133777200
v 0.002831706 0.035107614 0.128051901
v 0.035557729 0.022671153 0.142870828
v 0.038134334 0.019716935 0.145656743
v 0.038497114 0.024852794 0.150451914
v 0.040696991 0.012427653 0.148001105
v 0.040620047 0.016228863 0.148830509
v 0.038960385 0.013297241 0.143253194
v 0.040328648 0.011644544 0.097013889
v 0.036674794 0.009307120 0.127403844
v 0.039302327 -0.007597165 0.098415586
v 0.042136413 0.006824225 0.094739666
v 0.036818657 0.010129257 0.132429432
v 0.036970410 0.007156748 0.130242044
v 0.034120243 0.017084693 0.124425663
v 0.034046468 0.017772523 0.119501174
v 0.036946384 0.013889075 0.108510822
v 0.040940201 0.021109856 0.151613356
v 0.037092986 0.013675646 0.137302505
v 0.040408532 -0.003095719 0.099273924
v -0.000321723 0.043676905 0.151360650
v -0.003826743 0.040347638 0.146974881
v 0.042137767 -0.000806679 0.095325463
v 0.038560703 -0.012637342 0.094625239
v 0.037480519 0.010196180 0.112818951
v 0.036830895 -0.006683208 0.105475197
v 0.041862416 0.009182954 0.151238307
v 0.036822000 0.006562079 0.127875094
v 0.037158890 0.005227645 0.124001469
v 0.037311238 0.003435798 0.116991080
v 0.037287816 0.007437176 0.117673236
v 0.040737670 0.004120916 0.151465783
v 0.038002990 0.015779251 0.142466129
v 0.038694259 -0.001017371 0.152173224
v -0.007196905 -0.016622808 0.153970068
v -0.002638243 -0.018333024 0.152894093
v -0.003905572 -0.034195067 0.092823563
v 0.000419693 -0.032987701 0.095102780
v 0.000240673 -0.018559247 0.149015724
v -0.003936856 -0.016459170 0.143717458
v -0.003575369 -0.017114313 0.148994542
v 0.036812211 -0.002739548 0.111029291
v 0.036800275 0.000020788 0.115348144
v -0.008063530 -0.014538251 0.138589552
v -0.013880732 -0.011150205 0.148723974
v -0.009054732 -0.013857584 0.144137704
v -0.006378419 -0.015586219 0.147538039
v -0.018358687 -0.007957991 0.150453901
v 0.035575273 -0.012268086 0.100954944
v 0.035397347 -0.001230978 0.126713374
v 0.034260303 -0.002846035 0.131794743
v 0.036043008 0.001794766 0.131636081
v 0.027800902 -0.023964200 0.095645681
v 0.031072076 -0.022087335 0.094313553
v 0.024699937 -0.025109198 0.097767414
v 0.026134094 -0.025776429 0.094794974
v 0.028674972 -0.021173633 0.099099849
v 0.026862368 -0.019298898 0.105386866
v 0.031866407 -0.017247361 0.100575873
v 0.024107659 -0.028133360 0.093237968
v 0.028666993 -0.012259983 0.149472573
v 0.027087463 -0.012448716 0.145071175
v 0.026455446 -0.014070265 0.149382002
v 0.033593280 -0.004812986 0.126368321
v 0.036652342 0.003701676 0.136272761
v 0.035511420 -0.000511545 0.137674405
v 0.037235320 0.003782315 0.140168806
v 0.033609185 -0.020101625 0.093786042
v 0.038825932 0.005329494 0.144869750
v 0.036841376 0.001094641 0.142969317
v 0.038199891 0.001747251 0.147615320
v 0.034797976 -0.006428509 0.112339547
v -0.011580449 -0.013960206 0.153209096
v 0.037011061 0.006475652 0.133616480
v 0.037654996 0.006760146 0.138735782
v 0.035248416 -0.017125920 0.095122287
v 0.031300442 -0.014151198 0.106922210
v -0.009635982 -0.014041869 0.149031388
v 0.039002957 0.010086758 0.142719953
v 0.032555777 -0.019301422 0.096235188
v 0.035576564 -0.002674489 0.116337945
v 0.037516459 0.009439250 0.136855524
v 0.035054036 -0.006375310 0.152034783
v 0.030565619 -0.009312741 0.146880108
v 0.034274302 -0.010189372 0.107638291
v 0.031931005 -0.010722270 0.113107338
v 0.036671002 0.004821421 0.129081788
v 0.036234396 0.002235368 0.126501515
v -0.007184187 -0.015982011 0.132746820
v 0.032770191 -0.006703557 0.122531312
v 0.034605614 -0.003690542 0.121094844
v 0.033146840 -0.007151909 0.117910300
v 0.029743030 -0.009624874 0.127389077
v 0.031743184 -0.007623771 0.125737661
v 0.030338166 -0.009943496 0.120798586
v 0.036103514 -0.001944735 0.147071145
v 0.023776848 -0.014263859 0.143682842
v 0.028295275 -0.010468270 0.139905921
v 0.032656778 -0.005913861 0.139621349
v 0.029785004 -0.008934977 0.133757511
v 0.036272910 0.000708927 0.121212865
v 0.034576181 -0.004810633 0.116893931
v 0.033676220 -0.005285028 0.145514120
v 0.033812825 -0.003615632 0.135873661
v 0.032374898 -0.005626757 0.134316306
v 0.035015155 -0.002577124 0.142829712
v 0.025115223 -0.012815792 0.140177023
v 0.032122800 -0.006584560 0.130003245
v 0.010841339 -0.019565632 0.150883177
v 0.007690277 -0.019270207 0.145102857
v 0.007171384 -0.019776879 0.150552112
v 0.010587751 -0.020791942 0.123541990
v 0.011804967 -0.021476714 0.120023463
v 0.008056568 -0.021804520 0.121426276
v 0.027551162 -0.011979389 0.124222807
v 0.018310298 -0.021267416 0.113087175
v 0.021454677 -0.018629652 0.115885368
v 0.022475466 -0.019162514 0.112348128
v 0.025921439 -0.016143316 0.113957319
v -0.003777792 -0.017453461 0.133965476
v -0.000493725 -0.018491286 0.135541413
v -0.004050603 -0.018528418 0.128693827
v 0.029013148 -0.013146392 0.115907503
v 0.029344790 -0.013966706 0.111851571
v 0.024542541 -0.022758737 0.101752210
v 0.007489120 -0.031957320 0.095926684
v 0.007779658 -0.020780899 0.125800861
v 0.005133225 -0.021462361 0.123496986
v 0.004264677 -0.020389876 0.128527361
v 0.024200751 -0.014576429 0.123686912
v 0.026949606 -0.013731065 0.119563609
v 0.016917402 -0.020129923 0.118494660
v 0.000692672 -0.021549748 0.122265535
v -0.004369404 -0.020747061 0.121299869
v 0.009190877 -0.019027068 0.138117928
v 0.006010014 -0.019188417 0.140460803
v 0.003766866 -0.019041289 0.141280568
v 0.003973384 -0.019469014 0.135344460
v -0.008169847 -0.016963875 0.127123896
v 0.021739943 -0.014652648 0.138674580
v 0.025140606 -0.012635611 0.135000254
v 0.022809492 -0.021164754 0.107474535
v 0.024293726 -0.019833922 0.108127939
v 0.022881369 -0.015963947 0.148915604
v 0.000319672 -0.019739130 0.129768031
v 0.004665445 -0.022774418 0.119263036
v 0.015625501 -0.018604838 0.150363094
v 0.018643993 -0.017052001 0.146846912
v 0.016033896 -0.025113064 0.106457082
v 0.014507790 -0.027104590 0.102776766
v 0.012844038 -0.026508762 0.105156144
v -0.003554386 -0.016954486 0.137986704
v 0.026616113 -0.011993184 0.129040903
v 0.022401297 -0.014624555 0.130160358
v 0.021737639 -0.023041540 0.105044977
v 0.021356856 -0.025298602 0.100790218
v 0.012606545 -0.022522518 0.115532189
v 0.008314712 -0.022737235 0.117822590
v 0.014028948 -0.019547193 0.124628954
v 0.004116732 -0.020010308 0.152854277
v 0.005307775 -0.023481131 0.116373430
v 0.014487700 -0.017951897 0.142990698
v 0.011484728 -0.018834858 0.145694527
v 0.009143179 -0.028018169 0.103135634
v 0.006091953 -0.019650426 0.133697124
v 0.024914346 -0.018704968 0.109933079
v 0.022161011 -0.020478913 0.109828153
v 0.021598450 -0.014617566 0.134197139
v 0.018875022 -0.015888075 0.135458833
v 0.017945099 -0.018323656 0.122616207
v 0.011709118 -0.019040841 0.131289307
v 0.008032262 -0.019770588 0.130807470
v 0.018011267 -0.016414308 0.140019592
v 0.020406051 -0.028431672 0.096101802
v 0.007844672 -0.024380434 0.113285564
v 0.005312596 -0.026480080 0.108269335
v 0.003526665 -0.029310980 0.101654411
v 0.000229107 -0.027222340 0.106605450
v 0.018236989 -0.016640752 0.130737345
v 0.020371136 -0.016493334 0.125159847
v 0.017203100 -0.017870882 0.126264112
v -0.000763789 -0.029568358 0.101465030
v 0.010389390 -0.020119742 0.127215326
v 0.014865126 -0.017652838 0.135523402
v 0.010577044 -0.025763273 0.108112579
v 0.027814603 -0.016333192 0.109482556
v 0.023978265 -0.016150870 0.118393276
v 0.000348955 -0.018181295 0.142294312
v 0.004249241 -0.019275389 0.147079795
v 0.020908834 -0.017567680 0.120355940
v 0.015140147 -0.018136694 0.129738922
v 0.013976881 -0.023652121 0.111021789
v 0.020848880 -0.015615367 0.143235045
v 0.017260267 -0.027859289 0.099405632
v 0.018334144 -0.025656954 0.103024361
v 0.020302745 -0.015404410 0.132494230
v 0.015554402 -0.031068455 0.094706276
v 0.011546084 -0.032141104 0.094294641
v 0.012755463 -0.029756171 0.098375663
v 0.019160975 -0.022597577 0.108789307
v -0.001998511 -0.020146240 0.125507735
f 198 308 50
f 198 157 50
f 43 91 344
f 118 157 50
f 131 43 50
f 131 135 344
f 121 135 344
f 34 198 157
f 90 43 50
f 90 43 91
f 26 90 50
f 26 90 91
f 179 118 157
f 179 152 107
f 319 43 344
f 319 131 344
f 319 131 43
f 137 308 50
f 137 131 50
f 137 131 135
f 137 121 135
f 295 283 198
f 331 198 308
f 431 137 308
f 138 34 157
f 138 292 253
f 138 292 157
f 37 34 198
f 289 248 305
f 289 283 198
f 178 26 91
f 178 152 91
f 178 152 118
f 178 118 50
f 178 26 50
f 180 292 157
f 180 292 107
f 114 152 118
f 114 179 118
f 114 179 152
f 294 283 265
f 294 295 283
f 469 331 308
f 469 431 308
f 339 295 198
f 339 331 198
f 339 295 305
f 306 91 344
f 306 152 91
f 306 121 344
f 306 137 121
f 201 152 107
f 201 204 152
f 201 292 107
f 201 292 253
f 201 204 34
f 201 138 253
f 201 138 34
f 255 248 198
f 255 289 198
f 255 289 248
f 161 179 107
f 161 180 107
f 161 179 157
f 161 180 157
f 298 289 305
f 298 294 265
f 298 283 265
f 298 289 283
f 468 331 418
f 468 469 418
f 468 469 331
f 380 431 418
f 380 469 418
f 380 469 431
f 354 334 418
f 354 431 418
f 354 339 305
f 354 306 305
f 354 306 431
f 415 331 418
f 415 334 418
f 415 334 331
f 241 204 152
f 241 306 152
f 241 306 305
f 241 248 305
f 241 248 198
f 241 37 198
f 241 204 34
f 241 37 34
f 307 431 137
f 307 306 137
f 307 306 431
f 303 298 305
f 303 298 294
f 303 295 305
f 303 294 295
f 332 339 331
f 332 354 339
f 332 334 331
f 332 354 334
