o collision_band_hull_03
v -0.026567643 0.044170984 0.193105204
v -0.025773150 0.043840781 0.186167537
v -0.022108003 0.047292300 0.189743537
v -0.013339455 0.044028235 0.160693157
v -0.013917104 0.048388582 0.166788094
v -0.019650872 0.043287292 0.166440402
v -0.017112744 0.038903757 0.158162048
v -0.023136150 0.033286256 0.159677424
v -0.036420196 0.030783145 0.197392809
v -0.034770004 0.032478349 0.188397361
v -0.033376954 0.037082773 0.197679002
v -0.021694738 0.049658308 0.199052158
v -0.016742349 0.052573162 0.202052189
v -0.021518433 0.050653976 0.204134938
v -0.028342415 0.037514975 0.173491056
v -0.033219808 0.029582296 0.176826502
v -0.029214823 0.029800974 0.168311204
v -0.016874013 0.030360533 0.144056418
v -0.019082049 0.028011135 0.144104864
v -0.021307824 0.025670023 0.146171282
v -0.024298376 0.020260248 0.144397120
v -0.037291823 0.026820633 0.189606034
v -0.035345237 0.029165138 0.183116696
v -0.029424474 0.006901448 0.159684952
v -0.022593280 -0.005292336 0.156959678
v -0.024311429 -0.000638873 0.149853270
v -0.022459835 -0.001645773 0.144634785
v -0.020837080 -0.004565339 0.147436114
v -0.023799348 0.000524730 0.144953492
v -0.026957360 0.015258588 0.145894969
v -0.026687845 0.019594247 0.151185586
v -0.024457712 0.026424134 0.153874297
v -0.025611263 0.003854891 0.144596601
v -0.037211027 0.023385223 0.184229907
v -0.008046132 0.038157342 0.145759304
v -0.012616482 0.035174056 0.145329330
v -0.016918072 0.033401012 0.149635410
v -0.015455806 0.036566454 0.152087040
v -0.012037238 0.039708645 0.152867916
v -0.028325355 0.022436659 0.161041701
v -0.016043559 0.051819045 0.193268949
v -0.018386255 0.049846273 0.186556668
v 0.002654639 0.061388361 0.203053665
v -0.038961643 0.008149908 0.203966445
v -0.017364995 -0.007673537 0.143391787
v -0.020476909 0.030943632 0.151748982
v -0.018947104 0.034838073 0.154538346
v -0.025132322 0.037757673 0.167393079
v -0.024036824 0.042078991 0.171040944
v 0.011161269 0.062472896 0.203960783
v 0.005121720 0.059635959 0.190209662
v 0.008115270 0.059661779 0.191046781
v 0.011847309 0.060007173 0.195128759
v -0.028244037 0.041016461 0.180723448
v -0.025245723 0.043109605 0.175806870
v -0.022480800 0.046792836 0.180936490
v 0.021464002 0.060778649 0.201245072
v 0.019179562 0.058534408 0.193876763
v -0.005757199 0.057460635 0.195906297
v -0.010304661 0.055449136 0.200063678
v -0.010460753 0.054983566 0.193500094
v -0.004720170 0.058570765 0.201250332
v -0.001837142 0.060253512 0.203426007
v 0.024890613 0.057977973 0.195534265
v 0.006791768 0.061031674 0.198710704
v 0.001890701 0.060071381 0.194935732
v -0.030060706 0.040503883 0.192969481
v -0.028822483 0.040882836 0.187415364
v -0.031660074 0.037331290 0.186364057
v -0.028577920 0.044404669 0.203123097
v -0.039394983 0.023667502 0.199539091
v -0.038656405 0.022276437 0.191187801
v -0.039410788 0.014727941 0.195910468
v -0.001500843 0.059901705 0.198581987
v -0.002579491 0.058641911 0.192140005
v -0.034353421 0.017245959 0.175696214
v -0.021019402 0.046506338 0.173675117
v -0.007665525 0.056296547 0.188970484
v -0.009389671 0.044023877 0.157009201
v -0.009527989 0.048394846 0.162863271
v -0.013127287 0.052715370 0.174981170
v -0.016174956 0.049584928 0.171675935
v -0.010295649 0.052415614 0.169961191
v -0.031402654 0.035751998 0.178986188
v -0.024830868 0.047454149 0.199532611
v -0.033424392 0.032892968 0.182021832
v -0.023045460 0.047581562 0.195291910
v 0.027704114 0.059099902 0.200078209
v -0.017509752 0.050293824 0.177172161
v -0.007745578 0.041354622 0.151393942
v -0.011821998 0.054186939 0.179923491
v -0.017085988 0.051003488 0.181932347
v -0.013337173 0.053206232 0.186775166
v 0.000282305 0.059287182 0.188015652
v -0.020098797 0.049718417 0.195836268
v 0.040839571 0.048170957 0.194730883
v 0.041579644 0.046170723 0.186922883
v 0.044189672 0.044144926 0.192385485
v 0.012567548 0.041020489 0.147662836
v 0.011750455 0.038827889 0.142839310
v 0.016150300 0.038827320 0.145409491
v 0.025443240 0.036147660 0.147884635
v 0.020953761 0.037796122 0.146994731
v 0.034290942 0.027501946 0.146336393
v 0.031907052 0.030147292 0.146291910
v 0.045591402 0.041608828 0.176411341
v 0.043194660 0.042163002 0.172123794
v 0.045335610 0.039555120 0.171623003
v 0.017125854 0.042954598 0.152460942
v 0.023637551 0.045218763 0.158295962
v 0.019143216 0.048007203 0.160096563
v 0.036916465 0.051427985 0.194279917
v 0.037355739 0.049831407 0.189105014
v 0.043891141 0.044118230 0.182061489
v 0.040994887 0.046654729 0.182323202
v 0.041815578 0.041212345 0.168536825
v 0.043930177 0.036639176 0.166312361
v 0.024631088 0.040615430 0.153117344
v 0.033608884 0.053024703 0.192058520
v 0.030148159 0.056341714 0.196197129
v 0.039812558 0.047390363 0.178516863
v 0.036555839 0.049734973 0.181216655
v 0.033730756 0.050844532 0.178163396
v 0.037203481 0.042808149 0.165164996
v 0.034710954 0.039537766 0.159157464
v 0.039216011 0.037861021 0.161885333
v 0.046012957 0.041609122 0.187107313
v 0.038616127 0.051883437 0.199867216
v 0.037950365 0.053072072 0.203728243
v 0.038354021 0.048632939 0.183711007
v 0.047177832 0.041567781 0.196079681
v 0.050128703 0.039253175 0.201174251
v 0.028780880 0.054978041 0.190512894
v 0.035552494 0.046351553 0.168432461
v 0.036453704 0.048118581 0.173344640
v 0.031053095 0.049575892 0.170245389
v 0.044641154 0.045973285 0.198904706
v 0.028830791 0.032670976 0.146077960
v 0.029853394 0.037450843 0.152941142
v 0.033648770 0.051612756 0.185611500
v 0.046062668 0.031059958 0.164811323
v 0.047724216 0.035060545 0.170755430
v 0.029115634 0.058577550 0.202906836
v 0.034599881 0.033051884 0.152587648
v 0.035268570 0.054685179 0.203212769
v 0.034558596 0.054339647 0.197687021
v 0.031503035 0.056933873 0.201234790
v 0.040927432 0.031553818 0.158336509
v 0.027473303 0.053856386 0.183662989
v 0.027648497 0.052669661 0.176131874
v 0.017737406 0.051827808 0.165969309
v 0.024001270 0.052077413 0.170295117
v 0.018446882 0.053727844 0.170838990
v 0.011868684 0.049324386 0.159632321
v 0.009441376 0.043768403 0.151368972
v 0.008768868 0.058791978 0.188347147
v 0.040218235 0.044851183 0.171819380
v 0.037187447 0.029278977 0.152045336
v 0.015041733 0.057685130 0.187878170
v 0.009102975 0.058272477 0.183066519
v 0.015888397 0.056400763 0.179899661
v 0.030501560 0.044302186 0.161179580
v 0.024855701 0.048916378 0.164374931
v 0.021189198 0.055695511 0.184292248
v 0.022567478 0.056426552 0.189421261
v 0.020837691 0.054308532 0.175049506
v 0.013304136 0.055719511 0.173266967
v 0.005334861 0.058714730 0.185423360
v 0.003921817 0.058818182 0.181048646
v 0.022991520 0.054615227 0.179654755
v 0.007977889 0.057804011 0.177636861
v 0.052496111 0.032600075 0.196985626
v 0.055060217 0.026636873 0.198805461
v 0.056422992 0.021809879 0.199564424
v 0.010204443 0.054271668 0.167771789
v 0.014592380 0.054195368 0.169695066
v 0.005743533 0.052168504 0.163228024
v 0.007923434 0.040335874 0.145183406
v 0.004056830 0.042288300 0.148401536
v 0.003522740 0.039442586 0.142823572
v 0.000337903 0.040355276 0.145190775
v 0.047568956 0.025200003 0.163267507
v 0.050144183 0.023751037 0.167148716
v 0.050091232 0.028801523 0.170068684
v 0.035557729 0.022671153 0.142870828
v 0.038134334 0.019716935 0.145656743
v 0.038497114 0.024852794 0.150451914
v 0.040696991 0.012427653 0.148001105
v 0.040620047 0.016228863 0.148830509
v 0.038960385 0.013297241 0.143253194
v 0.048423047 0.019941613 0.162376623
v 0.004185231 0.047147724 0.155901963
v 0.043536909 0.026145428 0.157894240
v 0.044350115 0.020529759 0.156382421
v 0.040940201 0.021109856 0.151613356
v 0.046304896 0.041376259 0.191364586
v -0.004274308 0.057778902 0.184893164
v -0.007161278 0.056457192 0.184919710
v 0.002733796 0.059225651 0.184993679
v -0.000321723 0.043676905 0.151360650
v -0.001021080 0.047966763 0.158016541
v -0.004455145 0.051855741 0.164747777
v -0.000935179 0.055249580 0.169272234
v -0.004976425 0.055761646 0.172610778
v -0.000556859 0.058945547 0.182021541
v -0.003826743 0.040347638 0.146974881
v -0.009573278 0.055430315 0.184218032
v -0.007811925 0.056196417 0.182257107
v -0.005032796 0.045115437 0.155617263
v 0.006686571 0.056776468 0.172875072
v 0.000993189 0.057977443 0.175568047
v 0.003502239 0.055488512 0.169025427
v -0.005456102 0.056980364 0.178668110
v -0.009300550 0.054882929 0.175502987
v 0.001034033 0.052358588 0.163821445
v 0.044547251 0.014685439 0.155466551
v 0.049763741 0.015830026 0.163931736
v 0.041862416 0.009182954 0.151238307
v 0.044872256 0.006514368 0.157880394
v 0.047123014 0.011008857 0.160054315
v 0.056251954 0.016967637 0.183707667
v 0.055833867 0.016515486 0.178559136
v 0.056490047 0.013330250 0.182845671
v 0.055556810 0.010066057 0.198504971
v 0.055232057 0.010092535 0.193121306
v 0.054340252 0.006411521 0.195514831
v 0.055709180 0.019731581 0.194397791
v 0.055600915 0.017987511 0.190074069
v 0.055806318 0.015415653 0.193955423
v 0.056100797 0.013438277 0.189404324
v 0.055466145 0.020367432 0.181202108
v 0.055493142 0.020954247 0.185438977
v 0.057640385 0.013973566 0.203709062
v 0.056506254 0.008044091 0.203861432
v 0.055933469 0.013336493 0.197619250
v 0.055929748 0.005611003 0.179017896
v 0.056206122 0.006022662 0.181957928
v 0.056640011 0.009040218 0.182342990
v 0.056563497 0.017359633 0.198870649
v 0.048808778 0.008192499 0.163770762
v 0.052180116 0.011560342 0.168313627
v 0.055791178 0.005347206 0.185312110
v 0.054816097 0.006224461 0.199204823
v 0.055988674 0.008930768 0.187645742
v 0.056418157 0.011527149 0.185872581
v 0.054207887 0.002970657 0.202673450
v 0.055816010 0.016487326 0.187403914
v 0.055467062 0.013028680 0.174952072
v 0.053639945 0.017335040 0.171652013
v 0.054419465 0.026498003 0.185643696
v 0.054848883 0.022718558 0.189938643
v 0.054639035 0.025505552 0.180604853
v 0.054432246 0.021939554 0.176491029
v 0.055087831 0.023671198 0.194425340
v 0.056250613 0.014091212 0.185779819
v 0.054820340 0.008618587 0.174052561
v 0.054826837 0.005132508 0.190506490
v 0.056565953 0.012339815 0.179381096
v 0.052380659 0.023375756 0.171717347
v 0.056282510 0.009882116 0.177949150
v 0.051052501 0.019860858 0.167330304
v 0.051768392 0.006872802 0.169167752
v 0.040737670 0.004120916 0.151465783
v 0.038002990 0.015779251 0.142466129
v 0.047835544 0.037694935 0.174219704
v 0.053728875 0.003541137 0.197342831
v 0.052452051 -0.000412321 0.199691102
v 0.053033699 0.003301403 0.193954781
v 0.052504856 0.001864506 0.193570094
v 0.051974736 0.000333459 0.195253137
v 0.047162855 -0.002883439 0.168449414
v 0.042964726 -0.006160611 0.165139229
v 0.044841479 -0.008486649 0.170120291
v 0.045817096 0.000316833 0.163598302
v 0.050318773 0.002378723 0.169298118
v 0.047802112 0.004414103 0.163824712
v 0.054873306 0.001597564 0.181388910
v 0.053884340 0.000599820 0.178106750
v 0.053014570 -0.002432042 0.181663186
v 0.050025104 -0.007185854 0.181354100
v 0.051362419 -0.005217142 0.184686221
v 0.038694259 -0.001017371 0.152173224
v 0.040958604 -0.003911963 0.159693989
v 0.043175098 0.001789848 0.158053682
v 0.052674423 0.001404263 0.191819816
v 0.051265151 -0.004378260 0.178464126
v 0.055479087 0.003827556 0.182707536
v 0.052872524 0.027514901 0.175440909
v 0.050622519 0.033294919 0.175138113
v 0.053872075 0.027292031 0.191342539
v 0.050735803 0.035571840 0.182311383
v 0.051673240 0.033507013 0.185234728
v 0.049291679 0.036938732 0.186244846
v 0.052766062 0.030565576 0.178330389
v 0.053171615 0.030938200 0.182380122
v 0.049759858 0.037023971 0.194963138
v 0.048064419 0.038770700 0.190872627
v 0.050817339 0.033969380 0.189891266
v 0.047636759 0.039819697 0.182197834
v 0.049079366 0.037812496 0.179449099
v 0.049047291 0.037169456 0.176834942
v 0.051238834 0.034361092 0.179046419
v 0.052269024 0.030899414 0.190628291
v 0.052976448 0.030283315 0.186961668
v 0.051718338 -0.000237416 0.173798698
v 0.053537708 0.004100315 0.174252841
v 0.049519264 -0.004711657 0.174305388
v 0.051935619 -0.001840832 0.176862597
v 0.053691575 0.000110102 0.186225568
v 0.051013698 -0.001960229 0.191875833
v 0.054195873 0.005687160 0.196994840
v 0.051752799 -0.001631071 0.203950765
v -0.007196905 -0.016622808 0.153970068
v -0.004380904 -0.019336769 0.158677307
v -0.002638243 -0.018333024 0.152894093
v -0.004497693 -0.029362409 0.190051650
v -0.002064912 -0.029967385 0.188155352
v -0.003734154 -0.029131934 0.185455989
v -0.015563985 -0.017455606 0.169908851
v -0.021011243 -0.015267397 0.177353768
v -0.015727146 -0.020667931 0.178957196
v 0.000240673 -0.018559247 0.149015724
v -0.003936856 -0.016459170 0.143717458
v -0.003575369 -0.017114313 0.148994542
v -0.034269003 0.004008628 0.183277119
v -0.030733680 -0.004182723 0.187619015
v -0.032651951 -0.000512697 0.180389337
v 0.035857891 -0.021424824 0.190951212
v 0.039784030 -0.017836142 0.191697016
v 0.039769611 -0.019114332 0.186748975
v 0.000310018 -0.030865623 0.190198647
v 0.004139371 -0.031022883 0.186017183
v 0.000121902 -0.030432455 0.185919816
v -0.017905771 -0.009852039 0.155722532
v -0.019751415 -0.009853364 0.160581320
v -0.016895601 -0.012722465 0.161474579
v 0.046433019 -0.011009565 0.177092738
v -0.002703111 -0.029512033 0.194818096
v -0.014633720 -0.012604788 0.155637066
v -0.013880732 -0.011150205 0.148723974
v -0.009054732 -0.013857584 0.144137704
v -0.006378419 -0.015586219 0.147538039
v -0.021497260 -0.010688984 0.166408397
v 0.039918780 -0.016587402 0.196229596
v 0.041060565 -0.015521570 0.194826257
v 0.038872083 -0.017531872 0.195370960
v -0.010859247 -0.023561575 0.177377056
v -0.006229043 -0.023871606 0.172431953
v -0.008617493 -0.019765277 0.165177796
v -0.032030052 -0.003196630 0.198039976
v -0.018358687 -0.007957991 0.150453901
v -0.000018805 -0.020236753 0.156994605
v -0.010089156 -0.025077142 0.200759748
v -0.012770849 -0.024248333 0.198229363
v -0.012796442 -0.024089327 0.200448487
v -0.008787314 -0.027169311 0.186074467
v -0.005502172 -0.026831096 0.179606625
v -0.003291276 -0.022026593 0.165061155
v 0.032665574 -0.021794425 0.201817106
v 0.033827290 -0.020969894 0.199498622
v 0.030824636 -0.023118492 0.199054209
v -0.035981643 0.003356703 0.197851278
v -0.037695670 0.008178298 0.195710534
v -0.024272856 -0.014027074 0.197995230
v 0.044441715 -0.012428287 0.175553833
v 0.043873969 -0.012907226 0.175660713
v 0.047683573 -0.010636208 0.181459008
v 0.048135965 -0.009965375 0.184744948
v -0.026085722 -0.011219107 0.187253803
v -0.022503608 -0.016137178 0.191241164
v -0.021096612 -0.017363125 0.186267614
v 0.045304469 -0.013560521 0.182405791
v 0.049478978 -0.005055104 0.192885704
v 0.049447524 -0.006412597 0.189220413
v 0.048032081 -0.007451966 0.193209878
v -0.012911904 -0.023576505 0.203616018
v 0.050909265 -0.002698807 0.198154752
v 0.049702577 -0.003616990 0.195605008
v 0.046365234 -0.009846258 0.192346832
v 0.046651395 -0.008614694 0.195414832
v 0.046052325 -0.011762984 0.188882272
v 0.043191690 -0.014575288 0.190889691
v 0.045084671 -0.012496515 0.191440141
v 0.044979407 -0.013884091 0.185942431
v 0.042390787 -0.013275299 0.198877302
v 0.039571517 -0.016280557 0.198706533
v -0.028194723 -0.008613832 0.194884402
v 0.042709371 -0.013156339 0.172955378
v 0.042233285 -0.015276972 0.176853762
v 0.048090658 -0.006466643 0.196018183
v 0.049032029 -0.005636137 0.200025203
v 0.028666993 -0.012259983 0.149472573
v 0.027087463 -0.012448716 0.145071175
v 0.026455446 -0.014070265 0.149382002
v 0.042862004 -0.016038583 0.184826913
v -0.023858431 -0.013213243 0.182129249
v 0.043771432 -0.014446618 0.188308916
v 0.041691594 -0.016262801 0.188601558
v 0.045764484 -0.009332954 0.200482675
v 0.044649074 -0.010505740 0.195959644
v -0.012539572 -0.015606343 0.160254299
v 0.038825932 0.005329494 0.144869750
v 0.036841376 0.001094641 0.142969317
v 0.038199891 0.001747251 0.147615320
v 0.042723490 -0.015946182 0.186736091
v -0.036672262 0.006573933 0.190539564
v -0.037761369 0.009467128 0.191439498
v -0.026916662 -0.008335379 0.177173016
v -0.030696152 -0.001410172 0.173546570
v -0.030111342 -0.004768807 0.181522538
v -0.011580449 -0.013960206 0.153209096
v 0.000299788 -0.028745086 0.179817874
v -0.009635982 -0.014041869 0.149031388
v -0.005747512 -0.027431287 0.198044601
v -0.008620464 -0.027202419 0.193344053
v -0.008430854 -0.026518145 0.197767597
v 0.039002957 0.010086758 0.142719953
v 0.041323664 -0.014195308 0.202526155
v 0.038872839 -0.016710647 0.173609998
v -0.032467169 0.002566093 0.174289908
v 0.040924402 -0.011715498 0.168299989
v 0.036828925 -0.015306717 0.167563067
v -0.024442494 -0.009732539 0.172002719
v -0.026884596 -0.004943423 0.167623449
v 0.040861901 -0.015059515 0.201139789
v 0.036537171 -0.019965267 0.194499290
v 0.043892353 -0.012670268 0.194097785
v 0.028738107 -0.025671663 0.194961306
v 0.032935892 -0.022774002 0.195098782
v 0.035054036 -0.006375310 0.152034783
v 0.030565619 -0.009312741 0.146880108
v 0.031639408 -0.012204461 0.155685743
v 0.050648949 -0.003298243 0.201086429
v -0.015518120 -0.022317692 0.199797063
v 0.035622341 -0.019244478 0.202198900
v 0.036595269 -0.018886023 0.198440735
v 0.036103514 -0.001944735 0.147071145
v 0.047469606 -0.007373134 0.203860336
v 0.031512160 -0.022242793 0.203864072
v 0.028914965 -0.024053514 0.202370903
v 0.035030789 -0.020579927 0.196671195
v 0.037631150 -0.017996268 0.202061738
v -0.016362313 -0.022446316 0.188843159
v -0.017417034 -0.020487714 0.183661877
v 0.023776848 -0.014263859 0.143682842
v -0.013817562 -0.024123453 0.194085854
v -0.012428991 -0.025345685 0.189565632
v 0.029579426 -0.018031350 0.162206332
v -0.019106672 -0.019942727 0.194345899
v -0.010784728 -0.025452796 0.196706281
v 0.026395769 -0.016113594 0.154794675
v 0.041764602 -0.017127165 0.182602909
v 0.027437611 -0.025777921 0.198503278
v 0.026033964 -0.025460490 0.201889842
v 0.038462124 -0.019927680 0.182605713
v 0.036514132 -0.021327477 0.184840793
v 0.034525078 -0.022301826 0.182324305
v 0.043294817 -0.015362477 0.179754642
v 0.040078882 -0.017720130 0.179750783
v 0.032742743 -0.019511033 0.169200304
v 0.036600880 -0.020513377 0.179532391
v 0.033499813 -0.023712692 0.185426517
v 0.029181290 -0.023749546 0.175110052
v 0.030234728 -0.023915444 0.177910766
v 0.033648724 -0.021376687 0.175149728
v 0.033232947 -0.022729342 0.179259267
v 0.038381907 -0.018587742 0.176799280
v 0.036101600 -0.018569122 0.172384849
v 0.037112661 -0.019031762 0.174852869
v 0.027643116 -0.022477954 0.169245162
v 0.035357433 -0.022438762 0.187658737
v 0.033676220 -0.005285028 0.145514120
v 0.035015155 -0.002577124 0.142829712
v 0.039163439 -0.009627795 0.163322173
v -0.006144050 -0.026311956 0.203150263
v -0.007396085 -0.026313564 0.199991257
v 0.036462038 -0.008395319 0.157548152
v 0.002726400 -0.030304759 0.183411044
v -0.036963712 0.010126960 0.186782904
v -0.013724500 -0.023852675 0.184531597
v -0.001654430 -0.025501950 0.172170453
v 0.031791396 -0.025016334 0.187749337
v 0.032432174 -0.023889838 0.190224991
v 0.010841339 -0.019565632 0.150883177
v 0.007690277 -0.019270207 0.145102857
v 0.007171384 -0.019776879 0.150552112
v 0.011537941 -0.028756624 0.201834936
v 0.007906700 -0.028161206 0.203661200
v 0.030587354 -0.025025752 0.192022837
v 0.029879917 -0.025860220 0.189744219
v 0.026304097 -0.027807886 0.190213678
v 0.024818210 -0.027613742 0.194752797
v 0.013223366 -0.031167833 0.193242424
v 0.016088433 -0.031090676 0.192473675
v 0.015382087 -0.031441852 0.189156171
v 0.001533867 -0.022874216 0.164060670
v 0.005949828 -0.031386928 0.191661388
v 0.004277135 -0.030165257 0.196722006
v 0.007103052 -0.030550949 0.196386041
v 0.017231181 -0.029270896 0.198993958
v 0.015984951 -0.029383799 0.199588683
v 0.016869283 -0.028709690 0.200957609
v 0.013715814 -0.020865602 0.157094828
v 0.017826475 -0.021249290 0.159590352
v 0.017354227 -0.019796187 0.155673537
v 0.000640465 -0.029158617 0.198808811
v 0.003492315 -0.028904273 0.200213335
v 0.031323463 -0.024438047 0.183531127
v 0.030776367 -0.024644023 0.180683878
v 0.030203107 -0.025530739 0.185527754
v 0.026518780 -0.027479744 0.185235764
v 0.028271277 -0.026748279 0.187761865
v 0.004044704 -0.021355707 0.158497695
v 0.001854223 -0.030562723 0.194342961
v 0.018737024 -0.029577521 0.182360516
v 0.022052883 -0.028994625 0.183171281
v 0.019416077 -0.027867597 0.176936514
v 0.032756116 -0.023315544 0.192069376
v 0.021608125 -0.018986498 0.156806211
v 0.022881369 -0.015963947 0.148915604
v 0.025609425 -0.026293654 0.177492582
v 0.005734344 -0.022989628 0.162786636
v 0.008301044 -0.020963212 0.156599191
v 0.015625501 -0.018604838 0.150363094
v 0.018643993 -0.017052001 0.146846912
v 0.024161114 -0.028269458 0.185069651
v 0.023872099 -0.028905998 0.186638637
v 0.025820398 -0.028207036 0.186876483
v 0.004853286 -0.026513179 0.171374413
v 0.010623926 -0.024064491 0.164705891
v 0.018923564 -0.030658776 0.188096128
v 0.016988606 -0.030540678 0.184893457
v -0.000227393 -0.027564427 0.203388998
v 0.014852565 -0.028748828 0.200951062
v 0.022016350 -0.028327112 0.197493596
v 0.024693978 -0.026978607 0.198726050
v 0.004116732 -0.020010308 0.152854277
v 0.009731332 -0.030941721 0.194514622
v 0.009063728 -0.029793785 0.198943560
v 0.012268278 -0.030071423 0.197783606
v 0.011717804 -0.029902010 0.179148550
v 0.008884012 -0.031189987 0.185318719
v 0.013513038 -0.031009651 0.184681233
v 0.014487700 -0.017951897 0.142990698
v 0.011484728 -0.018834858 0.145694527
v 0.027864907 -0.026134805 0.182817009
v 0.006280284 -0.029754786 0.179663287
v 0.019747571 -0.030112759 0.185350918
v 0.022188777 -0.029702999 0.187788171
v 0.017857187 -0.027719751 0.203532282
v 0.020282646 -0.029975969 0.190629310
v 0.021402941 -0.029390776 0.193723707
v 0.023016349 -0.029205149 0.191373560
v 0.019585001 -0.028056355 0.200515985
v 0.022965368 -0.026981581 0.201490999
v 0.001682190 -0.028443816 0.201721685
v 0.014937309 -0.027105780 0.172353624
v 0.015959334 -0.029817977 0.180107532
v 0.004796937 -0.028294195 0.202759511
v 0.006059822 -0.029495444 0.199814981
v 0.020380565 -0.024357095 0.168031105
v -0.002873862 -0.027188853 0.203644676
v 0.015654156 -0.023316147 0.163810543
v 0.011164063 -0.031564014 0.189733462
v 0.004249241 -0.019275389 0.147079795
v 0.003007967 -0.028056245 0.202974051
v 0.025014249 -0.027503019 0.182832430
v 0.018265184 -0.030370536 0.193308197
v 0.017856179 -0.030945539 0.190518805
v -0.001189203 -0.027928071 0.201164030
v -0.002766499 -0.028108952 0.199727635
v 0.020848880 -0.015615367 0.143235045
v 0.018890123 -0.029595007 0.196648241
v 0.021052908 -0.026930803 0.204046705
v 0.015659758 -0.030118415 0.196532870
v 0.009906415 -0.027646002 0.173208658
f 44 574 376
f 44 71 70
f 44 71 73
f 132 129 233
f 180 100 264
f 234 129 50
f 234 312 50
f 234 129 233
f 14 44 574
f 14 312 50
f 14 312 574
f 14 44 70
f 14 63 50
f 562 574 376
f 137 132 129
f 256 417 403
f 43 63 50
f 85 14 70
f 439 312 574
f 190 417 264
f 544 45 323
f 544 180 264
f 544 45 180
f 415 338 376
f 475 562 376
f 475 338 376
f 475 338 562
f 364 44 376
f 141 117 142
f 108 117 142
f 108 265 142
f 108 265 106
f 108 107 106
f 246 234 312
f 246 281 312
f 241 256 417
f 19 45 180
f 205 43 50
f 205 43 63
f 205 213 63
f 91 14 63
f 128 121 129
f 128 137 129
f 341 45 323
f 321 341 45
f 35 180 36
f 493 495 564
f 550 501 574
f 550 487 501
f 488 550 487
f 488 562 574
f 488 550 574
f 539 487 501
f 539 488 487
f 217 190 417
f 217 241 249
f 217 241 417
f 485 565 323
f 485 544 323
f 473 544 264
f 473 417 264
f 473 417 403
f 473 305 403
f 542 495 564
f 412 565 323
f 412 357 323
f 506 338 562
f 506 514 338
f 506 562 556
f 350 364 44
f 407 44 73
f 407 479 73
f 174 132 233
f 174 173 132
f 259 288 249
f 184 141 142
f 184 141 182
f 184 259 288
f 185 141 117
f 185 100 264
f 185 182 264
f 185 141 182
f 116 108 117
f 116 108 107
f 368 281 312
f 395 384 330
f 248 241 249
f 248 241 256
f 248 260 256
f 237 234 233
f 238 237 233
f 306 256 403
f 306 305 403
f 21 19 45
f 18 180 36
f 18 19 180
f 18 6 36
f 18 19 49
f 18 6 49
f 34 479 73
f 34 479 30
f 5 83 80
f 5 35 36
f 5 35 80
f 5 83 82
f 5 6 36
f 5 6 82
f 208 213 63
f 208 91 63
f 208 91 213
f 214 91 213
f 114 137 106
f 114 128 137
f 114 121 106
f 114 128 121
f 146 121 129
f 146 88 121
f 143 129 50
f 171 169 50
f 181 35 180
f 202 83 80
f 202 35 80
f 320 321 45
f 347 321 341
f 347 341 323
f 347 357 323
f 347 357 356
f 494 569 495
f 494 493 495
f 494 493 501
f 540 493 501
f 540 539 501
f 560 539 488
f 560 506 556
f 560 506 514
f 438 368 312
f 438 368 384
f 438 439 312
f 438 418 439
f 191 217 190
f 191 182 264
f 191 190 264
f 572 473 544
f 572 521 544
f 307 473 273
f 307 473 305
f 307 273 337
f 307 286 337
f 388 473 273
f 388 273 337
f 388 473 393
f 388 389 337
f 331 514 338
f 558 485 544
f 478 485 565
f 478 412 565
f 478 485 547
f 480 347 356
f 480 347 321
f 480 447 356
f 480 447 443
f 444 443 371
f 444 320 371
f 444 320 321
f 444 480 321
f 444 480 443
f 449 443 371
f 362 327 44
f 362 350 44
f 362 350 327
f 406 327 44
f 406 407 44
f 406 407 327
f 27 424 45
f 221 174 233
f 183 184 182
f 183 184 259
f 183 191 182
f 183 259 249
f 300 302 132
f 300 137 132
f 300 137 106
f 295 173 132
f 295 302 132
f 289 265 142
f 289 184 142
f 289 184 288
f 157 116 107
f 157 121 106
f 157 107 106
f 124 157 134
f 124 157 116
f 367 368 384
f 367 368 281
f 258 248 222
f 258 248 260
f 258 238 260
f 258 221 233
f 258 238 233
f 236 238 260
f 236 238 237
f 236 260 256
f 236 306 256
f 48 19 49
f 48 21 19
f 72 71 73
f 72 34 73
f 56 54 55
f 56 85 70
f 56 54 70
f 81 214 91
f 81 83 82
f 81 214 83
f 147 146 129
f 147 146 88
f 147 143 129
f 147 143 88
f 57 143 50
f 57 143 88
f 57 171 50
f 211 171 169
f 211 169 50
f 211 205 50
f 211 205 213
f 175 154 151
f 206 181 35
f 206 202 35
f 206 202 181
f 215 181 180
f 215 202 181
f 420 407 479
f 420 407 327
f 423 424 45
f 423 320 45
f 559 566 556
f 559 566 488
f 559 560 556
f 559 560 488
f 533 488 562
f 533 566 488
f 533 562 556
f 533 566 556
f 498 560 514
f 499 560 539
f 499 540 539
f 499 498 560
f 499 493 538
f 499 540 493
f 499 498 514
f 453 536 553
f 458 389 337
f 458 367 337
f 549 553 569
f 573 494 501
f 573 555 574
f 573 501 574
f 442 418 439
f 442 359 439
f 442 471 330
f 442 359 471
f 445 473 393
f 445 572 473
f 332 542 564
f 332 542 547
f 332 478 547
f 543 542 495
f 517 521 544
f 517 558 544
f 517 558 521
f 318 357 356
f 318 412 357
f 446 447 415
f 446 447 443
f 446 449 443
f 410 350 327
f 410 369 350
f 370 369 371
f 370 369 364
f 370 449 371
f 370 449 364
f 387 350 364
f 387 369 364
f 387 369 350
f 33 27 29
f 33 21 30
f 33 21 45
f 33 27 45
f 33 479 30
f 33 420 479
f 253 248 222
f 253 288 249
f 253 248 249
f 261 183 249
f 261 183 191
f 261 217 249
f 261 191 217
f 301 300 302
f 301 289 265
f 301 289 302
f 301 265 106
f 301 300 106
f 294 295 302
f 294 289 288
f 294 289 302
f 123 88 121
f 162 124 134
f 126 124 116
f 126 185 105
f 126 185 117
f 126 116 117
f 280 286 337
f 280 367 337
f 280 367 281
f 277 236 237
f 277 237 234
f 278 306 305
f 278 236 306
f 278 277 236
f 278 307 305
f 278 307 286
f 84 54 69
f 84 54 55
f 84 10 69
f 22 34 23
f 22 72 34
f 22 72 71
f 22 10 23
f 22 9 71
f 22 10 9
f 77 56 55
f 77 55 49
f 77 6 82
f 77 6 49
f 204 202 83
f 204 214 83
f 204 214 213
f 204 211 213
f 177 175 212
f 177 175 154
f 177 215 180
f 177 215 212
f 177 180 100
f 177 154 100
f 210 211 171
f 210 211 212
f 210 175 212
f 11 10 9
f 11 71 70
f 11 9 71
f 11 10 69
f 11 54 70
f 11 54 69
f 428 489 439
f 428 453 439
f 440 453 439
f 440 439 574
f 440 555 574
f 440 555 536
f 440 453 536
f 372 367 384
f 372 458 367
f 372 395 384
f 452 395 330
f 452 372 395
f 452 372 458
f 528 549 553
f 531 569 495
f 531 549 569
f 552 553 569
f 552 536 553
f 568 494 569
f 568 573 494
f 568 552 569
f 568 552 573
f 425 442 330
f 425 442 418
f 425 384 330
f 425 438 384
f 425 438 418
f 497 332 564
f 497 332 331
f 497 331 514
f 497 493 564
f 497 493 538
f 497 499 538
f 497 499 514
f 541 543 558
f 541 485 547
f 541 558 485
f 541 542 547
f 541 543 542
f 316 318 356
f 316 447 356
f 316 447 415
f 316 415 338
f 316 331 338
f 333 478 412
f 333 318 412
f 333 332 331
f 333 332 478
f 434 446 449
f 434 364 376
f 434 449 364
f 408 423 424
f 408 423 320
f 408 410 369
f 409 420 327
f 409 33 420
f 409 408 424
f 409 33 29
f 409 410 327
f 409 408 410
f 409 27 29
f 409 27 424
f 252 253 222
f 252 294 295
f 252 253 288
f 252 294 288
f 252 258 222
f 252 258 221
f 252 221 174
f 252 174 173
f 252 295 173
f 135 157 121
f 135 123 121
f 135 157 134
f 135 136 134
f 135 123 136
f 167 57 88
f 167 57 171
f 167 210 171
f 150 123 88
f 150 123 136
f 163 136 134
f 163 162 134
f 103 162 102
f 138 162 102
f 138 185 100
f 138 185 105
f 138 103 100
f 138 103 102
f 279 280 286
f 279 278 286
f 279 278 277
f 279 280 281
f 279 246 281
f 279 246 234
f 279 277 234
f 15 48 21
f 15 84 21
f 15 48 49
f 15 55 49
f 15 84 55
f 16 21 30
f 16 84 21
f 16 84 23
f 16 34 30
f 16 34 23
f 86 10 23
f 86 84 23
f 86 84 10
f 89 77 56
f 89 81 82
f 89 77 82
f 89 81 91
f 89 91 14
f 89 85 14
f 89 56 85
f 203 204 202
f 203 215 212
f 203 215 202
f 203 211 212
f 203 204 211
f 491 528 553
f 491 428 490
f 491 453 553
f 491 428 453
f 482 491 490
f 482 491 528
f 482 428 490
f 482 428 489
f 482 489 439
f 482 359 439
f 482 359 471
f 527 528 549
f 509 528 521
f 509 465 466
f 509 482 528
f 548 531 549
f 455 452 330
f 455 471 330
f 455 458 467
f 455 452 458
f 455 461 466
f 455 509 466
f 535 573 555
f 535 552 573
f 535 555 536
f 535 552 536
f 469 455 467
f 469 455 461
f 469 461 466
f 469 465 466
f 469 445 393
f 469 388 393
f 469 388 389
f 469 458 389
f 469 458 467
f 470 572 521
f 470 445 572
f 317 316 318
f 317 333 318
f 317 316 331
f 317 333 331
f 355 434 376
f 355 434 446
f 355 415 376
f 355 446 415
f 396 369 371
f 396 408 369
f 396 320 371
f 396 408 320
f 176 210 175
f 176 167 210
f 176 167 153
f 176 175 151
f 176 153 151
f 166 150 88
f 166 167 88
f 166 167 153
f 152 150 136
f 152 153 151
f 152 166 153
f 152 166 150
f 152 163 151
f 152 163 136
f 111 163 151
f 111 154 100
f 111 154 151
f 110 163 162
f 110 111 100
f 110 111 163
f 101 103 100
f 101 103 162
f 101 110 100
f 101 110 162
f 125 162 124
f 125 138 162
f 125 138 105
f 125 126 105
f 125 126 124
f 463 509 521
f 463 509 465
f 463 470 521
f 463 470 465
f 516 527 549
f 516 548 549
f 516 528 521
f 516 527 528
f 516 558 521
f 516 548 558
f 532 531 495
f 532 548 531
f 532 543 495
f 532 543 558
f 532 548 558
f 462 509 482
f 462 455 509
f 462 482 471
f 462 455 471
f 460 469 445
f 460 469 465
f 460 470 445
f 460 470 465
