o collision_band_hull_00
v 0.026267528 0.050324789 0.013334114
v 0.022137420 0.052400996 0.019304493
v 0.020655011 0.052119261 0.013986193
v 0.003796137 0.051127900 0.000140148
v 0.003758638 0.051316739 0.004608900
v -0.000671524 0.050604726 0.004633376
v 0.002164257 0.050866760 0.000175197
v 0.010485596 0.053347967 0.014722953
v 0.016998997 0.053333254 0.017710680
v 0.014286780 0.053698831 0.020287519
v -0.050404595 0.028520388 0.026993093
v -0.049888955 0.025906878 0.032660428
v -0.053978468 0.024342075 0.028425400
v -0.051448787 -0.010654485 0.051196858
v -0.051479853 -0.019243758 0.049679476
v -0.058785584 -0.020748815 0.037264440
v -0.058279435 -0.017206705 0.039376922
v -0.055763830 -0.021294533 0.042574461
v -0.042674456 -0.034014872 0.054685593
v -0.045563563 -0.029749405 0.053902053
v -0.047789267 -0.043374388 0.038101353
v -0.051635613 -0.037927351 0.038150215
v -0.047153661 -0.041158851 0.042263565
v 0.017356662 0.050275261 0.000007320
v 0.012815688 0.051313334 0.003153612
v 0.013163467 0.050962395 0.000026197
v -0.055850232 -0.014814906 0.043819934
v 0.017829575 0.053143594 0.024252445
v -0.051102655 -0.004663130 0.051676039
v -0.048934047 -0.002481151 0.055488517
v -0.065390896 0.001502512 0.003646835
v -0.064592875 0.002298663 0.010671255
v -0.065599778 -0.002466243 0.003857581
v -0.040887943 0.036990903 0.019608986
v -0.044000074 0.034203199 0.012779499
v -0.036020305 0.039533805 0.014821052
v 0.007111739 0.051780798 0.006287528
v 0.003405569 0.051863935 0.010429098
v 0.020725527 0.050675194 0.006774394
v -0.022939442 0.038333733 0.047353082
v -0.015661147 0.041877640 0.047162574
v -0.013020960 0.041582504 0.055464671
v 0.025072152 0.049140893 0.006106026
v 0.005664163 0.047019034 0.047825187
v 0.006463328 0.045652497 0.055231119
v 0.002554600 0.046021790 0.052064864
v -0.033490643 0.041588572 0.020728477
v -0.037580620 0.038968820 0.023882307
v -0.031256501 0.041118579 0.009564354
v -0.027704973 0.044239327 0.016428533
v -0.044978618 -0.034960802 0.050749924
v -0.040757084 -0.039264006 0.051504090
v -0.046005172 -0.038227111 0.046893293
v -0.055746096 -0.031026700 0.036916504
v -0.052287706 -0.031645047 0.043054318
v -0.052778737 -0.033723576 0.040026564
v -0.054707888 -0.035432629 0.032970372
v -0.052248248 -0.040294318 0.030776628
v -0.055535401 -0.036114892 0.026811365
v -0.049550060 0.029651148 0.012421008
v -0.048412905 0.029887868 0.007506209
v -0.030711816 0.041442413 0.001099520
v -0.032741286 0.040242055 0.003332661
v -0.032940811 0.040334706 0.001186757
v -0.015984740 0.046692732 0.033440843
v -0.008361980 0.046831190 0.040152336
v -0.014762885 0.043987751 0.041406331
v -0.064325167 0.005668387 0.003414541
v -0.064120154 0.006542062 0.003366066
v -0.063994573 0.006818329 0.003783478
v -0.061918291 0.012454206 0.003027373
v -0.061791012 0.012686145 0.003766080
v -0.063950266 0.007000434 0.003339817
v -0.061680131 0.012920842 0.002999798
v -0.060017434 0.015989344 0.002817205
v -0.060006207 0.016006815 0.002897427
v -0.059977842 0.016049182 0.002813550
v -0.057698134 0.020239069 0.006136378
v -0.056961885 0.020825027 0.002523756
v -0.054718751 0.023360123 0.002361522
v -0.053135696 0.025413862 0.006074214
v -0.040593144 0.035277798 0.001551975
v -0.038490434 0.036447815 0.005933400
v -0.044791165 0.032376805 0.004721947
v -0.044160926 0.032932022 0.001721627
v -0.053152875 0.025114299 0.002249083
v -0.047168334 0.030359645 0.001895821
v -0.064048806 0.006753101 0.003354071
v -0.047470688 0.032212285 0.018410996
v -0.058286150 0.018952446 0.002639238
v -0.050726943 0.027386315 0.002098244
v -0.063380563 -0.016052855 0.015787724
v -0.063298558 -0.012677596 0.023874023
v -0.062713789 -0.017960206 0.023665081
v -0.044007903 0.034435027 0.025210301
v 0.004607410 0.053377096 0.021196283
v 0.004838362 0.052939593 0.016022615
v -0.057971497 -0.031241462 0.028244185
v -0.065095509 -0.011429183 0.004320748
v -0.064596755 -0.009279925 0.009516937
v -0.064016691 -0.016725635 0.004584224
v -0.007823407 0.043534209 0.055636397
v -0.019822575 0.041439436 0.042173130
v 0.009644160 0.046074242 0.051138769
v 0.011302028 0.047371706 0.044408372
v -0.057734872 -0.033206380 0.020039328
v -0.059428429 -0.030044292 0.011223018
v -0.061130808 -0.025117401 0.020818643
v -0.042434602 -0.043053131 0.045597494
v -0.037427183 0.037627842 0.001387359
v -0.020020158 0.043098961 0.037702280
v -0.060771352 -0.016846245 0.034075905
v -0.061618961 -0.020647296 0.028691120
v -0.062540561 -0.014517345 0.029078134
v -0.057805073 -0.024744347 0.037303001
v -0.059444669 -0.026081984 0.031018001
v -0.059907714 -0.022049892 0.033809835
v 0.016454720 0.052519269 0.011781229
v -0.052382268 0.011791579 0.042504305
v -0.048739796 0.010177264 0.048855152
v -0.051051001 0.005797817 0.047981845
v -0.048933151 0.029042605 0.001987952
v -0.048329467 -0.028034661 0.051094328
v -0.051536354 -0.026084497 0.047339138
v -0.048036400 -0.024213608 0.053381864
v -0.064380279 -0.001600040 0.016947238
v -0.064937017 -0.003593606 0.008573290
v -0.065599999 -0.003366023 0.003904743
v -0.065404743 -0.006982118 0.004091715
v -0.025029405 0.040377861 0.038248123
v -0.023534320 0.043211128 0.033537098
v -0.063266762 0.004176089 0.020122187
v -0.062638805 0.001553103 0.026759897
v -0.026508168 0.042908582 0.004733486
v -0.021181362 0.045179028 0.006155926
v -0.024077632 0.044672418 0.010332847
v -0.022073064 0.045038376 0.000797960
v -0.028426293 0.042494104 0.001014479
v -0.012160972 0.048112070 0.000507104
v -0.009050937 0.048762385 0.006135168
v -0.016069275 0.046789536 0.004341049
v -0.013950897 0.047585361 0.000558142
v -0.061741724 -0.023787261 0.007393302
v 0.011452477 0.051114669 0.000040614
v 0.007866392 0.051151734 0.000085616
v -0.021485158 0.045297295 0.000776693
v -0.048054943 0.016027844 0.045325575
v -0.046645203 0.020918732 0.041990716
v -0.044259019 0.020163939 0.047373222
v -0.056813312 -0.008345713 0.042845545
v -0.054358642 -0.002870340 0.046028092
v -0.046200900 0.013493997 0.050595657
v -0.046764812 0.009601520 0.053702063
v -0.043464151 0.027116504 0.039141377
v -0.045179519 0.024137845 0.040274545
v -0.048309331 0.022953808 0.037559139
v -0.057413536 0.021333995 0.015841144
v -0.054711555 0.024572851 0.023119355
v -0.057800449 0.019777384 0.023801898
v -0.060134250 0.016766192 0.010447910
v -0.057579302 0.018400753 0.028260704
v -0.057899221 0.015658191 0.031229089
v -0.060090662 0.014362919 0.025674867
v -0.056322906 0.021606285 0.027192699
v 0.014417075 0.045094863 0.051088017
v -0.008900099 0.050146343 0.029416457
v -0.008405948 0.048993548 0.033951969
v -0.011638139 0.048918324 0.031307682
v 0.008182598 0.051025290 0.034868805
v 0.002127671 0.050717137 0.035073415
v 0.007668420 0.052864802 0.028863667
v -0.051093096 0.017902981 0.039249282
v 0.017781095 0.045719521 0.043787671
v -0.054777222 -0.026862203 0.041897314
v -0.052977148 0.026784367 0.015920400
v -0.050582215 0.029305466 0.022064087
v -0.062664707 -0.004566918 0.029450041
v -0.060713453 -0.001257673 0.034750284
v -0.061573176 -0.009138744 0.033360807
v -0.065371956 -0.007716133 0.004129757
v -0.000443315 0.047364747 0.044212048
v -0.001638408 0.045380509 0.052291991
v -0.063979266 -0.017028522 0.004599609
v -0.059459729 -0.006511656 0.038032868
v -0.058124829 -0.003126697 0.040263690
v -0.055926570 0.008674422 0.039889055
v -0.055882782 0.015060997 0.036128301
v -0.052643591 0.020638449 0.035253612
v -0.051219563 0.000113728 0.049722763
v -0.049163504 0.001733350 0.053336210
v -0.055575087 0.023462595 0.011005019
v -0.043305922 0.030775829 0.034492644
v -0.045871204 0.031006563 0.030246992
v -0.059640592 0.008431062 0.033039134
v -0.061819478 0.008097600 0.025935037
v -0.054264754 0.003893853 0.044266625
v -0.057517304 0.002590576 0.040017627
v -0.045710412 0.016699312 0.048668645
v -0.062594369 0.009555425 0.018184578
v -0.059884660 0.016978596 0.018949366
v -0.061112100 0.013609336 0.019880334
v -0.058929969 -0.032296317 0.005333730
v -0.059507956 -0.030878559 0.005266988
v -0.060310156 -0.028798187 0.005825084
v -0.013526432 0.048984695 0.028588710
v -0.051755979 -0.034959621 0.041270746
v -0.049767722 -0.036191512 0.043357001
v -0.020483450 0.047547442 0.020041138
v -0.016132247 0.048582137 0.016812533
v -0.011964903 0.050102961 0.023113984
v -0.008078170 0.044492503 0.048958543
v -0.021291806 0.046671109 0.014987292
v -0.016197125 0.047408564 0.010361593
v -0.034310595 0.039535356 0.001246584
v -0.055824140 0.020545905 0.031338083
v -0.005533434 0.051378404 0.026702764
v -0.003544135 0.052074938 0.021772748
v -0.061761640 0.013104567 0.013121001
v 0.018632030 0.050096372 0.000000000
v -0.044037043 0.016878083 0.052367270
v -0.000212818 0.052195381 0.016105285
v -0.008716160 0.050279889 0.015135167
v -0.002519232 0.050713907 0.010442753
v -0.019170339 0.047556823 0.026103791
v -0.048721648 -0.032104356 0.048195247
v -0.003609145 0.050803874 0.031842683
v 0.000646234 0.052345558 0.027943002
v -0.059185142 -0.012307190 0.038657954
v -0.031853587 0.041949772 0.025657485
v -0.026479468 0.045194138 0.022971705
v -0.024724814 0.044527820 0.028635101
v -0.063072598 -0.009322986 0.027842270
v -0.039080246 0.035178639 0.032169796
v -0.060387853 -0.028803536 0.005169750
v -0.030788227 0.040032377 0.031730389
v -0.063729974 -0.007065788 0.021851518
v 0.004780139 0.051241968 0.000121288
v -0.053400353 0.007487781 0.043640925
v -0.003256454 0.049032787 0.037390548
v 0.023537883 0.048748934 0.000006401
v 0.024035096 0.048522669 0.000011751
v 0.029394878 0.046531929 0.002571097
v 0.028544598 0.046684579 0.000049057
v 0.023368816 0.048804677 0.000005693
v -0.063799415 -0.017623969 0.004628464
v -0.006211864 0.049608108 0.000350815
v -0.003418194 0.050204163 0.000283004
v 0.011557038 0.049709225 0.037744361
v 0.006340192 0.048964095 0.040954903
v -0.062139457 -0.023606597 0.004920297
v -0.061450611 -0.025577690 0.005014589
v -0.056239334 -0.036439555 0.011083056
v -0.058666501 -0.032817105 0.005357577
v -0.049845949 -0.041851903 0.035731274
v -0.020893279 0.045476234 0.000759567
v -0.047956389 0.005658190 0.053577522
v 0.011376875 0.053796049 0.023182401
v 0.015154585 0.048032039 0.039935518
v 0.016791637 0.052068681 0.029749740
v 0.013469740 0.053033483 0.027490203
v 0.026055395 0.050969807 0.020376958
v 0.017542394 0.049819235 0.034681989
v 0.012476139 0.051766154 0.032161506
v -0.038419920 0.031882140 0.039016176
v -0.037692695 0.028429699 0.046369999
v -0.038129540 0.024443024 0.054338235
v -0.040805940 0.023708305 0.048991285
v -0.036972555 0.038381111 0.027557386
v -0.041427506 0.020655445 0.053658795
v -0.031573995 0.036042312 0.039893437
v -0.030827732 0.033211513 0.048612102
v -0.024716948 0.035702184 0.053903047
v -0.042876384 0.024290001 0.043888433
v -0.034622700 0.032461551 0.043402536
v 0.022636095 0.050431137 0.030086415
v 0.023617416 0.047392806 0.035491193
v 0.041633925 0.038249840 0.031877853
v 0.037348764 0.041489829 0.031997248
v 0.038904583 0.042131503 0.027312202
v 0.045758787 0.035414478 0.030154231
v 0.045438269 0.032855551 0.034498336
v 0.044265947 0.026682312 0.043332512
v 0.044262028 0.029911351 0.039487021
v 0.047583127 0.025062141 0.039959472
v 0.024703598 0.043928008 0.040790897
v 0.028752453 0.043901690 0.036936581
v 0.037985135 0.038583749 0.035945777
v 0.033681645 0.042662462 0.034812064
v 0.057055780 0.018633259 0.003916627
v 0.057715328 0.018423533 0.008091741
v 0.054599919 0.023545793 0.005646154
v 0.019420217 0.047177189 0.038910092
v 0.027207160 0.040561937 0.045459220
v 0.032237136 0.037261143 0.045558356
v 0.029984723 0.037904824 0.048188942
v 0.040569239 0.034769176 0.038356958
v 0.041310025 0.036384113 0.035339032
v 0.033683104 0.038894909 0.040552126
v 0.040159977 0.032144067 0.042723364
v 0.028779145 0.046619480 0.032552171
v 0.030391895 0.037235475 0.052767635
v 0.027000904 0.039523788 0.050676429
v 0.021965003 0.043430958 0.045150215
v 0.023255199 0.041751891 0.049818797
v 0.040899003 0.028948904 0.047286311
v 0.024352269 0.051272597 0.024518132
v 0.028555389 0.049570594 0.023624298
v 0.033788775 0.044966972 0.029998978
v 0.036613346 0.033798206 0.045838809
v 0.033353037 0.035282318 0.049551670
v 0.044735719 0.024277064 0.046803880
v 0.019131131 0.043906689 0.048662063
v 0.056896772 0.021455935 0.011615259
v 0.045945238 0.020750878 0.050876463
v 0.049366889 0.016115966 0.047215580
v 0.048668036 0.015187993 0.051806413
v 0.047240048 0.032971171 0.004301575
v 0.047945107 0.033677983 0.010170663
v 0.042172017 0.038032657 0.005123367
v 0.044328515 0.038191007 0.026863132
v 0.048019674 0.034364942 0.026552352
v 0.025202550 0.040307021 0.055308089
v 0.019888217 0.042821395 0.055536129
v 0.037426197 0.031590813 0.051006232
v 0.047354163 0.020439281 0.046534858
v 0.049963164 0.011094703 0.054292470
v 0.055975032 0.020445113 0.001065243
v 0.055952441 0.020488570 0.001063261
v 0.028665416 0.048573799 0.027689035
v 0.034590358 0.046277590 0.014921990
v 0.033470018 0.047053250 0.023751833
v 0.030047220 0.049221093 0.019387529
v 0.043053423 0.025273684 0.050730904
v 0.028035925 0.038757520 0.054152460
v 0.040450432 0.027998132 0.053154451
v 0.040970347 0.041751347 0.017173892
v 0.044586112 0.038102276 0.013670267
v 0.045135695 0.038431970 0.018699759
v 0.042820694 0.040438641 0.022597414
v 0.047088243 0.036416098 0.022513824
v 0.038418564 0.043883682 0.021333840
v 0.047832104 0.027879307 0.036787174
v 0.057491245 0.017627348 0.001193080
v 0.058497955 0.015357268 0.001298882
v 0.059322223 0.013530714 0.005099061
v 0.052359891 -0.003088366 0.054848615
v 0.053734951 0.027721726 0.014276837
v 0.049345617 0.033904435 0.017239642
v 0.051036569 0.032044931 0.022728883
v 0.039481181 0.041824267 0.011551569
v 0.054530895 0.023143850 0.000942701
v 0.050625805 0.029419536 0.006945186
v 0.050460875 0.028700624 0.000704737
v 0.050549189 0.028575337 0.000710148
v 0.036110043 0.043121549 0.006199413
v 0.052375475 0.003028374 0.051290675
v 0.052906577 -0.000728123 0.051071754
v 0.029874384 0.046106847 0.000061930
v 0.034204943 0.043641939 0.000134431
v 0.032543587 0.044563031 0.000107903
v 0.055601143 -0.000449112 0.043937624
v 0.057480747 -0.007617074 0.041175592
v 0.054577362 -0.005862843 0.046389008
v 0.053367971 -0.003430324 0.049549243
v 0.060150084 -0.005040532 0.037109273
v 0.053208389 0.005897516 0.046914247
v 0.061073116 -0.000745426 0.035026973
v 0.051314398 0.007316299 0.051952531
v 0.037540117 0.041341368 0.000211349
v 0.061520814 0.006874195 0.001703927
v 0.061244690 0.007574382 0.004802964
v 0.060597763 0.009753742 0.001565087
v 0.061702340 0.009245668 0.010063055
v 0.063216873 0.009590742 0.017101930
v 0.060317258 0.015715190 0.013102373
v 0.059385655 0.013205756 0.001400027
v 0.060172522 0.011078036 0.001501245
v 0.050370044 0.028805624 0.000700423
v 0.046575097 0.033435471 0.000507441
v 0.044422400 0.035563247 0.000424100
v 0.041491289 0.038331362 0.000317387
v 0.037595231 0.041296256 0.000212992
v 0.052614441 0.029919712 0.018957037
v 0.049553663 0.018398666 0.043698826
v 0.056067117 0.010498933 0.038831381
v 0.054483889 0.007903147 0.042875915
v 0.052544151 0.013820344 0.042470584
v 0.058018391 0.021338490 0.017114423
v 0.057794937 0.021669391 0.023214737
v 0.055817299 0.025449679 0.019816380
v 0.056988425 0.016160822 0.033866737
v 0.055090035 0.015496246 0.037180454
v 0.054959422 0.020563283 0.033163212
v 0.050992022 0.020031731 0.039794035
v 0.047364532 0.022282385 0.043593136
v 0.051862711 0.011114734 0.046330374
v 0.053402844 0.027138746 0.027233607
v 0.055483886 0.023904519 0.027896439
v 0.051157519 0.027541855 0.031916273
v 0.050119755 0.012990239 0.048745523
v 0.057510976 0.019961490 0.027898390
v 0.058787836 0.016047872 0.030160994
v 0.060993461 0.016062129 0.020579193
v 0.061676803 0.013286099 0.025680994
v 0.059623426 0.017506941 0.025390860
v 0.050907113 0.010553315 0.049870191
v 0.050771878 0.023974975 0.036341269
v 0.055629389 0.005817918 0.041847373
v 0.055693524 0.004554448 0.042084338
v 0.058446862 0.012067319 0.034250380
v 0.050674582 0.031494553 0.026426032
v 0.060275589 0.007769766 0.033442571
v 0.061368135 0.010394518 0.029988781
v 0.056748525 0.006500918 0.039983687
v 0.062871404 0.011210938 0.022116471
v 0.058273136 0.008055163 0.036948089
v 0.051390713 0.029339489 0.028070621
v 0.048996246 0.032034988 0.029600604
v 0.055026603 0.025951567 0.023994967
v 0.058947906 0.003946772 0.037274746
v 0.062711943 0.003893748 0.030639460
v 0.053683910 0.028409279 0.021759123
v 0.052783818 0.028978930 0.025005215
v 0.064052403 0.007389230 0.021334861
v 0.063593530 0.007626252 0.025551899
v 0.054188096 0.027866433 0.018639765
v 0.062412904 0.004032566 0.008547085
v 0.063734770 0.004033855 0.013908537
v 0.054270958 -0.011581434 0.045453102
v 0.051306027 -0.016919625 0.048760889
v 0.052228286 -0.011571093 0.049634562
v 0.061907054 0.004576952 0.001819275
v 0.062200863 0.002335976 0.003573518
v 0.049009829 -0.017118828 0.053627063
v 0.050916712 -0.011802889 0.053142261
v 0.052734843 -0.007454872 0.050969803
v 0.062223291 -0.007190646 0.006815058
v 0.063124265 -0.001894792 0.009960128
v 0.062549170 -0.003286027 0.004618578
v 0.045465664 -0.023151606 0.055026162
v 0.047296509 -0.020207069 0.054620933
v 0.064436462 0.004835160 0.018576108
v 0.058715441 -0.027305383 0.027229614
v 0.057162626 -0.027338102 0.032739600
v 0.060163601 -0.022563205 0.028573120
v 0.044503557 -0.046014752 0.012759511
v 0.040491911 -0.049775406 0.010708094
v 0.040289316 -0.049766850 0.016062748
v 0.050718026 -0.027678272 0.042824394
v 0.046275226 -0.030015135 0.046919507
v 0.049935485 -0.023650016 0.046438858
v 0.053515305 -0.020021758 0.043205135
v 0.021779955 -0.044928413 0.054458061
v 0.001108457 -0.053132414 0.050699294
v 0.004583246 -0.056366740 0.046526930
v -0.003023131 -0.056470094 0.046525908
v 0.027432991 -0.043067303 0.052388567
v 0.031853667 -0.042182468 0.049580633
v 0.036490510 -0.039176837 0.048982039
v 0.034657191 -0.045970770 0.043637671
v 0.065224691 -0.002482810 0.025062978
v 0.065110284 -0.001631781 0.018305121
v 0.065599999 -0.006187021 0.021491734
v 0.056075262 -0.014869455 0.041440013
v 0.047746176 -0.022859613 0.050826906
v -0.010247561 -0.054653194 0.047827323
v -0.005616081 -0.051576612 0.052174521
v 0.042750500 -0.037952206 0.044104313
v 0.045359080 -0.039872983 0.039213851
v 0.041655425 -0.043858193 0.039155082
v 0.053809225 -0.027311532 0.038750839
v 0.057267753 -0.019170790 0.037826871
v 0.048784668 -0.034414517 0.040149885
v 0.060758474 -0.008689422 0.035837068
v 0.062247478 -0.007048581 0.033195086
v 0.028802550 -0.045833649 0.048068619
v 0.017521821 -0.049022619 0.051533347
v 0.023955645 -0.047519845 0.049474164
v 0.027903399 -0.058243038 0.027466844
v 0.031464393 -0.056411234 0.023880707
v 0.026133951 -0.059152960 0.024157659
v 0.044899966 -0.046535899 0.018786072
v 0.058154943 -0.022311660 0.005803383
v 0.057511441 -0.026086319 0.010214972
v 0.060207327 -0.020420918 0.011743029
v 0.056757190 -0.027002440 0.005731740
v 0.027474929 -0.050839355 0.043493333
v 0.052495234 -0.033720730 0.035303824
v 0.057006322 -0.031869100 0.023554165
v 0.058963388 -0.027700011 0.019929184
v 0.057338556 -0.030188182 0.018827609
v 0.057516722 -0.013857112 0.039645433
v 0.020379949 -0.060972262 0.015449521
v 0.015050064 -0.062833632 0.012181346
v 0.014366481 -0.062966177 0.016781977
v 0.041589344 -0.049652090 0.023312789
v 0.043872695 -0.047568664 0.026795531
v 0.046902925 -0.045007122 0.024055235
v 0.047865813 -0.040709617 0.034578650
v -0.006437062 -0.064922225 0.012764140
v -0.007798085 -0.065603498 0.009857397
v -0.009893848 -0.064327445 0.012348084
v -0.009955316 -0.048721090 0.055191736
v -0.015116495 -0.050206880 0.052519099
v -0.007990674 -0.057830290 0.043803822
v -0.013558001 -0.057450099 0.043065720
v 0.064565763 -0.008288403 0.014915361
v 0.059191059 -0.012684181 0.037355519
v 0.061727547 -0.011944399 0.033238984
v 0.059954232 -0.025648949 0.023037569
v 0.061697346 -0.020491692 0.021964565
v 0.060671564 -0.023221144 0.018634966
v 0.021016480 -0.060897919 0.020780067
v 0.027796193 -0.058169618 0.020852926
v 0.056919125 -0.011587232 0.041162613
v 0.055846517 -0.031128231 0.013244719
v 0.055980872 -0.033330707 0.019128391
v 0.037186913 -0.049544024 0.036608021
v 0.042540439 -0.047614861 0.031445088
v 0.015042728 -0.052354248 0.048448841
v 0.008571916 -0.050580227 0.052847325
v -0.009334706 -0.059938430 0.039816950
v -0.003862773 -0.060723048 0.040084522
v -0.009465642 -0.063738562 0.024792572
v -0.017989703 -0.062110459 0.022848653
v -0.014067319 -0.061897114 0.031107504
v 0.008430773 -0.058539407 0.042562749
v 0.008063310 -0.061067448 0.038088327
v 0.004397838 -0.059573181 0.041834723
v -0.009022006 -0.064053099 0.017473666
v 0.005270701 -0.062831259 0.034208899
v 0.004106725 -0.063776211 0.030013629
v -0.001480188 -0.063438153 0.032536995
v 0.033586244 -0.052977714 0.034571138
v 0.032222701 -0.051120196 0.039207096
v 0.061015160 -0.015547565 0.008665926
v 0.059733204 -0.017948734 0.005717739
v -0.019244300 -0.064697902 0.006512457
v -0.019816065 -0.064527891 0.006511031
v -0.020510164 -0.062673187 0.010753995
v -0.016553774 -0.064442223 0.009237752
v 0.060720741 -0.017198625 0.032317160
v 0.012550321 -0.063443444 0.022289300
v 0.065084061 -0.010757479 0.019618067
v 0.065166257 -0.006318947 0.018838615
v 0.053208359 -0.035881450 0.031273314
v -0.017470906 -0.062644132 0.016466130
v 0.004745281 -0.065640893 0.009624602
v -0.000849814 -0.064755152 0.013957218
v 0.007035560 -0.064318244 0.015726879
v 0.001895816 -0.061638501 0.038304284
v 0.000529622 -0.059089429 0.042944627
v 0.062364397 -0.004466197 0.033057536
v 0.036805531 -0.053375214 0.025884398
v 0.036993147 -0.052093567 0.031166242
v 0.039978628 -0.050739918 0.027712831
v 0.020997163 -0.060944707 0.028018451
v 0.013098546 -0.062859881 0.028350255
v 0.014769222 -0.061197920 0.034167677
v 0.036725097 -0.034180897 0.055602661
v 0.032076585 -0.037856538 0.055397225
v 0.020311241 -0.051857893 0.046528141
v 0.058550099 -0.026508605 0.015467993
v 0.062097588 -0.011459059 0.008831111
v 0.061431155 -0.011211957 0.005564948
v 0.061164402 -0.013517642 0.006714609
v 0.049822948 -0.041863705 0.018091018
v 0.047665905 -0.042301565 0.012037286
v -0.017478376 -0.058886561 0.038189735
v -0.011990048 -0.060773940 0.036594165
v 0.049672307 -0.041388380 0.028661153
v -0.028675338 -0.056902418 0.034083070
v -0.028936321 -0.055873497 0.037109297
v -0.023730918 -0.058023513 0.035602162
v 0.056235950 -0.031908750 0.028520150
v 0.053818032 -0.036790933 0.026711648
v 0.064113574 -0.007115201 0.029569615
v 0.009333944 -0.062189045 0.034343531
v 0.063711469 -0.001864050 0.029960769
v 0.051362359 -0.036554305 0.010218648
v 0.050980435 -0.038725386 0.013402351
v 0.053377818 -0.035139827 0.012934883
v 0.028142638 -0.055196460 0.036350600
v 0.021293161 -0.055801153 0.040574965
v 0.043621285 -0.026142574 0.055481889
v 0.062625527 -0.016987804 0.025770355
v 0.027852111 -0.059438276 0.006605087
v 0.024621561 -0.060108813 0.009194973
v 0.029031269 -0.057709959 0.009596718
v 0.062683900 -0.009310079 0.031816742
v 0.047870152 -0.043677899 0.004532174
v 0.046608428 -0.045116161 0.004624074
v 0.046067364 -0.044223803 0.007392591
v -0.026335958 -0.059533736 0.020767309
v -0.021940900 -0.061158565 0.018191187
v -0.026409463 -0.059474550 0.015650026
v 0.045798521 -0.045375797 0.028604247
v 0.046514050 -0.044035842 0.030756633
v 0.014174551 -0.058327048 0.040599723
v 0.032119122 -0.055591971 0.030168227
v 0.063258368 -0.011749357 0.029387521
v 0.053494104 -0.033612367 0.010192790
v 0.054378516 -0.031116219 0.007683257
v -0.000028758 -0.066105173 0.009037582
v 0.041678473 -0.049159383 0.027273655
v 0.051117248 -0.040631268 0.024074394
v -0.001699572 -0.064524169 0.019042739
v 0.001182403 -0.064643510 0.022562876
v 0.004433005 -0.064333720 0.019895532
v 0.026183811 -0.058842095 0.017414335
v 0.031893319 -0.055849728 0.017923580
v 0.029581475 -0.056535962 0.014895269
v 0.056131625 -0.028551050 0.009150808
v 0.063628833 -0.009402913 0.030141777
v 0.064991967 -0.009897957 0.024909834
v 0.049205705 -0.039755585 0.010032271
v 0.060603861 -0.022599104 0.025529780
v 0.044052584 -0.027558652 0.052303297
v 0.032809642 -0.055437270 0.009457019
v 0.033454401 -0.055682478 0.008016377
v 0.032250405 -0.057024957 0.006379206
v 0.036173362 -0.036156569 0.053005602
v -0.012793463 -0.059504360 0.039497441
v 0.064234708 0.000444308 0.027650038
v 0.000569943 -0.050357773 0.054151895
v 0.047551298 -0.041943081 0.008922920
v 0.049018852 -0.041083269 0.006007225
v 0.053998568 -0.036807195 0.021797659
v 0.021979830 -0.058729810 0.034649711
v 0.036928959 -0.052957353 0.020274019
v 0.036440364 -0.053175604 0.015856506
v 0.000583538 -0.064235793 0.026511367
v -0.003616564 -0.064574385 0.022661209
v 0.063240920 -0.013611541 0.012941266
v 0.063573379 -0.010231737 0.011793966
v 0.063854889 -0.014143904 0.021958349
v -0.026155774 -0.055540100 0.040686769
v -0.019453631 -0.059925029 0.033820792
v 0.015488409 -0.063805418 0.008133476
v 0.010734727 -0.065059038 0.008664736
v -0.011911025 -0.065756474 0.008236966
v -0.014394311 -0.063625376 0.012786483
v -0.000214744 -0.066893912 0.006378444
v 0.001736849 -0.066783429 0.006347106
v -0.020260394 -0.055517286 0.044038523
v 0.062968524 -0.016651328 0.018081454
v 0.063023183 -0.017048951 0.022070557
v 0.064853393 0.003145212 0.022632385
v 0.027784384 -0.059889608 0.005644804
v 0.024701107 -0.061403110 0.005764492
v 0.024465977 -0.061387878 0.006074529
v 0.062321965 0.002600036 0.001917458
v 0.053350042 -0.036321285 0.016581229
v -0.015974727 -0.065362003 0.006504463
v -0.016715520 -0.053544055 0.047925060
v 0.018087312 -0.058816297 0.037242417
v 0.036780118 -0.054186610 0.005228136
v 0.037749825 -0.053050850 0.006168198
v 0.037756813 -0.053428145 0.005175598
v 0.043187730 -0.048535514 0.006560700
v 0.064391909 -0.012464689 0.016397490
v -0.022402500 -0.061539777 0.014344704
v 0.037307520 -0.051612517 0.011813308
v 0.006820122 -0.063923158 0.025915742
v 0.052396313 -0.034548858 0.007309897
v 0.056437845 -0.029368360 0.003670022
v 0.057871091 -0.025740929 0.003461138
v 0.008992608 -0.062971131 0.031189862
v 0.026545619 -0.058095016 0.031327545
v -0.003728719 -0.066067625 0.009185042
v 0.020495410 -0.060702718 0.011759905
v -0.022281446 -0.051968818 0.048620296
v -0.019068713 -0.051217196 0.050653811
v 0.034441428 -0.054846751 0.007779455
v 0.050504130 -0.037629319 0.007283266
v 0.010053270 -0.064013503 0.012545613
v 0.063172010 -0.007480417 0.010716554
v 0.033383402 -0.054252708 0.013082185
v 0.052338285 -0.036732062 0.004109636
v 0.051407536 -0.038263854 0.004202105
v -0.014725617 -0.065638118 0.006502583
v 0.012061938 -0.065630805 0.006151531
v 0.009051320 -0.066086174 0.006214809
v 0.025719472 -0.058530110 0.013068536
v -0.026240795 -0.052784681 0.045514011
v 0.052827276 -0.035970710 0.004063331
v -0.027193213 -0.060622214 0.009894093
v 0.060390315 -0.015511582 0.006186297
v 0.060836489 -0.014710180 0.004179025
v 0.034822909 -0.053305188 0.009663000
v 0.030064295 -0.056450485 0.012039173
v 0.043079208 -0.049219744 0.004885352
v 0.038561621 -0.052767402 0.005130431
v 0.044444286 -0.047891478 0.004797865
v 0.054051362 -0.033185555 0.005101473
v 0.053474630 -0.034905709 0.003999037
v 0.055853930 -0.030691994 0.003747040
v 0.055205375 -0.031828878 0.003815117
v 0.011120940 -0.055437858 0.046115426
v 0.062515582 -0.007143125 0.002425585
v 0.062492584 -0.007605015 0.002450095
v 0.062428184 -0.007918421 0.002467364
v 0.061997121 -0.009394251 0.004130804
v -0.023482290 -0.059494747 0.029908700
v -0.001914264 -0.066890209 0.006400498
v 0.017606905 -0.062087344 0.010249084
v 0.059990921 -0.019357155 0.003098799
v 0.061030160 -0.017178935 0.002971030
v 0.058631255 -0.023373909 0.003327126
v 0.059526357 -0.020603768 0.003170219
v 0.061094447 -0.016771722 0.002948845
v 0.061427789 -0.011822105 0.002685061
v 0.061515981 -0.011496273 0.002666829
v 0.062798827 -0.002914922 0.002200267
v -0.026326697 -0.046081061 0.055564578
v -0.022012012 -0.047849483 0.054381483
v -0.027224275 -0.048954600 0.050807813
v 0.040145805 -0.033277278 0.051698318
v 0.032655535 -0.057144603 0.005437165
v 0.061321741 -0.012388757 0.002716149
v 0.016498523 -0.055113734 0.044325071
v 0.062551648 0.000271914 0.002036474
v -0.007146415 -0.063371092 0.029726075
v -0.004373354 -0.064168304 0.026706096
v 0.061253114 -0.014956626 0.002851635
v 0.031292122 -0.057950916 0.005497274
v -0.008521565 -0.066578022 0.006470630
v -0.011412964 -0.066245529 0.006491054
v 0.016393304 -0.064359814 0.006028215
v 0.020095609 -0.062210831 0.007928386
v 0.018456405 -0.063634492 0.005963192
v -0.006755855 -0.066729517 0.006455456
v 0.038819797 -0.042147150 0.043903761
v -0.012452458 -0.066085679 0.006496283
v -0.005670274 -0.066800669 0.006444974
v -0.023328352 -0.063265896 0.006490865
v -0.025215280 -0.062599898 0.006480660
v -0.008089121 -0.062168783 0.034932619
v 0.006494361 -0.066448041 0.006267248
v 0.041695926 -0.029008361 0.054891481
v -0.024153801 -0.059808327 0.024875349
v -0.030243232 -0.057204963 0.025435132
v 0.024074012 -0.061690733 0.005787776
v 0.021101197 -0.062838024 0.005886825
v -0.028315590 -0.061313865 0.006453841
v 0.013650789 -0.065160309 0.006106072
v 0.064359410 0.002771768 0.026162674
v 0.049600272 -0.041261823 0.004382894
v 0.048502642 -0.042838251 0.004479887
v -0.039496044 -0.053439364 0.011226064
v -0.035482138 -0.055907248 0.012311733
v -0.037733835 -0.055249978 0.009006832
v -0.037587941 -0.049177638 0.042361538
v -0.039381472 -0.046285192 0.044481463
v -0.035012002 -0.048436767 0.045594546
v -0.034835554 -0.043377828 0.052727192
v -0.050365124 -0.044331668 0.014119222
v -0.045606586 -0.048739875 0.019033768
v -0.046870514 -0.048089378 0.011562371
v -0.034528947 -0.057934867 0.006358078
v -0.034248514 -0.057935002 0.006822624
v -0.034225953 -0.058113029 0.006363449
v -0.030613378 -0.050182852 0.046813686
v -0.032457953 -0.051656608 0.042953966
v -0.043791242 -0.049173408 0.032314622
v -0.038028196 -0.052413561 0.034585651
v -0.040321422 -0.051986127 0.029907619
v -0.033034479 -0.056433563 0.020758502
v -0.038681315 -0.053384895 0.023544718
v -0.031110139 -0.058006419 0.012394762
v -0.031936560 -0.057112439 0.016707901
v -0.045317708 -0.050416994 0.006105282
v -0.045323496 -0.050314363 0.006397783
v -0.044220866 -0.051267433 0.006135497
v -0.053749749 -0.039716479 0.020650698
v -0.048388218 -0.045787503 0.026447411
v -0.043923459 -0.049829543 0.026291633
v -0.037477009 -0.044890027 0.048310220
v -0.048548010 -0.044184532 0.033535835
v -0.044889306 -0.047026593 0.036337071
v -0.033442509 -0.053158480 0.038767882
v -0.033007053 -0.054739043 0.035276212
v -0.042534239 -0.051463898 0.013497340
v -0.042205398 -0.052193700 0.008963837
v -0.036327111 -0.056774080 0.006320778
v -0.039875494 -0.054599661 0.006253262
v -0.041035432 -0.053811311 0.006227127
v -0.040448037 -0.054219980 0.006240857
v -0.037409904 -0.054509716 0.016395549
v -0.030697317 -0.056529913 0.030514198
v -0.032057302 -0.055662456 0.032912346
v -0.030022157 -0.044893838 0.054979000
v -0.032626746 -0.047043028 0.049673854
v -0.053495319 -0.040554461 0.012580467
v -0.046612007 -0.046628377 0.032459790
v -0.034021701 -0.055438272 0.027834893
v -0.056610980 -0.036912445 0.005545315
v -0.053724755 -0.041259632 0.005735378
v -0.045538961 -0.050204921 0.006097063
v -0.043009821 -0.046113713 0.041268151
v -0.040037290 -0.049879279 0.038401999
v -0.049398061 -0.046554881 0.005956274
v -0.049430832 -0.046378309 0.006406941
v -0.036023363 -0.051171863 0.040595537
v -0.035655403 -0.054145417 0.031040148
v -0.033741511 -0.058382938 0.006371254
v -0.051274722 -0.044262123 0.005860672
v -0.053283185 -0.041896405 0.005762972
v -0.053478254 -0.041647615 0.005752486
v -0.049658726 -0.046246159 0.005943506
v 0.000581622 -0.011017149 0.003439391
f 73 183 128
f 743 73 807
f 743 73 370
f 42 30 102
f 42 266 30
f 31 73 128
f 31 73 69
f 544 507 463
f 544 507 661
f 512 708 661
f 560 323 102
f 560 503 561
f 45 323 102
f 250 183 234
f 180 183 128
f 739 683 643
f 125 14 30
f 734 683 643
f 202 106 797
f 203 73 807
f 203 202 234
f 203 183 234
f 203 73 183
f 203 202 797
f 374 442 370
f 374 442 424
f 209 208 210
f 209 142 139
f 272 42 266
f 224 208 210
f 224 42 102
f 269 215 266
f 269 30 153
f 269 266 30
f 88 73 69
f 33 31 128
f 199 31 69
f 701 507 661
f 615 544 463
f 667 512 666
f 667 512 708
f 647 544 661
f 647 512 661
f 647 615 544
f 519 470 499
f 469 470 499
f 469 560 470
f 146 142 139
f 146 209 142
f 146 209 208
f 229 272 42
f 259 45 323
f 353 241 370
f 322 329 323
f 322 323 346
f 322 326 346
f 715 560 503
f 715 30 19
f 715 792 19
f 715 30 102
f 715 560 102
f 800 23 109
f 108 250 183
f 108 250 234
f 108 106 98
f 108 202 234
f 108 202 106
f 93 180 128
f 704 572 737
f 762 760 767
f 22 54 206
f 53 52 109
f 53 23 109
f 53 52 19
f 53 225 19
f 59 106 797
f 59 106 98
f 808 203 807
f 808 807 802
f 808 810 802
f 707 743 370
f 657 659 554
f 490 512 666
f 648 442 424
f 415 374 424
f 216 226 227
f 182 45 102
f 182 226 102
f 187 269 153
f 187 269 215
f 13 215 266
f 13 12 266
f 13 12 11
f 126 33 31
f 126 33 128
f 218 88 69
f 218 199 69
f 652 442 370
f 462 648 463
f 462 648 442
f 462 652 442
f 462 652 722
f 601 615 614
f 577 615 614
f 577 614 346
f 586 647 615
f 586 601 445
f 586 601 615
f 585 441 346
f 585 323 346
f 585 560 323
f 138 146 208
f 231 224 42
f 231 229 42
f 275 329 323
f 275 259 323
f 275 259 28
f 246 209 139
f 246 144 241
f 246 146 139
f 246 138 146
f 246 241 370
f 246 73 370
f 246 122 73
f 343 353 370
f 343 353 328
f 343 375 344
f 343 375 388
f 351 353 328
f 351 343 388
f 351 343 328
f 369 353 241
f 419 398 389
f 423 419 349
f 423 419 398
f 399 398 418
f 421 326 346
f 335 322 334
f 335 322 326
f 335 314 326
f 335 277 334
f 335 399 418
f 335 399 398
f 308 322 329
f 308 322 334
f 574 572 573
f 801 766 804
f 801 800 780
f 791 766 767
f 782 766 804
f 782 572 573
f 782 791 572
f 782 791 766
f 753 801 804
f 753 801 800
f 644 739 643
f 455 625 521
f 150 228 184
f 150 14 30
f 185 178 184
f 185 150 30
f 185 150 184
f 232 126 177
f 232 93 128
f 99 180 183
f 99 93 180
f 772 799 802
f 788 777 767
f 765 777 767
f 765 777 795
f 765 795 780
f 765 766 767
f 765 801 780
f 765 801 766
f 806 762 767
f 116 54 98
f 116 117 113
f 116 108 98
f 116 108 113
f 57 54 98
f 57 22 54
f 57 59 98
f 57 59 58
f 21 22 23
f 21 800 780
f 21 800 23
f 21 795 780
f 20 225 19
f 20 30 19
f 20 125 30
f 207 225 206
f 207 53 225
f 207 53 23
f 207 22 206
f 207 22 23
f 681 734 526
f 538 704 526
f 538 681 734
f 538 681 526
f 735 734 643
f 775 59 797
f 775 59 58
f 809 203 797
f 809 808 203
f 809 775 797
f 809 775 808
f 591 707 743
f 591 707 696
f 591 657 743
f 711 667 708
f 711 708 661
f 711 701 661
f 697 707 696
f 697 490 666
f 697 667 666
f 697 711 667
f 697 711 707
f 719 657 743
f 719 649 726
f 719 726 554
f 719 657 554
f 443 444 445
f 443 586 445
f 744 557 743
f 650 719 743
f 650 719 649
f 461 648 463
f 461 615 463
f 461 577 615
f 376 377 374
f 376 375 374
f 376 375 344
f 376 343 344
f 403 375 374
f 403 415 374
f 403 375 388
f 404 403 415
f 46 182 45
f 205 224 210
f 205 224 102
f 256 30 153
f 79 122 73
f 32 199 31
f 32 126 31
f 71 88 73
f 71 218 88
f 542 601 614
f 542 444 445
f 542 601 445
f 579 577 346
f 579 421 346
f 579 421 624
f 579 461 624
f 579 461 577
f 518 519 470
f 479 557 743
f 479 650 743
f 479 726 554
f 479 649 726
f 479 650 649
f 453 625 521
f 453 503 561
f 453 625 503
f 471 488 444
f 471 585 441
f 471 585 488
f 740 469 560
f 740 585 560
f 740 585 469
f 473 585 469
f 473 585 488
f 473 469 499
f 473 488 499
f 62 138 110
f 193 272 266
f 193 233 272
f 193 12 11
f 193 12 266
f 193 95 11
f 193 95 233
f 306 275 28
f 306 275 329
f 170 171 227
f 170 171 45
f 170 226 227
f 170 46 45
f 170 182 226
f 170 46 182
f 260 259 45
f 260 171 45
f 260 259 28
f 118 3 219
f 118 3 9
f 8 144 237
f 8 118 9
f 8 118 144
f 26 241 219
f 26 144 241
f 26 118 219
f 26 118 144
f 244 3 219
f 97 8 237
f 97 8 96
f 257 171 227
f 257 96 227
f 257 260 171
f 257 260 28
f 257 8 96
f 217 246 247
f 217 216 210
f 217 209 210
f 217 216 227
f 217 96 227
f 7 247 237
f 7 246 247
f 7 144 237
f 7 246 144
f 85 246 122
f 85 246 138
f 85 138 110
f 85 35 110
f 85 89 122
f 85 35 89
f 347 351 353
f 347 351 388
f 243 369 241
f 379 369 353
f 340 320 339
f 340 338 339
f 411 423 349
f 411 398 418
f 411 423 398
f 280 320 277
f 280 335 418
f 280 335 277
f 280 411 418
f 337 379 380
f 278 277 334
f 278 308 334
f 278 320 277
f 279 320 339
f 279 278 320
f 279 278 308
f 638 704 572
f 638 574 572
f 638 704 526
f 638 738 526
f 623 645 506
f 723 738 526
f 533 723 738
f 764 763 685
f 764 753 804
f 764 753 763
f 717 715 685
f 717 763 685
f 717 715 792
f 717 763 792
f 637 574 573
f 637 645 685
f 637 623 569
f 637 623 645
f 637 638 569
f 637 638 574
f 637 764 685
f 637 764 804
f 716 715 503
f 716 466 503
f 467 625 503
f 745 572 737
f 745 791 572
f 745 806 767
f 745 806 762
f 745 736 737
f 745 743 807
f 745 734 736
f 745 743 683
f 745 734 683
f 781 782 573
f 781 782 804
f 781 637 573
f 781 637 804
f 778 753 792
f 778 753 800
f 778 800 109
f 793 763 792
f 793 753 792
f 793 753 763
f 578 668 531
f 578 528 559
f 578 528 531
f 532 668 531
f 532 533 531
f 532 644 739
f 532 644 643
f 558 557 559
f 558 578 559
f 558 578 668
f 558 682 557
f 558 682 683
f 558 739 683
f 558 532 739
f 558 532 668
f 456 466 503
f 456 467 503
f 456 467 625
f 15 125 14
f 27 17 228
f 27 150 14
f 27 150 228
f 27 15 14
f 133 178 177
f 133 195 178
f 133 126 177
f 194 195 178
f 112 117 16
f 112 117 113
f 112 17 16
f 112 17 228
f 236 126 128
f 236 232 128
f 236 232 126
f 94 99 93
f 94 99 183
f 94 108 183
f 94 108 113
f 786 762 760
f 786 760 767
f 786 788 767
f 787 772 777
f 787 788 777
f 787 772 799
f 787 799 802
f 787 807 802
f 787 745 807
f 787 745 762
f 787 786 762
f 787 786 788
f 779 21 795
f 254 21 22
f 254 57 58
f 254 57 22
f 254 779 58
f 254 779 21
f 123 20 125
f 123 20 225
f 55 225 206
f 55 54 206
f 55 174 54
f 55 123 225
f 115 174 54
f 115 117 16
f 115 116 54
f 115 116 117
f 18 17 16
f 18 115 16
f 18 115 174
f 18 27 17
f 18 27 15
f 18 15 125
f 539 538 704
f 539 736 737
f 539 704 737
f 539 734 736
f 539 538 734
f 727 735 734
f 727 735 732
f 776 808 810
f 776 775 808
f 776 810 802
f 776 775 58
f 776 777 795
f 776 779 58
f 776 779 795
f 776 772 802
f 776 772 777
f 556 497 519
f 556 496 554
f 556 497 496
f 597 497 519
f 597 497 498
f 702 701 700
f 702 711 701
f 692 694 591
f 692 657 659
f 692 659 554
f 692 496 554
f 692 497 496
f 692 497 498
f 692 694 498
f 748 591 696
f 510 647 512
f 510 490 512
f 510 586 647
f 510 443 586
f 729 682 557
f 729 744 557
f 729 744 743
f 372 343 370
f 372 376 343
f 372 376 377
f 372 374 370
f 372 377 374
f 405 398 389
f 405 403 389
f 405 404 403
f 402 405 398
f 402 405 404
f 747 421 624
f 747 461 624
f 747 461 648
f 425 415 424
f 425 404 415
f 425 648 424
f 425 747 648
f 425 747 421
f 166 216 210
f 166 205 210
f 166 216 226
f 166 226 102
f 175 191 86
f 175 157 158
f 175 157 191
f 77 79 73
f 77 79 90
f 77 71 73
f 91 79 86
f 91 79 122
f 80 191 86
f 80 79 86
f 80 79 191
f 132 32 199
f 132 32 126
f 132 195 199
f 132 133 126
f 132 133 195
f 78 79 191
f 78 157 191
f 78 79 90
f 163 195 199
f 163 194 195
f 163 161 215
f 509 614 346
f 509 542 614
f 472 542 444
f 472 471 444
f 472 509 346
f 472 509 542
f 600 479 554
f 487 453 561
f 230 47 229
f 230 224 208
f 230 231 224
f 230 231 229
f 34 35 110
f 34 35 89
f 34 95 89
f 268 95 233
f 268 229 272
f 268 233 272
f 214 62 64
f 214 62 110
f 214 47 64
f 214 34 110
f 214 34 47
f 307 306 329
f 307 261 306
f 307 261 332
f 4 247 237
f 4 97 237
f 4 97 247
f 10 8 9
f 10 257 8
f 10 9 28
f 10 257 28
f 221 217 247
f 221 217 96
f 221 97 247
f 221 97 96
f 222 246 209
f 222 217 209
f 222 217 246
f 359 243 369
f 359 330 369
f 381 379 380
f 381 379 369
f 381 337 380
f 381 330 369
f 348 347 353
f 348 379 353
f 348 337 338
f 348 337 379
f 348 383 349
f 348 340 349
f 348 340 338
f 321 280 320
f 321 280 411
f 321 340 320
f 321 340 349
f 321 411 349
f 570 623 569
f 570 623 738
f 570 638 569
f 570 638 738
f 523 533 738
f 524 734 526
f 524 723 526
f 524 723 734
f 705 735 643
f 705 532 643
f 705 532 533
f 672 715 685
f 672 645 685
f 796 791 767
f 796 745 767
f 796 745 791
f 756 52 109
f 756 778 109
f 756 778 792
f 756 792 19
f 756 52 19
f 454 455 625
f 454 456 625
f 454 456 455
f 197 185 178
f 197 194 178
f 197 185 30
f 197 256 30
f 179 112 228
f 179 228 184
f 179 232 177
f 179 178 177
f 179 178 184
f 114 112 113
f 114 232 93
f 114 179 232
f 114 179 112
f 114 94 113
f 114 94 93
f 124 55 174
f 124 55 123
f 124 123 125
f 124 18 125
f 124 18 174
f 728 723 734
f 728 727 734
f 724 727 732
f 724 533 723
f 724 728 723
f 724 728 727
f 724 735 732
f 724 705 735
f 724 705 533
f 714 711 707
f 714 702 711
f 714 707 370
f 714 652 370
f 714 702 700
f 714 652 722
f 714 701 507
f 714 701 700
f 714 462 722
f 714 507 463
f 714 462 463
f 693 591 657
f 693 692 657
f 693 692 591
f 749 748 591
f 686 748 696
f 628 749 591
f 628 749 748
f 571 597 498
f 575 443 444
f 746 729 743
f 746 729 682
f 746 743 683
f 746 682 683
f 393 402 398
f 393 314 326
f 393 335 398
f 393 335 314
f 413 402 404
f 413 425 421
f 413 425 404
f 413 421 326
f 413 402 326
f 168 205 102
f 168 166 102
f 168 166 205
f 176 175 158
f 176 175 89
f 176 13 11
f 176 13 158
f 176 95 11
f 176 95 89
f 74 77 71
f 160 200 157
f 160 78 157
f 160 78 90
f 160 200 218
f 160 71 218
f 160 74 71
f 60 175 86
f 60 91 86
f 60 175 89
f 60 89 122
f 60 91 122
f 164 161 215
f 164 163 161
f 164 13 215
f 164 13 158
f 201 163 199
f 201 163 200
f 201 218 199
f 201 200 218
f 162 163 215
f 162 163 194
f 162 187 215
f 162 194 187
f 434 471 441
f 434 472 471
f 434 441 346
f 534 600 583
f 669 600 583
f 669 479 557
f 669 600 479
f 555 556 519
f 555 534 600
f 555 556 554
f 555 600 554
f 555 518 519
f 555 534 518
f 535 487 583
f 535 534 583
f 535 534 518
f 50 138 208
f 50 230 208
f 50 62 138
f 50 230 47
f 50 47 64
f 50 62 64
f 48 34 47
f 48 34 95
f 48 47 229
f 48 268 229
f 48 268 95
f 240 243 241
f 240 241 219
f 240 244 219
f 1 261 332
f 1 244 3
f 1 240 244
f 1 240 243
f 1 330 332
f 336 338 339
f 336 337 338
f 336 381 337
f 336 381 330
f 341 330 332
f 341 336 339
f 341 336 330
f 331 308 329
f 331 307 329
f 331 279 308
f 331 307 332
f 331 341 332
f 331 279 339
f 331 341 339
f 390 403 389
f 390 403 388
f 390 419 389
f 522 623 738
f 522 523 738
f 522 623 506
f 522 523 506
f 552 523 456
f 552 455 529
f 552 456 455
f 551 533 531
f 551 523 533
f 551 528 531
f 551 528 529
f 551 552 529
f 551 552 523
f 505 523 506
f 505 523 456
f 505 456 466
f 655 645 506
f 655 505 506
f 655 505 466
f 186 194 187
f 186 197 194
f 186 187 153
f 186 256 153
f 186 197 256
f 517 686 748
f 517 628 748
f 517 686 696
f 517 697 696
f 517 697 490
f 606 571 498
f 606 571 576
f 606 628 576
f 606 694 498
f 606 628 591
f 606 694 591
f 546 571 499
f 546 571 576
f 546 488 499
f 546 575 576
f 546 488 444
f 546 575 444
f 598 519 499
f 598 571 499
f 598 597 519
f 598 571 597
f 391 402 326
f 391 393 326
f 391 393 402
f 75 74 77
f 75 160 74
f 75 77 90
f 75 160 90
f 159 163 200
f 159 164 163
f 159 200 157
f 159 157 158
f 159 164 158
f 435 472 346
f 435 434 346
f 435 434 472
f 460 487 561
f 460 535 487
f 460 535 518
f 460 560 561
f 460 560 470
f 460 518 470
f 629 669 583
f 629 656 559
f 629 557 559
f 629 669 557
f 2 1 3
f 2 1 261
f 2 3 9
f 2 9 28
f 2 306 28
f 2 261 306
f 358 1 243
f 358 1 330
f 358 359 243
f 358 359 330
f 426 383 349
f 426 348 347
f 426 348 383
f 426 347 388
f 426 390 388
f 673 716 715
f 673 672 715
f 673 716 466
f 673 655 466
f 673 672 645
f 673 655 645
f 489 510 490
f 489 517 490
f 489 575 576
f 489 628 576
f 489 517 628
f 489 510 443
f 489 575 443
f 562 487 453
f 477 453 521
f 477 562 453
f 477 562 721
f 584 487 583
f 584 562 487
f 584 562 721
f 584 629 583
f 584 629 656
f 527 455 529
f 527 528 529
f 422 426 349
f 422 426 390
f 422 419 349
f 422 390 419
f 699 455 521
f 699 527 455
f 599 527 528
f 599 528 559
f 599 656 559
f 599 584 656
f 599 584 721
f 599 699 721
f 599 699 527
f 520 477 721
f 520 699 721
f 520 477 521
f 520 699 521
